<?xml version="1.0" encoding="UTF-8"?> <svg xmlns="http://www.w3.org/2000/svg" xmlns:xlink="http://www.w3.org/1999/xlink" xmlns:xodm="http://www.corel.com/coreldraw/odm/2003" xml:space="preserve" width="118.805mm" height="26.5257mm" version="1.1" style="shape-rendering:geometricPrecision; text-rendering:geometricPrecision; image-rendering:optimizeQuality; fill-rule:evenodd; clip-rule:evenodd" viewBox="0 0 6800.17 1518.28"> <defs> <style type="text/css"> .str0 {stroke:black;stroke-width:100.96;stroke-linecap:round;stroke-linejoin:round;stroke-miterlimit:22.9256} .str1 {stroke:black;stroke-width:70.67;stroke-linecap:round;stroke-linejoin:round;stroke-miterlimit:22.9256} .fil0 {fill:#FF99CC} .fil1 {fill:#BCFF57;fill-rule:nonzero} </style> </defs> <g id="Слой_x0020_1"> <metadata id="CorelCorpID_0Corel-Layer"></metadata> <path class="fil0 str0" d="M526.32 50.77c1070.05,12.09 1790.82,34.78 2850.27,9.29 1038.63,-24.99 1639.41,5.8 2834.56,14.37 263.32,1.89 473.9,44.68 502.27,248.42 43.64,313.41 48.12,655.74 12.34,968.23 -13.99,122.31 -112,175.63 -388.21,171.62 -602.6,-8.75 -1022.56,-20.33 -1625.23,-24.6 -1780.79,-12.63 -1189.7,17.66 -2958.08,29.42 -264.61,1.75 -1408.15,-2.18 -1559.43,-93.37 -194.07,-116.97 -143.58,-381.24 -122.16,-638.72 36.88,-443.28 -132.97,-691.3 453.68,-684.67z"></path> <path class="fil1 str1" d="M557.23 769.79c0,-211.92 98.27,-317.89 294.8,-317.89 104.78,0 157.17,36.11 157.17,108.33 0,6.51 -2.37,11.84 -7.1,15.98l-71.93 71.93 -19.54 0 -78.14 -39.07c-2.36,-0.6 -6.81,-0.89 -13.32,-0.89 -65.71,0 -98.56,54.46 -98.56,163.38 0,84.06 34.92,126.09 104.77,126.09 39.07,0 65.42,-4.44 79.03,-13.32 52.69,-35.52 79.92,-53.28 81.7,-53.28 3.55,0 6.81,0.3 9.76,0.89 26.64,46.17 39.96,82.88 39.96,110.1 0,79.33 -60.97,118.99 -182.92,118.99 -197.12,0 -295.69,-97.08 -295.69,-291.25zm797.79 112.77c52.69,0 79.03,-20.12 79.03,-60.38l0 -343.64c0,-18.35 42.03,-27.53 126.09,-27.53 14.8,0 23.68,0.3 26.64,0.89l6.22 6.22c0.59,5.33 0.89,21.31 0.89,47.95 0,74.59 -4.73,166.64 -14.21,276.16 -16.58,190.03 -100.34,285.03 -251.29,285.03 -110.7,0 -179.07,-79.62 -205.12,-238.86 -9.47,-58.01 -14.21,-124.02 -14.21,-198.02 0,-26.64 0.29,-52.98 0.89,-79.03 14.21,-62.16 37.59,-93.24 70.15,-93.24 72.81,0 109.22,14.21 109.22,42.63 0,1.77 -0.3,3.25 -0.89,4.44 -17.76,162.79 -26.64,250.41 -26.64,262.84 0,76.36 31.08,114.55 93.24,114.55zm363.58 -244.19c0,-124.31 78.73,-186.47 236.19,-186.47 96.49,0 144.74,34.93 144.74,104.78 0,17.17 -24.27,47.66 -72.81,91.46 -1.18,0.59 -2.37,0.89 -3.55,0.89 -4.14,0 -9.47,-2.37 -15.99,-7.1 -33.15,-21.91 -52.68,-32.85 -58.61,-32.85 -31.37,0 -47.06,10.95 -47.06,32.85 0,7.69 4.74,14.21 14.21,19.54l130.53 79.03c61.57,36.7 92.35,99.74 92.35,189.13 0,88.2 -84.36,132.31 -253.07,132.31 -150.36,0 -225.54,-35.22 -225.54,-105.67 0,-22.49 28.41,-59.79 85.24,-111.88 2.36,0 4.73,0 7.1,0 4.73,0 13.32,4.44 25.75,13.32 52.68,39.67 94.12,59.49 124.31,59.49 35.52,0 53.28,-13.02 53.28,-39.07 0,-29.01 -17.76,-50.91 -53.28,-65.71 -71.03,-29.6 -110.4,-47.07 -118.09,-52.39 -43.81,-31.38 -65.71,-71.93 -65.71,-121.65zm487.89 -153.62c8.29,-22.49 87.61,-33.74 237.97,-33.74 159.24,0 238.86,23.09 238.86,69.26 0,41.43 -6.81,62.74 -20.42,63.93l-132.31 13.32 -6.22 6.22c-1.18,7.7 -1.77,27.82 -1.77,60.38 0,45.58 0.59,76.07 1.77,91.46 7.1,71.04 11.54,124.02 13.32,158.94 0.59,7.7 0.89,30.78 0.89,69.26 0,23.68 -0.3,47.07 -0.89,70.15 -10.06,4.73 -39.96,7.1 -89.69,7.1 -20.71,0 -41.73,-0.3 -63.04,-0.89 -9.47,-3.55 -15.99,-7.99 -19.54,-13.32 0,-8.88 0,-17.76 0,-26.64 0,-14.21 0,-22.79 0,-25.75 2.96,-75.77 4.44,-200.97 4.44,-375.61 -7.1,-2.36 -15.1,-2.96 -23.98,-1.77 -38.48,7.1 -67.19,11.54 -86.13,13.32 -2.37,0.6 -8.88,0.89 -19.54,0.89 -7.1,0 -13.91,-0.29 -20.42,-0.89 -8.88,-11.84 -13.32,-43.8 -13.32,-95.9 0,-16.58 0,-33.15 0,-49.73zm550.05 282.37c0,-210.15 83.17,-315.23 249.51,-315.23 148.59,0 222.88,105.97 222.88,317.89 0,194.17 -76.36,291.25 -229.09,291.25 -162.2,0 -243.3,-97.97 -243.3,-293.91zm143.85 3.55c0,80.51 30.49,120.77 91.46,120.77 61.57,0 92.35,-39.67 92.35,-118.99 0,-91.76 -37.29,-137.64 -111.88,-137.64 -47.95,0 -71.93,45.29 -71.93,135.85zm449.71 -292.14c-2.37,-18.35 18.65,-27.53 63.04,-27.53 44.99,0 73.11,11.25 84.36,33.74 68.67,137.34 115.44,215.48 140.3,234.42 1.18,0 2.37,0 3.55,0 11.25,0 27.82,-24.57 49.72,-73.71 23.68,-56.83 41.44,-99.15 53.28,-126.98 19.54,-44.99 50.62,-67.48 93.24,-67.48 42.62,0 69.56,4.73 80.8,14.21 35.52,184.11 53.28,375.61 53.28,574.51l0 19.54 -193.57 0 -7.11 -6.22c-0.59,-3.55 -0.89,-10.95 -0.89,-22.2 0,-39.67 11.54,-114.84 34.63,-225.54 0.59,-5.33 0.89,-10.66 0.89,-15.99 0,-20.72 -3.55,-31.08 -10.66,-31.08 -1.18,0 -2.37,0.3 -3.55,0.89 -12.43,10.06 -23.68,21.01 -33.75,32.85 -72.81,91.75 -110.7,138.52 -113.66,140.3 -1.77,0.59 -3.85,0.89 -6.22,0.89 -4.73,0 -53.87,-58.02 -147.4,-174.04 -3.55,-5.33 -7.99,-9.77 -13.32,-13.32 -9.47,20.71 -14.21,59.79 -14.21,117.21 0,25.45 7.1,86.43 21.31,182.92 0,1.18 0,2.66 0,4.44 0,11.25 -32.26,16.87 -96.78,16.87 -60.39,0 -90.57,-2.66 -90.57,-7.99l0 -39.96c33.74,-199.5 51.5,-379.75 53.28,-540.77zm905.23 -1.77c0,-16.58 16.28,-24.86 48.84,-24.86 45.58,0 70.74,4.44 75.48,13.32l196.24 353.41 7.1 6.21c0,-13.02 0,-26.04 0,-39.07 0,-21.32 0,-34.34 0,-39.07 -7.1,-75.77 -11.54,-132.6 -13.32,-170.49 -0.59,-6.51 -0.89,-26.05 -0.89,-58.61 0,-19.54 0.3,-39.07 0.89,-58.61 10.06,-4.73 35.22,-7.1 75.48,-7.1 59.2,0 88.79,8.29 88.79,24.86 0,7.1 -0.3,12.13 -0.89,15.09 -6.51,40.85 -10.66,71.34 -12.43,91.46 -4.73,37.89 -7.1,63.94 -7.1,78.14l0 399.58 -157.17 0 -12.43 -13.32c-23.68,-59.2 -47.65,-118.1 -71.92,-176.71 -20.13,-46.17 -39.96,-76.66 -59.49,-91.46 0,9.47 0,19.24 0,29.3 0,15.98 0,25.75 0,29.3 7.1,58.61 11.54,102.12 13.32,130.53 0.59,5.33 0.89,19.54 0.89,42.63 0,14.21 -0.3,28.41 -0.89,42.62 -18.95,4.73 -51.8,7.1 -98.56,7.1 -17.17,0 -34.63,0 -52.39,0 -8.88,-4.73 -13.32,-20.42 -13.32,-47.06 0,-12.43 0.29,-20.72 0.89,-24.86 4.73,-129.05 7.1,-211.34 7.1,-246.85 0,-43.8 -4.73,-127.27 -14.21,-250.41 0,-2.96 0,-7.99 0,-15.09zm553.6 -5.33c6.51,-13.62 65.11,-20.42 175.82,-20.42 52.09,0 82.58,0.3 91.46,0.89 126.69,4.14 191.21,8.59 193.58,13.32l6.21 13.32 0 126.98c0,17.76 -8.58,26.64 -25.75,26.64 -7.7,0 -12.43,0 -14.21,0 -118.99,-18.35 -185.58,-27.53 -199.79,-27.53 -18.35,0 -36.4,0.3 -54.16,0.89 -8.88,5.92 -13.32,12.43 -13.32,19.54l0 73.7c125.5,8.88 188.25,40.85 188.25,95.9 0,20.72 -0.3,33.44 -0.89,38.18l-7.1 6.22 -173.15 0 0 220.21c0,5.33 -29.01,7.99 -87.02,7.99 -20.12,0 -40.26,-0.3 -60.38,-0.89 -14.8,-2.96 -23.68,-7.4 -26.64,-13.32 0,-16.58 0,-33.15 0,-49.73 0,-28.41 0,-45.28 0,-50.61 5.92,-206.01 8.29,-366.43 7.1,-481.28zm542.05 13.32c8.29,-22.49 87.61,-33.74 237.97,-33.74 159.24,0 238.86,23.09 238.86,69.26 0,41.43 -6.81,62.74 -20.42,63.93l-132.31 13.32 -6.22 6.22c-1.18,7.7 -1.77,27.82 -1.77,60.38 0,45.58 0.59,76.07 1.77,91.46 7.1,71.04 11.54,124.02 13.32,158.94 0.59,7.7 0.89,30.78 0.89,69.26 0,23.68 -0.3,47.07 -0.89,70.15 -10.06,4.73 -39.96,7.1 -89.69,7.1 -20.71,0 -41.73,-0.3 -63.04,-0.89 -9.47,-3.55 -15.99,-7.99 -19.54,-13.32 0,-8.88 0,-17.76 0,-26.64 0,-14.21 0,-22.79 0,-25.75 2.96,-75.77 4.44,-200.97 4.44,-375.61 -7.1,-2.36 -15.1,-2.96 -23.98,-1.77 -38.48,7.1 -67.19,11.54 -86.13,13.32 -2.37,0.6 -8.88,0.89 -19.54,0.89 -7.1,0 -13.91,-0.29 -20.42,-0.89 -8.88,-11.84 -13.32,-43.8 -13.32,-95.9 0,-16.58 0,-33.15 0,-49.73zm523.41 313.45c0,-81.69 53.28,-122.54 159.83,-122.54 64.52,0 96.78,21.91 96.78,65.71 0,10.06 -16.87,29.9 -50.61,59.49 -23.09,-20.72 -39.66,-31.08 -49.73,-31.08 -21.31,0 -31.96,9.18 -31.96,27.53 0,3.55 0.29,6.81 0.89,9.77 107.74,55.05 161.61,111 161.61,167.82 0,58.61 -52.98,87.91 -158.94,87.91 -97.68,0 -146.51,-22.79 -146.51,-68.37 0,-46.76 19.83,-70.15 59.49,-70.15 3.55,0 17.17,6.51 40.85,19.54 15.39,8.88 31.37,13.32 47.95,13.32 30.19,0 45.29,-6.51 45.29,-19.54 0,-1.77 -2.07,-3.85 -6.22,-6.21l-124.32 -62.16c-29.6,-14.8 -44.39,-38.48 -44.39,-71.04z"></path> </g> </svg> 