<?xml version="1.0" encoding="UTF-8"?> <svg xmlns="http://www.w3.org/2000/svg" xmlns:xlink="http://www.w3.org/1999/xlink" xmlns:xodm="http://www.corel.com/coreldraw/odm/2003" xml:space="preserve" width="159.624mm" height="113.428mm" version="1.1" style="shape-rendering:geometricPrecision; text-rendering:geometricPrecision; image-rendering:optimizeQuality; fill-rule:evenodd; clip-rule:evenodd" viewBox="0 0 7426.78 5277.42"> <defs> <style type="text/css"> .str20 {stroke:black;stroke-width:135.92;stroke-linecap:round;stroke-linejoin:round;stroke-miterlimit:22.9256} .str6 {stroke:black;stroke-width:181.23;stroke-linecap:round;stroke-linejoin:round;stroke-miterlimit:22.9256} .str7 {stroke:black;stroke-width:181.23;stroke-linecap:round;stroke-linejoin:round;stroke-miterlimit:22.9256} .str12 {stroke:black;stroke-width:181.23;stroke-linecap:round;stroke-linejoin:round;stroke-miterlimit:22.9256} .str11 {stroke:black;stroke-width:181.23;stroke-linecap:round;stroke-linejoin:round;stroke-miterlimit:22.9256} .str19 {stroke:black;stroke-width:181.23;stroke-linecap:round;stroke-linejoin:round;stroke-miterlimit:22.9256} .str1 {stroke:black;stroke-width:181.23;stroke-linecap:round;stroke-linejoin:round;stroke-miterlimit:22.9256} .str8 {stroke:black;stroke-width:181.23;stroke-linecap:round;stroke-linejoin:round;stroke-miterlimit:22.9256} .str0 {stroke:black;stroke-width:181.23;stroke-linecap:round;stroke-linejoin:round;stroke-miterlimit:22.9256} .str5 {stroke:black;stroke-width:181.23;stroke-linecap:round;stroke-linejoin:round;stroke-miterlimit:22.9256} .str10 {stroke:black;stroke-width:181.23;stroke-linecap:round;stroke-linejoin:round;stroke-miterlimit:22.9256} .str3 {stroke:black;stroke-width:181.23;stroke-linecap:round;stroke-linejoin:round;stroke-miterlimit:22.9256} .str2 {stroke:black;stroke-width:181.23;stroke-linecap:round;stroke-linejoin:round;stroke-miterlimit:22.9256} .str4 {stroke:black;stroke-width:181.23;stroke-linecap:round;stroke-linejoin:round;stroke-miterlimit:22.9256} .str16 {stroke:black;stroke-width:181.23;stroke-linecap:round;stroke-linejoin:round;stroke-miterlimit:22.9256} .str17 {stroke:black;stroke-width:181.23;stroke-linecap:round;stroke-linejoin:round;stroke-miterlimit:22.9256} .str15 {stroke:black;stroke-width:181.23;stroke-linecap:round;stroke-linejoin:round;stroke-miterlimit:22.9256} .str9 {stroke:black;stroke-width:181.23;stroke-linecap:round;stroke-linejoin:round;stroke-miterlimit:22.9256} .str14 {stroke:black;stroke-width:181.23;stroke-linecap:round;stroke-linejoin:round;stroke-miterlimit:22.9256} .str13 {stroke:black;stroke-width:181.23;stroke-linecap:round;stroke-linejoin:round;stroke-miterlimit:22.9256} .str18 {stroke:black;stroke-width:181.23;stroke-linecap:round;stroke-linejoin:round;stroke-miterlimit:22.9256} .fil1 {fill:white} .fil0 {fill:black;fill-rule:nonzero} </style> </defs> <g id="Слой_x0020_1"> <metadata id="CorelCorpID_0Corel-Layer"></metadata> <g id="_105553393895136"> <g> <path class="fil0 str0" d="M3786.65 3109.52l10.93 -56.65c23.49,-119.3 71.27,-361.72 71.6,-583.6 0.37,-234.27 -24.62,-390.24 -39.4,-482.78 -12,-74.84 -18.48,-115.82 4.52,-141.68 19.04,-21.39 95.55,-54.2 169.26,-73.48 60.26,-15.75 122.67,-23.97 157.7,-12.36 79.15,26.27 51.97,277.05 33.62,446.48 -3.01,27.71 -6.39,51.54 -9.23,70.28 61.2,-24.16 119.75,-34.63 172.1,-36.7 110.8,-4.37 197.51,31.17 225.11,54.05 104.62,86.9 91.19,465.44 82.73,703.08 -1.38,39.85 -2.69,75.81 -3.23,103.09 -0.58,29.34 -4.84,57.15 -16.23,79.29 -15.44,29.97 -40.57,48.56 -79.79,48.09l-46.77 -0.31c-111.26,-0.38 -218.09,-0.75 -243.64,-63.05 -13.57,-33.17 -1.16,-114.67 13.74,-212.68 20.78,-136.47 47.01,-308.85 16.89,-369.73 -5.25,-6.29 -20.48,-8.65 -39.02,-8.25 -24.63,0.57 -52.01,7.3 -73.98,18.13l-5.45 2.94 -1.22 29.49c-6.17,151.48 -21.01,514.59 -78.6,553.52 -39.56,26.76 -140.58,28.63 -212.66,16.31 -20.26,-3.46 -38.99,-8.07 -53.97,-13.46 -20.96,-7.54 -37.31,-18.07 -46.44,-31.6l-1.33 -2.1c-6.9,-11.13 -9.43,-23.39 -7.25,-36.32zm94.82 -40.1l-6.06 31.09c9.44,3 21.25,5.69 34.42,7.94 56.03,9.58 129.27,11.74 150.59,-2.65 21.8,-16.33 35.38,-347.66 41.02,-486.09l2.14 -49.82c0.13,-12.07 5.34,-24 15.3,-32.36 10.65,-8.91 23.16,-16.87 36.65,-23.53 32.56,-16.01 73.23,-25.99 110.11,-26.82 42.94,-0.95 83.03,10.53 106.51,38.5 3.57,4.44 6.79,9.04 9.46,13.96l1.74 3.15c41.96,84.79 13.41,272.24 -9.17,420.64 -12.95,85.18 -23.71,156.06 -19.07,167.46 3.83,9.4 82.58,9.71 164.55,9.99l47.62 0.3c1.39,-0.03 2.36,-0.71 2.87,-1.71 4.59,-8.94 6.44,-24.16 6.76,-41.68 0.59,-31.01 1.86,-65.77 3.22,-104.43 7.87,-221.6 20.41,-574.58 -51.82,-634.6 -17.95,-14.88 -80.1,-37.77 -167.35,-34.35 -57.9,2.28 -125.48,17.26 -196.22,55.45 -25.9,13.96 -46.26,7.55 -60.09,-18.36 -10.66,-20.35 -3.81,-83.42 5.03,-165.23 15.39,-141.75 38.11,-351.58 24.62,-356.04 -17.58,-5.82 -62.3,1.82 -109.09,14.04 -60.1,15.73 -117.65,37.01 -126.91,47.42 -3.9,4.39 8.29,22.39 16.14,71.48 15.08,94.34 40.54,253.34 40.15,496.18 -0.34,230.6 -49.14,478.2 -73.13,600.05z"></path> <path class="fil0 str1" d="M5530.43 2685.94c0.63,-91.77 -40.01,-156.28 -101.09,-200.29 -84.21,-60.63 -207.11,-85.48 -319.61,-89.57 -44.7,-1.61 -90.61,32.93 -129.74,80.55 -55.8,67.89 -95.51,159.09 -103.51,219.27 -15.37,115.42 -6.66,229.74 21.57,321.32 25.66,83.15 66.58,145.74 118.51,169.03 73.47,32.93 164.11,41.53 246.8,30.74 82.25,-10.73 154.61,-40.18 190.83,-83.08 19.57,-23.19 46.9,-58.56 60.68,-89.29 3.95,-8.81 6.62,-16.66 7.15,-22.39 -3.16,-0.93 -7.69,-1.59 -13.73,-1.94 -14.16,-0.78 -27.09,-2.81 -40.92,-4.89 -16.84,-2.59 -35.43,-5.45 -58.96,-5.88 -7.58,-0.13 -13.4,-0.02 -17.67,0.4 -28.09,32.73 -69.74,53.47 -111.61,64.94 -60.89,16.68 -127.79,13.01 -153.52,-1.74 -22.97,-13.15 -63.15,-49.72 -86.18,-100.02 -15.84,-34.59 -24.51,-76.22 -16.06,-122.23 7.71,-42.25 125,-35.62 233.61,-29.73 61.61,3.35 119.91,6.51 139.38,6.2 25.94,-0.42 47.93,-0.21 66.6,0 39.53,0.4 60.54,0.66 62.35,-1.23 4.59,-4.78 4.75,-36.22 4.98,-102.92l0.16 -37.24zm-51.25 -269.65c82.6,59.51 137.55,146.5 136.69,270.05l-0.17 36.96c-0.31,90.18 -0.47,132.59 -28.68,162.05 -27.3,28.48 -61.15,28.11 -124.85,27.42 -18.34,-0.19 -39.89,-0.4 -64.59,-0.01 -24.32,0.39 -83.03,-2.8 -145.08,-6.16 -72.48,-3.95 -139.02,-72.99 -144.94,-40.51 -4.86,26.44 0.33,50.83 9.71,71.31 14.7,32.06 37.88,54 50.74,61.36 10.39,5.96 48.06,4.56 88.44,-6.51 29.1,-7.97 56.9,-21.36 71.9,-41.2 9.32,-12.34 21.77,-20.25 40.09,-24.18 10.54,-2.28 23.89,-3.11 41.41,-2.79 29.85,0.58 51.11,3.82 70.37,6.78 11.31,1.72 21.9,3.35 32.85,3.97 20.12,1.13 36.71,5.39 50.11,12.13 29.17,14.68 42.4,38.07 44.28,66.64 1.37,20.9 -4.55,43.51 -14.65,66 -18,40.16 -50.34,82.39 -73.23,109.51 -50.39,59.69 -143.08,99.56 -245.29,112.92 -96.65,12.6 -203.97,1.95 -292.71,-37.84 -75.91,-34.05 -132.73,-115.89 -165.45,-221.98 -31.62,-102.55 -41.49,-229.78 -24.48,-357.47 9.75,-73.16 56.67,-182.5 122.29,-262.29 54.63,-66.47 123.51,-114.53 198.58,-111.82 126.78,4.59 266.93,33.83 366.67,105.66zm-344.48 215.89c25.49,1.63 58.68,3.26 92.05,4 28,0.59 56.15,0.53 79.64,-0.83 -9.24,-6.69 -21.12,-12.96 -33.71,-18.5 -34.26,-15.08 -71.27,-22.75 -89.02,-23.12l-1.82 0.01c-12.29,1.19 -27.73,9.71 -39.08,24.63 -3.11,4.08 -5.85,8.69 -8.05,13.82zm90.25 89.43c-60.85,-1.33 -122.37,-5.72 -141.26,-7.78 -21.12,-1.3 -38.54,-18.08 -40.02,-39.75 -3.16,-43.95 10.24,-80.23 31.04,-107.56 26.36,-34.59 65.68,-54.6 98.86,-57.85l11.89 -0.39c25.69,0.55 76.86,10.57 121.53,30.26 51.85,22.8 97.97,59.43 103.22,113.08l0.48 9.86 -0.39 7.04c-4.13,32.18 -37.06,47.29 -84.22,51.33 -27.37,2.34 -64.17,2.58 -101.13,1.77zm98.7 -67.43c0.48,6.24 0.74,10.42 1.5,5.72 -0.2,-1.93 -0.69,-3.82 -1.5,-5.72z"></path> <path class="fil0 str2" d="M5656.95 3286.87c18.19,-38.49 39.91,-102.38 59.17,-176.74 17.04,-65.84 31.92,-138.98 40.32,-208.95 18.66,-155.1 5.01,-282.46 -3.58,-363.15 -8.04,-75.28 -12.81,-120.69 24.92,-139.86 30.21,-15.35 78.17,-21.06 126.63,-14.75 42,5.45 86.2,19.7 121.26,44.13l4.93 3.97c9.95,8.57 16.47,19.62 21.44,31.17 22.93,-8.37 49.41,-17.4 76.04,-25.05 48.42,-13.9 99.19,-23.71 137.03,-19.03 52.82,6.54 123.27,29.07 177.27,54.88 61.01,29.16 105.42,68.2 101.82,107.29l-0.12 1.18c-2.21,23.7 -7.17,63 -20.45,104.88 -14.24,45.04 -38.02,93.12 -78.02,130.29 -48.02,44.64 -79.72,20.94 -125.74,-13.48 -20,-14.97 -45.04,-33.74 -77.51,-43.16 -56.51,-16.4 -119.2,-27.37 -158.09,-28.48 -0.95,85.82 -4.88,287.23 -12.92,436.48 -6,111.02 -17.98,199.94 -40.3,215.6 -10.45,7.31 -24.73,12.39 -45.49,14.86 -14.35,1.71 -34.35,2.48 -61.96,2.38 -26.73,-0.11 -104.53,-3.94 -164.09,-14.77 -23.81,-4.31 -45.81,-9.98 -62.42,-17.26 -31.71,-13.97 -49.49,-35.12 -45.17,-66.12l1.09 -5.43c0.93,-3.62 2.24,-7.31 3.94,-10.89zm142.79 -155.3c-16.54,63.78 -35.24,121.33 -52.61,163.98 8.03,2.18 17.47,4.2 27.7,6.06 54.57,9.92 124.84,13.44 148.88,13.54 23.3,0.1 40.01,-0.54 51.84,-1.96 5.44,-0.65 4.99,0.97 6.03,0.25 3.53,-2.47 -1.15,-62.38 3.55,-149.46 9.16,-170.32 13,-403.94 13.17,-460.32l-0.18 -3.59c-0.03,-4.73 0.66,-9.28 2.01,-13.93 5.28,-18.02 18.22,-29.58 37.24,-35.48l5 -1.55c9.2,-2.24 21.24,-3.32 35.3,-3.36 45.79,-0.07 122.36,12.5 188.8,31.8 46.81,13.59 79.15,37.8 104.98,57.15 11.82,8.84 10.64,23.61 15.28,19.29 27.24,-25.32 44.09,-60.11 54.59,-93.13 10.97,-34.49 15.07,-67.08 16.9,-86.77l0.09 -1.21c0.24,-2.6 -22.96,-7.09 -52.92,-21.41 -46.84,-22.4 -106.89,-41.81 -150.87,-47.25 -24.21,-3 -63.38,5.19 -102.58,16.44 -41.73,11.99 -82.09,27.17 -107.83,37.31 -20.74,9.2 -45.33,0.68 -55.81,-19.77 -3.88,-7.55 -6.7,-16.11 -9.72,-25.24 -2.41,-7.33 0.72,-11.46 -1.42,-13.96l-0.7 -0.48c-23.1,-16.11 -53.49,-25.67 -83,-29.48 -32.24,-4.18 -61.29,-1.86 -76.65,5.95 -15.16,7.7 17.72,15.5 21.82,54.02 9,84.34 23.25,217.47 3.4,382.47 -8.96,74.57 -24.54,151.49 -42.3,220.11z"></path> <path class="fil0 str3" d="M7245.1 3003.66c17.39,-90.08 -10.78,-160.94 -62.77,-215.33 -71.68,-74.99 -188,-121.85 -297.86,-146.43 -43.47,-9.71 -94.9,15.9 -142.16,55.64 -67.33,56.56 -123.04,138.98 -141.88,196.57 -36.21,110.63 -48.51,224.62 -37.49,319.81 9.99,86.36 38.82,155.32 85.73,187.78 66.36,45.9 153.78,70.99 236.79,75.43 82.89,4.47 159.45,-11.27 203.01,-46.92 23.35,-19.14 56.55,-48.81 75.86,-76.73 5.49,-7.95 9.58,-15.14 11.12,-20.62 -2.91,-1.5 -7.21,-2.98 -13.02,-4.38 -14.64,-3.58 -26.69,-7.79 -39.53,-12.28 -16.09,-5.62 -33.85,-11.82 -56.87,-16.55 -7.46,-1.52 -13.14,-2.51 -17.2,-2.92 -33.57,27.01 -78.46,39.81 -121.87,43.48 -62.84,5.27 -127.92,-10.65 -150.6,-29.94 -20.07,-17.1 -52.79,-60.29 -66.29,-114.06 -9.25,-36.92 -10.23,-79.45 6.51,-123.12 15.18,-39.58 129.45,-12.07 235.15,13.59l1.65 0.43c58.34,14.15 113.29,27.51 134.09,31 21.57,3.61 45.47,8.36 65.65,12.31 38.22,7.53 58.87,11.59 61.42,10.31 5.27,-3.89 11.18,-34.8 23.59,-100.48l6.98 -36.57zm-0.84 -274.4c70.34,73.59 108.47,169.21 85.04,290.52l-6.98 36.34c-16.73,88.44 -24.6,130.05 -57.81,153.91 -32.26,23.07 -65.49,16.56 -127.96,4.26 -16.17,-3.16 -34.95,-6.91 -63.29,-11.66 -22.01,-3.71 -79.32,-17.61 -140.09,-32.35l-1.67 -0.37c-70.49,-17.11 -123.32,-96.57 -134.96,-66.18 -9.62,25.11 -8.97,50.06 -3.51,71.84 8.57,34.13 27.46,59.97 38.83,69.65 9.04,7.7 46.29,13.11 88.16,9.59 29.96,-2.51 59.7,-10.64 78.13,-27.45 11.24,-10.25 24.89,-15.75 43.71,-16.31 11.35,-0.28 24.64,1.25 41.38,4.69 29.29,6.03 49.61,13.11 67.93,19.51 11.23,3.91 21.68,7.56 31.45,9.96 19.04,4.65 34.23,11.57 46.06,20.3l0.95 0.69c26.2,19.78 34.84,45.28 31.56,73.61 -2.46,20.87 -12.49,42.18 -26.53,62.46 -24.86,35.94 -64.54,71.64 -92.13,94.24 -60.32,49.37 -158.67,71.6 -261.54,66.05 -97.64,-5.24 -201.29,-35.33 -281.12,-90.55 -68.34,-47.3 -109.21,-138.18 -121.98,-248.52 -12.36,-106.64 1.2,-233.53 41.26,-356 22.99,-70.24 89.1,-169.22 168.13,-235.62 65.83,-55.34 142.32,-89.93 215.75,-73.53 123.77,27.7 256.25,82 341.23,170.91zm-378.28 149.23c24.95,6.31 57.62,14.06 90.62,20.93 27.7,5.78 55.19,10.84 77.63,13.7 -7.89,-8.3 -18.42,-16.68 -29.82,-24.44 -30.75,-20.96 -65.73,-35.25 -83.14,-38.86l-1.88 -0.42c-12.44,-1.02 -29.2,4.48 -42.99,17 -3.8,3.44 -7.32,7.47 -10.42,12.09zm73.4 104.83c-59.88,-12.45 -120.29,-28.21 -138.58,-33.72 -20.45,-5.16 -34.45,-24.77 -32.05,-46.3 4.93,-43.77 24.77,-77.03 50.28,-100.16 32.25,-29.21 74.52,-41.74 107.62,-38.9l12 1.69c25.11,5.28 73.54,24.53 113.89,52.06 46.75,31.88 85.33,76.29 80.75,129.87 -0.86,6.33 -1.34,10.7 -2.89,16.67 -9.84,31.01 -44.84,39.74 -91.77,35.19 -28.29,-2.74 -64.06,-9.08 -99.25,-16.4zm108.33 -48.43c-0.7,6.3 -1.22,10.49 0.42,5.75 0.17,-1.85 0,-3.77 -0.42,-5.75z"></path> <path class="fil0 str4" d="M1806.5 2436.61c-27.52,33.23 -110.18,141.59 -171.01,230.79 -35.56,52.17 -63.02,95.39 -64.26,105.75 -8.51,70.38 6.62,147.72 39.29,218.39 32.62,70.57 82.63,133.89 143.88,176.46 79.65,55.37 150.25,74.42 214.58,72.03 65.07,-2.46 126.19,-26.92 184.7,-58.07 31.25,-16.77 63.79,-59.82 90.73,-107.85 35.79,-63.81 59.98,-132.36 59.63,-162.23 -0.98,-79.69 -18.73,-154.01 -48.79,-222.59 -33.66,-76.75 -82.81,-146.4 -141.29,-208.61 -3.34,-3.55 -7.37,-7.27 -11.84,-10.97 -35.97,-29.76 -95.25,-53.62 -154.58,-62.25 -54.97,-7.99 -107.71,-2.89 -135.72,23.46l-5.3 5.69zm-242.32 182.24c62.81,-92.08 147.59,-203.28 175.69,-237.24 3.85,-4.62 8.13,-9.19 12.7,-13.49 49.55,-46.66 128.81,-57.68 207.22,-46.28 74.12,10.76 149.78,41.91 197.3,81.23 7,5.78 13.59,11.93 19.64,18.36 65.1,69.2 119.93,147.03 157.68,233.16 34.36,78.39 54.65,163.92 55.79,256.35 0.51,42.48 -28.07,129.63 -70.5,205.24 -34.02,60.66 -78.06,116.55 -125.39,141.8 -68.62,36.48 -141.35,65.16 -222.44,68.21 -81.86,3.05 -169.98,-20.03 -266.71,-87.25 -74.18,-51.55 -134.34,-127.34 -173.19,-211.41 -39,-84.32 -56.85,-177.95 -46.37,-264.68 3.12,-26.04 36.3,-82.05 78.55,-144.01zm411.57 63.96c-21.37,-15.04 -32.34,-0.56 -49.7,22.54 -7.57,10.06 -15.84,21.03 -25.45,32.53l-6.4 7.57c-30.18,35.74 -80.05,94.86 -63.95,122.57 66.55,114.42 105,156.63 129.35,153.59 22.23,-2.76 49.18,-52.36 82.97,-120.62 11.69,-23.63 7.84,-58.33 -2.38,-93.06 -18.31,-61.65 -52.57,-116.78 -64.44,-125.12zm-118.68 -29.4c48.28,-64.19 78.53,-104.33 168.24,-41.25 20.31,14.28 73.98,91.9 97.46,171.24 15.71,53.3 19.9,109.85 -2.91,155.98 -45.78,92.48 -86.1,160.06 -149.59,168 -61.41,7.7 -127.46,-45.76 -214.79,-195.93 -46.68,-80.24 27.72,-168.33 72.75,-221.67l6.09 -7.26c8.28,-9.89 15.82,-19.9 22.74,-29.12z"></path> <path class="fil0 str5" d="M2394.38 2347.05c9.88,45.21 120.45,301.13 222.19,517.42 73.81,156.93 136.64,289.98 137.23,290.05 24.09,3.31 45.31,4.82 64.41,2.87 17.61,-1.81 34.55,-6.72 51.91,-16.16 1.84,-0.99 19.59,-32.95 43.3,-70.56 28.34,-44.93 59.64,-94.5 80.73,-117.65 15.89,-17.49 42.98,-18.77 60.47,-2.88l0.28 0.26c38.69,32.31 71.85,84.26 100.55,129.3 20.89,32.71 20.36,62.08 29.37,61.14 12.93,-1.34 27.9,-2.49 45.1,-3.74 64.69,-4.76 166.17,-12.28 168.32,-16.82 76.92,-161.62 168.35,-437.58 240.78,-656.44l43.25 -130.12c4.61,-13.74 7.03,-23.6 7.41,-30.13 -6.25,-0.83 -19.15,-1.54 -36.33,-2.1 -45.75,-1.5 -112.32,0.45 -169.02,5.4 -37.66,3.28 -63.65,-4.31 -71.75,-2.77 -6.07,69.54 -41.67,285.03 -72.36,419 -7.82,34.21 -15.56,63.88 -22.61,85.39 -14.03,42.78 -35.3,65.18 -65.78,58.76 -3.27,-0.67 -6.38,-1.73 -9.29,-3.07 -3.04,-1.37 -6.01,-3.15 -8.9,-5.34l-2.58 -2.12c-33.37,-28.6 -137.77,-165.53 -171.59,-210.33 -22.08,-2.96 -51.89,-5.52 -77.73,-5.68 -18.28,-0.11 -32.1,-0.05 -32.69,0.34 -0.97,0.67 -13.66,32.12 -28.32,64.94 -20.27,45.44 -40.65,91.06 -61.25,103.42 -25.3,15.24 -46.85,11.19 -62.9,-15.64 -23.86,-39.42 -58.03,-131.18 -87.15,-224.7 -29.67,-95.25 -54.75,-194.05 -58.79,-242.77 -1.06,-12.71 -24.85,18.35 -58.7,18.56 -31.72,0.21 -68.58,2.76 -103.77,7.15 -34,4.26 -64.86,10.08 -85.78,16.92 -1.82,0.58 -11.52,-38.04 -8.03,-21.9zm144.71 553.78c-103.75,-220.59 -217.35,-485.32 -228.37,-535.82 -7.99,-36.78 18.55,-62.04 65.37,-77.3 27.14,-8.86 63.42,-15.95 101.47,-20.72 36.85,-4.61 77.31,-7.31 113.83,-7.52 78.46,-0.49 141.07,17.49 144.63,59.93 3.57,43.05 27.06,134.61 55.02,224.35 15.4,49.5 32.05,97.99 47.3,136.95l4.08 -9.35c19.67,-44.05 39.31,-88.02 58.23,-100.99 16.49,-11.28 47.72,-15.29 81.55,-15.05 37.3,0.25 81.48,4.71 106.7,9.09 11.16,1.47 21.7,7.3 28.88,17.07 0.28,0.41 77.89,104.51 128.4,166.08l10.48 -43.3c32.11,-140.19 69.61,-368.04 71.28,-415.5l0.02 -0.46c0.21,-6.04 1.51,-11.98 3.97,-17.47 12.46,-27.49 73.38,-43.04 145.15,-49.31 58.76,-5.14 129.33,-7.11 179.03,-5.46 32.96,1.09 59.39,4.39 72.01,10.01 25.22,11.39 40.85,29.65 45.74,58.59 3.37,20.43 0.17,45.13 -10.31,76.33l-43.25 129.8c-73.09,220.82 -165.32,499.25 -244.78,666.18 -23.59,49.57 -155.36,59.32 -239.36,65.52l-42.43 3.41c-43.51,4.55 -74.05,-43.23 -110.38,-100.17 -16.58,-26.01 -34.85,-54.63 -53.39,-77.96 -13.74,20.38 -29.4,45.19 -44.19,68.66 -29.87,47.35 -56.92,90.11 -74.96,99.94 -27.94,15.21 -55.35,23.14 -83.99,26.08 -27.23,2.8 -54.65,1.03 -84.55,-3.09 -34.09,-4.66 -118.67,-158.8 -203.19,-338.52z"></path> <path class="fil0 str6" d="M92.45 2234c-5.17,-20.59 0.67,-38.35 15.37,-53.71 14.85,-15.48 41.74,-27.42 74.09,-36.34 26.99,-7.45 59.86,-13.67 92.44,-18.41 82.39,-12.05 171.2,-5.25 181.26,9.14 44.77,63.97 151.44,185.4 265.82,315.59 93.31,106.21 191.77,218.27 267.38,311.42 -35.98,-137.71 -79.93,-318.75 -111.53,-461.56 -33.14,-149.57 -47.36,-267.5 -21.22,-283.08 21.11,-12.62 77.07,-29.32 140.85,-42.96 56.33,-12.06 120.52,-22.47 172.84,-26.12 65.44,-4.61 118.87,3.72 137.35,34.11 3.3,5.35 5.49,10.98 6.76,16.7l0.54 2.93c5.55,28.09 3.35,52.32 0.01,88.27 -5.81,62.83 -15.53,167.41 13.46,404.69 12.89,105.69 58.51,326.32 98.21,518.44 42.18,204.12 78.2,379.05 41.57,397.65 -4.35,2.21 -75.15,20.55 -148.65,37.29 -46.88,10.69 -94.84,21.09 -127.66,27.11l-20.16 3.6c-103.05,19.22 -119.56,22.28 -164.77,-51.99 -54.65,-89.82 -125.24,-200.85 -196.71,-302.19 -43.66,-61.92 -87.28,-119.66 -127.06,-165.55 12.58,38.03 23.33,76.85 34.7,115.27 62.92,210.43 128.96,431.52 69.17,455.37 -44.16,17.62 -116.57,36.7 -186.77,51.23 -72.61,15.01 -144.92,25.51 -183.2,24.91 -69.15,-1.06 -88.87,-169.32 -114.41,-387.31 -9.95,-84.93 -20.91,-178.24 -33.78,-267.92 -36.46,-253.6 -111.72,-501.73 -151.7,-633.61 -11.16,-36.86 -19.66,-64.75 -24.2,-82.95zm112.14 -7.44c-9.41,2.58 -17.46,5.05 -23.53,7.27l17.51 58.45c40.59,133.88 117,385.83 154.45,646.33 13.62,94.91 24.39,186.51 34.16,269.92 20.62,176.06 24.46,311.75 30.5,311.84 31.31,0.49 96.69,-9.37 164.76,-23.45 66.15,-13.71 133.22,-31.21 172.37,-46.82 12.71,-5.07 -67.4,-177.6 -119.39,-351.48l-30.65 -102.59c-22.14,-75.39 -41.87,-142.61 -11.29,-171.39 27.06,-25.55 66.08,-16.23 125.05,46.39 49.79,52.84 105.82,125.62 161.22,204.19 71.71,101.67 143.67,214.93 199.78,307.16 14.51,23.87 23.03,22.27 76,12.39l20.52 -3.96c36.27,-6.63 81.83,-16.46 123.96,-26.06 68.01,-15.49 127.99,-29.66 128.92,-30.12 21.58,-10.96 -51.73,-134.43 -86.82,-304.23 -39.94,-193.29 -85.86,-415.29 -99.29,-525.46 -29.99,-245.63 -19.72,-356.27 -13.58,-422.78 2.23,-24.24 3.86,-41.71 2.35,-56.44 -6.55,0.38 -26.6,5.56 -55.94,7.64 -48.52,3.4 -108.36,13.11 -161.09,24.4 -55.52,11.87 -101.34,24.71 -114.77,32.73 -11.79,7.01 35.63,76.13 61.15,191.33 35.81,161.68 86.61,369.62 123.78,508.05 14.66,54.64 21.23,92.4 19.3,115.66 -0.12,5.42 -1.29,10.92 -3.59,16.21 -25.64,58.4 -63.64,43.64 -118.06,-29.43 -75.59,-101.5 -204.76,-248.51 -325.24,-385.65 -115.98,-132.03 -224.15,-255.17 -271.57,-322.9 -3.4,-4.86 -43.59,18.39 -98.94,26.49 -28.92,4.2 -58.09,9.73 -82.03,16.33zm448.05 670.2c2.55,-9.52 5.44,-15.4 -0.45,-9.84 -1.91,1.81 -1.48,5.09 0.45,9.84z"></path> <path class="fil1" d="M5573.13 2686.08c1.76,-245.42 -248.9,-324.97 -462.02,-332.73 -137.41,-5.02 -261.3,218.75 -277.06,336.96 -31.99,240.01 35.38,476.77 165.02,534.9 164.53,73.78 402.36,37.54 487.79,-63.7 47,-55.69 135.74,-177.63 23.8,-183.96 -30.57,-1.72 -56.22,-9.9 -101.55,-10.76 -28.24,-0.54 -40.75,2.27 -46.59,9.99 -50.92,67.38 -184.41,77.12 -215.74,59.14 -29.91,-17.17 -98.02,-86.96 -81.34,-177.46 1.51,-8.19 277.48,12.5 331.5,11.57 187.18,-3.18 174.64,30.23 176.19,-183.95zm-486.78 -14.95c30.99,3.91 280.94,20.28 281.56,-8.56 1.68,-78.35 -155.46,-114.8 -190.21,-111.38 -40.91,4.02 -96.64,46.77 -91.34,119.94z"></path> <path class="fil1" d="M3828.93 3116.63c13.62,-79.48 82.54,-376.79 82.96,-647.31 0.62,-396.88 -69.53,-569.17 -45.59,-596.07 25.52,-28.67 222.28,-93.29 281.47,-73.64 71.24,23.64 -25.94,554.72 -3.38,542.54 196.63,-106.23 373.71,-47.34 411.19,-16.21 103.6,86.03 68.05,572.8 64.07,772.59 -0.94,46.9 -12.12,85.91 -52.92,85.37 -111.57,-1.46 -234.09,4.88 -251.19,-36.82 -23.37,-56.99 88.66,-465.52 29.43,-585.26 -25.51,-51.58 -146.86,-34.83 -198.58,8.56 -4.35,80.16 -16.16,539.88 -62.12,570.94 -50.93,34.41 -261.42,10.75 -255.35,-24.69z"></path> <path class="fil1" d="M5695.92 3305.21c36.32,-76.89 84.69,-244.16 103.32,-398.89 32.54,-270.45 -29.67,-455.64 -1.92,-469.76 43,-21.86 141.78,-16.69 203.75,26.48 12.7,8.84 18.48,41.46 25.64,55.46 53.49,-21.12 171,-64.77 233.12,-57.08 92.13,11.4 244.97,76.96 241.45,115.42 -3.95,43.17 -17.79,146.17 -85.08,208.73 -38.88,36.16 -72.07,-40.47 -161.77,-66.55 -96.64,-28.08 -213.02,-41.02 -213.02,-19.24 0,77.76 -9.22,630.85 -35.08,648.98 -9.44,6.61 -31.7,9.72 -82.67,9.5 -45.54,-0.21 -247.21,-11.8 -227.73,-53.04z"></path> <path class="fil1" d="M7287.19 3011.69c46.58,-240.96 -185.33,-364.97 -393.45,-411.55 -134.18,-30.04 -296.87,167.33 -333.96,280.67 -75.3,230.13 -52.32,475.21 64.51,556.04 148.28,102.6 388.72,110.43 491.22,26.5 56.38,-46.17 165.91,-149.84 57,-176.52 -29.74,-7.28 -53.46,-20.01 -97.87,-29.13 -27.66,-5.69 -40.48,-5.22 -47.63,1.31 -62.37,56.93 -195.4,42.13 -222.91,18.73 -26.27,-22.35 -80.48,-103.41 -47.55,-189.34 2.98,-7.77 270.52,62.99 323.81,71.95 184.61,31.07 166.18,61.62 206.83,-148.67zm-475.85 -103.64c29.75,9.51 272.5,71.26 278.38,43.03 15.97,-76.72 -131.87,-141.27 -166.66,-144.26 -40.95,-3.52 -103.56,28.33 -111.72,101.23z"></path> <path class="fil1" d="M1773.18 2409.12c-45.33,54.79 -239.07,311.66 -244.77,358.88 -18.96,157.04 65.7,341.14 201.39,435.47 176.45,122.68 317.21,84.19 444.18,16.47 89.75,-47.88 173.94,-244.07 173.14,-308.53 -2.26,-181.49 -84.17,-335.33 -201.79,-460.34 -75.84,-80.61 -296.33,-133.58 -372.15,-41.95zm227.34 238.37c-67.86,-47.73 -83.49,3.56 -133.07,62.72 -36.37,43.39 -107.83,122.43 -74.61,179.53 153.98,264.67 208.79,191.24 288.37,30.47 44.99,-90.89 -54.54,-254.31 -80.7,-272.71z"></path> <path class="fil1" d="M2352.54 2356.04c18.54,84.77 355.58,835.39 395.5,840.9 54.04,7.45 97.08,6.56 142.42,-18.14 16.45,-8.96 98.58,-156.62 135.35,-197 69.68,56.59 129.59,205.12 163.46,201.55 57.09,-6.02 231.68,-11.25 247.62,-44.74 94.73,-198.98 209.32,-563.44 286.03,-791.28 16.48,-48.95 10.97,-71.79 -12.12,-82.13 -34.41,-15.41 -339.13,-4.44 -340.09,24.64 -2.39,72.4 -85.67,553.71 -111.15,534.99 -29.98,-22.04 -176.27,-218 -176.27,-218 -40.24,-7.32 -138.22,-15 -158.44,-1.12 -19.88,13.62 -79.86,185.61 -91.62,166.1 -44.77,-74.31 -132.31,-358.13 -139.9,-448.96 -3.51,-42.07 -351.22,-14.44 -340.79,33.18z"></path> <path class="fil1" d="M133.94 2223.68c-12.21,-48.64 279.64,-74.48 286.66,-64.46 94.62,135.2 447.2,507.6 596.12,707.54 50.85,68.27 59.02,54.49 26.69,-65.91 -68.39,-254.73 -181.42,-737.57 -165.48,-747.1 50.16,-30.01 383.15,-96.97 394.08,-45.82 14.47,67.65 -31.32,126.31 13.33,491.86 25.99,212.72 178.23,865.15 162.94,872.89 -4.32,2.19 -175.17,43.91 -264.58,60.28 -96.46,17.66 -108.44,24.68 -140.73,-28.39 -97.58,-160.34 -244.21,-385.99 -355.58,-504.21 -98.77,-104.84 -70.4,-14.34 -39.28,91.13 63.12,213.97 150.05,487.39 122.56,498.37 -84.72,33.82 -285.05,74.29 -353.55,73.21 -45.04,-0.71 -62.08,-310.08 -106.42,-618.49 -47.17,-328.01 -157.54,-644.47 -176.75,-720.92z"></path> </g> <g> <path class="fil0 str7" d="M2864.17 599.33c-27.11,37.19 -101.01,146.34 -155.81,237.16 -32.6,53.97 -57.58,98.62 -58.26,109.15 -4.59,70.99 14.66,147.36 51.09,215.87 36.43,68.6 89.92,129.02 153.54,168.2 82.44,50.76 153.14,64.75 216.72,58.27 64.99,-6.64 125.55,-34.8 184.25,-67.31 16.97,-9.38 50.1,-64.49 79.93,-125.3 30.69,-62.59 55.32,-127.14 53.66,-151.81 -5.4,-79.63 -27.22,-152.8 -60.97,-219.51 -37.86,-74.83 -90.77,-141.65 -152.62,-200.47 -3.36,-3.19 -7.59,-6.68 -12.5,-10.3 -37.73,-27.82 -98.23,-48.44 -157.72,-53.75 -55.25,-4.9 -107.6,3.15 -134.17,31.08l-7.14 8.7zm-229.77 192.69c55.7,-92.31 131.91,-204.74 160.29,-243.66l2.01 -2.99c3.1,-4.23 6.83,-8.63 10.98,-13.07l1.02 -1.11c46.78,-49.18 125.33,-64.56 204.33,-57.53 74.71,6.68 151.96,33.52 201.44,70 7.15,5.27 14.09,11.11 20.66,17.33 68.83,65.48 127.87,140.12 170.34,224.03 38.7,76.49 63.75,160.73 69.98,252.89 2.7,39.97 -25.97,121.65 -62.16,195.48 -36.3,73.98 -82.71,144.4 -115.85,162.72 -67.13,37.17 -137.39,69.5 -217.32,77.65 -81.37,8.31 -170.03,-8.52 -270.53,-70.4 -76.8,-47.32 -141.05,-119.67 -184.52,-201.49 -43.74,-82.31 -66.84,-174.78 -61.2,-261.73 1.68,-26.08 31.74,-83.84 70.54,-148.12zm414.55 41.06c-22.3,-13.9 -32.41,1.14 -48.45,25.13 -7.64,11.38 -15.93,23.78 -23.56,34.01l-5.96 7.9c-28.16,37.37 -74.81,99.22 -57.22,125.95 72.79,110.56 113.53,150.59 137.75,146.19 22.06,-4.02 46.26,-54.96 76.21,-124.97 10.35,-24.21 4.55,-58.72 -7.67,-92.9 -21.61,-60.55 -58.81,-113.66 -71.09,-121.3zm-120.07 -22.74c44.64,-66.74 72.67,-108.5 165.56,-50.55 21.1,13.17 79.06,87.76 106.88,165.66 18.62,52.17 25.95,108.4 5.72,155.79 -40.6,94.89 -77.13,164.63 -140.09,176.08 -60.82,11.03 -129.65,-38.68 -225.22,-183.78 -51.08,-77.64 18.3,-169.71 60.27,-225.36l5.65 -7.54c9.09,-12.16 15.4,-21.6 21.23,-30.29z"></path> <path class="fil0 str8" d="M2247 213.56c-4.89,26.23 -11.31,80.75 -17.82,152.89 -15.76,173.75 -32.34,447.34 -32.11,679.32 0.24,212.98 8.65,387.37 33.65,393.8l0.9 0.15c14.98,1.21 46.15,2.86 81.5,4.22 35.04,1.36 73.37,2.55 103.76,2.97 19.85,0.26 25.79,-8 25.92,-19.54 0.18,-20.34 -6.35,-48.45 -12.75,-75.97l-1.43 -6.15c-37.16,-160.31 -59.58,-313.27 -71.42,-454.69 -14.24,-169.91 -13.42,-323.99 -4.93,-454.96 3.66,-56.73 12.79,-113.35 20.79,-163.13 6.04,-37.74 11.47,-71.45 13.04,-95.53 -4.03,-0.74 -9.23,-0.99 -15.16,-0.87 -12.32,0.26 -27.18,2.64 -42.7,6.42 -40.46,9.87 -79.92,24.05 -81.24,31.07zm-102.99 145.38c6.83,-75.66 13.61,-133.06 18.8,-160.91 7.44,-39.8 77.18,-82.23 145.11,-98.83 20.36,-4.96 41.45,-8.1 61.12,-8.54 22.73,-0.51 43.71,2.77 60.46,10.98 27.24,13.44 43.46,36.09 42.4,70.4 -1,31.14 -7.24,69.93 -14.3,113.95 -7.68,47.85 -16.47,102.26 -19.87,155.06 -8.24,127.19 -9.03,277.03 4.84,442.58 11.59,138.16 33.37,287.06 69.34,442.32l1.43 6.16c7.53,32.47 15.22,65.47 14.88,96.04l0 0.36c-0.8,61.21 -26.36,104.96 -112.48,103.83 -32.88,-0.43 -71.65,-1.61 -105.76,-2.95 -36.64,-1.43 -69.32,-3.15 -85.61,-4.48l-8.79 -1.02c-77.95,-14.57 -103.67,-224.63 -103.94,-477.92 -0.23,-235.44 16.48,-511.89 32.36,-687.03z"></path> <path class="fil0 str9" d="M5513.28 358.22c-52.48,125.11 -91.86,300.54 -118.2,482.35 -31.68,218.34 -44.38,444.26 -38.71,603.99 0.57,16.35 1.62,32.53 2.48,45.83 2.61,40.77 4,61.87 -13.1,82.53 -20.51,24.97 -42.53,23.52 -87.94,20.58l-31.37 -1.88c-44.94,-2.09 -81.13,-6.69 -109.58,-13.05 -35.36,-7.91 -60.94,-19.07 -78.14,-32.27l-2.97 -2.52c-15.99,-13.38 -22.58,-28.46 -24.56,-44.04 -42.46,11.14 -97.26,20.34 -158.6,19.2 -65.32,-1.24 -138.25,-14.15 -211.88,-48.83 -68.17,-32.1 -104.14,-124.91 -116.92,-240.36 -14.2,-128.4 -1.61,-289.14 25.49,-418.2 2.29,-10.93 5.56,-21.82 9.7,-32.5 27.38,-70.99 93.79,-134.12 163.17,-176.9 71.14,-43.87 149.07,-67.42 195.1,-57.76l2.08 0.5c4.29,0.97 8.44,2.26 12.25,3.72 61.18,23.59 117.03,56.74 156.94,80.47 17.48,10.36 -5.61,41.26 11.88,29.38 6.55,-4.46 13.38,-224.49 16.61,-330.23 0.43,-12.79 2.53,-34 1.47,-45.78 3.56,-44.54 60.64,-71.65 133.75,-84.63 57.31,-10.19 128.07,-14.43 182.38,-12.24l21.84 1.32c73.6,5.76 94.06,36.34 90.43,81.65 -1.76,21.61 -11.61,42.35 -22.41,65.07 -3.77,7.96 -7.78,16.36 -11.22,24.58zm-203.04 470.17c27.25,-187.96 68.49,-370.61 124.08,-503.14 4.12,-9.86 8.63,-19.29 12.89,-28.28 4.46,-9.36 8.66,-18.19 11.34,-25.09 -9.94,0.4 -17.47,-0.58 -27.36,-0.82 -48.42,-1.94 -112.02,1.91 -163.95,11.14 -36.12,6.4 -63.03,3.83 -63.27,6.94l-1.5 41.74c-3.68,119.97 -11.43,369.31 -54.03,398.33 -27.57,18.73 -58.38,0.46 -103.66,-26.42 -37.44,-22.25 -89.81,-53.35 -143.85,-74.18l-1.21 -0.3c-26,-5.45 -79.17,13.49 -132.87,46.61 -55.46,34.22 -107.84,82.77 -127.9,134.81 -2.45,6.36 -4.41,12.85 -5.78,19.38 -25.53,121.65 -37.52,272.19 -24.33,391.38 9.66,87.36 31.14,154.9 68.24,172.36 61.32,28.87 122.26,39.65 176.95,40.68 84.77,1.58 154.67,-20.12 188.56,-34.13 5.17,-2.01 10.82,-3.18 16.73,-3.12 23.58,0.21 42.53,19.53 42.33,43.11 -0.09,10.07 -1.47,18.68 -2.88,27.5 -1.11,6.97 -12.05,7.22 -8.84,10.69l0.95 0.72c7.88,6.03 22.3,11.79 44.54,16.76 24.08,5.39 55.36,9.3 94.82,11.14l33.02 1.87c16.06,1.02 9.22,19.25 16.54,10.42 4.87,-5.66 -5.14,-4.1 -6.34,-22.84 -0.77,-12.27 -1.77,-27.24 -2.5,-48.15 -5.86,-165.01 7.04,-396.74 39.28,-619.09zm-168 173.11l-2.34 55.75c-2.41,66.79 -5.7,156.61 -18,173.59l-1.5 1.96c-4.89,6.37 -10.76,12.42 -17.37,17.96l-2.91 2.23c-28.19,22.24 -75.5,41.74 -125.05,48.36 -53.02,7.05 -110.64,0.26 -154.75,-31.81 -10.14,-7.36 -19.63,-16.15 -28.2,-26.42 -10.77,-12.9 -21.6,-50.43 -27.45,-96.5 -5.93,-47.04 -8.93,-108.28 -3.64,-163.87 5.91,-62.19 22.96,-118.79 58.54,-148.42 14.15,-11.78 30.57,-19.41 49.43,-21.8 26.25,-3.3 65.07,9.49 105.62,28.2 35.6,16.46 74.01,37.76 104.43,55.36 19.85,11.5 36,26.3 47,43.64 11.65,18.39 17.49,39.21 16.18,61.77zm-87.78 52.97l2.32 -57.75c0.23,-3.88 -0.92,-7.72 -3.15,-11.25 -3.55,-5.6 -9.58,-10.88 -17.34,-15.37 -28.74,-16.63 -64.81,-36.66 -97.37,-51.71 -27.62,-12.74 -50.92,-21.86 -59.29,-20.8 -1.97,0.24 -3.76,1.1 -5.32,2.4 -15.56,12.97 -24.08,48.8 -28.1,90.77 -4.59,48.34 -1.84,102.82 3.52,145.25 3.93,30.97 7.09,51.24 8.05,52.39 3.68,4.42 7.99,8.37 12.69,11.78 24.34,17.69 59.6,20.98 93.31,16.5 34.29,-4.56 65.39,-16.69 82.61,-30.13 1.68,-1.47 5.01,-4.27 6.15,-5.84 2.77,-3.85 -0.08,-70.71 1.92,-126.23z"></path> <path class="fil0 str10" d="M4384.41 558.8c-17.02,111.53 -23.33,285.32 -15.35,440.97 6.63,129.15 22.68,243.8 49.98,294.61 46.85,87.2 21.8,136.01 -41.56,160.34 -44.14,16.93 -110.73,14.87 -179.24,4.89 -53.73,-7.84 -83.33,-44.94 -105.39,-72.67l2.17 -1.74c-75.81,40.1 -149.08,57.02 -213.22,60.68 -111.19,6.35 -198.65,-29.24 -226.62,-52.64 -54.03,-45.23 -75.01,-159.47 -77.2,-292.91 -2.96,-178.56 25.06,-397.78 49.91,-516.89l3.65 -18.88c10.85,-58.4 19.5,-104.71 90.19,-104.87l48.87 -0.58c99.59,-1.66 157.76,-2.6 183.73,60.75 14.35,35.07 3.74,120.46 -8.93,221.97 -15.49,124.21 -34.26,275.05 -15.23,352.72 3.37,1.21 9.95,2.22 18.49,2.94 16.96,1.41 36.83,-0.55 55.54,-5.83l1.61 -0.42c8.54,-2.5 16.61,-5.66 23.62,-9.43l0.79 -59.85c1.76,-167.37 5.29,-490.45 59.8,-529.92 36.48,-26.44 114.53,-30.39 176.83,-20.91 21.75,3.33 41.99,8.12 58.11,13.95 21.63,7.82 39.08,18.77 49.16,32.76 8.81,12.17 12.55,25.76 10.29,40.95zm-101.11 445.23c-7.77,-151.7 -2.28,-321.07 13.37,-437.72l-0.77 -0.28c-11.56,-4.16 -26.19,-7.64 -41.96,-10.05 -44.55,-6.77 -96.16,-7 -113.69,5.7 -19.45,14.07 -22.61,308.51 -24.24,461.06 -0.39,38.19 -0.76,68.22 -1.33,83.2 -0.47,11.23 -5.25,22.28 -14.26,30.37 -19.1,17.13 -44.29,29.6 -70.85,37.35l-1.97 0.6c-28.4,8.04 -59.31,10.94 -85.96,8.71 -30.09,-2.53 -57,-12.16 -74.19,-28.82l-3.36 -3.34c-6.96,-7.74 -12.16,-16.9 -15.05,-27.18 -26.19,-92.52 -5.66,-257.26 11.18,-392.32 11.13,-89.35 20.5,-164.51 14.6,-178.96 -3.7,-9.07 -40.33,-8.47 -102.99,-7.44l-49.9 0.58c-0.56,0 -2.26,15.35 -5.83,34.66l-4 20.57c-24.05,115.27 -51.18,326.88 -48.34,498.38 1.8,110.64 14.6,201.45 46.51,228.19 18.05,15.08 80.2,37.77 166.9,32.83 57.69,-3.28 124.85,-19.85 194.91,-60.58 41.86,-24.29 61.49,0.52 88.01,33.79 12.97,16.3 30.4,38.17 50.38,41.07 56.14,8.19 108.15,10.88 136.23,0.11 8.84,-3.4 9.87,-14.91 -3.42,-39.63 -33.67,-62.68 -52.79,-190.39 -59.98,-330.86zm-190.46 382.91l22.46 -12.99 -20.29 11.25 -2.17 1.74z"></path> <path class="fil0 str11" d="M5926.07 727.37c27.76,30.39 35.47,86.3 41.84,132.98 2.75,20.02 5.23,37.88 7.9,44.87 1.44,3.74 6.64,10.69 13.89,19.12 14.75,17.16 35.71,36.49 54.51,51.06 5.16,4 3.5,9.76 2.09,13.78 16.75,-22.99 35.82,-67.42 53.68,-109.07 27.38,-63.83 52.67,-122.7 90.63,-134.41 21.07,-6.51 125.46,-5.29 216.09,5.96 64.24,7.98 125.17,21.4 153.37,41.46 10.3,7.3 16.38,18.38 17.71,30.04l0.23 3.08c0.24,5.88 -0.72,11.82 -2.94,17.43 -23.67,84.99 -185.9,335.16 -357.65,539.22 -134.9,160.27 -278.02,296.9 -369.68,312.84 -32.4,5.63 -82.05,-6.32 -133.82,-28.33 -49.78,-21.17 -103.98,-52.16 -146.6,-85.11 -41.72,-32.24 -25.99,-101.74 9.07,-163.95 11.22,-19.9 24.3,-39.43 37.36,-56.24l2.27 -2.68c13.3,-16.75 26.92,-31.1 39.18,-40.71 29.34,-23.07 58.15,-27.25 82.06,-3.98 5.4,5.26 15.38,10.92 25.85,14.06l7.46 2.6c5.22,-2.52 31.68,-29.31 53.47,-55.08 8.57,-10.15 22.7,3.65 19.67,-5.68l-0.16 -0.51c-2.65,-4.53 -34.53,-33.44 -66.68,-62.62 -32.37,-29.35 -65.11,-59.01 -80.94,-80.28 -43.09,-57.79 -85.28,-135.34 -119.76,-208.18 -58.96,-124.59 -83.82,-249.74 -66.7,-262.8 3.73,-2.85 7.77,-5.01 12,-6.48 37.4,-14.99 117.56,-10.5 195.84,3.86 89.82,16.52 183.61,46.26 208.73,73.76zm-42.85 144.58c-4.72,-34.51 -10.41,-75.88 -20.42,-86.83 -12.6,-13.79 -86.08,-33.6 -160.68,-47.31 -66.47,-12.2 -128.55,-19.89 -139.91,-14.03l-0.64 0.49c-5.11,3.91 49.19,67.36 92.11,158.05 32.63,68.93 71.97,141.51 110.99,193.86 10.75,14.44 40.44,41.34 69.82,67.97 37.31,33.86 74.31,67.4 87.21,92.3 1.3,2.35 2.42,4.86 3.28,7.5 7.92,24.2 -9.87,57.21 -35.51,87.56 -27.93,33.06 -69.21,70.96 -81.84,77.05 -20.92,10.07 -45.87,9.16 -69.08,2.17 -13.36,-4.02 -26.8,-10.33 -38.51,-17.57 -5.25,5.17 -10.99,11.71 -16.9,19.11l-1.68 2.35c-10.59,13.63 -21.25,29.57 -30.39,45.76 -16.12,28.59 -32.03,53.86 -31.57,54.22 37.17,28.76 84.4,55.72 127.78,74.19 37.63,15.99 70.06,25.3 85.86,22.58 69.04,-12.01 195.05,-136.53 318.92,-283.69 156.94,-186.47 306.84,-402.04 335.8,-474.48 -22.29,-6.61 -55.66,-12.25 -91.62,-16.71 -80.61,-10 -166.93,-13.08 -180.62,-8.86l-37.01 86.13c-24.85,57.9 -51.61,120.33 -84.75,150.06 -2.22,2.07 -4.68,3.93 -7.39,5.57l-7.96 3.9c-21.75,8.29 -55.18,-5.68 -86.8,-30.2 -22.59,-17.5 -48.28,-41.34 -66.96,-63.05 -13.15,-15.27 -23.63,-30.67 -28.8,-44.14 -6.07,-15.86 -9.22,-38.54 -12.7,-63.95z"></path> <path class="fil0 str12" d="M1662.54 721.85l12.64 -11.95 6.56 -9.85c-7.95,9.61 -39.51,41.69 -19.2,21.8zm12.64 -11.95l23.98 -21.97c56.09,-51.14 169.5,-124.03 163.07,-133.39 -175.14,-254.98 -276.66,-237.97 -520.52,-197.13l-65.45 10.93c-48.36,7.77 -104.85,54.34 -159.37,118.21 -70.55,82.63 -135.28,192.39 -177.16,288.67 -33.25,76.48 -38.85,276.8 -5.24,463 24.97,138.35 71.21,265.98 142.85,321.27 54.8,42.3 164.5,66.96 279.61,76.38 136.41,11.16 276.54,0.55 342.78,-27.49 76.22,-32.27 138.22,-68.48 183.3,-103.68 44.23,-34.55 70.59,-65.72 75.83,-88.36 3.9,-16.72 -2.14,-49.04 -19.02,-96.5 -17.06,-48 -44.75,-108.1 -83.83,-179.63 -13.89,11.83 -32.5,33.76 -52.64,57.6 -50.95,60.25 -110.31,130.42 -183.63,138.69l-39.63 4.57c-232.5,27.05 -386.38,44.93 -420.29,-262.36 -9.15,-83 14.66,-174.49 58.63,-256.76 45.37,-84.93 112.91,-161.16 187.93,-208.55 77.35,-48.87 211.75,40.58 277.07,84.07l-8.27 12.44zm81.71 41.3l-34.62 31.9c-26.44,25.85 -50.04,9.8 -86.29,-14.28 -50.2,-33.42 -153.51,-102.17 -183.88,-82.99 -62.79,39.65 -119.72,104.21 -158.34,176.51 -36.26,67.86 -56.09,141.81 -48.88,207.08 24.44,221.62 144.39,207.69 325.64,186.59l39.63 -4.55c39.47,-4.4 87.03,-60.62 127.84,-108.86 30.38,-35.93 57.83,-68.34 86.06,-83.96 40.33,-22.33 74.65,-17.95 101.37,30.41 44.37,80.26 75.74,147.94 94.99,202.11 22.5,63.29 29.27,111.94 21.7,144.4 -9.64,41.52 -46.64,89.87 -106.34,136.49 -50.8,39.65 -119.48,79.99 -202.69,115.21 -78.02,33.02 -234.48,46.2 -382.96,34.07 -129.32,-10.58 -255.75,-40.73 -324.93,-94.17 -90.79,-70.12 -146.77,-217.36 -175.04,-373.97 -36.27,-200.98 -27.73,-422.94 10.98,-511.98 44.76,-102.95 114.39,-220.81 190.73,-310.18 66.81,-78.29 140.43,-136.04 210.8,-147.37l65.09 -10.62c281.6,-47.17 398.85,-66.79 604.85,233.11 35.89,52.21 -99.92,175.97 -175.69,245.04z"></path> <path class="fil1" d="M2831.52 571.01c-42.23,57.21 -221.46,324.41 -224.54,371.88 -10.24,157.85 84.48,336.98 225.18,423.65 182.97,112.73 318.53,61.59 444.41,-8.14 50.46,-27.95 160.17,-253.32 155.8,-317.64 -12.31,-181.09 -102.6,-330.15 -226.96,-448.47 -80.19,-76.29 -303.27,-116.97 -373.9,-21.28zm240.18 225.41c-70.39,-43.9 -83.16,8.18 -129.39,69.99 -33.91,45.33 -100.89,128.2 -64.56,183.38 168.39,255.74 219.06,179.4 289.62,14.46 39.89,-93.24 -68.53,-250.9 -95.67,-267.83z"></path> <path class="fil1" d="M2204.92 205.81c-29.15,155.78 -107.63,1264.67 20.5,1276.28 27.75,2.51 124.36,6.65 190.9,7.53 92.61,1.23 71.33,-79.03 53.95,-154.02 -80.49,-347.15 -90.64,-660.56 -75.28,-897.26 6.68,-102.97 32.3,-208.26 34.19,-267.53 2.57,-80.83 -215.32,-12.84 -224.26,35z"></path> <path class="fil1" d="M5473.81 341.73c-118.48,282.39 -170.8,805.63 -160.14,1104.29 4.37,122.37 22.88,107.93 -85.33,102.87 -88.52,-4.14 -139.54,-18.22 -163.53,-36.59 -20.65,-15.81 -6.07,-50.64 -5.88,-73.34 -61.06,25.3 -228.65,73.21 -400.03,-7.48 -116.97,-55.08 -115.59,-383.09 -67.68,-611.17 29.27,-139.36 255.7,-258.44 325.03,-231.72 104.43,40.25 196.91,112.88 208.17,105.23 28.52,-19.41 33.69,-331.56 36.76,-407.51 1.79,-44.46 191.84,-64.86 291.88,-56.81 84.29,6.78 44.57,55.4 20.73,112.23zm-374.29 657.36c-2.49,41.28 -5.65,197.52 -12.29,206.67 -33.57,46.22 -193.48,92.46 -262.28,9.99 -21.62,-25.91 -58.12,-347.07 49.36,-360.7 34.63,-4.39 124.16,43.75 183.37,78.04 27.05,15.67 43.47,38.94 41.84,66.01z"></path> <path class="fil1" d="M4341.98 552.42c-32.29,211.34 -27.11,638.84 39.18,762.2 60.16,111.96 -52.12,120.57 -176.81,102.39 -64.81,-9.45 -88.23,-93.31 -110.66,-80.28 -195.3,113.52 -373.09,55.24 -410.99,23.53 -104.69,-87.65 -54.26,-569.22 -12.72,-768.18 9.96,-47.67 11.03,-89.39 51.84,-89.5 111.59,-0.31 175.09,-9.5 192.74,33.52 24.11,58.81 -65.42,430.31 -24.23,575.83 11.59,40.92 130.27,38.34 181.44,-7.56 3.33,-83.3 -2.23,-544.5 43.36,-577.52 50.51,-36.58 232.5,-11.37 226.85,25.57z"></path> <path class="fil1" d="M5894.45 756.24c29.47,32.28 29.19,132.45 41.42,164.31 14.55,37.88 115.36,123.49 128.57,112.12 52.66,-45.31 100.53,-234.24 138.67,-246.01 29.27,-9.04 278.57,3.16 332.24,41.28 9.12,78.22 -500.79,791.83 -694.9,825.61 -49.23,8.57 -168.79,-44.61 -247.03,-105.11 -46.05,-35.61 87.04,-229.37 114.07,-203.03 17.75,17.3 58.79,35.57 81.62,24.55 15.1,-7.29 101.2,-94.44 95.25,-112.69 -8.57,-26.28 -124.68,-116.19 -154.04,-155.57 -103.38,-138.7 -204.76,-403.86 -194.78,-411.46 39.35,-29.99 322.09,25.66 358.92,65.99z"></path> <path class="fil1" d="M1692.41 752.47c38.18,-37.2 223.19,-195.63 205,-222.13 -205.66,-299.38 -316.68,-254.41 -627.96,-204.35 -131.22,21.1 -289.84,250.17 -369.03,432.22 -63.46,145.87 -37.05,690.06 150.84,835.11 134.3,103.67 531.09,111.23 665.15,54.5 166.24,-70.37 269.71,-160.19 284.08,-221.88 11.13,-47.78 -23.45,-155.18 -112.46,-316.2 -50.17,-90.76 -155.23,171.1 -273.09,184.25 -228.95,25.54 -381.56,61.1 -412.59,-219.93 -16.76,-151.79 92.12,-339.3 226.9,-424.46 71.47,-45.16 257.15,108.74 263.16,102.87z"></path> </g> <g> <path class="fil0 str13" d="M6331.63 4395.14c-17.42,-24.18 -55.77,-59.35 -97.73,-86.04 -32.81,-20.87 -65.75,-35.45 -87.07,-32.08 -36.56,5.81 -72.69,18.09 -107,34.91 -38.12,18.67 -74.2,43 -106.46,70.33 -18.62,15.76 -45.27,41.49 -67.85,67.4 -16.49,18.86 -30.67,37.5 -37.19,51.28 -2.02,4.3 2.52,15.49 11.55,30.41 14.26,23.54 38.62,49.47 69.19,73.11 23.64,18.28 65.55,36.07 108.61,54.28 88.81,37.58 182.04,77.07 195.21,154.68 4.28,25.12 -5.31,51.71 -22.24,73.94 -15.48,20.31 -38.3,38.39 -61.64,47.59 -56.72,22.41 -103.1,19.16 -145.57,1.1 -39.15,-16.61 -71.49,-44.63 -105.59,-75.64 -17.52,-15.94 -18.42,-15.19 -30.01,-4.81l-7.23 6.47c-20.38,18.14 -41.58,44.5 -56.88,68.72 -10.7,16.92 -20.42,23.35 -19.61,25.61 8.32,22.73 36.09,47.22 72.19,68.46 42.23,24.84 94.06,43.53 140.74,49.83 35.86,4.85 73.03,5.79 109.57,3.32 71.78,-4.86 141.01,-22.93 193.28,-50.81 46.04,-24.52 77.64,-55.75 82.29,-90.2 0.61,-4.52 0.79,-9.18 0.47,-13.8 -13.5,-198.47 -134.76,-258.04 -229.01,-304.3 -26.98,-13.26 -52.05,-25.58 -74.72,-40.6 -14.47,-9.62 -24.15,-20.83 -29.99,-33.07 -6.28,-13.21 -7.77,-26.48 -5.65,-39.49 1.82,-11.39 6.43,-22.05 12.81,-31.65l2.32 -3.12c14.92,-20.55 39.84,-38.22 62.17,-48.83 68.98,-32.81 114.77,13.3 149.47,48.31 5.63,5.66 -5.49,13.08 -2.09,14.04 12.51,-8.38 33.94,-33.56 52.81,-58.47 13.47,-17.78 26.31,-26.11 30.88,-30.87zm-54.51 -154.34c58.36,37.14 113.2,91.62 131.37,124.84l1.64 3.64c1.33,3.05 2.3,6.33 2.86,9.77 2.49,15.27 -19.24,58.02 -47.71,95.6 -25.57,33.76 -57.67,69.47 -80.83,82.13 -6.76,3.62 -13.65,6.1 -20.32,7.22 -30.17,4.87 -48.76,-13.86 -71.31,-36.57 -17.37,-17.53 -40.36,-40.63 -57.61,-32.42 -10.17,4.82 -20.81,11.59 -27.59,18.64 16.76,10.55 38.46,21.22 61.6,32.58 112.58,55.25 257.33,126.35 274.04,371.71 0.68,10.22 0.33,20.21 -0.99,29.93 -8.48,62.57 -56.12,114.12 -124.58,150.58 -62.2,33.15 -143.04,54.54 -225.84,60.16 -41.85,2.84 -84.49,1.74 -125.54,-3.83 -57.09,-7.77 -120.02,-30.37 -171.01,-60.37 -50.97,-30 -91.73,-68.82 -106.93,-110.31 -8.34,-22.76 3.97,-60.1 27.06,-96.55 18.74,-29.63 45.36,-62.5 71.46,-85.71l7.07 -6.31c62.33,-55.78 66.93,-59.82 138.19,5.03 28.94,26.32 55.88,49.85 82.74,61.26 23.62,10.04 50.37,11.48 84.49,-1.99 9.84,-3.87 19.88,-12.02 27.04,-21.42 4.25,-5.57 7.07,-10.09 6.83,-11.52 -5.71,-33.76 -78.11,-64.44 -147.04,-93.61 -47.59,-20.13 -93.93,-39.78 -126.4,-64.9 -38.49,-29.72 -69.79,-63.49 -88.95,-95.11 -23.11,-38.15 -30.19,-76.03 -15.49,-106.98 9.85,-20.79 28.44,-45.72 49.4,-69.7 25.8,-29.58 55.66,-58.51 76.32,-75.98 37.04,-31.34 78.75,-59.43 123.14,-81.17 41.55,-20.38 85.47,-35.29 130.07,-42.36 43.15,-6.86 95.37,13.53 142.83,43.73z"></path> <path class="fil0 str14" d="M3755.38 4568.43c-0.9,-12.25 -2.34,-23.92 -4.18,-34.88 -13.33,-78.07 -51.58,-134.53 -108.52,-169.52 -59.52,-36.57 -140.39,-51.22 -235.84,-44.13 -22.64,1.69 -45.97,4.59 -69.73,8.63 -45.95,7.85 -89.79,47.38 -125.14,97.34 -46.32,65.54 -76.35,146.44 -79.28,201.5 -5.78,109.22 11.19,215.49 44.97,298.82 30.75,75.85 74.55,131.33 125.98,149.28 73.14,25.49 160.24,26.79 238.03,10.46 77.51,-16.28 144.2,-49.38 175.51,-92.46l8.15 -11.05c21.23,-28.9 48.29,-65.76 47.96,-80.45 -0.11,-5.16 -3.56,8.78 -13.96,9.03 -11.69,0.26 -23.55,1.44 -36.48,2.7 -16.92,1.68 -35.78,3.55 -60.72,4.2 -6.93,0.17 -9.2,3.53 -12.15,8.02 -12.56,18.93 -28.51,43.03 -77.25,64.1 -33.42,14.47 -77.01,21.95 -120.16,18.05 -32.72,-2.97 -65.81,-12.54 -94.92,-30.48 -30.09,-18.58 -55.65,-45.76 -71.89,-83.28 -14.81,-34.27 -21.75,-77.04 -16.98,-129.39 3.62,-40.06 127.2,-44.34 237.19,-48.12 59.08,-2.03 113.6,-3.93 132.16,-5.69 27.26,-2.62 46.82,-3.98 63.53,-5.12 37.82,-2.58 57.92,-4 59.6,-6.01 3.92,-4.76 1.65,-34.15 -3.22,-96.58l-2.67 -34.96zm74.94 -48.29c2.32,13.8 4.11,28.02 5.16,42.42l2.67 34.66c6.59,84.41 9.67,124.12 -14.94,153.92 -23.68,28.59 -55.79,30.8 -116.27,34.95 -18.62,1.28 -40.44,2.81 -61.33,4.79 -21.46,2.07 -76.82,3.97 -136.88,6.03 -76.65,2.61 -157.29,-55.53 -160.05,-24.97 -3.45,38.06 0.98,67.83 10.76,90.44 9.26,21.39 23.54,36.73 40.22,47.02 17.74,10.92 38.74,16.88 59.97,18.79 29.6,2.68 59.03,-2.23 81.21,-11.83 27.02,-11.68 35.56,-24.56 42.26,-34.64 16.28,-24.61 28.26,-42.64 76.94,-43.94 22.01,-0.55 39.44,-2.31 55.07,-3.85 14.4,-1.41 27.57,-2.7 42.49,-3.05 69.41,-1.63 94.87,26.68 95.84,69.34 0.99,41.91 -35.05,91.02 -63.36,129.55l-7.79 10.73c-43.25,59.49 -128.26,103.73 -224.36,123.9 -91.06,19.11 -193.75,17.35 -280.63,-13.01 -74.53,-26.15 -134.69,-98.44 -173.9,-195.19 -38.06,-93.88 -57.26,-212.34 -50.85,-333.05 3.64,-68.47 39.18,-166.51 93.75,-243.72 46.42,-65.62 107.67,-118.1 177.42,-130.04 26.63,-4.54 52.47,-7.77 77.27,-9.6 112.32,-8.36 209.55,10.16 283.69,55.73 76.8,47.22 128.14,122.06 145.66,224.61zm-471.24 29c42.23,1.34 107.45,2.61 159.94,-0.25 27.8,-1.52 51.91,36.8 51.01,19.76 -2.16,-39.9 -29.08,-63.43 -62.5,-72.61 -17.37,-4.76 -36.41,-6.08 -55.02,-4.21 -18.51,1.87 -36.74,6.99 -52.61,15.06 -18.97,9.63 -34.08,23.93 -40.82,42.26zm164.21 79.86c-78.87,4.27 -182.9,-0.17 -206.48,-1.2 -19.67,0.21 -37.05,-14.11 -40.09,-34.1 -11.68,-74.69 28.39,-128.92 86.86,-158.55 24.34,-12.36 52.31,-20.22 80.86,-23.11 28.41,-2.88 57.53,-0.81 84.26,6.54 64.82,17.79 117.03,64.86 121.44,145.79 2.36,43.7 -54.16,60.68 -126.85,64.63z"></path> <path class="fil0 str15" d="M1829.4 5105.61c11.38,-39.25 22.45,-101.47 29.8,-172.64 6.67,-64.69 10.18,-135.93 8.12,-203.19 -4.56,-147.83 -32.49,-259.1 -50,-329.05 -16.85,-67.24 -26.66,-106.52 5.63,-129.69 21.57,-15.58 58.12,-24.55 95.31,-28.41 43.38,-4.52 91.01,-2.55 114.47,3.85l3.53 1.14c25.23,8.75 39.8,33.9 52.58,59.63 38.84,-18.59 89.92,-39.4 139.04,-56.8 62.34,-22.06 123.18,-38.9 154.69,-39.31 23.14,-0.31 72.54,13.5 110.16,31.15 37.9,17.75 68.7,43.11 70.46,72.46 1.3,22.41 2.4,60.65 -4.26,102.87 -6.95,44.3 -22.51,93 -54.81,133.71 -40.81,51.37 -102.59,18.55 -163.08,-13.6 -23.97,-12.76 -47.76,-25.42 -62.44,-28.18l-0.41 -0.07c-1.67,-0.2 -4.06,-0.05 -6.93,0.35 -21.76,3.25 -51.65,19.32 -76.89,36.82 -17.44,12.11 -31.17,21.96 -35.82,25.69l8.91 47.23c23.47,121.02 69.38,357.79 38.54,505.11l-0.68 2.7c-8.78,34.96 -41.3,39.8 -99.49,48.27l-10.26 1.51c-24.97,3.66 -98.45,11.1 -156.66,9.42 -23.23,-0.67 -44.71,-2.84 -61.18,-7.25 -31.44,-8.45 -51,-25.79 -51.37,-55.25 -0.21,-5.29 0.57,-10.43 2.08,-15.6l0.96 -2.86zm110.19 -164.64c-6.52,63 -16.01,120.28 -26.34,163.03 8.12,1 17.65,1.61 27.95,1.9 52.49,1.53 119.78,-5.36 142.75,-8.71l10.26 -1.51c22.91,-3.31 28.7,28.86 32.32,13.66l0.25 -1.26c27.57,-131.71 -16.26,-357.67 -38.64,-473.16 -4.81,-24.83 -8.71,-44.89 -10.78,-58.18l-0.32 -1.69c-0.67,-4.23 -0.64,-8.44 -0.16,-12.56l0.47 -3.32c3.82,-20.44 33.71,-53.03 71.01,-78.96 33.62,-23.31 75.88,-45.08 110.96,-50.35 11.19,-1.64 22.03,-1.84 32.18,-0.19l2.08 0.35c26.51,4.99 55.76,20.56 85.25,36.24 31.21,16.6 60.98,36.18 62.02,34.86 22.16,-27.91 33.13,-63.25 38.25,-95.95 5.5,-34.79 4.55,-66.94 3.45,-85.81 -0.32,-5.6 -10.44,2.67 -24.14,-3.77 -28.6,-13.43 -62.23,-23.99 -75.02,-23.84 -22.14,0.27 -73.51,15.17 -128.79,34.72 -62.32,22.06 -127.84,49.94 -162.61,70.18 -18.62,10.73 -42.65,5.05 -54.33,-13.23 -5.71,-8.98 -11.2,-20.17 -16.77,-31.64 -6.54,-13.44 -4.92,-25.37 -8.94,-27.22l-0.57 -0.15c-15.41,-4.22 -50.68,-5.09 -85.02,-1.53 -24.85,2.58 -47.26,7.17 -56.52,13.78 -12.17,8.69 17.33,10.83 25.77,44.57 18.3,73.08 47.47,189.37 52.32,346.09 2.21,71.62 -1.43,146.38 -8.36,213.62z"></path> <path class="fil0 str16" d="M3962.06 5090.7c13.3,-103.05 14.68,-268.88 2.8,-417.05 -9.76,-121.94 -28.01,-229.74 -55.02,-275.1 -47.65,-79.97 -25.07,-125.97 35.05,-150.04 41.17,-16.48 104.38,-16.22 169.66,-8.79 54.21,6.19 83.51,48.56 105.26,80.06l-15.03 10.39c75.2,-43.2 148.43,-62.17 212.2,-67.37 105.25,-8.57 189.18,21.78 216.36,42.48 86.65,66.01 59.64,291.05 35.23,494.06 -11.18,93.38 -21.83,181.86 -20.5,242.08 0.59,27.81 -2.34,54.36 -12.22,75.72 -13.4,28.88 -36.44,47.45 -73.78,48.51l-46.4 1.77c-94.39,3.95 -149.52,6.3 -175.86,-51.04 -16.31,-35.39 -0.77,-138.02 16.14,-249.6 17.81,-117.37 37.25,-245.87 24.07,-282.66 -2.59,-2.76 -9.73,-4.2 -19.06,-4.48 -14.72,-0.44 -32.08,2.88 -48.71,8.9 -9.92,3.58 -19.31,8.09 -27.42,13.2l0.87 54.68c2.78,154.09 8.12,451.57 -43.06,489.33 -34.38,25.37 -110.19,30.7 -169.93,23.05 -20.21,-2.57 -39.13,-6.55 -54.35,-11.59 -20.51,-6.8 -37.02,-16.71 -46.48,-29.57l-1.35 -1.97c-7.1,-10.46 -10.11,-22.2 -8.47,-34.98zm82.73 -423.22c11.52,143.83 10.78,305.03 -0.99,413.73 10.55,3.48 24.18,6.29 39.07,8.17 43.75,5.59 95.17,4.69 112.29,-7.93 17.95,-13.24 13.07,-283.38 10.56,-423.42 -0.6,-32.72 -1.07,-58.74 -0.97,-74.04 -0.56,-11.55 3.81,-23.27 13.02,-31.68 17.95,-16.38 42,-29.99 67.32,-39.15 25.47,-9.23 53.23,-14.27 78.17,-13.51 30.26,0.93 57.63,10.31 76.04,30.5 6.94,7.74 12.41,16.61 16.07,26.71 20.09,55.45 -1.01,194.74 -20.29,321.93 -15.02,99.11 -28.83,190.23 -22.4,204.18 3.91,8.5 39.21,7.01 99.63,4.49l47.63 -1.78c1.57,-0.03 2.64,-0.91 3.25,-2.23 4.1,-8.89 5.24,-23.69 4.89,-40.59 -1.43,-65.64 9.53,-156.79 21.05,-253.03 21.8,-181.47 45.96,-382.61 -4.29,-420.91 -17.79,-13.55 -78.17,-32.95 -161.39,-26.19 -55.55,4.49 -119.62,21.46 -185.38,60.62 -41.04,24.38 -59.5,-2.44 -84.13,-38 -12.91,-18.69 -30.34,-43.87 -48.28,-45.92 -54.08,-6.14 -104.15,-7.28 -131.12,3.5 -8.04,3.21 -8.7,13.36 4,34.67 33.94,56.95 55.61,177.29 66.24,309.86zm170.58 -344.61c-10.92,7.03 -36.91,22.9 -18.21,11.78l7.63 -4.47 10.58 -7.31z"></path> <path class="fil0 str17" d="M5648.73 3953.5c-36.22,125.63 -54.25,297.37 -59.06,473.59 -5.81,211.14 7.35,428.29 30.72,580.75l0.16 1.26c2.31,15.01 5.08,29.97 7.29,42.2 7.01,38.48 10.66,58.36 -3.05,79.57l-2.01 2.86c-16.29,22.76 -37.29,23.88 -79.04,26.02l-30.14 1.79c-42.9,3 -77.85,2.67 -105.71,-0.23l-1.19 -0.15c-33.85,-3.61 -58.97,-11.32 -76.45,-21.77 -19.11,-11.39 -27.68,-26.07 -31.33,-41.89 -39.35,15.49 -90.95,30.62 -150.14,36.4 -62.45,6.14 -133.36,2.01 -207.11,-22.73l-2.47 -0.94c-66.73,-24.12 -110.4,-107.67 -135.12,-214.79 -27.84,-120.71 -33.75,-275.29 -22.3,-401.38 0.96,-10.92 2.89,-21.64 5.55,-31.99 18.11,-70.57 74.22,-138 135.42,-186.38 62.73,-49.65 134.21,-80.71 178.98,-76.63 5.19,0.46 10,1.25 14.25,2.35l1.65 0.47c60.25,15.68 116.36,40.7 156.57,58.64 18.27,8.15 1,39.42 15.79,26.61 6.13,-5.3 -11.97,-216.06 -20.67,-317.6l-3.49 -42.13 -0.03 -5.26c1.05,-40.51 51.26,-71.33 117.48,-91.26 53.88,-16.2 120.91,-28.2 172.67,-32.1l20.64 -1.08c69.87,-2.54 92.54,23.95 94.05,66.91 0.75,20.62 -6.28,41.32 -13.96,64.02 -2.47,7.31 -5.09,14.96 -7.93,24.86zm-139.05 471.6c5,-182.57 23.91,-361.4 62.06,-493.7 2.36,-8.23 5.86,-18.48 9.19,-28.31 5.19,-15.37 9.95,-29.42 9.73,-35.74 -0.2,-6.03 -2.45,10.01 -11.36,10.32l-17.51 1.07c-46.69,3.54 -107.06,14.31 -155.43,28.86 -33.22,9.98 -58.91,12.43 -60.54,14.7l3.42 40.45c9.85,114.72 30.3,352.75 -6.78,384.87 -23.6,20.44 -54.89,6.68 -100.72,-13.78 -37.94,-16.93 -90.82,-40.5 -144.29,-54.43l-2.75 -0.62c-25.59,-2.32 -74.52,21.83 -122.28,59.62 -49.34,39 -94.12,91.46 -107.5,143.56 -1.68,6.58 -2.89,13.04 -3.42,19.13 -10.8,118.99 -5.39,264.12 20.55,376.57 18.85,81.66 46.68,143.45 83.83,156.98l1.34 0.43c62.11,20.83 121.59,24.32 173.85,19.2 81.19,-7.93 145.54,-36.47 176.33,-53.68 4.55,-2.52 9.68,-4.2 15.17,-4.8 21.97,-2.38 41.78,13.49 44.15,35.46 0.96,9.01 0.58,17.56 0.22,26.38 -0.31,7.53 -10.8,9.8 -5.75,12.8 8.17,4.88 22.43,8.77 43.86,11.04l1.08 0.09c23.54,2.44 53.85,2.65 91.9,0.01l31.74 -1.8c14.99,-0.77 12.45,14.46 17.01,8.51l0.59 -0.93c3.53,-5.47 -5.24,-3.82 -8.49,-21.75 -2.05,-11.39 -4.58,-25.09 -7.56,-44.38l-0.21 -1.28c-23.93,-156.03 -37.38,-378.44 -31.42,-594.87zm-143.16 184.17l4.1 53.6c5.12,63.69 11.94,149.22 2.19,166.6 -4.01,7.22 -9.38,14.27 -15.71,20.96 -23.78,25.07 -67.89,50.07 -115.84,62.27 -49.46,12.6 -104.87,12.5 -150.39,-13.06 -10.54,-5.91 -20.61,-13.22 -29.68,-21.84 -11.4,-10.85 -25.75,-45.22 -36.46,-88.47 -10.98,-44.41 -20.73,-102.61 -21.85,-155.99 -1.27,-59.55 8.57,-115.2 38.95,-147.22 11.89,-12.48 26.55,-21.44 44.27,-25.82 24.65,-6.09 62.89,1.72 103.37,14.96 36.3,11.86 75.05,27.79 105.68,41.05 19.89,8.6 36.77,20.82 49.11,36.05l2.13 2.86c11.84,15.59 18.97,33.78 20.13,54.06zm-75.84 59.78c-1.74,-22.1 -3.3,-40.9 -4.11,-55.51 -0.17,-3.36 -1.4,-6.59 -3.4,-9.45l-0.98 -1.15c-4.04,-4.98 -10.59,-9.46 -18.86,-13.03 -29.59,-12.8 -66.44,-28 -98.78,-38.57 -28.06,-9.17 -51.55,-15.36 -59.44,-13.4 -1.82,0.45 -3.61,1.64 -5.22,3.32 -13.7,14.42 -17.88,49.87 -17.02,90.62 1,46.95 9.69,98.69 19.53,138.44 7.2,29.05 12.64,48.18 13.96,49.43 4.21,4.01 8.8,7.37 13.57,10.03 25.37,14.25 59.7,13.43 91.73,5.28 33.49,-8.51 62.87,-24.42 77.41,-39.78l3.9 -4.85c2.15,-3.87 -7.97,-67.88 -12.28,-121.38z"></path> <path class="fil0 str18" d="M2728.45 4313.79c-15.41,93.44 -36.74,312.95 -43.18,505.85 -3.81,113.83 -2.59,217.61 7.83,278.21 45.52,1.14 122.15,3.05 173.72,2.69 11.1,-0.07 18.84,-1.48 23.73,-3.9 1.46,-0.7 2.56,-1.61 3.27,-2.56 4.18,-9.02 -4.98,3.81 -6.03,-6.36 -9.38,-91.04 -41.24,-399.17 -36.87,-795.48l-1.14 -0.76c-5.9,-2.68 -14.67,-3.91 -24.76,-3.92 -12.38,0 -26.24,1.84 -39.85,5.01 -29.54,6.92 -55.88,16.03 -56.73,21.23zm-123.17 503.24c6.59,-197.02 28.32,-421 44.03,-516.23 6.35,-38.49 60.29,-72.75 117.79,-86.2 19.16,-4.47 39.22,-7.07 58.02,-7.03 21.11,0.02 41.14,3.41 57.73,10.95 29.62,13.45 48.45,37.29 48.05,74.43 -4.32,391.56 27.21,696.58 36.5,786.7 1.01,9.8 1.81,17.89 2.12,24.69 1.07,6.26 0.67,12.81 -1.39,19.12l-2.3 5.56c-8.31,16.52 -21.12,29.98 -39.68,39.2 -15.54,7.73 -34.95,12.12 -58.81,12.3 -54.85,0.41 -133.46,-1.57 -178.68,-2.74l-25.81 -0.63c-17.85,0.81 -34.69,-10.46 -40.15,-28.35 -18.92,-61.29 -22.17,-190.25 -17.42,-331.78z"></path> <path class="fil0 str19" d="M2944.14 4028.72c-9.91,37.17 -33.52,66.07 -63.94,84.84 -25.09,15.5 -55.06,24.11 -85.54,24.7 -30.38,0.59 -61.61,-6.82 -89.25,-23.15 -33.83,-19.99 -62.24,-53.02 -77.25,-100.64l-2.74 -10.59c-8.52,-42.01 9.06,-87.36 38.33,-124.51 27.82,-35.32 67.51,-64.88 104.37,-76.5l11.64 -3.13c100.63,-23.26 150.31,8.62 171.19,64.63 17.34,46.48 8.03,108.57 -6.81,164.35zm-106.09 16.74c13.86,-8.57 24.57,-21.3 28.8,-37.25 11.4,-42.84 19.27,-88.56 9.03,-116.07 -6.51,-17.42 -28.4,-25.86 -78.15,-14.36l-5.59 1.47c-21.99,6.92 -46.86,26.12 -65.35,49.59 -15.79,20.06 -25.98,41.83 -23.04,58.3l1.26 4.56c8.52,26.32 23.53,44.13 41.04,54.46 14.49,8.56 31.01,12.44 47.16,12.12 16.07,-0.31 31.81,-4.81 44.84,-12.83z"></path> <path class="fil1" d="M6373.02 4385c-27.36,-49.96 -157.61,-159.87 -232.47,-147.96 -84.74,13.47 -166.78,58.02 -233.34,114.39 -34.87,29.53 -96.57,92.49 -115.4,132.19 -17.08,36 24.84,100.44 92.6,152.82 76.94,59.48 273.74,96 288.65,183.73 4.66,27.45 -26.73,64.5 -58.89,77.23 -90.88,35.95 -146.11,-9.51 -209.19,-66.91 -47.15,-42.92 -47.3,-37.56 -91.32,1.55 -46.18,41.02 -94.99,117.61 -87.44,138.22 24.37,66.54 145.04,130.87 245.51,144.48 201.26,27.3 440.36,-59.98 431.21,-194.17 -18.94,-277.99 -222.8,-310.21 -321.82,-375.98 -43.88,-29.14 0.08,-68.56 36.77,-86.01 67.24,-31.98 113.06,69.95 139.66,65.6 30.98,-5.06 120.24,-130.45 115.47,-139.18z"></path> <path class="fil1" d="M3795.42 4565.51c-17.1,-229.83 -203.96,-321.14 -465.01,-276.54 -129.35,22.1 -231.84,224.47 -237.78,336.3 -12.06,227.05 70.16,443.56 197.93,488.17 162.18,56.63 385.65,4.76 459.18,-96.45 40.44,-55.67 115.72,-148.57 8.74,-146.05 -29.2,0.68 -54.12,5.76 -97.38,6.9 -55.59,1.46 -28.34,42.47 -104.31,75.35 -89.14,38.56 -266.48,17.26 -248.04,-184.76 0.71,-7.79 281.8,-12.51 333.14,-17.45 177.82,-17.13 168.46,15.1 153.54,-185.47zm-478.99 22.13c29.78,1.33 295.51,13.31 293.63,-21.13 -9.45,-173.81 -318.7,-139.24 -293.63,21.13z"></path> <path class="fil1" d="M1867.28 5119.76c23.26,-77.76 44.94,-242.52 40.34,-391.2 -8.02,-259.86 -85.39,-407.45 -61.22,-424.76 34.79,-24.9 140.63,-27.91 175.67,-18.35 19.16,5.22 34.52,52.56 49.64,76.25 69.51,-40.44 254.8,-109.48 311.27,-110.24 32.03,-0.43 138.29,38.5 139.89,65.62 2.44,41.32 4.13,140.49 -50.38,209.15 -31.5,39.67 -130.41,-45.87 -186.4,-56.43 -54.76,-10.32 -172.16,78.47 -169.07,98.98 11.09,73.35 84.85,378.17 49.39,547.6 -2.24,10.73 -28.5,13.71 -76.64,20.8 -43,6.32 -234.95,24.27 -222.49,-17.41z"></path> <path class="fil1" d="M4001.79 5095.79c25.15,-194.98 8.96,-606.03 -57.6,-717.72 -60.41,-101.36 46.48,-112.08 165.93,-98.48 62.09,7.07 86.45,101.94 107.5,89.4 183.28,-109.18 354.46,-60.08 391.46,-31.88 102.24,77.91 -5.23,514.37 -1.02,705.05 0.99,44.8 -8.1,82.4 -47.05,83.53 -106.45,3.08 -166.78,13.11 -184.78,-25.99 -24.58,-53.44 72.51,-443.48 41.43,-529.24 -18.73,-51.65 -125.31,-31.97 -172.89,11.48 -0.94,76.62 16.73,500.21 -25.87,531.69 -47.21,34.87 -221.51,16.26 -217.12,-17.82z"></path> <path class="fil1" d="M5610.23 3942.45c-81.51,282.64 -73.01,787.7 -29.5,1071.45 17.82,116.26 33.87,100.41 -69.93,107.67 -84.92,5.93 -135.16,-1.81 -160.1,-16.66 -21.47,-12.78 -11.45,-47.64 -13.8,-69.31 -55.43,30.95 -209.97,95.37 -382.49,37.52 -117.75,-39.49 -153.04,-352.59 -132.8,-575.54 12.37,-136.22 215.1,-275.12 284.23,-257.36 104.13,26.75 200.46,85.72 210.36,77.16 25.05,-21.7 -4.86,-320.09 -10.42,-392.9 -3.25,-42.61 175.79,-83.3 272.13,-86.78 81.17,-2.95 48.71,47.88 32.31,104.75zm-283.71 668.95c2.23,39.67 16.66,189.08 11.34,198.55 -26.86,47.85 -174.27,109.81 -249.11,38.81 -23.52,-22.3 -94.2,-324.64 6.83,-349.65 32.55,-8.05 123.34,27.88 183.65,53.98 27.55,11.92 45.82,32.3 47.29,58.3z"></path> <path class="fil1" d="M2688.89 4307.29c-26.62,160.99 -70.3,692.45 -27.85,829.81 28.67,0.55 137.51,3.95 206.05,3.42 35.03,-0.26 54.01,-11.53 63.04,-29.46 1.66,-3.31 -44.4,-348.73 -39.19,-818.48 0.92,-83.27 -193.88,-34.67 -202.04,14.7z"></path> <path class="fil1" d="M2905.48 4018.47c-26.76,100.53 -196.96,117.72 -239.14,-16.01 -19.69,-62.42 59.17,-148.77 120.74,-163.33 152.72,-36.1 144.67,80.65 118.4,179.34z"></path> <path class="fil1 str20" d="M1432.69 5175.08c-6.99,-96.52 -62.81,-253.48 -56.97,-544.74 0.67,-33.7 281.43,5.75 310.01,15.55 39.26,13.53 52.76,15.35 61.1,-27.73 11.59,-59.78 9.38,-270.3 -21.89,-300.2 -46.25,-44.22 -340.09,0.28 -366.02,-4.59 -24.87,-175.9 -74.34,-327.7 -9.19,-317.36 57.86,9.18 306.48,13.15 607.59,107.46 35.16,11.01 64.87,-340.14 17.28,-403.44 -13.53,-12.96 -1099.85,-94.38 -1089.28,30.39 27.53,324.72 97.82,609.45 44.25,1416.15 -5.03,62.77 457.61,43.95 503.12,28.49z"></path> </g> </g> </g> </svg> 