<?xml version="1.0" encoding="UTF-8"?> <svg xmlns="http://www.w3.org/2000/svg" xmlns:xlink="http://www.w3.org/1999/xlink" xmlns:xodm="http://www.corel.com/coreldraw/odm/2003" xml:space="preserve" width="139.869mm" height="27.2515mm" version="1.1" style="shape-rendering:geometricPrecision; text-rendering:geometricPrecision; image-rendering:optimizeQuality; fill-rule:evenodd; clip-rule:evenodd" viewBox="0 0 4091.61 797.19"> <defs> <style type="text/css"> .str0 {stroke:black;stroke-width:51.6;stroke-linecap:round;stroke-linejoin:round;stroke-miterlimit:22.9256} .str1 {stroke:black;stroke-width:36.12;stroke-linecap:round;stroke-linejoin:round;stroke-miterlimit:22.9256} .fil0 {fill:yellow} .fil1 {fill:white;fill-rule:nonzero} </style> </defs> <g id="Слой_x0020_1"> <metadata id="CorelCorpID_0Corel-Layer"></metadata> <path class="fil0 str0" d="M56.45 69.09c71.68,-73.45 936.63,-30.67 1607.95,-33.02 790.37,-2.76 2224.9,-32.9 2360.62,53.23 51.43,32.63 32.63,157.55 25.08,291.44 -7.88,139.59 43.98,282.34 -7.02,323.84 -163.32,132.87 -2104.8,23.66 -2724.96,41.38 -368.47,10.53 -1124.66,2.81 -1225.03,-33.89 -65.15,-23.82 -59.43,-103.63 -55.2,-241.07 6.77,-219.72 -41.8,-340.05 18.57,-401.91z"></path> <path class="fil1 str1" d="M291.93 377.41c0,-107.4 42.51,-161.11 127.52,-161.11 75.94,0 113.91,54.16 113.91,162.47 0,99.24 -39.03,148.85 -117.08,148.85 -82.9,0 -124.35,-50.07 -124.35,-150.21zm73.52 1.81c0,41.15 15.58,61.72 46.74,61.72 31.46,0 47.2,-20.27 47.2,-60.81 0,-46.9 -19.06,-70.34 -57.18,-70.34 -24.51,0 -36.76,23.15 -36.76,69.43zm226.43 19.97c0,-121.92 57.03,-182.89 171.09,-182.89 46.29,0 69.44,32.83 69.44,98.48 0,4.24 -2.42,6.35 -7.26,6.35l-60.81 0 -23.6 -23.6c0,-0.3 -0.45,-0.45 -1.36,-0.45 -46.29,0 -69.43,32.22 -69.43,96.66 0,39.63 17.4,59.45 52.19,59.45 21.48,0 32.22,-6.35 32.22,-19.06 0,-0.61 0,-1.06 0,-1.36 -15.73,-2.12 -23.6,-4.39 -23.6,-6.81l0 -47.65 6.81 -6.81 80.78 0c9.68,0 15.43,2.27 17.24,6.81 0,5.75 0,11.5 0,17.24 0,90.16 -43.72,135.24 -131.15,135.24 -75.03,0 -112.55,-43.87 -112.55,-131.61zm415.21 -20.42c0,-108.31 50.22,-162.47 150.67,-162.47 53.55,0 80.33,18.46 80.33,55.37 0,3.33 -1.21,6.05 -3.63,8.17l-36.76 36.76 -9.98 0 -39.94 -19.97c-1.21,-0.3 -3.48,-0.45 -6.81,-0.45 -33.58,0 -50.37,27.83 -50.37,83.5 0,42.96 17.85,64.44 53.55,64.44 19.97,0 33.43,-2.27 40.39,-6.81 26.93,-18.15 40.84,-27.23 41.75,-27.23 1.81,0 3.48,0.15 4.99,0.46 13.61,23.6 20.42,42.36 20.42,56.27 0,40.54 -31.16,60.81 -93.49,60.81 -100.75,0 -151.12,-49.62 -151.12,-148.85zm305.84 -1.36c0,-107.4 42.51,-161.11 127.52,-161.11 75.94,0 113.91,54.16 113.91,162.47 0,99.24 -39.03,148.85 -117.08,148.85 -82.9,0 -124.35,-50.07 -124.35,-150.21zm73.52 1.81c0,41.15 15.58,61.72 46.74,61.72 31.46,0 47.2,-20.27 47.2,-60.81 0,-46.9 -19.06,-70.34 -57.18,-70.34 -24.51,0 -36.76,23.15 -36.76,69.43zm226.43 -152.94c1.81,-4.54 17.4,-6.81 46.74,-6.81 9.98,0 19.97,0.15 29.95,0.45 11.5,2.12 17.24,12.71 17.24,31.77 0,8.17 -0.15,13.16 -0.45,14.97 -6.96,72.31 -10.44,132.97 -10.44,181.98 44.17,0 88.95,-3.78 134.33,-11.35 0.91,-0.3 3.18,-0.45 6.81,-0.45 9.08,0 13.61,17.55 13.61,52.64 0,13.31 -0.15,21.48 -0.45,24.51l-3.18 6.81c-1.81,3.33 -29.8,5.6 -83.96,6.81 -5.44,0 -24.96,0 -58.54,0 -19.36,0 -38.88,0 -58.54,0 -16.34,-1.51 -26.32,-4.84 -29.95,-9.98 0.91,-52.04 -0.15,-131.3 -3.18,-237.8 -0.3,-2.72 -0.45,-11.65 -0.45,-26.78 0,-8.77 0.15,-17.7 0.45,-26.78zm299.49 0c1.81,-4.54 17.4,-6.81 46.74,-6.81 9.98,0 19.97,0.15 29.95,0.45 11.5,2.12 17.24,12.71 17.24,31.77 0,8.17 -0.15,13.16 -0.45,14.97 -6.96,72.31 -10.44,132.97 -10.44,181.98 44.17,0 88.95,-3.78 134.33,-11.35 0.91,-0.3 3.18,-0.45 6.81,-0.45 9.08,0 13.61,17.55 13.61,52.64 0,13.31 -0.15,21.48 -0.45,24.51l-3.18 6.81c-1.81,3.33 -29.8,5.6 -83.96,6.81 -5.44,0 -24.96,0 -58.54,0 -19.36,0 -38.88,0 -58.54,0 -16.34,-1.51 -26.32,-4.84 -29.95,-9.98 0.91,-52.04 -0.15,-131.3 -3.18,-237.8 -0.3,-2.72 -0.45,-11.65 -0.45,-26.78 0,-8.77 0.15,-17.7 0.45,-26.78zm299.49 6.35c0,-11.2 29.5,-16.79 88.49,-16.79 65.65,0 113.91,2.42 144.77,7.26 4.84,2.42 7.26,14.07 7.26,34.95 0,27.23 -2.42,43.72 -7.26,49.46 -2.72,0.3 -5.45,0.45 -8.17,0.45 -4.54,0 -7.41,-0.15 -8.62,-0.45 -58.09,-9.08 -91.37,-13.61 -99.84,-13.61 -9.38,0 -18.91,0 -28.59,0 -4.54,1.21 -6.81,13.61 -6.81,37.21 0,3.33 0,6.66 0,9.98 65.65,3.63 98.48,19.51 98.48,47.65 0,15.73 -1.21,23.6 -3.63,23.6l-91.22 0 0 40.39c0,2.42 4.84,3.63 14.52,3.63 7.56,0 47.65,-4.54 120.26,-13.61 0.61,0 1.81,0 3.63,0 11.19,0 16.79,6.66 16.79,19.97 0,39.63 -3.33,60.05 -9.98,61.26l-23.6 3.18 -176.08 0c-13.01,0 -24.2,-2.27 -33.58,-6.81 0,-4.54 0,-9.08 0,-13.61 0,-4.84 2.27,-61.11 6.81,-168.82 0,-0.3 0,-0.91 0,-1.81l0 -1.36c-1.51,-43.87 -2.72,-76.54 -3.63,-98.02 0,-0.91 0,-2.27 0,-4.08zm294.95 146.13c0,-108.31 50.22,-162.47 150.67,-162.47 53.55,0 80.33,18.46 80.33,55.37 0,3.33 -1.21,6.05 -3.63,8.17l-36.76 36.76 -9.98 0 -39.94 -19.97c-1.21,-0.3 -3.48,-0.45 -6.81,-0.45 -33.58,0 -50.37,27.83 -50.37,83.5 0,42.96 17.85,64.44 53.55,64.44 19.97,0 33.43,-2.27 40.39,-6.81 26.93,-18.15 40.84,-27.23 41.75,-27.23 1.81,0 3.48,0.15 4.99,0.46 13.61,23.6 20.42,42.36 20.42,56.27 0,40.54 -31.16,60.81 -93.49,60.81 -100.75,0 -151.12,-49.62 -151.12,-148.85zm306.3 -145.68c4.24,-11.5 44.77,-17.24 121.62,-17.24 81.39,0 122.08,11.8 122.08,35.4 0,21.18 -3.48,32.07 -10.44,32.67l-67.62 6.81 -3.18 3.18c-0.61,3.93 -0.91,14.22 -0.91,30.86 0,23.3 0.3,38.88 0.91,46.74 3.63,36.31 5.9,63.38 6.81,81.23 0.3,3.93 0.45,15.73 0.45,35.4 0,12.1 -0.15,24.05 -0.45,35.85 -5.14,2.42 -20.42,3.63 -45.84,3.63 -10.59,0 -21.33,-0.15 -32.22,-0.45 -4.84,-1.82 -8.17,-4.08 -9.98,-6.81 0,-4.54 0,-9.08 0,-13.61 0,-7.26 0,-11.65 0,-13.16 1.51,-38.73 2.27,-102.71 2.27,-191.97 -3.63,-1.21 -7.72,-1.51 -12.25,-0.91 -19.67,3.63 -34.34,5.9 -44.02,6.81 -1.21,0.3 -4.54,0.45 -9.98,0.45 -3.63,0 -7.11,-0.15 -10.44,-0.45 -4.54,-6.05 -6.81,-22.39 -6.81,-49.01 0,-8.47 0,-16.94 0,-25.42zm308.57 -1.81c0,-9.98 12.86,-14.98 38.57,-14.98 27.83,0 41.75,5.6 41.75,16.79l0 270.93c0,15.73 -15.73,23.6 -47.2,23.6 -21.78,0 -33.89,-2.27 -36.31,-6.81 -0.3,-9.08 -0.45,-18 -0.45,-26.78 0,-14.52 0.15,-23.45 0.45,-26.78 6.66,-49.32 11.04,-86.07 13.16,-110.28 0.3,-2.42 0.45,-9.08 0.45,-19.97 0,-10.89 -0.15,-17.7 -0.45,-20.42 -4.84,-34.19 -8.17,-59.75 -9.98,-76.7 0,-1.51 0,-4.39 0,-8.62zm142.02 146.13c0,-107.4 42.51,-161.11 127.52,-161.11 75.94,0 113.91,54.16 113.91,162.47 0,99.24 -39.03,148.85 -117.08,148.85 -82.9,0 -124.35,-50.07 -124.35,-150.21zm73.52 1.81c0,41.15 15.58,61.72 46.74,61.72 31.46,0 47.2,-20.27 47.2,-60.81 0,-46.9 -19.06,-70.34 -57.18,-70.34 -24.51,0 -36.76,23.15 -36.76,69.43zm222.8 -150.21c0,-8.47 8.32,-12.71 24.96,-12.71 23.3,0 36.15,2.27 38.58,6.81l100.29 180.62 3.63 3.17c0,-6.66 0,-13.31 0,-19.97 0,-10.89 0,-17.55 0,-19.97 -3.63,-38.73 -5.9,-67.77 -6.81,-87.13 -0.3,-3.33 -0.45,-13.31 -0.45,-29.95 0,-9.98 0.15,-19.97 0.45,-29.95 5.14,-2.42 18,-3.63 38.58,-3.63 30.25,0 45.38,4.24 45.38,12.71 0,3.63 -0.15,6.2 -0.45,7.71 -3.33,20.88 -5.45,36.46 -6.35,46.74 -2.42,19.36 -3.63,32.68 -3.63,39.94l0 204.22 -80.33 0 -6.35 -6.81c-12.1,-30.25 -24.35,-60.36 -36.76,-90.31 -10.29,-23.6 -20.42,-39.18 -30.41,-46.74 0,4.84 0,9.83 0,14.97 0,8.17 0,13.16 0,14.97 3.63,29.95 5.9,52.19 6.81,66.71 0.3,2.72 0.45,9.98 0.45,21.78 0,7.26 -0.15,14.52 -0.45,21.78 -9.68,2.42 -26.47,3.63 -50.37,3.63 -8.78,0 -17.7,0 -26.78,0 -4.54,-2.42 -6.81,-10.44 -6.81,-24.05 0,-6.35 0.15,-10.59 0.45,-12.71 2.42,-65.95 3.63,-108.01 3.63,-126.16 0,-22.39 -2.42,-65.05 -7.26,-127.98 0,-1.51 0,-4.08 0,-7.71z"></path> </g> </svg> 