<?xml version="1.0" encoding="UTF-8"?> <svg xmlns="http://www.w3.org/2000/svg" xmlns:xlink="http://www.w3.org/1999/xlink" xmlns:xodm="http://www.corel.com/coreldraw/odm/2003" xml:space="preserve" width="131.65mm" height="141.794mm" version="1.1" style="shape-rendering:geometricPrecision; text-rendering:geometricPrecision; image-rendering:optimizeQuality; fill-rule:evenodd; clip-rule:evenodd" viewBox="0 0 2402.86 2588"> <defs> <style type="text/css"> .str0 {stroke:black;stroke-width:64.39;stroke-miterlimit:22.9256} .str2 {stroke:black;stroke-width:42.93;stroke-linecap:round;stroke-linejoin:round;stroke-miterlimit:22.9256} .str1 {stroke:black;stroke-width:42.93;stroke-linecap:round;stroke-linejoin:round;stroke-miterlimit:22.9256} .fil4 {fill:none} .fil2 {fill:#2742D9} .fil0 {fill:#638743} .fil3 {fill:#BDA98C} .fil1 {fill:black;fill-rule:nonzero} </style> </defs> <g id="Слой_x0020_1"> <metadata id="CorelCorpID_0Corel-Layer"></metadata> <path class="fil0" d="M944.33 2196.32c297.19,53.88 1002.09,-157.12 1369.66,-157.12 16.74,0 49.37,-1.13 88.88,-3.28l0 -298.82c-165.37,3.51 -368.88,16.86 -431.56,37.66 -195.71,64.93 -681.68,193.98 -877.33,204.58 -74.79,4.05 -113.83,151.61 -127.2,216.98l-22.45 0z"></path> <path class="fil1" d="M1000.86 2174.59c167.6,12.56 430.46,-34.7 690.89,-81.53 230.29,-41.42 458.7,-82.49 622.24,-82.49 16.71,0 49.38,-1.14 88.88,-3.29l0 57.28c-39.52,2.14 -72.11,3.27 -88.88,3.27 -159.71,0 -385.01,40.52 -612.17,81.37 -292.42,52.59 -587.86,105.71 -759.79,75.66 -14.73,-1.18 -26.32,-13.5 -26.32,-28.54 0,-15.65 12.56,-28.37 28.15,-28.62 9.88,-42.13 27.03,-100.41 53.09,-144.86 23.51,-40.1 54.66,-69.8 95.58,-72.01 82.41,-4.46 219.25,-30.85 363.91,-64.58 191.94,-44.76 395.82,-102.02 505.93,-138.55 8.29,-2.75 18.25,-5.3 29.61,-7.65 77.52,-16.04 237.1,-26.72 378,-30.67 11.07,-0.31 22.05,-0.55 32.89,-0.71l0 56.75c-10.27,0.36 -20.73,0.7 -31.33,0.99 -138.18,3.88 -293.88,14.18 -368.16,29.55 -9.46,1.96 -17.26,3.92 -23.13,5.86 -112.35,37.27 -318.47,95.25 -510.85,140.11 -147.22,34.33 -287.47,61.24 -373.97,65.92 -18.08,0.98 -34.8,19.13 -49.28,43.83 -21.35,36.43 -36.17,85.33 -45.28,122.91z"></path> <path class="fil2" d="M2216.14 2102.5c25.15,-0.04 101.7,-12.63 186.72,-29.43l0 -376.35c-83.02,-8.53 -158.39,-7.99 -166.81,14.72 -22.79,61.5 -96.32,391.17 -19.91,391.06z"></path> <path class="fil1" d="M2216.89 2073.98c24.86,-0.29 101.28,-13.12 185.97,-30.03l0 58.24c-84.52,16.52 -160.52,28.8 -186.72,28.83 -4.48,0.01 -8.82,-0.54 -13.01,-1.62 -30.94,-7.95 -45.23,-40.22 -48.58,-85.38 -2.57,-34.68 0.78,-79.34 7.03,-125.15 12.29,-90.13 36.14,-186.28 47.63,-217.27 6.62,-17.85 24.06,-28.63 49.1,-33.81 33.21,-6.87 87.29,-5.46 144.54,0.25l0 57.36c-54.15,-5.74 -104.57,-7.6 -133.13,-1.69 -5.29,1.1 -5.76,-5.32 -6.83,-2.42 -10.68,28.82 -33.01,119.36 -44.72,205.19 -5.75,42.14 -8.86,82.78 -6.59,113.52 1.43,19.27 3.18,32.25 5.3,33.98z"></path> <path class="fil3" d="M2402.86 2459.86c-118.65,-125.98 -81.58,-106.9 -295.26,-158.77 -41.73,-10.13 -379.21,-172.62 -380.29,-175.89 -31.21,-95.47 81.53,-244.86 280.96,-90.92 108.37,83.65 295.18,70.74 394.59,116.45l0 309.13z"></path> <path class="fil1" d="M2402.86 2506.28c-22.46,-23.35 -40.8,-43.2 -56.01,-59.66 -31.67,-34.28 -48.53,-52.54 -67.9,-63.83 -22.64,-13.2 -54.95,-20.89 -124.05,-37.31 -17.94,-4.26 -37.9,-9.01 -54.83,-13.12 -18.03,-4.37 -80.52,-31.92 -150.35,-64.22 -113.68,-52.58 -250.36,-126.09 -252.57,-132.86 -10.7,-32.73 -8.51,-69.9 5.23,-103.03 11.12,-26.81 29.9,-51.32 55.61,-69 25.51,-17.55 57.58,-28.19 95.39,-27.39 49,1.03 107.87,21.71 174.23,72.93 58.72,45.32 147.85,60.08 229.75,73.63 53.39,8.84 104.19,17.24 145.51,32.35l0 74.31c-35.14,-23.38 -93.18,-33 -155.91,-43.38 -89.42,-14.8 -186.74,-30.91 -258.01,-85.92 -54.45,-42.03 -100.47,-58.95 -137.28,-59.72 -23.41,-0.49 -42.85,5.81 -57.98,16.21 -14.92,10.26 -25.92,24.73 -32.54,40.68 -8.01,19.31 -9.5,40.31 -3.66,58.17 0.9,2.74 116.65,47.46 218.72,94.67 66.31,30.67 124.67,56.59 138.92,60.05 23.77,5.77 39.98,9.63 54.34,13.04 75.34,17.91 110.57,26.28 141.34,44.23 27.52,16.05 46.66,36.77 82.6,75.68l9.44 10.21 0 93.29z"></path> <path class="fil0" d="M1527.99 303.67c241.94,-3.49 305.45,-10.87 575.62,-54.91 23,-3.75 163.95,-16.18 299.24,-21.06l0 259.42c-398.38,-14.63 -784.03,165.44 -1164.23,101.06 -275.45,-46.64 -424.35,-77.27 -325.13,-276.17 -84.58,-42.68 437.57,-5.79 614.49,-8.34z"></path> <path class="fil1" d="M1527.66 275.15c120,-1.73 195.73,-4.42 274.87,-12.14 78.75,-7.67 161.81,-20.48 296.5,-42.44 23.37,-3.81 166.71,-16.47 303.83,-21.39l0 57.04c-133.46,4.82 -272.04,17.03 -294.66,20.71 -135.48,22.08 -219.27,34.99 -300.3,42.88 -80.64,7.86 -157.64,10.6 -279.57,12.36 -57.36,0.82 -149.23,-2.39 -245.3,-5.75 -144.03,-5.04 -298.03,-10.42 -341.11,-11.15 -0.37,3.21 -1.29,6.41 -2.81,9.47 -41.33,82.87 -33.18,129.26 12,158.5 54.43,35.23 157.81,53.98 292.22,76.74 205.3,34.77 414.6,-3.86 626.75,-43.02 175.15,-32.33 352.2,-64.99 532.79,-58.49l0 57.25c-175.82,-6.6 -350.11,25.56 -522.5,57.38 -217.2,40.09 -431.49,79.64 -646.43,43.24 -141.04,-23.88 -249.84,-43.77 -313.91,-85.24 -69.03,-44.68 -87.86,-107.9 -41.52,-211.99 -5.21,-8.79 -4.85,-18.66 0.62,-29.5 17.07,-33.82 218.99,-26.76 405.69,-20.23 95.71,3.35 187.22,6.55 242.84,5.75z"></path> <g> <path class="fil0" d="M751.35 386.84c-81.4,-79.82 -129.37,-390.49 -297.94,-355.61 -166.2,34.39 156.23,392.62 114.47,370.42 -37.05,-19.69 -71.68,-49.07 -101.87,-85.05 -26.75,-31.89 -18.12,-50.17 -121.21,-41.09 -101.66,8.96 12.96,156.92 -30.99,188.07 -105.01,74.42 0.04,9.52 -28.9,90.29 -30.96,86.4 -1.3,111.21 81.18,188.53 64.85,33.33 138.7,66.63 191.96,123.8 83.45,89.59 96.23,49.11 154.66,-40.02 18.49,-28.2 175.39,-142.08 171.86,-184.43 -1.82,-21.84 -89.65,-212.19 -133.21,-254.91z"></path> <path id="_1" class="fil1" d="M447.6 3.21l0 0 18.77 -2.76 18.35 -0.44 17.76 1.83 17.01 3.98 16.14 5.95 15.18 7.69 14.21 9.21 13.29 10.51 12.43 11.63 11.67 12.6 10.98 13.43 10.37 14.16 9.84 14.78 9.36 15.3 8.94 15.71 8.57 16.04 8.24 16.26 7.95 16.38 7.69 16.41 7.47 16.33 7.28 16.14 7.13 15.85 6.99 15.44 6.88 14.93 6.78 14.29 6.71 13.54 6.63 12.65 6.55 11.64 6.45 10.49 6.31 9.2 6.09 7.77 5.77 6.25 -40.07 40.87 -9.3 -10.04 -8.65 -11.01 -8.15 -11.86 -7.78 -12.64 -7.52 -13.35 -7.33 -13.99 -7.21 -14.54 -7.13 -15.02 -7.1 -15.4 -7.1 -15.69 -7.14 -15.88 -7.2 -15.96 -7.3 -15.95 -7.42 -15.83 -7.57 -15.61 -7.73 -15.27 -7.92 -14.82 -8.11 -14.26 -8.31 -13.59 -8.51 -12.8 -8.72 -11.9 -8.9 -10.9 -9.06 -9.8 -9.2 -8.62 -9.31 -7.38 -9.4 -6.1 -9.51 -4.83 -9.68 -3.58 -9.99 -2.35 -10.49 -1.09 -11.2 0.27 -12.14 1.79 0 0 -11.62 -56.06zm0 0l11.62 56.06c-15.48,3.2 -30.63,-6.75 -33.84,-22.23 -3.21,-15.48 6.74,-30.63 22.22,-33.83zm133.7 373.17l0 0 -11.5 -2.35 -26.78 27.68 1.49 8.23 -1.15 -2.09 -3.4 -5.49 -5.09 -7.67 -6.46 -9.4 -7.61 -10.88 -8.57 -12.19 -9.35 -13.33 -9.97 -14.34 -10.42 -15.21 -10.72 -15.95 -10.85 -16.56 -10.84 -17.05 -10.67 -17.42 -10.35 -17.68 -9.87 -17.83 -9.24 -17.88 -8.46 -17.84 -7.52 -17.72 -6.42 -17.56 -5.13 -17.37 -3.63 -17.2 -1.83 -17.08 0.39 -17.01 3.21 -16.87 6.71 -16.27 10.59 -14.68 14.11 -11.96 16.79 -8.69 18.84 -5.54 11.62 56.06 -9.51 2.76 -6.15 3.16 -3.73 3.16 -2.46 3.46 -1.86 4.63 -1.19 6.54 -0.16 8.65 1.16 10.56 2.59 12.18 4 13.48 5.31 14.51 6.5 15.3 7.54 15.89 8.42 16.29 9.15 16.52 9.72 16.6 10.12 16.52 10.37 16.31 10.46 15.95 10.39 15.46 10.16 14.84 9.79 14.08 9.26 13.21 8.59 12.22 7.77 11.12 6.84 9.96 5.82 8.78 4.8 7.78 4.03 7.76 3.34 14.4 -28.57 29.9 -17.25 -4.32 0 0 26.86 -50.55zm0 0l-26.86 50.55c-13.96,-7.42 -19.27,-24.75 -11.85,-38.71 7.42,-13.96 24.75,-19.26 38.71,-11.84zm-93.38 -78.17l0 0 2.65 3.13 2.68 3.09 2.69 3.05 2.72 3.01 2.74 2.97 2.76 2.93 2.78 2.89 2.8 2.84 2.81 2.8 2.84 2.76 2.85 2.72 2.87 2.67 2.88 2.62 2.9 2.58 2.91 2.53 2.94 2.49 2.95 2.44 2.96 2.39 2.98 2.35 2.99 2.3 3 2.25 3.01 2.2 3.02 2.14 3.03 2.1 3.05 2.05 3.06 2 3.07 1.94 3.07 1.89 3.08 1.84 3.1 1.79 3.1 1.73 3.1 1.68 -26.86 50.55 -3.83 -2.07 -3.8 -2.13 -3.78 -2.18 -3.76 -2.24 -3.74 -2.3 -3.71 -2.36 -3.69 -2.41 -3.67 -2.47 -3.65 -2.52 -3.62 -2.58 -3.6 -2.62 -3.57 -2.68 -3.55 -2.73 -3.52 -2.77 -3.5 -2.83 -3.47 -2.88 -3.44 -2.92 -3.42 -2.98 -3.4 -3.02 -3.37 -3.07 -3.34 -3.11 -3.31 -3.15 -3.29 -3.2 -3.27 -3.25 -3.23 -3.29 -3.2 -3.33 -3.18 -3.37 -3.15 -3.42 -3.12 -3.46 -3.09 -3.5 -3.06 -3.54 -3.03 -3.58 0 0 43.85 -36.79zm0 0l-43.85 36.79c-10.16,-12.11 -8.58,-30.17 3.52,-40.33 12.11,-10.16 30.16,-8.58 40.33,3.54zm-145.66 -51.21l0 0 9.66 -0.8 9.08 -0.64 8.54 -0.48 8.03 -0.32 7.55 -0.17 7.12 -0.01 6.73 0.16 6.36 0.32 6.05 0.5 5.77 0.69 5.52 0.9 5.31 1.12 5.12 1.37 4.94 1.63 4.75 1.91 4.53 2.19 4.29 2.46 4.01 2.69 3.69 2.87 3.36 2.98 3.03 3.02 2.72 3.01 2.44 2.95 2.21 2.86 2.04 2.76 1.89 2.64 1.81 2.56 1.76 2.48 1.75 2.42 1.77 2.38 1.84 2.37 1.96 2.4 -43.85 36.79 -2.86 -3.5 -2.62 -3.37 -2.38 -3.19 -2.14 -2.97 -1.94 -2.73 -1.75 -2.47 -1.57 -2.19 -1.39 -1.88 -1.23 -1.59 -1.06 -1.29 -0.91 -1.01 -0.78 -0.79 -0.69 -0.62 -0.64 -0.5 -0.66 -0.44 -0.77 -0.44 -0.97 -0.47 -1.26 -0.51 -1.62 -0.53 -2.05 -0.55 -2.52 -0.53 -3.03 -0.49 -3.56 -0.43 -4.1 -0.34 -4.66 -0.24 -5.23 -0.12 -5.83 0.01 -6.44 0.14 -7.05 0.28 -7.69 0.44 -8.35 0.59 -9.02 0.74 0 0 -5.04 -57.03zm0 0l5.04 57.03c-15.75,1.39 -29.64,-10.25 -31.03,-26 -1.39,-15.75 10.25,-29.64 25.99,-31.03zm-45.02 193.22l0 0 -1 0.88 -0.78 1.04 -0.22 0.4 0.17 -0.77 0.22 -2.09 0.02 -3.3 -0.32 -4.34 -0.71 -5.2 -1.09 -5.9 -1.43 -6.48 -1.71 -6.96 -1.93 -7.35 -2.09 -7.67 -2.18 -7.93 -2.19 -8.14 -2.14 -8.31 -2.01 -8.45 -1.8 -8.57 -1.51 -8.69 -1.13 -8.81 -0.63 -8.95 0.02 -9.12 0.87 -9.31 1.95 -9.47 3.34 -9.53 4.99 -9.3 6.74 -8.6 8.35 -7.42 9.61 -5.92 10.51 -4.36 11.22 -2.93 11.88 -1.66 5.04 57.03 -5.93 0.82 -4.2 1.09 -2.65 1.09 -1.43 0.88 -0.7 0.63 -0.46 0.62 -0.51 0.98 -0.58 1.72 -0.53 2.66 -0.32 3.62 0 4.5 0.38 5.27 0.76 5.92 1.13 6.44 1.45 6.88 1.72 7.22 1.93 7.49 2.08 7.7 2.16 7.85 2.17 7.96 2.11 8.03 1.99 8.09 1.79 8.13 1.5 8.18 1.12 8.27 0.61 8.42 -0.09 8.65 -1.05 8.96 -2.41 9.28 -4.25 9.36 -6.4 8.83 -8.33 7.39 0 0 -33.11 -46.71zm0 0l33.11 46.71c-12.89,9.14 -30.76,6.09 -39.91,-6.81 -9.14,-12.9 -6.1,-30.77 6.8,-39.91zm-39.29 103.98l0 0 1.8 -5.52 1.1 -4.33 0.53 -3.14 0.14 -1.93 -0.03 -0.74 0.06 0.33 0.37 1.12 0.79 1.51 1.08 1.45 1.12 1.11 0.86 0.65 0.37 0.23 -0.19 -0.07 -0.79 -0.29 -1.41 -0.47 -2.14 -0.7 -3.13 -1.14 -4.65 -2.19 -6.81 -4.98 -7.46 -10.95 -2.02 -14.8 3.11 -10.68 3.93 -6.36 3.75 -4.38 3.77 -3.68 4.1 -3.59 4.66 -3.79 5.39 -4.17 6.23 -4.67 7.19 -5.26 8.22 -5.92 9.35 -6.66 33.11 46.71 -9.13 6.5 -7.92 5.7 -6.75 4.94 -5.62 4.21 -4.51 3.5 -3.4 2.76 -2.25 1.96 -1.01 0.97 0.43 -0.53 1.94 -3.2 2.31 -8.11 -1.74 -12.72 -6.22 -9.25 -4.76 -3.55 -1.9 -0.94 0.2 0.05 1.63 0.53 2.68 0.9 3.5 1.33 4.17 1.9 4.67 2.65 4.97 3.63 4.92 4.75 4.44 5.86 3.59 6.79 2.49 7.38 1.36 7.67 0.33 7.78 -0.57 7.89 -1.37 8.07 -2.12 8.37 -2.86 8.79 0 0 -53.89 -19.33zm0 0l53.89 19.33c-5.33,14.88 -21.72,22.62 -36.6,17.28 -14.88,-5.34 -22.62,-21.73 -17.29,-36.61zm95.04 223.65l-6.49 -4.58 -7.57 -7.09 -7.29 -6.84 -7.02 -6.6 -6.75 -6.4 -6.48 -6.23 -6.21 -6.07 -5.95 -5.95 -5.7 -5.86 -5.44 -5.8 -5.18 -5.77 -4.92 -5.78 -4.66 -5.82 -4.39 -5.89 -4.11 -6 -3.81 -6.14 -3.49 -6.3 -3.14 -6.48 -2.76 -6.66 -2.35 -6.84 -1.91 -7.02 -1.46 -7.16 -1 -7.29 -0.54 -7.4 -0.09 -7.49 0.35 -7.58 0.77 -7.66 1.17 -7.77 1.56 -7.89 1.92 -8.03 2.28 -8.2 2.63 -8.4 2.97 -8.64 53.89 19.33 -2.48 7.21 -2.12 6.76 -1.76 6.33 -1.42 5.9 -1.08 5.49 -0.77 5.1 -0.48 4.73 -0.21 4.39 0.05 4.08 0.28 3.83 0.5 3.63 0.71 3.5 0.94 3.43 1.18 3.42 1.44 3.47 1.72 3.55 2.04 3.68 2.38 3.83 2.74 4 3.11 4.18 3.5 4.36 3.88 4.56 4.28 4.77 4.66 4.98 5.05 5.19 5.43 5.43 5.8 5.67 6.17 5.93 6.54 6.2 6.89 6.49 7.24 6.79 7.58 7.1 -6.49 -4.58 -26.16 50.92zm-6.49 -4.58l39.15 -41.76c11.53,10.81 12.12,28.93 1.31,40.46 -10.81,11.53 -28.93,12.12 -40.46,1.3zm190.59 122.43l0 0 -4.57 -4.78 -4.68 -4.67 -4.8 -4.57 -4.91 -4.47 -5.02 -4.38 -5.13 -4.29 -5.23 -4.2 -5.33 -4.11 -5.42 -4.03 -5.51 -3.95 -5.59 -3.88 -5.67 -3.81 -5.74 -3.74 -5.82 -3.67 -5.88 -3.61 -5.94 -3.55 -5.99 -3.5 -6.04 -3.45 -6.09 -3.4 -6.13 -3.36 -6.16 -3.32 -6.18 -3.28 -6.21 -3.25 -6.23 -3.23 -6.24 -3.2 -6.25 -3.18 -6.25 -3.17 -6.24 -3.16 -6.24 -3.15 -6.23 -3.16 -6.2 -3.16 -6.18 -3.16 26.16 -50.92 6.03 3.09 6.1 3.1 6.16 3.12 6.22 3.15 6.28 3.18 6.33 3.21 6.37 3.25 6.41 3.29 6.43 3.34 6.46 3.39 6.49 3.45 6.5 3.5 6.5 3.57 6.51 3.64 6.51 3.72 6.5 3.8 6.48 3.88 6.47 3.98 6.44 4.07 6.41 4.17 6.37 4.28 6.33 4.39 6.28 4.5 6.22 4.63 6.17 4.76 6.09 4.89 6.02 5.03 5.94 5.17 5.85 5.32 5.75 5.48 5.65 5.63 5.54 5.8 0 0 -41.88 39.02zm0 0l41.88 -39.02c10.78,11.57 10.14,29.68 -1.43,40.46 -11.56,10.77 -29.68,10.13 -40.46,-1.44zm199.55 -43.84l0 0 -5.27 8.09 -5.05 7.83 -4.87 7.58 -4.71 7.33 -4.58 7.06 -4.48 6.8 -4.42 6.53 -4.4 6.26 -4.42 5.99 -4.5 5.73 -4.63 5.47 -4.84 5.19 -5.14 4.9 -5.54 4.57 -6.04 4.17 -6.61 3.64 -7.2 2.94 -7.7 2.05 -8.02 1.01 -8.11 -0.07 -7.99 -1.11 -7.74 -2.02 -7.46 -2.81 -7.22 -3.5 -7.06 -4.12 -6.99 -4.71 -7 -5.29 -7.09 -5.88 -7.25 -6.48 -7.46 -7.12 -7.72 -7.77 -8.03 -8.45 41.88 -39.02 7.21 7.59 6.74 6.78 6.25 5.97 5.77 5.16 5.26 4.36 4.74 3.58 4.18 2.81 3.58 2.09 2.93 1.42 2.24 0.85 1.56 0.42 0.95 0.14 0.51 0.01 0.33 -0.04 0.42 -0.12 0.73 -0.31 1.17 -0.65 1.64 -1.14 2.08 -1.72 2.45 -2.35 2.78 -2.99 3.06 -3.61 3.3 -4.22 3.53 -4.79 3.75 -5.34 3.96 -5.84 4.17 -6.33 4.4 -6.78 4.64 -7.21 4.88 -7.61 5.15 -7.99 5.43 -8.34 0 0 47.88 31.39zm0 0l-47.88 -31.4c8.66,-13.22 26.41,-16.91 39.63,-8.24 13.22,8.67 16.91,26.42 8.25,39.64zm176.44 -202.5l0 -0 -0.27 10.27 -1.99 9.11 -3.04 8.17 -3.77 7.58 -4.35 7.26 -4.88 7.11 -5.36 7.06 -5.8 7.07 -6.21 7.1 -6.58 7.14 -6.91 7.19 -7.19 7.21 -7.42 7.23 -7.61 7.23 -7.75 7.21 -7.83 7.16 -7.86 7.09 -7.85 6.99 -7.77 6.86 -7.64 6.71 -7.46 6.53 -7.22 6.32 -6.92 6.07 -6.56 5.79 -6.14 5.48 -5.65 5.12 -5.09 4.72 -4.45 4.25 -3.71 3.7 -2.85 3.02 -1.81 2.09 -0.52 0.67 -47.88 -31.39 3.74 -5.11 3.97 -4.63 4.33 -4.6 4.76 -4.75 5.2 -4.97 5.64 -5.22 6.04 -5.48 6.41 -5.72 6.73 -5.95 7.01 -6.15 7.24 -6.34 7.42 -6.5 7.54 -6.63 7.62 -6.73 7.63 -6.8 7.59 -6.84 7.5 -6.85 7.34 -6.83 7.13 -6.78 6.86 -6.69 6.53 -6.56 6.13 -6.38 5.67 -6.16 5.15 -5.88 4.55 -5.54 3.88 -5.11 3.14 -4.56 2.33 -3.87 1.48 -2.94 0.65 -1.69 0.04 -0.02 -0.01 1.92 0 -0 57.05 -4.74zm0 -0l-57.05 4.75c-1.31,-15.76 10.39,-29.59 26.15,-30.9 15.75,-1.31 29.59,10.4 30.91,26.15zm-141.7 -272.97l0 0 5.49 5.77 5.35 6.3 5.32 6.84 5.35 7.37 5.41 7.89 5.47 8.37 5.53 8.82 5.58 9.23 5.62 9.59 5.63 9.9 5.63 10.15 5.62 10.36 5.58 10.51 5.52 10.61 5.43 10.65 5.33 10.64 5.2 10.57 5.06 10.45 4.88 10.28 4.69 10.04 4.48 9.76 4.23 9.42 3.97 9.02 3.69 8.58 3.39 8.09 3.07 7.56 2.73 6.99 2.38 6.41 2.03 5.85 1.68 5.39 1.36 5.27 0.99 6.3 -57.05 4.74 0.15 1.24 -0.44 -1.66 -1.03 -3.28 -1.54 -4.44 -2.01 -5.39 -2.43 -6.21 -2.81 -6.92 -3.17 -7.55 -3.49 -8.11 -3.79 -8.6 -4.06 -9.03 -4.3 -9.39 -4.52 -9.69 -4.71 -9.93 -4.88 -10.1 -5.03 -10.22 -5.15 -10.27 -5.24 -10.27 -5.3 -10.2 -5.34 -10.07 -5.36 -9.89 -5.35 -9.64 -5.31 -9.32 -5.24 -8.94 -5.14 -8.49 -5 -7.98 -4.83 -7.4 -4.61 -6.73 -4.34 -5.98 -3.99 -5.13 -3.54 -4.17 -2.93 -3.09 0 0 40.07 -40.87zm0 0l-40.07 40.87c-11.29,-11.07 -11.47,-29.2 -0.41,-40.48 11.06,-11.29 29.19,-11.46 40.48,-0.39z"></path> </g> <g> <path class="fil0" d="M1307.33 1922.5c-43.63,105.32 79.95,549.06 -70.5,627.85 -163.89,85.83 -86.17,-444.15 -115.9,-407.36 -26.38,32.63 -46.74,73.22 -60.42,118.16 -12.13,39.82 2.98,53.26 -95.43,85.28 -97.05,31.58 -49.54,-149.46 -102.18,-160.9 -125.77,-27.34 8.1,-171.02 -50.17,-234 -62.33,-67.37 -44.75,-101.82 0.85,-205.26 46.61,-56.07 101.52,-115.63 128.13,-189.09 41.69,-115.12 69.31,-82.89 157.98,-23.76 28.06,18.71 217.03,62.03 230.37,102.38 6.88,20.81 0.63,230.35 -22.72,286.71z"></path> <path id="_1_0" class="fil1" d="M1250.11 2575.71l-26.55 -50.72 0 -0 9.39 -5.95 8.47 -7.52 7.77 -9.28 7.11 -11.16 6.39 -13.05 5.62 -14.87 4.79 -16.56 3.96 -18.1 3.15 -19.47 2.36 -20.67 1.62 -21.71 0.95 -22.6 0.34 -23.33 -0.2 -23.92 -0.67 -24.36 -1.06 -24.66 -1.37 -24.82 -1.61 -24.86 -1.76 -24.76 -1.83 -24.53 -1.83 -24.17 -1.75 -23.69 -1.58 -23.09 -1.33 -22.38 -1 -21.56 -0.58 -20.64 -0.07 -19.64 0.53 -18.57 1.27 -17.46 2.16 -16.36 3.29 -15.33 4.81 -14.37 52.88 21.91 -2.41 7.32 -2.14 10.07 -1.64 12.48 -1.05 14.58 -0.47 16.41 0.07 18.02 0.55 19.43 0.96 20.67 1.3 21.76 1.56 22.69 1.73 23.49 1.83 24.14 1.85 24.66 1.78 25.05 1.64 25.31 1.41 25.44 1.09 25.45 0.69 25.34 0.21 25.11 -0.36 24.77 -1.02 24.31 -1.78 23.75 -2.64 23.1 -3.61 22.34 -4.71 21.49 -5.96 20.56 -7.38 19.52 -9.01 18.35 -10.86 17 -12.92 15.37 -15.11 13.37 -17.24 10.91 0 -0zm0 0c-14,7.33 -31.3,1.92 -38.63,-12.08 -7.33,-14.01 -1.92,-31.31 12.09,-38.64l26.55 50.73zm-106.92 -414.73l-44.51 -36 -0 0 21.23 -12.24 29.84 14.75 4.97 13.02 1.5 10.13 0.71 10.86 0.32 12.38 0.05 14.03 -0.14 15.62 -0.26 17.06 -0.31 18.32 -0.3 19.39 -0.22 20.25 -0.09 20.9 0.11 21.34 0.37 21.55 0.69 21.53 1.07 21.29 1.51 20.81 1.99 20.08 2.53 19.11 3.09 17.86 3.67 16.33 4.23 14.5 4.7 12.34 4.97 9.85 4.91 7.12 4.37 4.43 3.58 2.28 3.4 1.05 4.73 0.1 7.33 -1.61 10.3 -4.43 26.55 50.72 -19.04 8.12 -19.3 4.16 -19.32 -0.48 -18.2 -5.45 -15.71 -9.69 -12.72 -12.61 -10.12 -14.52 -8.12 -15.98 -6.59 -17.24 -5.38 -18.4 -4.38 -19.45 -3.53 -20.38 -2.8 -21.16 -2.16 -21.76 -1.61 -22.19 -1.13 -22.43 -0.73 -22.48 -0.39 -22.32 -0.11 -21.95 0.09 -21.37 0.23 -20.58 0.3 -19.56 0.31 -18.32 0.25 -16.84 0.13 -15.1 -0.05 -13.08 -0.27 -10.69 -0.49 -7.73 -0.46 -3.55 2.14 4.69 26.01 12.19 16.27 -8.59 -0 0zm0 -0c-9.94,12.29 -27.96,14.21 -40.25,4.27 -12.29,-9.94 -14.2,-27.97 -4.26,-40.26l44.51 35.99zm-55.3 108.5l-54.76 -16.67 0 -0 1.39 -4.48 1.43 -4.45 1.47 -4.43 1.52 -4.41 1.56 -4.38 1.6 -4.35 1.64 -4.32 1.68 -4.29 1.73 -4.27 1.77 -4.24 1.81 -4.2 1.85 -4.17 1.9 -4.14 1.94 -4.11 1.98 -4.08 2.02 -4.04 2.07 -4.01 2.11 -3.97 2.16 -3.94 2.2 -3.9 2.23 -3.85 2.29 -3.83 2.33 -3.79 2.36 -3.74 2.41 -3.71 2.46 -3.67 2.49 -3.62 2.54 -3.58 2.58 -3.54 2.63 -3.5 2.66 -3.44 2.71 -3.4 44.51 36 -2.2 2.76 -2.18 2.81 -2.14 2.85 -2.11 2.89 -2.09 2.95 -2.06 2.99 -2.03 3.03 -2 3.07 -1.97 3.12 -1.94 3.16 -1.91 3.2 -1.88 3.25 -1.85 3.28 -1.82 3.32 -1.79 3.36 -1.75 3.4 -1.72 3.44 -1.69 3.47 -1.66 3.51 -1.62 3.54 -1.6 3.59 -1.56 3.62 -1.52 3.64 -1.49 3.68 -1.46 3.71 -1.43 3.75 -1.39 3.78 -1.36 3.8 -1.32 3.83 -1.29 3.87 -1.25 3.9 -1.22 3.92 0 -0zm0 0c-4.6,15.13 -20.6,23.65 -35.72,19.05 -15.12,-4.6 -23.64,-20.6 -19.04,-35.73l54.76 16.68zm-113.96 104.17l-17.7 -54.45 0 0 8.59 -2.85 7.91 -2.73 7.24 -2.61 6.6 -2.5 5.97 -2.39 5.37 -2.28 4.77 -2.16 4.2 -2.05 3.64 -1.92 3.1 -1.78 2.59 -1.63 2.12 -1.48 1.68 -1.31 1.28 -1.13 0.96 -0.96 0.7 -0.8 0.54 -0.71 0.44 -0.68 0.39 -0.7 0.39 -0.83 0.41 -1.04 0.45 -1.3 0.47 -1.61 0.51 -1.94 0.54 -2.27 0.58 -2.62 0.64 -2.96 0.71 -3.27 0.81 -3.57 0.94 -3.86 1.09 -4.12 1.26 -4.34 54.76 16.67 -0.86 2.98 -0.76 2.89 -0.7 2.89 -0.66 2.91 -0.65 2.97 -0.66 3.06 -0.71 3.19 -0.79 3.34 -0.92 3.5 -1.1 3.66 -1.32 3.83 -1.6 3.96 -1.92 4.06 -2.28 4.1 -2.63 4.04 -2.98 3.94 -3.32 3.8 -3.62 3.61 -3.91 3.44 -4.18 3.26 -4.44 3.11 -4.74 2.99 -5.04 2.9 -5.36 2.83 -5.73 2.79 -6.12 2.77 -6.55 2.78 -7.02 2.81 -7.51 2.84 -8.05 2.9 -8.61 2.97 -9.2 3.05 0 0zm0 -0c-15.03,4.89 -31.18,-3.33 -36.07,-18.37 -4.89,-15.03 3.34,-31.19 18.37,-36.08l17.7 54.45zm-117.11 -160.15l12.17 -55.95 0 0 10.56 3.54 9.34 5.61 7.57 6.95 5.85 7.59 4.48 7.83 3.46 7.92 2.74 7.98 2.21 8.05 1.82 8.11 1.54 8.18 1.34 8.22 1.2 8.22 1.12 8.18 1.09 8.07 1.11 7.89 1.16 7.65 1.24 7.32 1.36 6.89 1.49 6.37 1.61 5.74 1.72 4.99 1.76 4.14 1.71 3.21 1.53 2.24 1.21 1.36 0.85 0.71 0.66 0.38 0.9 0.31 1.66 0.25 2.86 -0.03 4.29 -0.64 5.78 -1.57 17.7 54.45 -11.58 3.13 -11.47 1.7 -11.38 0.1 -11.16 -1.69 -10.58 -3.56 -9.57 -5.28 -8.23 -6.6 -6.81 -7.47 -5.51 -7.96 -4.44 -8.22 -3.59 -8.38 -2.93 -8.48 -2.41 -8.54 -2.01 -8.59 -1.7 -8.6 -1.46 -8.56 -1.29 -8.48 -1.17 -8.35 -1.1 -8.15 -1.08 -7.87 -1.1 -7.52 -1.15 -7.07 -1.23 -6.53 -1.31 -5.86 -1.38 -5.06 -1.4 -4.12 -1.31 -3.04 -1.02 -1.83 -0.46 -0.64 0.35 0.28 1.13 0.65 1.26 0.42 0 0zm0 0c-15.44,-3.36 -25.24,-18.61 -21.88,-34.05 3.36,-15.45 18.61,-25.25 34.05,-21.89l-12.17 55.95zm-65.1 -242.53l42.02 -38.89 0 0 7.45 9.3 5.92 10.03 4.37 10.45 2.94 10.59 1.71 10.55 0.7 10.42 -0.12 10.25 -0.77 10.09 -1.28 9.92 -1.66 9.76 -1.94 9.6 -2.12 9.43 -2.2 9.25 -2.2 9.04 -2.12 8.78 -1.95 8.49 -1.71 8.14 -1.4 7.73 -1.03 7.24 -0.62 6.67 -0.18 6 0.25 5.26 0.64 4.47 0.96 3.69 1.22 3.02 1.5 2.58 1.93 2.39 2.67 2.43 3.75 2.54 5.16 2.59 6.8 2.51 8.6 2.25 -12.17 55.95 -13.49 -3.54 -12.41 -4.58 -11.34 -5.71 -10.2 -6.91 -8.91 -8.1 -7.42 -9.14 -5.81 -9.89 -4.2 -10.3 -2.75 -10.41 -1.51 -10.35 -0.51 -10.2 0.28 -10.03 0.9 -9.86 1.38 -9.72 1.74 -9.58 1.98 -9.45 2.14 -9.31 2.21 -9.15 2.18 -8.96 2.08 -8.74 1.91 -8.47 1.65 -8.15 1.33 -7.77 0.95 -7.31 0.53 -6.78 0.08 -6.17 -0.36 -5.49 -0.76 -4.78 -1.12 -4.08 -1.45 -3.5 -1.82 -3.11 -2.38 -2.97 0 0zm0 0c-10.74,-11.6 -10.03,-29.72 1.57,-40.46 11.6,-10.74 29.71,-10.04 40.45,1.56l-42.02 38.89zm-0.15 -243.01l44.01 36.6 4.18 -6.76 -4.19 9.51 -4.01 9.08 -3.8 8.66 -3.58 8.27 -3.36 7.87 -3.12 7.49 -2.87 7.12 -2.61 6.76 -2.34 6.4 -2.07 6.06 -1.79 5.72 -1.51 5.39 -1.23 5.06 -0.95 4.75 -0.69 4.46 -0.44 4.19 -0.2 3.95 0.04 3.75 0.26 3.61 0.48 3.52 0.71 3.5 0.97 3.54 1.24 3.63 1.56 3.77 1.91 3.95 2.29 4.17 2.7 4.39 3.15 4.63 3.61 4.88 4.1 5.13 4.6 5.4 5.1 5.66 -42.02 38.89 -6.12 -6.79 -5.71 -6.7 -5.31 -6.65 -4.92 -6.64 -4.52 -6.65 -4.12 -6.69 -3.71 -6.75 -3.29 -6.83 -2.86 -6.93 -2.41 -7.02 -1.94 -7.1 -1.46 -7.16 -0.99 -7.2 -0.52 -7.22 -0.07 -7.21 0.35 -7.19 0.74 -7.16 1.1 -7.14 1.43 -7.13 1.73 -7.15 2.01 -7.18 2.26 -7.25 2.51 -7.34 2.73 -7.47 2.94 -7.62 3.14 -7.81 3.34 -8.02 3.52 -8.26 3.7 -8.53 3.87 -8.83 4.03 -9.14 4.19 -9.49 4.18 -6.76zm-4.18 6.76c6.38,-14.47 23.27,-21.03 37.74,-14.65 14.46,6.38 21.02,23.28 14.64,37.74l-52.38 -23.09zm127.4 -187.3l53.82 19.49 0 0 -2.82 7.5 -2.99 7.4 -3.15 7.29 -3.3 7.19 -3.44 7.09 -3.57 6.98 -3.69 6.89 -3.81 6.79 -3.91 6.69 -4.01 6.61 -4.1 6.51 -4.19 6.43 -4.27 6.35 -4.33 6.26 -4.39 6.19 -4.45 6.11 -4.5 6.04 -4.53 5.96 -4.56 5.9 -4.59 5.84 -4.61 5.77 -4.62 5.71 -4.62 5.65 -4.62 5.6 -4.61 5.53 -4.58 5.48 -4.56 5.44 -4.53 5.38 -4.49 5.34 -4.45 5.29 -4.4 5.24 -4.34 5.2 -44.01 -36.6 4.45 -5.33 4.48 -5.34 4.49 -5.34 4.5 -5.35 4.51 -5.35 4.51 -5.36 4.5 -5.38 4.49 -5.39 4.46 -5.4 4.44 -5.43 4.4 -5.45 4.37 -5.47 4.32 -5.49 4.27 -5.52 4.21 -5.54 4.14 -5.56 4.07 -5.6 4 -5.63 3.91 -5.66 3.82 -5.69 3.73 -5.72 3.63 -5.76 3.52 -5.79 3.41 -5.83 3.29 -5.87 3.17 -5.91 3.04 -5.95 2.91 -5.99 2.77 -6.04 2.63 -6.09 2.48 -6.13 2.33 -6.19 0 0zm0 0c5.38,-14.87 21.8,-22.55 36.66,-17.17 14.86,5.38 22.54,21.8 17.16,36.66l-53.82 -19.49zm200.77 -37.83l-31.76 47.64 0 0 -8.26 -5.54 -7.87 -5.33 -7.48 -5.09 -7.09 -4.82 -6.7 -4.52 -6.32 -4.19 -5.93 -3.83 -5.53 -3.44 -5.13 -3.03 -4.69 -2.59 -4.23 -2.13 -3.73 -1.66 -3.17 -1.2 -2.59 -0.77 -1.95 -0.41 -1.33 -0.14 -0.8 0 -0.43 0.05 -0.31 0.09 -0.47 0.21 -0.82 0.5 -1.27 0.99 -1.73 1.66 -2.13 2.45 -2.47 3.32 -2.74 4.23 -2.96 5.15 -3.13 6.08 -3.28 7.01 -3.41 7.94 -3.54 8.87 -3.66 9.81 -53.82 -19.49 4.08 -10.92 4.06 -10.17 4.08 -9.47 4.13 -8.81 4.22 -8.18 4.37 -7.61 4.59 -7.07 4.89 -6.56 5.28 -6.05 5.76 -5.51 6.33 -4.9 6.92 -4.15 7.43 -3.24 7.79 -2.21 7.89 -1.13 7.76 -0.12 7.51 0.76 7.19 1.47 6.89 2.04 6.66 2.5 6.49 2.88 6.4 3.21 6.38 3.51 6.41 3.79 6.5 4.04 6.63 4.27 6.79 4.5 6.98 4.7 7.2 4.89 7.45 5.07 7.71 5.23 8.01 5.38 0 0zm0 0c13.15,8.77 16.7,26.55 7.93,39.7 -8.77,13.15 -26.54,16.71 -39.69,7.94l31.76 -47.64zm241.66 117.21l-54.35 17.99 -0 -0.01 0.77 1.76 -0.05 -0.01 -1.26 -1.3 -2.51 -2.13 -3.66 -2.65 -4.68 -2.97 -5.57 -3.18 -6.36 -3.31 -7.04 -3.4 -7.63 -3.45 -8.14 -3.47 -8.58 -3.47 -8.93 -3.46 -9.22 -3.44 -9.43 -3.41 -9.59 -3.37 -9.66 -3.32 -9.69 -3.27 -9.64 -3.21 -9.53 -3.14 -9.37 -3.07 -9.15 -3 -8.86 -2.91 -8.53 -2.83 -8.14 -2.75 -7.7 -2.67 -7.24 -2.6 -6.73 -2.54 -6.23 -2.5 -5.79 -2.54 -5.46 -2.71 -5.44 -3.23 31.76 -47.64 0.74 0.42 2.48 1.22 3.8 1.66 4.87 1.95 5.76 2.17 6.53 2.34 7.21 2.5 7.79 2.64 8.3 2.76 8.75 2.88 9.11 2.98 9.42 3.09 9.66 3.18 9.84 3.27 9.96 3.36 10.01 3.44 10.01 3.52 9.95 3.6 9.83 3.67 9.66 3.75 9.44 3.82 9.17 3.91 8.85 3.99 8.5 4.1 8.1 4.23 7.7 4.4 7.27 4.63 6.85 4.97 6.43 5.5 5.99 6.32 5.4 7.6 4.27 9.34 -0 -0.01zm0 0.01c4.96,15.01 -3.18,31.21 -18.19,36.17 -15.01,4.96 -31.2,-3.18 -36.16,-18.19l54.35 -17.98zm-23.45 306.66l-52.88 -21.91 0 0 1.49 -3.99 1.62 -5.22 1.66 -6.28 1.65 -7.2 1.61 -8 1.55 -8.7 1.48 -9.3 1.4 -9.83 1.32 -10.28 1.23 -10.65 1.15 -10.96 1.06 -11.2 0.97 -11.36 0.89 -11.46 0.8 -11.5 0.71 -11.47 0.62 -11.37 0.54 -11.21 0.45 -10.97 0.37 -10.68 0.28 -10.32 0.2 -9.89 0.11 -9.4 0.03 -8.83 -0.05 -8.19 -0.12 -7.47 -0.2 -6.66 -0.27 -5.74 -0.32 -4.7 -0.34 -3.42 -0.24 -1.7 0.35 1.2 54.35 -17.99 1.56 6.19 0.81 5.38 0.56 5.62 0.42 6.17 0.32 6.84 0.22 7.51 0.14 8.15 0.05 8.77 -0.03 9.34 -0.12 9.86 -0.21 10.32 -0.29 10.73 -0.38 11.08 -0.47 11.37 -0.56 11.6 -0.65 11.77 -0.74 11.88 -0.83 11.93 -0.92 11.92 -1.01 11.86 -1.11 11.73 -1.21 11.55 -1.31 11.31 -1.41 11.02 -1.52 10.68 -1.63 10.28 -1.75 9.85 -1.88 9.37 -2.04 8.88 -2.22 8.38 -2.46 7.89 -2.79 7.45 0 0zm0 0c-6.05,14.61 -22.8,21.54 -37.4,15.49 -14.6,-6.05 -21.54,-22.8 -15.48,-37.4l52.88 21.91z"></path> </g> <path class="fil3 str0" d="M507.74 278.16c461.86,-214.37 1059.79,184.19 1338.59,784.85 278.8,600.66 173.13,967.67 -288.72,1182.04 -461.86,214.37 -903.81,-256.59 -1182.6,-857.25 -278.79,-600.66 -329.12,-895.27 132.74,-1109.64z"></path> <g> <path class="fil0" d="M431.21 433.11c-12.94,-75.97 -17.74,-116.13 -8.09,-167.01 7.76,-40.9 15.68,-50.99 -72.17,-105.7 -86.63,-53.95 -83.97,133.19 -137.81,131.67 -128.66,-3.65 -33.2,167.97 -104.88,215.11 -76.69,50.43 -91.32,33.5 -71.89,144.87 17.01,53.03 56.71,92.09 117.27,141.43 55.51,45.23 83.56,27.7 102.54,-63.19 14.18,3.43 87.48,-12.64 85.55,-112.45 23.47,1.28 55.85,-15.25 74.58,-44.89 16.93,-26.8 23.4,-90.01 14.91,-139.84z"></path> <path id="_1_1" class="fil1" d="M451.24 271.43l0 -0 -0.79 4.32 -0.7 4.24 -0.63 4.19 -0.55 4.15 -0.48 4.1 -0.41 4.07 -0.34 4.07 -0.27 4.06 -0.2 4.07 -0.14 4.09 -0.07 4.12 -0.01 4.17 0.06 4.22 0.12 4.29 0.18 4.36 0.25 4.44 0.31 4.54 0.37 4.65 0.44 4.76 0.5 4.88 0.56 5.01 0.62 5.16 0.68 5.3 0.74 5.45 0.8 5.61 0.86 5.79 0.91 5.97 0.97 6.15 1.02 6.35 1.08 6.54 1.13 6.75 1.18 6.96 -56.43 9.62 -1.2 -7.07 -1.15 -6.88 -1.1 -6.71 -1.05 -6.53 -1.01 -6.38 -0.95 -6.23 -0.9 -6.09 -0.85 -5.96 -0.79 -5.84 -0.74 -5.73 -0.68 -5.62 -0.62 -5.53 -0.55 -5.45 -0.49 -5.37 -0.43 -5.31 -0.36 -5.25 -0.29 -5.2 -0.22 -5.15 -0.15 -5.11 -0.07 -5.08 0.01 -5.05 0.09 -5.04 0.17 -5.03 0.25 -5.02 0.34 -5.01 0.42 -5.02 0.51 -5.04 0.59 -5.04 0.68 -5.06 0.76 -5.09 0.85 -5.13 0.94 -5.16 0 -0 56.24 10.68zm0 -0l-56.24 -10.67c2.95,-15.53 17.93,-25.74 33.45,-22.79 15.53,2.95 25.73,17.93 22.78,33.46zm-85.16 -135.34l0 0 8.16 5.13 7.65 4.9 7.16 4.7 6.7 4.51 6.25 4.35 5.84 4.2 5.44 4.08 5.08 3.99 4.73 3.93 4.41 3.9 4.11 3.9 3.82 3.94 3.55 4.02 3.27 4.14 2.98 4.28 2.68 4.45 2.34 4.6 1.97 4.74 1.57 4.83 1.16 4.84 0.76 4.77 0.4 4.65 0.1 4.48 -0.15 4.29 -0.34 4.1 -0.48 3.91 -0.57 3.78 -0.64 3.66 -0.68 3.58 -0.7 3.54 -0.7 3.53 -0.69 3.59 -56.24 -10.68 0.76 -3.9 0.72 -3.63 0.65 -3.31 0.57 -2.99 0.47 -2.66 0.36 -2.33 0.24 -1.99 0.14 -1.63 0.05 -1.31 -0.02 -1.01 -0.06 -0.75 -0.09 -0.57 -0.11 -0.47 -0.16 -0.49 -0.25 -0.6 -0.4 -0.79 -0.62 -1.03 -0.91 -1.3 -1.25 -1.58 -1.64 -1.86 -2.07 -2.13 -2.52 -2.39 -2.99 -2.64 -3.47 -2.88 -3.97 -3.12 -4.48 -3.36 -5 -3.6 -5.52 -3.84 -6.06 -4.08 -6.62 -4.34 -7.18 -4.6 -7.75 -4.87 0 0 30.25 -48.6zm0 0l-30.25 48.6c-13.42,-8.36 -17.52,-26.01 -9.17,-39.43 8.35,-13.42 26.01,-17.53 39.42,-9.17zm-152.13 127.35l0 0 -1.33 0.11 -1.25 0.36 -0.41 0.19 0.6 -0.52 1.43 -1.53 2 -2.63 2.35 -3.66 2.56 -4.58 2.68 -5.38 2.76 -6.04 2.81 -6.59 2.87 -7.03 2.94 -7.38 3.03 -7.65 3.14 -7.82 3.29 -7.92 3.47 -7.96 3.71 -7.93 4.01 -7.85 4.39 -7.72 4.88 -7.53 5.5 -7.27 6.29 -6.92 7.26 -6.4 8.4 -5.61 9.58 -4.43 10.56 -2.83 11.13 -0.91 11.23 1.04 11.03 2.83 10.73 4.41 10.49 5.82 -30.25 48.6 -5.23 -2.91 -4.01 -1.66 -2.77 -0.72 -1.68 -0.16 -0.94 0.08 -0.73 0.21 -0.99 0.48 -1.5 1.03 -2.02 1.81 -2.43 2.7 -2.7 3.6 -2.86 4.44 -2.94 5.18 -2.97 5.83 -2.97 6.36 -2.97 6.8 -2.96 7.15 -2.97 7.4 -3 7.57 -3.05 7.67 -3.14 7.69 -3.27 7.66 -3.46 7.57 -3.72 7.44 -4.08 7.28 -4.57 7.09 -5.27 6.86 -6.23 6.53 -7.51 5.97 -9.02 4.93 -10.42 3.21 -11.1 0.9 0 0 1.62 -57.23zm0 0l-1.62 57.23c-15.8,-0.45 -28.25,-13.63 -27.8,-29.43 0.45,-15.8 13.62,-28.25 29.42,-27.8zm-121.41 219.81l0 -0 3.02 -2.31 2.51 -2.58 2.25 -3.05 2.07 -3.7 1.89 -4.46 1.66 -5.25 1.4 -6.01 1.12 -6.71 0.83 -7.33 0.58 -7.86 0.36 -8.31 0.19 -8.68 0.07 -8.99 0.03 -9.22 0.05 -9.41 0.16 -9.55 0.34 -9.65 0.62 -9.72 1 -9.76 1.49 -9.79 2.13 -9.8 2.94 -9.77 3.95 -9.69 5.17 -9.45 6.55 -8.98 8.01 -8.2 9.4 -7.09 10.59 -5.73 11.56 -4.26 12.38 -2.83 13.15 -1.47 13.94 -0.2 -1.62 57.23 -8.89 0.12 -7.21 0.8 -5.63 1.28 -4.26 1.57 -3.17 1.71 -2.45 1.86 -2.07 2.14 -1.91 2.65 -1.81 3.35 -1.69 4.19 -1.51 5.05 -1.27 5.87 -1 6.62 -0.73 7.27 -0.49 7.84 -0.29 8.32 -0.14 8.71 -0.05 9.04 -0.03 9.3 -0.08 9.51 -0.21 9.67 -0.42 9.79 -0.73 9.88 -1.14 9.94 -1.67 9.98 -2.34 9.99 -3.18 9.95 -4.2 9.83 -5.4 9.57 -6.75 9.09 -8.16 8.32 -9.46 7.24 0 -0 -31.45 -47.84zm0 -0l31.45 47.85c-13.21,8.69 -30.96,5.02 -39.64,-8.2 -8.68,-13.21 -5.02,-30.96 8.19,-39.65zm-83.42 177.53l-0.94 -3.82 -1.76 -10.29 -1.56 -9.63 -1.36 -9.04 -1.15 -8.49 -0.94 -8 -0.71 -7.57 -0.47 -7.21 -0.21 -6.91 0.08 -6.68 0.41 -6.5 0.79 -6.37 1.23 -6.27 1.72 -6.16 2.26 -5.99 2.79 -5.73 3.28 -5.38 3.69 -4.96 3.98 -4.5 4.19 -4.06 4.32 -3.69 4.42 -3.38 4.51 -3.16 4.61 -3.02 4.73 -2.95 4.88 -2.95 5.06 -3 5.27 -3.1 5.5 -3.26 5.76 -3.46 6.04 -3.7 6.34 -3.99 6.68 -4.32 31.45 47.84 -7.34 4.75 -6.96 4.37 -6.55 4.01 -6.13 3.68 -5.71 3.38 -5.27 3.1 -4.81 2.85 -4.33 2.61 -3.84 2.39 -3.32 2.17 -2.8 1.96 -2.28 1.74 -1.77 1.5 -1.31 1.26 -0.93 1.04 -0.65 0.87 -0.49 0.81 -0.43 0.88 -0.42 1.13 -0.43 1.53 -0.4 2.06 -0.33 2.68 -0.21 3.33 -0.04 4.01 0.15 4.71 0.36 5.42 0.58 6.13 0.8 6.84 1.03 7.57 1.25 8.31 1.47 9.08 1.68 9.86 -0.94 -3.82 -54.51 17.49zm-0.94 -3.82l56.39 -9.85c2.72,15.57 -7.7,30.41 -23.27,33.13 -15.57,2.72 -30.4,-7.71 -33.12,-23.28zm127.39 158.71l-0 0 -5.72 -4.68 -5.61 -4.64 -5.5 -4.6 -5.39 -4.56 -5.28 -4.54 -5.18 -4.52 -5.07 -4.5 -4.96 -4.49 -4.85 -4.49 -4.75 -4.49 -4.63 -4.49 -4.53 -4.5 -4.42 -4.52 -4.31 -4.55 -4.19 -4.57 -4.08 -4.61 -3.97 -4.65 -3.85 -4.69 -3.73 -4.75 -3.61 -4.8 -3.48 -4.86 -3.36 -4.93 -3.23 -5 -3.1 -5.06 -2.96 -5.14 -2.82 -5.22 -2.68 -5.3 -2.54 -5.38 -2.39 -5.47 -2.23 -5.54 -2.08 -5.63 -1.93 -5.72 54.51 -17.49 1.39 4.14 1.51 4.08 1.62 4.02 1.73 3.96 1.84 3.91 1.96 3.88 2.08 3.85 2.2 3.82 2.33 3.81 2.45 3.79 2.58 3.79 2.72 3.79 2.85 3.79 2.98 3.79 3.13 3.81 3.26 3.82 3.4 3.84 3.54 3.87 3.69 3.89 3.82 3.92 3.97 3.95 4.12 3.99 4.25 4.02 4.4 4.06 4.54 4.11 4.68 4.16 4.82 4.21 4.97 4.26 5.1 4.32 5.24 4.38 5.38 4.44 5.52 4.51 -0 0 -36.15 44.39zm-0 0l36.15 -44.39c12.25,9.99 14.1,28.02 4.11,40.28 -9.98,12.26 -28.01,14.1 -40.27,4.11zm113.88 -57.56l34.75 -21.97 -1.91 8.78 -1.99 8.41 -2.08 8.05 -2.18 7.7 -2.29 7.36 -2.41 7.03 -2.56 6.71 -2.73 6.42 -2.92 6.13 -3.15 5.85 -3.42 5.58 -3.74 5.31 -4.12 5.01 -4.54 4.69 -5.02 4.3 -5.49 3.81 -5.96 3.24 -6.35 2.55 -6.61 1.78 -6.73 0.99 -6.73 0.22 -6.6 -0.49 -6.42 -1.1 -6.24 -1.64 -6.07 -2.12 -5.92 -2.53 -5.81 -2.91 -5.74 -3.26 -5.7 -3.6 -5.71 -3.93 -5.72 -4.25 -5.78 -4.58 36.15 -44.39 4.47 3.54 4.21 3.12 3.92 2.7 3.62 2.28 3.29 1.87 2.93 1.47 2.54 1.09 2.11 0.74 1.68 0.45 1.23 0.22 0.8 0.06 0.42 -0.01 0.18 -0.03 0.07 -0.02 0.1 -0.04 0.27 -0.15 0.53 -0.37 0.79 -0.68 1.07 -1.11 1.3 -1.59 1.48 -2.11 1.62 -2.65 1.72 -3.2 1.79 -3.75 1.82 -4.29 1.83 -4.82 1.83 -5.34 1.82 -5.85 1.8 -6.36 1.77 -6.86 1.74 -7.35 1.7 -7.83 34.75 -21.97 -13.47 55.65zm34.75 -21.97l-56.03 -11.71c3.23,-15.48 18.4,-25.4 33.87,-22.17 15.47,3.23 25.4,18.4 22.17,33.88zm55.98 -89.72l30.17 -29.14 -0.04 10.45 -0.52 10.05 -0.99 9.64 -1.45 9.23 -1.88 8.83 -2.31 8.42 -2.7 8.01 -3.08 7.6 -3.42 7.18 -3.74 6.76 -4.03 6.33 -4.28 5.9 -4.49 5.46 -4.67 5.04 -4.81 4.62 -4.91 4.21 -4.98 3.81 -5.02 3.43 -5.01 3.06 -4.98 2.7 -4.93 2.37 -4.86 2.05 -4.75 1.75 -4.64 1.47 -4.51 1.21 -4.36 0.95 -4.23 0.72 -4.12 0.49 -4.06 0.26 -4.07 0 -4.25 -0.32 -4.81 -0.86 13.47 -55.65 -1.82 -0.34 -0.6 -0.05 0.16 0 0.72 -0.05 1.16 -0.14 1.49 -0.25 1.76 -0.39 1.96 -0.52 2.13 -0.68 2.27 -0.84 2.36 -1 2.44 -1.17 2.49 -1.35 2.52 -1.53 2.51 -1.72 2.5 -1.91 2.48 -2.12 2.44 -2.34 2.38 -2.57 2.32 -2.82 2.24 -3.09 2.15 -3.38 2.05 -3.7 1.93 -4.05 1.79 -4.42 1.63 -4.82 1.44 -5.25 1.22 -5.71 0.97 -6.19 0.69 -6.69 0.38 -7.22 0.03 -7.78 30.17 -29.14 -3.11 57.17zm30.17 -29.14l-57.23 1.11c-0.3,-15.81 12.26,-28.87 28.06,-29.18 15.8,-0.3 28.87,12.26 29.17,28.07zm70.16 -29.04l-0 0 -2.31 3.52 -2.41 3.43 -2.49 3.31 -2.57 3.21 -2.65 3.1 -2.72 2.99 -2.79 2.89 -2.85 2.77 -2.91 2.67 -2.98 2.57 -3.02 2.45 -3.07 2.35 -3.12 2.24 -3.15 2.13 -3.19 2.02 -3.23 1.92 -3.25 1.8 -3.29 1.7 -3.32 1.59 -3.34 1.47 -3.36 1.36 -3.38 1.25 -3.41 1.13 -3.42 1.01 -3.44 0.89 -3.47 0.76 -3.48 0.63 -3.49 0.5 -3.52 0.36 -3.56 0.21 -3.56 0.05 -3.57 -0.11 3.11 -57.17 0.88 0.03 0.99 -0.01 1.08 -0.07 1.19 -0.12 1.3 -0.18 1.37 -0.25 1.43 -0.32 1.51 -0.39 1.57 -0.46 1.61 -0.53 1.66 -0.61 1.7 -0.68 1.72 -0.76 1.74 -0.83 1.75 -0.91 1.78 -0.99 1.77 -1.05 1.77 -1.13 1.77 -1.2 1.75 -1.26 1.74 -1.33 1.72 -1.39 1.68 -1.45 1.66 -1.52 1.63 -1.58 1.58 -1.64 1.54 -1.69 1.49 -1.75 1.45 -1.8 1.39 -1.85 1.34 -1.9 1.28 -1.96 -0 0 48.39 30.58zm-0 0l-48.39 -30.59c8.44,-13.36 26.12,-17.35 39.48,-8.91 13.36,8.45 17.35,26.13 8.91,39.5zm18.93 -159.94l0 0 0.85 5.29 0.74 5.34 0.64 5.37 0.55 5.41 0.45 5.43 0.36 5.45 0.27 5.46 0.18 5.47 0.09 5.47 0 5.46 -0.09 5.44 -0.17 5.42 -0.26 5.4 -0.34 5.36 -0.43 5.32 -0.51 5.27 -0.6 5.22 -0.68 5.15 -0.76 5.08 -0.85 5.01 -0.94 4.93 -1.02 4.85 -1.12 4.76 -1.21 4.67 -1.31 4.57 -1.41 4.48 -1.53 4.38 -1.65 4.28 -1.79 4.18 -1.94 4.09 -2.12 4 -2.32 3.9 -48.39 -30.58 0.79 -1.33 0.87 -1.64 0.92 -1.94 0.95 -2.22 0.95 -2.47 0.95 -2.71 0.93 -2.93 0.9 -3.14 0.86 -3.32 0.82 -3.49 0.77 -3.66 0.72 -3.79 0.66 -3.92 0.61 -4.05 0.55 -4.14 0.48 -4.23 0.42 -4.31 0.35 -4.38 0.28 -4.44 0.21 -4.48 0.14 -4.52 0.07 -4.54 0 -4.55 -0.07 -4.54 -0.15 -4.54 -0.22 -4.51 -0.3 -4.48 -0.37 -4.43 -0.44 -4.37 -0.51 -4.31 -0.59 -4.22 -0.66 -4.13 0 0 56.43 -9.62zm0 0l-56.43 9.61c-2.65,-15.59 7.83,-30.37 23.41,-33.03 15.58,-2.65 30.37,7.83 33.02,23.42z"></path> </g> <path class="fil4 str1" d="M234.28 287.53c6.45,53.79 26.55,197.05 107.44,330.31"></path> <path class="fil4 str1" d="M129.52 481.08c21.62,71.31 30.95,150.25 126.65,249.2"></path> <g> <path class="fil0" d="M1006.57 2179c-7.49,76.69 -9.42,117.1 3.84,167.16 10.65,40.24 19.27,49.74 -64.45,110.58 -82.56,59.99 -93.26,-126.87 -146.85,-121.5 -128.07,12.81 -45.09,-165.18 -119.95,-207.09 -80.09,-44.84 -93.48,-26.9 -82.03,-139.37 13.18,-54.11 50,-95.9 106.88,-149.44 52.15,-49.08 81.37,-33.59 106.78,55.72 13.9,-4.44 88.16,6.37 93.35,106.06 23.32,-2.95 56.79,11.23 77.59,39.46 18.79,25.52 29.76,88.11 24.84,138.42z"></path> <path id="_1_2" class="fil1" d="M1038.08 2338.83l-55.34 14.66 0 0 -1.31 -5.08 -1.22 -5.05 -1.13 -5.02 -1.04 -5 -0.95 -4.99 -0.86 -4.98 -0.78 -4.98 -0.69 -4.98 -0.61 -4.99 -0.53 -4.99 -0.45 -5.02 -0.37 -5.05 -0.29 -5.07 -0.22 -5.11 -0.15 -5.15 -0.08 -5.2 -0.02 -5.25 0.05 -5.32 0.11 -5.4 0.16 -5.47 0.22 -5.56 0.28 -5.66 0.32 -5.76 0.37 -5.88 0.42 -6 0.47 -6.14 0.51 -6.28 0.55 -6.43 0.59 -6.59 0.62 -6.77 0.66 -6.94 0.69 -7.14 56.97 5.57 -0.68 7.03 -0.65 6.82 -0.61 6.6 -0.57 6.4 -0.53 6.21 -0.49 6.01 -0.44 5.83 -0.4 5.66 -0.35 5.5 -0.3 5.34 -0.25 5.18 -0.2 5.04 -0.15 4.91 -0.1 4.78 -0.04 4.66 0.01 4.56 0.07 4.46 0.13 4.36 0.18 4.28 0.24 4.22 0.3 4.15 0.37 4.11 0.43 4.08 0.49 4.04 0.56 4.03 0.63 4.03 0.7 4.04 0.77 4.06 0.85 4.09 0.93 4.13 1.01 4.18 1.09 4.25 0 0zm-0 -0c4.05,15.28 -5.06,30.96 -20.34,35.01 -15.28,4.05 -30.95,-5.06 -34.99,-20.35l55.33 -14.66zm-75.29 141.07l-33.64 -46.33 0 0 7.39 -5.42 6.83 -5.1 6.29 -4.8 5.76 -4.51 5.24 -4.22 4.72 -3.94 4.23 -3.67 3.74 -3.4 3.26 -3.12 2.79 -2.84 2.34 -2.57 1.91 -2.27 1.51 -1.97 1.14 -1.66 0.81 -1.37 0.55 -1.07 0.34 -0.81 0.2 -0.62 0.12 -0.49 0.08 -0.49 0.05 -0.57 0.01 -0.74 -0.05 -1.01 -0.14 -1.3 -0.26 -1.63 -0.39 -1.96 -0.52 -2.29 -0.66 -2.63 -0.78 -2.94 -0.89 -3.25 -0.98 -3.57 -1.03 -3.84 55.34 -14.66 0.95 3.53 0.95 3.46 0.95 3.49 0.93 3.53 0.9 3.6 0.85 3.73 0.76 3.88 0.63 4.06 0.46 4.27 0.22 4.48 -0.07 4.68 -0.42 4.82 -0.8 4.9 -1.22 4.93 -1.62 4.87 -2.01 4.77 -2.35 4.62 -2.67 4.48 -2.97 4.36 -3.25 4.27 -3.53 4.2 -3.81 4.18 -4.12 4.21 -4.44 4.26 -4.77 4.34 -5.13 4.46 -5.53 4.61 -5.93 4.78 -6.35 4.98 -6.81 5.2 -7.28 5.44 -7.78 5.7 0 0zm0 -0c-12.79,9.29 -30.69,6.46 -39.98,-6.34 -9.29,-12.79 -6.45,-30.7 6.34,-39.99l33.64 46.32zm-160.82 -116.18l-5.7 -56.97 0 0 11.14 0.11 10.62 2.46 9.35 4.27 7.92 5.42 6.68 6.07 5.74 6.46 5.07 6.75 4.58 6.97 4.24 7.16 3.99 7.3 3.81 7.4 3.68 7.45 3.59 7.43 3.53 7.34 3.49 7.17 3.46 6.91 3.45 6.57 3.42 6.14 3.38 5.6 3.31 4.96 3.17 4.22 2.95 3.39 2.62 2.52 2.15 1.66 1.57 0.92 1.03 0.41 0.75 0.16 0.95 0.02 1.66 -0.28 2.71 -0.91 3.87 -1.94 5.02 -3.28 33.64 46.33 -10.05 6.55 -10.39 5.16 -10.8 3.61 -11.13 1.84 -11.17 -0.12 -10.74 -2.06 -9.87 -3.74 -8.78 -5 -7.69 -5.86 -6.76 -6.45 -6 -6.86 -5.4 -7.16 -4.93 -7.38 -4.56 -7.55 -4.27 -7.65 -4.03 -7.69 -3.84 -7.67 -3.69 -7.58 -3.56 -7.4 -3.46 -7.16 -3.37 -6.82 -3.28 -6.37 -3.18 -5.83 -3.06 -5.17 -2.88 -4.39 -2.6 -3.49 -2.18 -2.48 -1.54 -1.43 -0.63 -0.47 0.42 0.16 1.27 0.27 1.33 0.01 0 0zm0 0c-15.73,1.57 -29.75,-9.91 -31.33,-25.64 -1.57,-15.73 9.9,-29.76 25.63,-31.33l5.7 56.97zm-136.78 -210.59l27.95 -49.96 0 0 9.95 6.54 8.73 7.72 7.38 8.58 6.07 9.16 4.89 9.51 3.88 9.7 3.05 9.79 2.38 9.83 1.85 9.84 1.43 9.8 1.12 9.73 0.9 9.63 0.76 9.48 0.69 9.27 0.7 9.01 0.76 8.68 0.88 8.27 1.05 7.78 1.25 7.21 1.47 6.53 1.68 5.77 1.86 4.93 1.99 4.05 2.05 3.22 2.09 2.5 2.22 1.99 2.58 1.68 3.29 1.49 4.35 1.26 5.71 0.87 7.24 0.28 8.88 -0.51 5.7 56.97 -13.92 0.79 -13.22 -0.53 -12.55 -1.93 -11.84 -3.43 -10.97 -4.96 -9.88 -6.4 -8.58 -7.61 -7.18 -8.5 -5.82 -9.05 -4.63 -9.38 -3.63 -9.54 -2.83 -9.62 -2.19 -9.66 -1.69 -9.67 -1.31 -9.65 -1.03 -9.6 -0.84 -9.51 -0.73 -9.38 -0.69 -9.2 -0.72 -8.96 -0.8 -8.65 -0.95 -8.27 -1.14 -7.8 -1.35 -7.25 -1.59 -6.61 -1.82 -5.9 -2.03 -5.12 -2.2 -4.31 -2.33 -3.54 -2.46 -2.89 -2.69 -2.39 -3.18 -2.09 0 0zm-0 0c-13.79,-7.72 -18.72,-25.17 -11,-38.96 7.72,-13.8 25.16,-18.72 38.95,-11l-27.96 49.96zm-95.86 -171.13l55.61 13.56 0.67 -3.88 -0.98 9.95 -0.82 9.16 -0.66 8.38 -0.49 7.62 -0.31 6.88 -0.14 6.15 0.03 5.43 0.19 4.71 0.33 4 0.44 3.31 0.51 2.64 0.55 2.03 0.53 1.49 0.5 1.09 0.5 0.86 0.55 0.76 0.72 0.82 1.01 0.98 1.39 1.17 1.87 1.37 2.4 1.57 2.94 1.76 3.46 1.93 4 2.11 4.51 2.3 5 2.5 5.47 2.71 5.94 2.96 6.38 3.23 6.82 3.53 7.25 3.86 7.66 4.22 -27.95 49.96 -6.97 -3.83 -6.61 -3.52 -6.29 -3.26 -6 -3.04 -5.72 -2.85 -5.48 -2.72 -5.26 -2.63 -5.08 -2.58 -4.93 -2.6 -4.82 -2.69 -4.72 -2.83 -4.64 -3.05 -4.58 -3.37 -4.47 -3.76 -4.29 -4.2 -4.03 -4.68 -3.66 -5.14 -3.19 -5.51 -2.68 -5.81 -2.16 -6.02 -1.67 -6.17 -1.24 -6.31 -0.87 -6.45 -0.55 -6.65 -0.28 -6.9 -0.04 -7.22 0.17 -7.61 0.37 -8.05 0.55 -8.55 0.71 -9.11 0.87 -9.72 1.02 -10.38 0.67 -3.88zm-0.67 3.88c1.6,-15.73 15.65,-27.18 31.37,-25.58 15.73,1.6 27.18,15.65 25.58,31.38l-56.95 -5.8zm115.75 -167.39l39.22 41.7 0 -0 -5.18 4.9 -5.05 4.82 -4.92 4.75 -4.78 4.67 -4.65 4.6 -4.51 4.54 -4.37 4.48 -4.23 4.42 -4.1 4.37 -3.96 4.32 -3.82 4.27 -3.68 4.22 -3.54 4.18 -3.4 4.14 -3.26 4.11 -3.12 4.07 -2.98 4.04 -2.84 4.02 -2.71 4 -2.57 3.98 -2.44 3.97 -2.31 3.96 -2.18 3.97 -2.05 3.96 -1.92 3.97 -1.8 3.99 -1.68 4.01 -1.56 4.04 -1.44 4.07 -1.33 4.12 -1.21 4.18 -1.1 4.23 -55.61 -13.56 1.51 -5.84 1.68 -5.76 1.83 -5.69 1.99 -5.62 2.14 -5.54 2.29 -5.48 2.44 -5.41 2.59 -5.35 2.73 -5.27 2.86 -5.21 3 -5.16 3.13 -5.1 3.26 -5.05 3.38 -5 3.5 -4.96 3.63 -4.92 3.75 -4.89 3.86 -4.86 3.97 -4.84 4.09 -4.83 4.2 -4.82 4.3 -4.81 4.41 -4.81 4.52 -4.82 4.63 -4.83 4.74 -4.85 4.84 -4.87 4.95 -4.9 5.05 -4.94 5.16 -4.98 5.26 -5.02 5.37 -5.08 0 -0zm-0 0c11.51,-10.83 29.63,-10.28 40.46,1.23 10.83,11.51 10.28,29.63 -1.23,40.47l-39.23 -41.7zm117.7 49.29l17.4 54.55 -36.23 -19.44 -2.26 -7.69 -2.26 -7.2 -2.25 -6.71 -2.25 -6.22 -2.23 -5.71 -2.21 -5.19 -2.17 -4.67 -2.12 -4.15 -2.05 -3.62 -1.94 -3.07 -1.81 -2.53 -1.63 -2 -1.4 -1.48 -1.14 -1.03 -0.85 -0.63 -0.54 -0.33 -0.28 -0.13 -0.1 -0.03 -0.07 -0.01 -0.18 -0.01 -0.43 0.02 -0.79 0.12 -1.2 0.3 -1.64 0.57 -2.06 0.89 -2.46 1.27 -2.82 1.68 -3.14 2.1 -3.45 2.54 -3.72 2.98 -3.97 3.41 -4.21 3.85 -39.22 -41.7 5.44 -4.98 5.41 -4.65 5.41 -4.32 5.43 -4 5.5 -3.66 5.59 -3.31 5.72 -2.94 5.9 -2.54 6.11 -2.08 6.34 -1.56 6.55 -0.95 6.72 -0.26 6.79 0.51 6.72 1.31 6.52 2.09 6.17 2.8 5.75 3.41 5.3 3.93 4.87 4.35 4.47 4.71 4.11 5.02 3.81 5.32 3.56 5.61 3.35 5.9 3.18 6.2 3.03 6.52 2.91 6.84 2.81 7.18 2.72 7.52 2.65 7.88 2.58 8.25 2.53 8.63 -36.23 -19.44zm36.23 19.44c4.33,15.21 -4.49,31.04 -19.69,35.37 -15.2,4.33 -31.04,-4.49 -35.36,-19.7l55.05 -15.67zm62.24 85.5l7.18 56.81 -32.17 -26.92 -0.58 -7.75 -0.89 -7.17 -1.17 -6.63 -1.41 -6.11 -1.62 -5.6 -1.81 -5.14 -1.96 -4.7 -2.1 -4.27 -2.21 -3.9 -2.31 -3.54 -2.39 -3.22 -2.46 -2.92 -2.51 -2.64 -2.56 -2.39 -2.6 -2.16 -2.62 -1.94 -2.63 -1.73 -2.63 -1.53 -2.61 -1.34 -2.58 -1.17 -2.52 -0.99 -2.43 -0.83 -2.32 -0.67 -2.17 -0.52 -2 -0.39 -1.78 -0.26 -1.5 -0.14 -1.16 -0.05 -0.74 0.01 -0.17 0.01 0.61 -0.09 1.79 -0.47 -17.4 -54.55 4.74 -1.2 4.22 -0.63 4.06 -0.29 4.05 -0.03 4.14 0.19 4.28 0.41 4.43 0.64 4.58 0.88 4.73 1.14 4.86 1.41 4.99 1.7 5.08 2.01 5.16 2.34 5.23 2.69 5.24 3.06 5.24 3.45 5.2 3.85 5.12 4.26 5.02 4.7 4.87 5.14 4.69 5.57 4.47 6.02 4.21 6.47 3.93 6.92 3.61 7.36 3.26 7.8 2.9 8.23 2.51 8.68 2.1 9.1 1.68 9.54 1.24 9.99 0.78 10.42 -32.17 -26.92zm32.17 26.92c0.82,15.79 -11.31,29.26 -27.09,30.08 -15.78,0.82 -29.25,-11.31 -30.07,-27.1l57.16 -2.98zm72.05 23.97l-46.09 33.96 0 0 -1.42 -1.86 -1.47 -1.8 -1.53 -1.75 -1.57 -1.69 -1.62 -1.64 -1.66 -1.58 -1.69 -1.51 -1.74 -1.46 -1.76 -1.4 -1.79 -1.33 -1.81 -1.26 -1.83 -1.2 -1.84 -1.14 -1.85 -1.06 -1.85 -0.99 -1.85 -0.93 -1.83 -0.85 -1.82 -0.78 -1.79 -0.71 -1.78 -0.64 -1.75 -0.57 -1.69 -0.49 -1.64 -0.42 -1.6 -0.35 -1.53 -0.28 -1.45 -0.21 -1.39 -0.15 -1.29 -0.09 -1.2 -0.03 -1.1 0.01 -0.98 0.05 -0.87 0.09 -7.18 -56.81 3.56 -0.36 3.56 -0.2 3.54 -0.04 3.54 0.11 3.53 0.25 3.52 0.38 3.52 0.51 3.49 0.64 3.48 0.76 3.49 0.89 3.47 1 3.44 1.12 3.43 1.23 3.43 1.35 3.39 1.46 3.38 1.57 3.35 1.68 3.32 1.79 3.3 1.9 3.26 2.01 3.23 2.12 3.19 2.24 3.14 2.35 3.09 2.45 3.04 2.56 3 2.68 2.93 2.79 2.87 2.9 2.8 3.02 2.72 3.12 2.64 3.24 2.55 3.35 0 0zm-0 -0c9.38,12.73 6.66,30.65 -6.06,40.03 -12.73,9.38 -30.64,6.66 -40.02,-6.07l46.08 -33.96zm30.29 158.19l-56.97 -5.57 0 0 0.36 -4.17 0.29 -4.25 0.2 -4.33 0.13 -4.4 0.05 -4.44 -0.03 -4.49 -0.1 -4.51 -0.18 -4.54 -0.25 -4.54 -0.32 -4.53 -0.39 -4.53 -0.47 -4.49 -0.53 -4.45 -0.6 -4.41 -0.66 -4.34 -0.72 -4.28 -0.78 -4.19 -0.84 -4.09 -0.89 -3.99 -0.94 -3.86 -0.99 -3.73 -1.03 -3.59 -1.06 -3.42 -1.1 -3.25 -1.12 -3.07 -1.14 -2.86 -1.14 -2.64 -1.12 -2.39 -1.1 -2.14 -1.06 -1.88 -0.98 -1.57 -0.88 -1.27 46.09 -33.96 2.6 3.73 2.4 3.84 2.23 3.94 2.08 4.05 1.96 4.16 1.84 4.26 1.73 4.36 1.63 4.47 1.54 4.57 1.45 4.67 1.37 4.76 1.28 4.85 1.2 4.94 1.12 5.02 1.04 5.09 0.96 5.16 0.89 5.21 0.8 5.28 0.72 5.32 0.64 5.37 0.56 5.4 0.47 5.42 0.39 5.45 0.3 5.46 0.22 5.47 0.12 5.47 0.03 5.46 -0.06 5.45 -0.16 5.43 -0.26 5.41 -0.36 5.38 -0.47 5.33 0 0zm0 0c-1.53,15.73 -15.54,27.25 -31.27,25.71 -15.73,-1.54 -27.24,-15.54 -25.7,-31.28l56.97 5.57z"></path> </g> <path class="fil4 str2" d="M820.52 2338.25c2.59,-54.11 12.43,-198.44 83.62,-337.13"></path> <path class="fil4 str2" d="M702.23 2152.65c16.48,-72.67 20.16,-152.07 108.56,-257.6"></path> <path class="fil2" d="M2085.52 210.54c119.56,-21.69 227.63,-28.02 317.34,-25.3l0 391.12c-131.09,24.43 -242.67,25 -296.57,5.82 -63.83,-22.71 -26.96,-314.47 -20.77,-371.65z"></path> <path class="fil1" d="M2082.22 182.16c120.43,-21.72 229.63,-28.11 320.64,-25.42l0 56.99c-82.7,-2.56 -181.69,2.77 -291.31,21.21 -9.16,81.87 -32.99,307.04 4.24,320.29 39.75,14.14 116.29,16.2 210.75,4.26 24.45,-3.09 50,-7.13 76.32,-12.14l0 58.02c-23.77,4.34 -46.9,7.9 -69.16,10.72 -103.3,13.06 -189.46,9.94 -236.92,-6.94 -81.6,-29.04 -50.33,-306.86 -41.01,-389.69l1.34 -11.93c1.44,-13.54 12.12,-23.86 25.1,-25.36z"></path> </g> </svg> 