<?xml version="1.0" encoding="UTF-8"?> <svg xmlns="http://www.w3.org/2000/svg" xmlns:xlink="http://www.w3.org/1999/xlink" xmlns:xodm="http://www.corel.com/coreldraw/odm/2003" xml:space="preserve" width="129.605mm" height="177.98mm" version="1.1" style="shape-rendering:geometricPrecision; text-rendering:geometricPrecision; image-rendering:optimizeQuality; fill-rule:evenodd; clip-rule:evenodd" viewBox="0 0 12744.95 17501.96"> <defs> <style type="text/css"> .str1 {stroke:black;stroke-width:346.91;stroke-miterlimit:22.9256} .str0 {stroke:black;stroke-width:346.91;stroke-linejoin:round;stroke-miterlimit:22.9256} .str2 {stroke:black;stroke-width:277.53;stroke-linecap:round;stroke-linejoin:round;stroke-miterlimit:22.9256} .str3 {stroke:black;stroke-width:277.53;stroke-linecap:round;stroke-linejoin:round;stroke-miterlimit:22.9256} .str4 {stroke:black;stroke-width:346.91;stroke-linecap:round;stroke-linejoin:round;stroke-miterlimit:22.9256} .fil5 {fill:none} .fil6 {fill:#333333} .fil1 {fill:#BDA98C} .fil2 {fill:#CCCCCC} .fil4 {fill:#FFB44A} .fil3 {fill:white} .fil0 {fill:white} </style> </defs> <g id="Слой_x0020_1"> <metadata id="CorelCorpID_0Corel-Layer"></metadata> <path class="fil0 str0" d="M3007.6 9588.95c-2584.2,-299.66 -3158.22,-3583.57 -2683.13,-3211.63 110.38,86.44 931.92,847.26 1039.29,394.47 33.06,-139.41 -1345.64,-1387.41 -913.53,-3230.78 124.28,-530.19 287.69,-661.07 396.51,-342.5 212.3,621.53 817.51,1662.29 965.02,740.28 47.68,-298.06 -922.02,-2794.93 636.05,-3765.31 -203.36,989.76 187.37,3126.79 996.08,2477.04 416.6,-334.72 1387.25,-732.83 2294.45,-931.19 -192.8,322.84 -937.7,493.32 -1474.38,1163.47 -246.55,307.89 -719.54,1036.76 -435.6,1425.79 67.79,92.66 1323.7,2272.97 685.75,2270.13 -8.09,-0.04 -841.65,-932.64 -1009.96,-412.41 -593.48,1834.19 2181.66,3730.19 2178.66,3749.18 -24.33,153.84 -1007.48,-22.64 -1321.57,-102.68 -712.44,-181.6 -21.71,411.67 -573.6,395.97 -190.61,-5.42 -392.81,-230.62 -458.38,-426.09 -43.34,-129.18 -194.51,-178.99 -321.68,-193.73zm6729.74 0c2584.2,-299.66 3158.22,-3583.57 2683.13,-3211.63 -110.38,86.44 -931.92,847.26 -1039.29,394.47 -33.06,-139.41 1345.64,-1387.41 913.53,-3230.78 -124.28,-530.19 -287.69,-661.07 -396.51,-342.5 -212.3,621.53 -817.51,1662.29 -965.02,740.28 -47.68,-298.06 922.02,-2794.93 -636.05,-3765.31 203.36,989.76 -187.37,3126.79 -996.08,2477.04 -416.6,-334.72 -1387.25,-732.83 -2294.45,-931.19 192.8,322.84 937.7,493.32 1474.38,1163.47 246.55,307.89 719.54,1036.76 435.6,1425.79 -67.79,92.66 -1323.7,2272.97 -685.75,2270.13 8.09,-0.04 841.65,-932.64 1009.96,-412.41 593.48,1834.19 -2181.66,3730.19 -2178.66,3749.18 24.33,153.84 1007.48,-22.64 1321.57,-102.68 712.44,-181.6 21.71,411.67 573.6,395.97 190.61,-5.42 392.81,-230.62 458.38,-426.09 43.34,-129.18 194.51,-178.99 321.68,-193.73z"></path> <path class="fil1 str1" d="M4488.3 17227.75c713.18,-960.45 626.33,-620.2 722.05,-1888.69 17.41,-230.7 586.49,-2166.85 602.99,-2175.43 480.31,-249.29 1373.01,219.57 728.76,1414.31 -517.99,960.57 238.19,2649.81 -874.06,2649.81 -369.67,0 -967.81,226.89 -1179.74,0z"></path> <path class="fil1 str1" d="M6428.86 1497.56c2723.72,327.82 4332.49,3849.38 3906.16,7391.62 -426.33,3542.24 -1951.23,4923.86 -4674.95,4596.04 -2723.72,-327.82 -3412.58,-3738.66 -2986.25,-7280.89 426.34,-3542.24 1031.32,-5034.58 3755.03,-4706.77z"></path> <g id="_105553463745920"> <path class="fil2 str2" d="M10812.41 10040.43c-746.55,688.44 40.96,744.6 -261.82,1444.19 -247.17,571.1 -21.6,892.01 -57.1,1465.65 -15.9,256.98 500.85,56.03 508.38,-104.06 46.8,-995.56 1020.15,-0.23 794.87,-1288.89 -80.29,-459.27 -175.87,-189.09 -668.07,-662.73 -126.26,-121.5 -279.66,-887.89 -316.25,-854.15z"></path> <path class="fil3 str3" d="M6591.48 11683.29c29.03,-84.11 56.24,-163.09 83.05,-243.75 49.34,-148.43 201.68,-223.45 447.76,-136.63 686.11,242.1 1036.5,353.88 1851.95,597.58 531.33,158.79 1091.19,258.24 1626.84,432.48 270.03,87.83 229.83,201.81 183.26,386.31 -83.19,329.63 -100.73,393.31 -406.85,293.73 -776.61,-252.6 -1546.58,-551.44 -2442.03,-804.41 -520.73,-147.1 -671.9,-140.68 -1126.76,-275.89 -198.89,-59.12 -284.59,-54.26 -217.21,-249.42z"></path> <path class="fil4 str3" d="M6656.84 11491.24c58.88,-166.51 243.04,-271.45 488.08,-180.41 290.13,107.79 591.52,199.91 866.32,293.95 -91.3,266.79 -163.68,288.53 -254.99,555.31 -318.36,-108.96 -573.41,-132.27 -901.1,-216.18 -322.68,-82.63 -314.06,-125.28 -198.31,-452.66z"></path> </g> <g id="_105553463754208"> <ellipse class="fil5 str1" cx="3894.72" cy="7053.62" rx="2103.81" ry="2283.87"></ellipse> <ellipse class="fil5 str1" cx="9268.93" cy="7053.62" rx="2103.81" ry="2283.87"></ellipse> <path class="fil5 str1" d="M5958.34 7500.13c38.67,-33.86 147.43,-120.82 185.08,-143.38 368.59,-220.77 693.52,64.89 1057.28,190.79"></path> <path class="fil6 str1" d="M5046.13 6505.59c112.99,-133.38 358.55,-307.24 413.8,-8.61 38.19,206.42 90.18,603.4 -13.23,816 -147.59,303.45 -1157.95,115.6 -1465.65,-64.58 -117.18,-68.61 -194.88,-139.75 -119,-181.54 221.52,-122.02 585.51,145.4 1184.07,-561.27z"></path> <path class="fil6 str1" d="M3807.31 5614.86c-77.06,-156.91 -138.19,-451.5 157.6,-382.72 204.47,47.56 589.11,158.68 742.61,338.49 219.08,256.64 -357.17,1107.54 -645.38,1317.5 -109.75,79.96 -206.03,122.72 -213.98,36.45 -23.24,-251.83 367.44,-478.49 -40.86,-1309.72z"></path> <path class="fil6 str1" d="M3257.88 8254.83c4.06,174.75 -64.13,467.81 -303.71,281.18 -165.62,-129 -468.06,-391.33 -531.89,-618.97 -91.1,-324.91 789.14,-855.27 1138.87,-924.82 133.18,-26.5 238.52,-24.9 209.52,56.74 -84.64,238.32 -534.37,280.01 -512.78,1205.87z"></path> <path class="fil6 str1" d="M4826.06 8049.3c166.16,54.28 419.85,216.05 164.17,379.94 -176.73,113.28 -524.72,311.28 -760.63,295.77 -336.72,-22.14 -544.15,-1028.65 -493.44,-1381.6 19.3,-134.41 55.85,-233.22 123.2,-178.72 196.6,159.07 86.37,597.07 966.7,884.61z"></path> <path class="fil6 str1" d="M2653.96 6801.73c-165.79,55.43 -465.9,76.7 -358.25,-207.27 74.42,-196.29 235.88,-562.65 434.57,-690.79 283.58,-182.88 1049.95,501.79 1219.57,815.44 64.6,119.44 94.13,220.57 7.57,216.94 -252.69,-10.59 -425.17,-428.01 -1303.47,-134.32z"></path> <path class="fil5 str4" d="M2393.75 4803.71c-171.07,91.19 -569.19,515.25 -692.98,868.82"></path> <path class="fil5 str4" d="M5252.88 9366.96c129.04,-77 590.88,-524.53 622.38,-615.55"></path> <path class="fil5 str4" d="M1420.71 5067.92c-401.42,471.26 -633.52,1272.69 -642.91,1689.33"></path> <path class="fil5 str4" d="M5846.48 9468.12c477.74,-393.69 846.58,-1142.09 928.79,-1550.66"></path> <path class="fil5 str4" d="M9150.17 4281.4c-192.26,-24.84 -762.47,89.98 -1068.27,306.36"></path> <path class="fil5 str4" d="M9320.36 9804.89c150.25,-2.16 773.98,-158.82 846.78,-221.9"></path> <path class="fil5 str4" d="M8204.1 3932.75c-600.26,151.38 -1253.89,669.95 -1503.02,1004.04"></path> <path class="fil5 str4" d="M9783.86 10189.3c610.57,-102.08 1304.2,-565.79 1579.67,-878.52"></path> <path class="fil6 str1" d="M10427.56 6505.59c112.99,-133.38 358.55,-307.24 413.8,-8.61 38.19,206.42 90.18,603.4 -13.23,816 -147.59,303.45 -1157.95,115.6 -1465.65,-64.58 -117.18,-68.61 -194.88,-139.75 -119,-181.54 221.52,-122.02 585.51,145.4 1184.07,-561.27z"></path> <path class="fil6 str1" d="M9188.74 5614.86c-77.06,-156.91 -138.19,-451.5 157.6,-382.72 204.47,47.56 589.11,158.68 742.61,338.49 219.08,256.64 -357.17,1107.54 -645.38,1317.5 -109.75,79.96 -206.03,122.72 -213.98,36.45 -23.24,-251.83 367.44,-478.49 -40.86,-1309.72z"></path> <path class="fil6 str1" d="M8639.31 8254.83c4.06,174.75 -64.13,467.81 -303.71,281.18 -165.62,-129 -468.06,-391.33 -531.89,-618.97 -91.1,-324.91 789.14,-855.27 1138.87,-924.82 133.18,-26.5 238.52,-24.9 209.52,56.74 -84.64,238.32 -534.37,280.01 -512.78,1205.87z"></path> <path class="fil6 str1" d="M10207.49 8049.3c166.16,54.28 419.85,216.05 164.17,379.94 -176.73,113.28 -524.72,311.28 -760.63,295.77 -336.72,-22.14 -544.15,-1028.65 -493.44,-1381.6 19.3,-134.41 55.85,-233.22 123.2,-178.72 196.6,159.07 86.37,597.07 966.7,884.61z"></path> <path class="fil6 str1" d="M8035.38 6801.73c-165.79,55.43 -465.9,76.7 -358.25,-207.27 74.42,-196.29 235.88,-562.65 434.57,-690.79 283.58,-182.88 1049.95,501.79 1219.57,815.44 64.6,119.44 94.13,220.57 7.57,216.94 -252.69,-10.59 -425.17,-428.01 -1303.47,-134.32z"></path> </g> </g> </svg> 