<?xml version="1.0" encoding="UTF-8"?> <svg xmlns="http://www.w3.org/2000/svg" xmlns:xlink="http://www.w3.org/1999/xlink" xmlns:xodm="http://www.corel.com/coreldraw/odm/2003" xml:space="preserve" width="83.9721mm" height="193.075mm" version="1.1" style="shape-rendering:geometricPrecision; text-rendering:geometricPrecision; image-rendering:optimizeQuality; fill-rule:evenodd; clip-rule:evenodd" viewBox="0 0 8331.52 19156.43"> <defs> <style type="text/css"> .str0 {stroke:black;stroke-width:350.02;stroke-miterlimit:22.9256} .str2 {stroke:black;stroke-width:280.01;stroke-linecap:round;stroke-linejoin:round;stroke-miterlimit:22.9256} .str1 {stroke:black;stroke-width:254.95;stroke-linecap:round;stroke-linejoin:round;stroke-miterlimit:22.9256} .fil0 {fill:#806D4F} .fil2 {fill:#CCCCCC} .fil1 {fill:yellow} </style> </defs> <g id="Слой_x0020_1"> <metadata id="CorelCorpID_0Corel-Layer"></metadata> <path class="fil0 str0" d="M2188.82 18879.76c719.57,-969.05 631.94,-625.76 728.52,-1905.6 17.56,-232.76 591.74,-2186.26 608.39,-2194.91 484.61,-251.53 1385.31,221.53 735.28,1426.98 -522.63,969.18 240.33,2673.54 -881.89,2673.54 -372.98,0 -976.48,228.92 -1190.3,0z"></path> <path class="fil0 str0" d="M7534.63 6015.94c532.14,1295.11 743.42,2870.72 553.28,4450.57 -430.13,3573.97 -1968.71,4967.96 -4716.82,4637.21 -2628.91,-316.41 -3378.99,-3479.48 -3062.54,-6882.05 64.1,-689.39 98.21,-1019.95 894.12,-1206.61 564.42,-132.37 1381.92,-160.19 2177.09,-351.73 1685.12,-405.92 2711.09,-1018.86 3456.27,-1164.95 467.28,-91.62 558.48,176.54 698.6,517.56z"></path> <polygon class="fil1 str1" points="4290.28,2755.86 2812.66,4494.23 3971.58,4523.2 3015.47,6493.36 5391.25,4001.7 4261.31,3943.74 "></polygon> <path class="fil2 str2" d="M1435.51 2607.1c-785.47,-679.49 233,-2178.3 1414.04,-1281.64 26.23,-1719.04 2801.46,-1556.7 2382.98,406.89 643.93,-793.16 1590.52,-43.63 1115.06,680.4 -87.53,110.61 1056.05,349.28 1066.15,782.77 4.7,201.7 -1148.27,203.74 -2255.21,203.74 -631.51,0 -1304.48,-7.67 -2012.95,-7.67 -1332.6,0 -1451.25,72.33 -2733.72,72.33 -623.84,0 -134.5,-846.17 1023.64,-856.81z"></path> </g> </svg> 