<?xml version="1.0" encoding="UTF-8"?> <svg xmlns="http://www.w3.org/2000/svg" xmlns:xlink="http://www.w3.org/1999/xlink" xmlns:xodm="http://www.corel.com/coreldraw/odm/2003" xml:space="preserve" width="151.106mm" height="189.579mm" version="1.1" style="shape-rendering:geometricPrecision; text-rendering:geometricPrecision; image-rendering:optimizeQuality; fill-rule:evenodd; clip-rule:evenodd" viewBox="0 0 15002.54 18822.27"> <defs> <style type="text/css"> .str6 {stroke:black;stroke-width:105.07;stroke-miterlimit:22.9256} .str9 {stroke:black;stroke-width:105.07;stroke-miterlimit:22.9256} .str0 {stroke:black;stroke-width:350.26;stroke-miterlimit:22.9256} .str10 {stroke:black;stroke-width:66.44;stroke-linecap:round;stroke-linejoin:round;stroke-miterlimit:22.9256} .str3 {stroke:black;stroke-width:145.38;stroke-linecap:round;stroke-linejoin:round;stroke-miterlimit:22.9256} .str5 {stroke:black;stroke-width:61.81;stroke-linecap:round;stroke-linejoin:round;stroke-miterlimit:22.9256} .str8 {stroke:black;stroke-width:61.81;stroke-linecap:round;stroke-linejoin:round;stroke-miterlimit:22.9256} .str4 {stroke:black;stroke-width:61.81;stroke-linecap:round;stroke-linejoin:round;stroke-miterlimit:22.9256} .str7 {stroke:black;stroke-width:61.81;stroke-linecap:round;stroke-linejoin:round;stroke-miterlimit:22.9256} .str2 {stroke:black;stroke-width:70.06;stroke-linecap:round;stroke-linejoin:round;stroke-miterlimit:22.9256} .str1 {stroke:black;stroke-width:70.06;stroke-linecap:round;stroke-linejoin:round;stroke-miterlimit:22.9256} .str17 {stroke:black;stroke-width:210.16;stroke-linecap:round;stroke-linejoin:round;stroke-miterlimit:22.9256} .str18 {stroke:black;stroke-width:210.16;stroke-linecap:round;stroke-linejoin:round;stroke-miterlimit:22.9256} .str16 {stroke:black;stroke-width:210.16;stroke-linecap:round;stroke-linejoin:round;stroke-miterlimit:22.9256} .str14 {stroke:black;stroke-width:210.16;stroke-linecap:round;stroke-linejoin:round;stroke-miterlimit:22.9256} .str13 {stroke:black;stroke-width:210.16;stroke-linecap:round;stroke-linejoin:round;stroke-miterlimit:22.9256} .str15 {stroke:black;stroke-width:210.16;stroke-linecap:round;stroke-linejoin:round;stroke-miterlimit:22.9256} .str12 {stroke:black;stroke-width:350.26;stroke-linecap:round;stroke-linejoin:round;stroke-miterlimit:22.9256} .str11 {stroke:black;stroke-width:104.2;stroke-linecap:round;stroke-linejoin:round;stroke-miterlimit:22.9256} .fil2 {fill:none} .fil6 {fill:black} .fil7 {fill:black} .fil3 {fill:#0C5ACF} .fil10 {fill:#84D132} .fil12 {fill:#BBFF57} .fil11 {fill:#BBFF57} .fil0 {fill:#BDA98C} .fil8 {fill:#CCCCCC} .fil4 {fill:#FF99CC} .fil5 {fill:yellow} .fil9 {fill:white} .fil1 {fill:black;fill-rule:nonzero} </style> </defs> <g id="Слой_x0020_1"> <metadata id="CorelCorpID_0Corel-Layer"></metadata> <g> <path class="fil0" d="M5544.16 18546.4c720.05,-969.7 632.36,-626.18 729.01,-1906.89 17.57,-232.92 592.14,-2187.74 608.8,-2196.4 484.94,-251.7 1386.24,221.68 735.78,1427.94 -522.98,969.83 240.49,2675.35 -882.48,2675.35 -373.23,0 -977.14,229.08 -1191.11,0z"></path> <path id="_1" class="fil1" d="M6098.53 16626.48l349.28 26.05 0 0.01 -8.52 114.98 -7.64 106.13 -6.93 97.9 -6.41 90.27 -6.09 83.25 -5.96 76.85 -6.02 71.11 -6.27 65.97 -6.77 61.57 -7.51 57.76 -8.49 54.61 -9.76 52.02 -11.29 49.91 -13.12 48.24 -15.15 46.76 -17.3 45.46 -19.51 44.31 -21.68 43.33 -23.82 42.58 -25.87 42.23 -27.99 42.41 -30.17 43.14 -32.54 44.56 -35.1 46.61 -37.9 49.37 -40.97 52.76 -44.28 56.82 -47.86 61.49 -51.67 66.79 -55.72 72.69 -59.99 79.16 -64.5 86.26 -281.77 -206.89 65.85 -88.05 61.24 -80.83 56.79 -74.08 52.44 -67.8 48.25 -62 44.18 -56.68 40.2 -51.79 36.35 -47.33 32.6 -43.3 28.96 -39.65 25.49 -36.43 22.21 -33.62 19.2 -31.3 16.53 -29.56 14.28 -28.47 12.44 -28.25 11 -28.9 9.87 -30.5 8.97 -33.01 8.21 -36.39 7.58 -40.4 6.98 -45.02 6.51 -50.14 6.12 -55.69 5.88 -61.69 5.76 -68.09 5.8 -74.9 6.01 -82.18 6.39 -89.87 6.93 -98.06 7.67 -106.7 8.58 -115.82 0 0.01zm0 -0.01c7.24,-95.91 91.3,-167.82 187.75,-160.62 96.45,7.2 168.77,90.79 161.54,186.7l-349.28 -26.07zm702.41 -2337.75l162.07 308.78 0.08 -0.04 78.49 -83.7 -3.38 9.45 -8.15 24.41 -11.27 35.13 -13.91 44.36 -16.23 52.69 -18.35 60.21 -20.19 67 -21.86 73.11 -23.3 78.48 -24.54 83.21 -25.57 87.22 -26.39 90.59 -27.01 93.26 -27.41 95.24 -27.62 96.57 -27.61 97.21 -27.41 97.17 -27 96.46 -26.38 95.06 -25.55 92.98 -24.51 90.21 -23.27 86.76 -21.82 82.6 -20.15 77.75 -18.28 72.15 -16.16 65.77 -13.83 58.61 -11.25 50.47 -8.39 41.11 -5.19 29.73 -1.78 13.81 -349.28 -26.05 4.72 -39.72 7.42 -42.65 9.94 -48.76 12.36 -55.53 14.68 -62.22 16.84 -68.51 18.81 -74.26 20.59 -79.42 22.18 -84.01 23.59 -87.95 24.79 -91.22 25.8 -93.87 26.6 -95.85 27.19 -97.15 27.59 -97.83 27.79 -97.81 27.78 -97.15 27.57 -95.8 27.16 -93.79 26.55 -91.12 25.72 -87.78 24.7 -83.79 23.5 -79.12 22.06 -73.79 20.45 -67.85 18.65 -61.22 16.65 -54 14.49 -46.23 12.22 -38.05 10.02 -29.97 9.07 -24.8 84.83 -96.5 0.08 -0.04zm-0.08 0.04c85.71,-44.54 191.53,-11.55 236.33,73.69 44.8,85.24 11.62,190.47 -74.1,235.01l-162.23 -308.7zm971.23 1664.59l-308.68 -164.59 0 0 52.73 -103.55 44.09 -98.44 35.92 -93.35 28.24 -88.2 21.01 -83.02 14.3 -77.85 8.11 -72.71 2.45 -67.62 -2.67 -62.64 -7.3 -57.85 -11.44 -53.28 -15.14 -48.94 -18.5 -44.89 -21.52 -41.1 -24.31 -37.57 -26.88 -34.24 -29.26 -31.04 -31.47 -27.95 -33.51 -24.92 -35.3 -21.87 -36.83 -18.79 -38.13 -15.7 -39.1 -12.56 -39.71 -9.38 -39.96 -6.2 -39.84 -3 -39.39 0.15 -38.5 3.25 -37.23 6.26 -35.69 9.17 -33.81 11.94 -31.77 14.62 -162.07 -308.78 61.48 -28.33 63.59 -22.49 65.16 -16.78 66.32 -11.17 67.06 -5.67 67.44 -0.27 67.52 5.08 67.27 10.42 66.62 15.76 65.63 21.1 64.28 26.48 62.51 31.92 60.28 37.38 57.58 42.85 54.41 48.36 50.68 53.81 46.42 59.16 41.61 64.38 36.31 69.38 30.51 74.16 24.33 78.66 17.77 82.86 10.95 86.86 3.86 90.64 -3.43 94.21 -10.89 97.71 -18.59 101.14 -26.45 104.53 -34.53 107.92 -42.85 111.38 -51.44 114.84 -60.26 118.33 0 0zm0 0c-45.7,84.76 -151.87,116.62 -237.1,71.18 -85.24,-45.44 -117.28,-151.01 -71.57,-235.77l308.68 164.59zm-1036.82 2767.2l0 -348.29 0 0 81.9 -4.01 68.64 -11.08 56.71 -16.79 46.64 -21.42 39.01 -25.7 33.75 -30.58 30.09 -36.64 27.19 -43.9 24.33 -51.91 21.25 -60.04 17.93 -67.83 14.58 -75.12 11.36 -81.73 8.39 -87.61 5.77 -92.88 3.63 -97.48 1.96 -101.48 0.8 -104.94 0.24 -107.87 0.22 -110.29 0.79 -112.25 1.98 -113.74 3.77 -114.81 6.2 -115.48 9.27 -115.72 13.03 -115.57 17.48 -115.02 22.68 -114.1 28.66 -112.75 35.44 -110.9 43.05 -108.53 51.39 -105.34 308.68 164.59 -39.32 80.66 -33.76 85.22 -28.61 89.65 -23.8 93.76 -19.34 97.46 -15.28 100.66 -11.64 103.4 -8.46 105.61 -5.74 107.32 -3.55 108.56 -1.9 109.29 -0.77 109.59 -0.22 109.45 -0.24 108.85 -0.84 107.9 -2.06 106.56 -3.91 104.88 -6.42 102.91 -9.66 100.69 -13.7 98.23 -18.62 95.57 -24.6 92.69 -31.79 89.47 -40.34 85.64 -50.29 80.82 -61.37 74.34 -72.85 65.79 -83.87 55.15 -93.7 43.02 -102.26 30.35 -110.12 17.85 -117.8 5.84 0 0zm0 0c-96.71,0 -175.13,-77.97 -175.13,-174.15 0,-96.18 78.42,-174.15 175.13,-174.15l0 348.29zm-1331.99 -277.59l281.77 206.89 -12.57 -221.96 6.47 6.13 7.8 5.85 9.84 5.84 12.49 5.82 15.4 5.62 18.4 5.1 21.39 4.38 24.2 3.47 26.84 2.42 29.23 1.31 31.39 0.19 33.31 -0.92 35.04 -1.99 36.58 -2.97 37.87 -3.88 39.07 -4.69 40.05 -5.38 40.87 -5.97 41.57 -6.44 42.15 -6.81 42.55 -7.03 42.89 -7.16 43.13 -7.14 43.21 -6.98 43.21 -6.72 43.17 -6.33 43.03 -5.78 42.84 -5.11 42.61 -4.28 42.35 -3.3 42.12 -2.12 41.74 -0.74 0 348.29 -29.55 0.55 -31.67 1.61 -33.66 2.62 -35.42 3.56 -37 4.42 -38.36 5.16 -39.57 5.8 -40.65 6.32 -41.52 6.72 -42.28 7 -42.93 7.16 -43.47 7.19 -43.87 7.07 -44.17 6.86 -44.42 6.48 -44.52 5.98 -44.57 5.34 -44.6 4.56 -44.52 3.6 -44.43 2.52 -44.33 1.2 -44.16 -0.27 -44.04 -2.01 -43.89 -3.99 -43.79 -6.3 -43.63 -9.01 -43.42 -12.13 -42.96 -15.75 -42.24 -19.88 -40.97 -24.5 -38.9 -29.34 -35.9 -34.18 -12.57 -221.96zm12.57 221.96c-65.82,-70.46 -61.73,-180.67 9.13,-246.12 70.86,-65.45 181.68,-61.38 247.5,9.08l-256.63 237.03z"></path> </g> <path class="fil0 str0" d="M7503.43 2664.59c2749.97,330.98 4374.25,3886.48 3943.81,7462.87 -430.44,3576.39 -1970.04,4971.32 -4720.01,4640.34 -2749.97,-330.98 -3445.47,-3774.7 -3015.03,-7351.08 430.45,-3576.39 1041.26,-5083.11 3791.23,-4752.14z"></path> <g id="_105553392557440"> <path class="fil2 str1" d="M8831.78 2942.79c40.46,35.7 69.99,346.71 84.73,424.15 -29.02,7.6 -405.62,108.38 -407.5,108.22"></path> <path class="fil2 str1" d="M8546.49 3250.16c144.47,-4.66 542.93,175 650.02,175"></path> <path class="fil2 str2" d="M9004.83 3101.65c44.74,39.47 77.37,383.3 93.68,468.91 -32.08,8.4 -448.42,119.82 -450.5,119.64"></path> <path class="fil2 str2" d="M8689.46 3441.45c159.71,-5.15 600.22,193.47 718.6,193.47"></path> <path class="fil3 str3" d="M8082.71 278.52c-368.14,132.79 -443.35,465.89 -373.71,846.75 44.27,242.21 127.25,496.11 121.47,750.17 -40.67,1781.64 2994.4,1370.69 3185.04,809.57 -131.07,-101.48 -318.18,-170.06 -304.73,-187.75 -50.85,-128.39 216.93,-329.56 100.25,-346.8 -131.89,-19.49 -362.52,-168.39 -414.93,-240.18 -683.33,-936.11 -1613.27,-514.45 -1610.77,-516.5 523.45,-427.13 23.48,-1377.19 -702.61,-1115.26z"></path> <path class="fil2 str3" d="M8682 1829.83c66.45,262.71 267.6,606.55 522.72,719.26 338.12,149.38 549.3,181.32 896.75,-8.95 420.34,-230.41 -481.92,-174.74 -449.74,-357.51 48.15,-273.58 -356.36,-172.96 -400.35,-181.35"></path> <g> <path class="fil4 str4" d="M8435.43 440.6c-157.31,12.3 -204.92,206.04 -194.75,317.41 155.93,-8.04 485.53,136.28 525.69,127.02 48.07,-202.84 -78.44,-464.18 -330.95,-444.44z"></path> <path class="fil5 str5" d="M8418.63 1037.66c183.3,57.03 317.39,-38.45 347.75,-152.63 21.89,-82.35 -338.08,-154.42 -514.44,-135.34 -45.45,-11.96 42.22,249.23 166.69,287.97z"></path> <ellipse class="fil6 str6" cx="8551.91" cy="716.17" rx="33.19" ry="34.13"></ellipse> </g> <g> <path class="fil4 str7" d="M7997.12 361.62c-247.71,-77.05 -373.73,163.6 -360.22,324.5 7.26,3.89 27.85,18.02 104.07,17.41 103.92,-0.81 279.09,3.74 381.8,30.78 45.44,11.95 -1.2,-333.97 -125.65,-372.7z"></path> <path class="fil5 str8" d="M7943.89 981.45c157.12,-14.68 215.37,-190.54 195.08,-276.09 -167.96,-56.28 -463,-37.53 -503.18,-28.27 24.23,203.52 96.78,324.11 308.09,304.36z"></path> <ellipse class="fil7 str9" cx="7953.75" cy="615.66" rx="36.78" ry="37.82"></ellipse> </g> <path class="fil8 str10" d="M8613.21 294.8c-120.08,28.51 -286.94,91.02 -378.08,132.57 -33.67,15.34 -246.59,-184.55 -356.25,-255.9 -170.75,-111.08 -378.84,-197.91 -342.14,-86.82 10.6,32.08 132.26,100.77 251.55,180.45 114.61,76.56 226.63,164.3 259.09,193.09 179.88,159.47 110.36,130.95 338.1,43.69 207.42,-79.48 275.02,-104.81 517.21,-120.98 21.8,-1.45 97.08,-6.9 89.83,-58.63 -13.06,-93.07 -303.86,-45.38 -379.33,-27.46z"></path> <path class="fil9 str11" d="M8115.15 946.23c-51.11,-9.23 -708.22,-244.97 -729.26,-241.82 43.24,61.69 491.79,466.6 522.71,472.04 -130.33,21.21 -492.78,113.35 -627.41,157.94 106.7,53.6 648.1,133.4 733.3,48.99 237.94,-235.74 122.26,2.69 100.65,-437.15z"></path> </g> <path class="fil10 str12" d="M8843.84 2618.57c-225.21,-288.89 -31.9,-960.6 269.39,-1199.4 216.84,-171.87 196.57,303.21 1002.69,-650.35 570.63,-675.02 1036.29,119.12 1246.37,4.4 551.77,-301.3 2228.79,-755.56 2182.99,406.65 -14.79,375.5 1420.69,379.63 989.47,1541.46 -217.97,587.27 756.82,430.2 0,1708.82 -49.84,84.19 221.79,1069.8 -424.27,1014.42 -138.25,-11.85 -806.65,49.94 -835.32,154.14 -202.28,735.1 -526.23,275.6 -1052.59,736.96 -389.92,341.76 -852.84,26.72 -1319.7,-113.3 -748.83,-224.59 -523.66,-1731.09 -649.01,-1880.45 -502.69,-599.01 -2275.96,-204.06 -1688.2,-905.65 2.2,-2.64 313.61,-772.26 278.19,-817.7z"></path> <path class="fil10 str12" d="M441.11 2795.63c0,-988.68 477.5,-215.54 685.58,-1058.47 246.09,-996.85 968.73,-455.8 1840.94,-992.4 866.78,-533.27 667.05,201.12 1262.53,201.12 1389.27,0 634.58,883.28 976.26,869.09 269.16,-11.17 987.5,352.61 826.52,817.71 -235.33,48.69 516.28,602.38 248.1,985.06 -311.51,444.51 -196.91,781.63 -927.88,1218.6 -334.51,199.98 -67.73,1053.66 -946.83,1256.53 -100.49,485.69 -1333.47,256.9 -1807.17,440.42 -339.65,131.59 -1231.64,-307.18 -938.09,-719.35 319.32,-448.35 -757.51,-382.76 -757.51,-1155.36 0,-1099.09 -353.87,-632.8 -685.58,-1139.2 -170.97,-261.02 223.14,-673.08 223.14,-723.76z"></path> <path class="fil10 str12" d="M11806.74 7479.74c-209.77,-3038.25 -1074.52,-5743.33 -4116.63,-5186.88 -2720.2,-583.94 -3787.34,1358.78 -4538.75,4863.13 -41.47,193.39 782.19,297.5 1944.71,351.15 208.01,9.59 752.11,-2060.6 849.43,-2147.5 169.75,-151.58 470.76,2041.9 652.52,2045.65 737.94,15.23 2091.63,21.14 2821.44,14.58 270.58,-2.42 193.66,-2167.76 353.25,-2160.06 242.82,-64.54 584.95,1882.5 910.26,2269.27 418.32,31.48 1124.09,-44.72 1123.77,-49.35z"></path> <path class="fil11" d="M4523.79 2029.88c-188.69,-447.62 -369.28,-599.79 -683.39,-368.57 -392.94,289.25 -421.21,-275.95 -881.18,-185.21 -60.22,11.87 -215.55,205.96 -282.54,313.74 1.01,213.49 161.53,700.63 825.35,542.64 767.84,-182.74 581.73,531.12 1077.6,197.53 91.72,-61.7 -16.58,-473.09 -41.17,-501.42l-14.66 1.28z"></path> <path class="fil11" d="M1992.78 5183.51c-54.39,-99.32 -130.4,-518.54 340.52,-607.37 141.27,-289.01 229.26,-351.22 546.99,-284.57 19.45,4.08 123.4,-272.76 471.79,-45.21 53.92,35.21 118.48,116.81 109,188.15 -24,180.77 -256.66,450.69 -466.06,345.39 -124.71,-62.73 -319.45,-11.63 -531.09,167.71 -141.53,119.93 -88.17,402.12 -223.17,382.88 -203.43,-28.98 -194.53,-49.39 -247.97,-146.98z"></path> <path class="fil2 str13" d="M4584.97 2276.03c-73.65,-453.44 -70.88,-616.9 -492.79,-688.77 -224.56,-38.24 -382.28,249.87 -488.22,156.07 -658.37,-582.89 -828.18,-50.04 -859.51,-24.64"></path> <path class="fil2 str14" d="M1992.78 5183.51c-122.68,-132.99 -98.07,-448.9 234.56,-551.62 245.04,-75.67 235.69,-367.32 416.91,-418.12 305.19,-85.53 663.82,29.64 740.23,90.22"></path> <path class="fil12" d="M2124.75 2331.66c-381.87,330.55 154.73,611.49 -385.17,727.81 -171.32,36.91 6.74,482.48 -237.32,552.34 -263.67,75.47 -279.62,220.49 -419.25,-155.58 -180.52,-486.16 190.11,-166.8 102.55,-558.11 -122.84,-549.04 592.17,-403.08 592.94,-565.48 0.84,-180.36 161.94,-290.8 266.84,-148.56 42.79,58.02 111.79,119.54 79.41,147.58z"></path> <path class="fil2 str15" d="M1133.75 3490.22c-174.19,-155.73 -103.1,-387.3 65.31,-479.3 140.95,-77.01 -31.27,-335.67 105.64,-460.36 118.04,-107.52 303.02,-29.3 338.84,-159.4 73.56,-267.17 377.13,-207.53 458.03,-137.55"></path> <path class="fil11" d="M13330.03 2217.05c-227.21,-242.48 -129.47,-308.86 -613.47,-357.16 -252.55,-25.2 -68.2,-6.03 -271.87,158.07 -85.3,68.72 149.82,389.6 346.41,389.51 209.35,-0.1 699.85,976.41 943.86,337.36 58.35,-152.81 -256.78,-286.32 -372.29,-503.58 -6.51,-12.26 -25.1,-16.14 -32.64,-24.21z"></path> <path class="fil11" d="M11872.91 4162.28c6.62,226.39 96.11,264.97 353.69,255.46 277.42,-10.24 45.8,170.99 496.23,261.68 373.93,75.3 566.81,255.7 782.19,-259.95 34.51,-82.61 -56.09,-276.22 -148.72,-353.71 -90.22,-75.47 -245.08,-98.41 -425.69,-84.56 -150.09,11.51 -172.05,-317.44 -324.89,-347.75 -325.42,-64.52 -743.23,171.87 -732.8,528.82z"></path> <path class="fil11" d="M9741.7 2008.86c225.2,-131.43 226.66,9.26 515.61,-282.38 141.27,-142.58 518.42,62.16 725.08,-107.19 12.21,-10.01 237.74,-63.76 298.18,39.4 39.01,66.6 331.43,248.29 80.92,393.7 -656.4,381.02 -186.73,104.43 -737.83,170.76 -212.91,25.63 -179.15,251.78 -447.75,84.55 -152.14,-94.73 -439.82,232.78 -396.15,-199.88 2.53,-24.99 -10.29,-115.16 -38.05,-98.97z"></path> <path class="fil2 str16" d="M12592.47 1868.6c993.54,22.55 392.63,472.39 990.13,621.63 41.42,10.34 99.72,100.41 129.9,135.51"></path> <path class="fil2 str17" d="M12010.72 3828.71c455.3,-334.08 711.78,-235.84 827.83,50.81 137.04,338.58 242.46,-195.64 638.43,343.98"></path> <path class="fil2 str18" d="M9684.73 2240.06c-59.99,-480.23 295.71,-220.28 492.8,-533.28 115.34,-183.19 273.47,12.33 633.88,-104.23 228.87,-74.03 358.71,-62.02 570.05,29.97"></path> </g> </svg> 