<?xml version="1.0" encoding="UTF-8"?> <svg xmlns="http://www.w3.org/2000/svg" xmlns:xlink="http://www.w3.org/1999/xlink" xmlns:xodm="http://www.corel.com/coreldraw/odm/2003" xml:space="preserve" width="90.6913mm" height="169.826mm" version="1.1" style="shape-rendering:geometricPrecision; text-rendering:geometricPrecision; image-rendering:optimizeQuality; fill-rule:evenodd; clip-rule:evenodd" viewBox="0 0 8971.64 16800.07"> <defs> <style type="text/css"> .str1 {stroke:black;stroke-width:279.19;stroke-linecap:round;stroke-linejoin:round;stroke-miterlimit:22.9256} .str0 {stroke:black;stroke-width:348.99;stroke-linecap:round;stroke-linejoin:round;stroke-miterlimit:22.9256} .fil2 {fill:#D0D1D3} .fil0 {fill:#E3E3E3} .fil1 {fill:black;fill-rule:nonzero} </style> </defs> <g id="Слой_x0020_1"> <metadata id="CorelCorpID_0Corel-Layer"></metadata> <g> <path class="fil0" d="M2530.71 16525.2c717.44,-966.19 630.07,-623.91 726.37,-1899.98 17.51,-232.08 590,-2179.81 606.6,-2188.44 483.18,-250.78 1381.22,220.88 733.11,1422.77 -521.09,966.32 239.62,2665.65 -879.29,2665.65 -371.88,0 -973.6,228.25 -1186.79,0z"></path> <path id="_1" class="fil1" d="M3083.07 14612.24l348.02 25.96 0 0.01 -8.49 114.57 -7.61 105.74 -6.9 97.55 -6.39 89.94 -6.06 82.95 -5.94 76.57 -5.99 70.85 -6.25 65.74 -6.75 61.34 -7.48 57.55 -8.46 54.41 -9.72 51.83 -11.25 49.73 -13.07 48.07 -15.1 46.59 -17.23 45.3 -19.44 44.15 -21.61 43.17 -23.73 42.43 -25.78 42.07 -27.89 42.26 -30.06 42.98 -32.42 44.4 -34.97 46.45 -37.76 49.2 -40.83 52.57 -44.12 56.61 -47.68 61.26 -51.48 66.55 -55.52 72.42 -59.77 78.87 -64.26 85.95 -280.75 -206.14 65.61 -87.73 61.02 -80.53 56.59 -73.81 52.25 -67.56 48.08 -61.78 44.02 -56.48 40.05 -51.6 36.22 -47.16 32.48 -43.14 28.86 -39.51 25.39 -36.3 22.13 -33.5 19.13 -31.19 16.47 -29.45 14.23 -28.37 12.4 -28.14 10.96 -28.8 9.83 -30.39 8.93 -32.89 8.18 -36.26 7.55 -40.25 6.95 -44.85 6.49 -49.96 6.09 -55.49 5.86 -61.46 5.74 -67.84 5.78 -74.63 5.98 -81.88 6.37 -89.55 6.9 -97.71 7.65 -106.31 8.55 -115.4 0 0.01zm0 -0.01c7.21,-95.56 90.97,-167.21 187.07,-160.04 96.1,7.17 168.16,90.46 160.95,186.02l-348.02 -25.98zm699.86 -2329.28l161.49 307.66 0.08 -0.04 78.21 -83.39 -3.36 9.42 -8.12 24.33 -11.23 35 -13.86 44.2 -16.17 52.5 -18.28 59.99 -20.12 66.75 -21.78 72.85 -23.22 78.2 -24.45 82.91 -25.47 86.91 -26.29 90.26 -26.91 92.92 -27.31 94.9 -27.52 96.22 -27.51 96.86 -27.31 96.82 -26.9 96.11 -26.28 94.71 -25.45 92.64 -24.42 89.88 -23.19 86.44 -21.74 82.31 -20.08 77.47 -18.21 71.89 -16.1 65.53 -13.78 58.4 -11.21 50.28 -8.36 40.96 -5.17 29.62 -1.77 13.76 -348.02 -25.96 4.7 -39.58 7.39 -42.5 9.9 -48.58 12.32 -55.33 14.63 -62 16.78 -68.26 18.75 -73.99 20.52 -79.13 22.1 -83.71 23.5 -87.63 24.7 -90.89 25.71 -93.53 26.5 -95.5 27.1 -96.8 27.49 -97.47 27.69 -97.45 27.68 -96.8 27.47 -95.45 27.07 -93.45 26.45 -90.79 25.63 -87.46 24.61 -83.48 23.42 -78.83 21.98 -73.52 20.38 -67.61 18.58 -61 16.59 -53.81 14.43 -46.06 12.18 -37.91 9.98 -29.87 9.04 -24.71 84.52 -96.16 0.08 -0.04zm-0.08 0.04c85.4,-44.38 190.84,-11.5 235.47,73.42 44.63,84.93 11.57,189.78 -73.83,234.16l-161.64 -307.58zm967.71 1658.56l-307.56 -164 0 0 52.54 -103.18 43.93 -98.08 35.79 -93.01 28.13 -87.88 20.93 -82.72 14.25 -77.57 8.08 -72.44 2.44 -67.38 -2.66 -62.41 -7.27 -57.64 -11.4 -53.08 -15.09 -48.76 -18.43 -44.72 -21.44 -40.95 -24.23 -37.43 -26.78 -34.12 -29.15 -30.92 -31.36 -27.85 -33.39 -24.83 -35.17 -21.79 -36.7 -18.73 -37.99 -15.64 -38.96 -12.51 -39.57 -9.35 -39.82 -6.17 -39.7 -2.99 -39.24 0.15 -38.36 3.23 -37.1 6.24 -35.56 9.14 -33.68 11.9 -31.66 14.57 -161.49 -307.66 61.25 -28.22 63.36 -22.41 64.92 -16.72 66.08 -11.13 66.81 -5.65 67.2 -0.27 67.28 5.06 67.02 10.39 66.38 15.7 65.39 21.02 64.04 26.38 62.28 31.8 60.06 37.25 57.37 42.7 54.21 48.19 50.5 53.62 46.25 58.95 41.46 64.14 36.18 69.13 30.4 73.89 24.25 78.38 17.71 82.56 10.91 86.55 3.85 90.31 -3.41 93.87 -10.85 97.35 -18.52 100.77 -26.35 104.15 -34.41 107.53 -42.7 110.97 -51.25 114.43 -60.04 117.9 0 0zm0 0c-45.54,84.45 -151.32,116.2 -236.24,70.92 -84.93,-45.28 -116.85,-150.46 -71.32,-234.92l307.56 164zm-1033.06 2757.17l0 -347.03 0 0 81.6 -4 68.39 -11.04 56.51 -16.73 46.47 -21.34 38.87 -25.61 33.62 -30.47 29.98 -36.5 27.1 -43.74 24.25 -51.72 21.17 -59.82 17.87 -67.59 14.53 -74.85 11.32 -81.44 8.36 -87.29 5.75 -92.54 3.62 -97.12 1.95 -101.11 0.8 -104.56 0.24 -107.48 0.22 -109.89 0.79 -111.84 1.97 -113.33 3.76 -114.4 6.17 -115.06 9.24 -115.3 12.98 -115.15 17.42 -114.6 22.59 -113.68 28.56 -112.34 35.32 -110.5 42.89 -108.13 51.2 -104.96 307.56 164 -39.17 80.37 -33.63 84.91 -28.51 89.33 -23.71 93.42 -19.27 97.1 -15.22 100.3 -11.59 103.02 -8.43 105.23 -5.72 106.93 -3.54 108.16 -1.89 108.9 -0.77 109.19 -0.22 109.05 -0.24 108.45 -0.84 107.51 -2.05 106.18 -3.9 104.5 -6.4 102.54 -9.63 100.33 -13.65 97.88 -18.55 95.23 -24.51 92.36 -31.68 89.14 -40.19 85.33 -50.11 80.52 -61.15 74.08 -72.58 65.55 -83.56 54.95 -93.37 42.86 -101.89 30.24 -109.72 17.79 -117.37 5.82 0 0zm0 0c-96.36,0 -174.49,-77.69 -174.49,-173.51 0,-95.83 78.13,-173.51 174.49,-173.51l0 347.03zm-1327.17 -276.58l280.75 206.14 -12.52 -221.16 6.45 6.1 7.78 5.83 9.8 5.82 12.44 5.8 15.34 5.6 18.33 5.08 21.31 4.36 24.11 3.45 26.74 2.41 29.12 1.31 31.28 0.19 33.19 -0.92 34.91 -1.98 36.44 -2.96 37.73 -3.87 38.93 -4.67 39.91 -5.36 40.72 -5.95 41.42 -6.42 41.99 -6.79 42.4 -7 42.74 -7.13 42.97 -7.11 43.05 -6.95 43.05 -6.7 43.01 -6.31 42.87 -5.76 42.69 -5.09 42.46 -4.26 42.2 -3.28 41.96 -2.12 41.59 -0.74 0 347.03 -29.44 0.54 -31.56 1.6 -33.54 2.61 -35.3 3.55 -36.87 4.4 -38.22 5.14 -39.43 5.78 -40.5 6.3 -41.37 6.7 -42.12 6.97 -42.78 7.13 -43.31 7.16 -43.71 7.04 -44.01 6.84 -44.26 6.46 -44.36 5.96 -44.41 5.32 -44.44 4.54 -44.36 3.59 -44.27 2.51 -44.17 1.2 -44 -0.27 -43.88 -2 -43.73 -3.98 -43.64 -6.28 -43.47 -8.97 -43.26 -12.09 -42.8 -15.69 -42.08 -19.8 -40.83 -24.41 -38.76 -29.23 -35.77 -34.06 -12.52 -221.16zm12.52 221.16c-65.58,-70.21 -61.5,-180.01 9.1,-245.23 70.6,-65.21 181.02,-61.16 246.6,9.05l-255.7 236.17z"></path> </g> <path class="fil2 str0" d="M4482.88 700.93c2740.01,329.78 4358.4,3872.4 3929.52,7435.83 -428.88,3563.43 -1962.9,4953.3 -4702.91,4623.53 -2740.01,-329.78 -3432.99,-3761.02 -3004.11,-7324.44 428.89,-3563.43 1037.49,-5064.69 3777.49,-4734.92z"></path> <path class="fil0 str1" d="M1373.95 11223.74c-179.72,-187.74 614.78,1683.98 3010.19,1926.96 1639.24,166.28 2781.76,-1671.92 2775.29,-1672.17 -630.95,122.55 -5555.39,-14.45 -5785.48,-254.79z"></path> <path class="fil0 str1" d="M8047.46 3410.09c179.97,188 322.55,1025.94 389.78,1451.2 31.96,202.07 -7293.05,819.49 -8087.76,690.02 -79.54,-229.85 135.45,-1813.99 445.33,-1802.48 630.93,-122.55 7022.49,-579.16 7252.65,-338.74z"></path> <path class="fil0 str1" d="M8788.07 7265.89c179.91,187.94 -252.17,-2659.98 -184.96,-2234.74 31.93,202.03 -7512.67,-76.19 -8307.39,-205.65 -79.54,-229.85 -308.4,2035.38 1.47,2046.88 630.95,-122.55 8260.78,153.16 8490.87,393.5z"></path> <path class="fil0 str1" d="M381.78 8896.95c-179.91,187.95 -35.83,-2464.53 -102.99,-2039.34 -14.71,93.19 2505.92,195.67 4255.76,-125.67 2011.47,-369.39 3491.3,-568.55 4219.87,-533.46 79.54,-229.85 46.59,2523.83 -263.28,2535.33 -630.94,-122.55 -7879.27,-77.21 -8109.37,163.15z"></path> <path class="fil0 str1" d="M1402.09 2076.33c-179.72,187.74 614.78,-1683.98 3010.19,-1926.96 1639.24,-166.28 2781.76,1671.92 2775.29,1672.17 -630.95,-122.55 -5555.39,14.45 -5785.48,254.79z"></path> <path class="fil0 str1" d="M711.97 3701.96c-179.91,187.94 380.22,-1574.62 516.37,-1586.59 94,-8.28 949.55,-280.59 2699.4,-376.73 2042.04,-112.18 2694.73,51.17 3423.29,86.27 347.65,336.99 1072.51,1618.51 919,1674.68 -630.94,-122.55 -7327.97,-38 -7558.06,202.36z"></path> <path class="fil0 str1" d="M7826.08 10847.39c114.17,233.75 778.79,-2959.78 845.93,-2534.58 14.72,93.15 -1409.26,564 -3159.09,467.88 -2042.04,-112.18 -4375.34,-444.39 -5103.9,-409.29 -79.54,-229.85 442.64,2614.76 752.5,2626.25 667.89,-270.26 6472.63,-543.18 6664.56,-150.26z"></path> <path class="fil0 str1" d="M6452.01 12319.39c179.88,187.89 1393.22,-1516.74 1498.61,-1684.17 52.83,-83.93 -714.37,-96.86 -2207.52,-118.15 -2107.47,-30.05 -4172.38,547.22 -4581.57,480.57 -47.96,-138.59 -94.48,-24.45 384.69,594.01 315.49,407.21 888.62,785.72 1011.66,790.29 630.94,-122.55 3664.09,-302.86 3894.14,-62.55z"></path> </g> </svg> 