<?xml version="1.0" encoding="UTF-8"?> <!-- Creator: CorelDRAW --> <svg xmlns="http://www.w3.org/2000/svg" xmlns:xlink="http://www.w3.org/1999/xlink" xmlns:xodm="http://www.corel.com/coreldraw/odm/2003" xml:space="preserve" width="164.08mm" height="213.589mm" style="shape-rendering:geometricPrecision; text-rendering:geometricPrecision; image-rendering:optimizeQuality; fill-rule:evenodd; clip-rule:evenodd" viewBox="0 0 17678.39 23012.63"> <defs> <style type="text/css"> <![CDATA[ .fil5 {fill:none} .fil0 {fill:#806D4F} .fil6 {fill:#FF99CC} .fil3 {fill:yellow} .fil2 {fill:white} .fil1 {fill:black;fill-rule:nonzero} .fil4 {fill:black;fill-rule:nonzero} ]]> </style> <clipPath id="id0"> <path d="M5826.34 8468c1197.92,0 2169.03,1067.24 2169.03,2383.77 0,1316.53 -971.1,2383.77 -2169.03,2383.77 -1197.92,0 -2169.03,-1067.24 -2169.03,-2383.77 0,-1316.53 971.1,-2383.77 2169.03,-2383.77z"></path> </clipPath> <clipPath id="id1"> <path d="M11426.96 8468c1197.92,0 2169.02,1067.24 2169.02,2383.77 0,1316.53 -971.09,2383.77 -2169.02,2383.77 -1197.92,0 -2169.03,-1067.24 -2169.03,-2383.77 0,-1316.53 971.1,-2383.77 2169.03,-2383.77z"></path> </clipPath> </defs> <g id="Слой_x0020_1"> <metadata id="CorelCorpID_0Corel-Layer"></metadata> <path class="fil0" d="M6622.62 22724.78c739.91,-1012.05 649.82,-653.52 749.12,-1990.14 18.06,-243.09 608.48,-2283.25 625.6,-2292.27 498.32,-262.69 1424.49,231.34 756.08,1490.26 -537.41,1012.18 247.12,2792.15 -906.83,2792.15 -383.53,0 -1004.11,239.07 -1223.98,0z"></path> <path class="fil1" d="M6478.54 22616.87c124.84,-170.75 225.28,-301.6 307.35,-408.51 160.51,-209.11 246.02,-320.49 290.58,-438.89 52.33,-139.03 65.42,-327.02 93.38,-729.09 7.26,-104.41 15.41,-221.48 22.67,-319.23 7.85,-105.93 103.16,-481.6 218.02,-902.44 187.08,-685.52 468.65,-1518.96 503.88,-1537.5l0.29 0.56c168.22,-88.56 371.69,-111 564.45,-66.9 158.78,36.32 311.84,117.51 433.42,243.64 121.38,125.9 210.77,294.79 242.29,506.08 41.35,277.2 -18.31,629.46 -243.3,1053.24 -196.8,370.68 -197.42,883.39 -197.97,1354.47 -0.95,820.23 -1.81,1534.23 -866.99,1534.23 -112.5,0 -254.71,24.09 -399.8,48.66 -363.39,61.54 -741.81,125.63 -955.61,-106.87l-101.31 -110.18 88.66 -121.27zm591.31 -186.99c-49.16,64.05 -104.96,136.75 -168.11,220.74 127.45,7.47 309.12,-23.29 486.02,-53.25 162.04,-27.44 320.88,-54.35 458.84,-54.35 507.15,0 507.81,-544.83 508.53,-1170.73 0.6,-514.73 1.27,-1074.96 240.14,-1524.86 184.07,-346.68 234.85,-621.67 203.94,-828.9 -19.56,-131.09 -72.54,-233.31 -143.88,-307.29 -71.1,-73.75 -161.15,-121.37 -254.89,-142.81 -112.38,-25.71 -227.88,-14.25 -320.15,34.38l0 0.71c-14.23,7.49 -156.14,696.85 -323.95,1311.73 -109.16,399.99 -199.27,750.66 -205.37,832.86 -10.35,139.33 -16.86,232.77 -22.67,316.39 -30.51,438.78 -44.79,643.92 -115.88,832.76 -63.75,169.38 -160.65,295.6 -342.58,532.6z"></path> <path class="fil2" d="M6400.44 5470.22c-2600.99,-4194.71 1556.33,-6175.43 4555.47,-4910.55 2554.01,1077.13 1351.21,4806.36 -118.95,5773.77 -3.61,2.37 2180.96,-2088.1 4227.58,-1713.15 2200.1,403.08 3245.95,4595.48 1699.16,5762.17 -891.57,672.47 -2168.43,1172.94 -4085.21,878.69 1300.14,350.32 3495.33,708.14 4143.73,1688.45 1306.51,1975.31 -670.87,4814.73 -2597.62,5132.02 -1794.84,295.55 -2566.41,-271.03 -3308.54,-1009 3.43,-19.74 1910.92,1798.63 95.57,3272.36 -822.29,667.54 -4340.26,1145.34 -5403.17,-47.45 -1098.21,-1232.41 458.74,-3525.49 416.54,-3522.39 -217.09,233.1 -569.56,886.59 -2546.54,1147.6 -2329.11,307.52 -3867.76,-3230.11 -3101.11,-4881.24 777.75,-1674.99 3239.8,-2272.58 4278.72,-2057.52 -1999.85,-195.7 -3462.51,-301.92 -4066.71,-1692.55 -1143.27,-2631.31 284.85,-7728.68 4319.6,-5241.62 619.78,382.04 992.32,975.9 1491.45,1420.4z"></path> <path class="fil1" d="M5693.59 4467.16c-237.79,-618.33 -321.49,-1180.41 -282.63,-1681.42 53.88,-694.75 341.55,-1269.98 781.24,-1714.96 433.2,-438.42 1013.68,-747.78 1661.54,-917.73 991.88,-260.2 2146.41,-193.59 3170.04,238.11 523.15,220.64 900.38,546.77 1157.38,937.33 322.61,490.26 452.1,1077.63 441.1,1681.98 -10.84,595.17 -157.5,1206.61 -389.04,1755.59 -67.48,160.01 -142.36,315.06 -223.35,463.25 837.67,-510.28 1975.56,-991.68 3086.16,-788.22 641.4,117.5 1187.87,527.67 1610.64,1088.19 379.63,503.32 660.44,1129.04 819.81,1770.24 159.64,642.29 198.19,1304.04 93.04,1878.04 -103.47,564.76 -346.19,1047.11 -749.46,1351.26 -462.99,349.22 -1025.79,653.74 -1721.12,832.57 -241.04,62 -497.92,108.86 -771.94,137.25 1068.69,286.98 2148.06,675.32 2593.57,1348.88 220.21,332.94 353.49,689.3 413.68,1054.81 121.12,735.54 -56.24,1503.2 -416.63,2186.51 -356.68,676.26 -894.65,1272.47 -1499.57,1672.58 -386.04,255.33 -800.8,431.85 -1215.43,500.13 -931.8,153.44 -1602.75,81.25 -2140,-126.22 -121.89,-47.07 -236.39,-100.84 -345.06,-160.28 314.9,710.11 400.07,1664.6 -644.65,2512.72 -490.93,398.54 -1865.62,733.31 -3158.83,721.96 -1011.82,-8.89 -1987.57,-228 -2487.84,-789.4 -741.26,-831.84 -397.35,-2065.65 -37.4,-2886.17 -384.34,223.12 -978.47,442.54 -1937.95,569.21 -467.43,61.7 -904.43,-19.15 -1300.81,-203.19 -592.16,-274.95 -1092.19,-780.62 -1465,-1382.55 -368.53,-595.02 -613.69,-1286.89 -700.22,-1942.3 -78.59,-595.18 -26.82,-1164.33 180.89,-1611.66 355.54,-765.7 1036.48,-1315.7 1782.74,-1674.56 287.28,-138.15 585.3,-248.03 878.67,-331.06 -1156.68,-197.84 -2006.82,-569.6 -2451.5,-1593.08 -442.35,-1018.11 -513.93,-2389.87 -212.55,-3574.39 169.53,-666.32 457.1,-1276.27 863.23,-1735.74 415.9,-470.51 953.54,-783.96 1613.58,-843.04 654.9,-58.63 1426.02,135.88 2311.42,681.65 267.86,165.12 488.89,364.32 692.23,573.7zm74.21 -1652.87c-55.07,709.99 168.77,1566.97 783.77,2558.83 40.95,66.42 36.44,154.98 -16.79,217.05 -64.91,75.7 -177.7,83.37 -251.89,17.13 -195.35,-173.96 -366.67,-363.66 -539.81,-555.36 -277.34,-307.09 -559.67,-619.68 -926.45,-845.77 -814.94,-502.34 -1512.77,-682.44 -2095.92,-630.24 -561.95,50.3 -1021.49,319.2 -1378.49,723.08 -366.77,414.93 -627.92,971.55 -783.48,1582.96 -282.17,1109.04 -216.9,2389.38 194.37,3335.93 519.31,1195.26 1773.75,1372.92 3495.31,1543.24 164.44,2.76 313.8,17.68 442.65,44.35 96.6,19.71 159.25,115.61 139.94,214.18 -18.1,92.37 -101.76,154.31 -191.71,145.53l-0.01 0.12 -429.83 -42.02c-570.55,-5.12 -1345.19,152.67 -2058.45,495.66 -679.56,326.78 -1296.54,820.94 -1612.01,1500.36 -177.23,381.7 -219.82,879.43 -150.1,1407.46 79.91,605.31 306.94,1245.28 648.44,1796.65 337.22,544.48 785.2,999.86 1311.08,1244.04 339.24,157.51 711.55,226.94 1107.69,174.64 1710.39,-225.81 2144.25,-743.38 2362.52,-1003.76 24.71,-29.47 47.01,-56.08 69.15,-80.39 29.79,-36.33 73.32,-60.9 123.26,-64.88 120.17,-10.01 183.11,48.09 193.26,167.97l-0.12 0.01 0.12 1.42c4.54,62.14 -26.85,117.91 -79.8,212.22 -250.51,446.04 -1250.77,2227.07 -383.77,3200.02 424.52,476.38 1302.83,662.78 2226.15,670.88 1219.95,10.71 2495.32,-287.68 2933.52,-643.42 907.59,-736.8 791.2,-1566.47 502.86,-2160.27 -120.73,-248.61 -271.52,-458.84 -393.29,-606.84 -17.81,-21.65 -31.2,-41.78 -41.34,-60.17 -59.56,-55.98 -118.42,-113.29 -177.07,-171.61 -50.5,-50.12 -65.71,-123.29 -45.26,-187.31 21.01,-72.86 67.32,-116.34 152.49,-124.85l2.84 -0.25 -0.04 -0.47c0.76,-0.06 1.78,0.02 2.97,0.25 55.22,-3.74 106.59,18.7 142,57.2 354.33,351.81 714.73,661.91 1192.01,846.21 482.77,186.43 1095.04,249.76 1958.07,107.65 363.63,-59.88 731.33,-217.32 1076.9,-445.87 555.64,-367.52 1050.41,-916.38 1379.22,-1539.78 325.08,-616.35 486,-1303.08 378.86,-1953.76 -51.83,-314.79 -167.07,-622.37 -357.69,-910.59 -496.97,-751.37 -2052.11,-1127.16 -3292.33,-1426.83 -260.62,-62.95 -507.63,-122.65 -738.64,-184.71 -92.87,-19.11 -155.69,-109.47 -141.46,-206.14 14.69,-99.76 105.85,-168.48 203.61,-153.5 933.11,143.24 1708.18,93.64 2357.09,-73.26 645.17,-165.93 1166.64,-447.93 1595.17,-771.16 325.17,-245.24 523.4,-647.92 610.92,-1125.65 95.45,-521.04 58.86,-1128.2 -88.83,-1722.41 -147.97,-595.31 -406.8,-1173.78 -755.45,-1636.02 -371.91,-493.07 -844.85,-852.48 -1390.93,-952.52 -1404.06,-257.22 -2898.32,719.53 -3625.09,1287.15l-30.95 24.3c-142.6,148.93 -291.55,276.03 -443.49,376 -23.83,15.61 -49.93,24.71 -76.28,27.75l-1.05 0.11c-65.19,7.15 -131.83,-22.7 -169.66,-82.83 -53.32,-84.77 -29.2,-197.62 53.87,-252.03l20.95 -14c21.61,-25.56 48.42,-52.68 81.22,-81.43 72.11,-63.23 173.47,-149.27 298.97,-248.78 295.31,-314.1 562.44,-738.76 762.83,-1213.9 215.02,-509.82 351.14,-1073.45 361.05,-1617.08 9.72,-534.45 -102.06,-1049.74 -380.91,-1473.5 -219.03,-332.87 -543.57,-612.1 -996.46,-803.1 -952.4,-401.66 -2025.32,-463.96 -2946.15,-222.4 -587.25,154.05 -1110.74,431.75 -1497.81,823.48 -380.59,385.17 -629.6,883.27 -676.28,1485.06z"></path> <path class="fil0" d="M8635.94 5124.42c2825.83,345.43 4494.92,4056.14 4052.61,7788.64 -442.32,3732.51 -2024.38,5188.34 -4850.21,4842.92 -2825.84,-345.43 -3540.52,-3939.48 -3098.2,-7671.98 442.32,-3732.51 1069.98,-5305 3895.81,-4959.58z"></path> <path class="fil1" d="M8656.93 4943.08c1439.92,176.01 2588.6,1179.1 3332.49,2608.76 771.89,1483.5 1108.09,3431.31 876.85,5382.64 -226.31,1909.79 -750.25,3243.05 -1585.18,4060.63 -845.94,828.39 -1995.8,1121.64 -3463.75,942.21 -1376.31,-168.24 -2276.33,-1060.18 -2799.73,-2356.27 -595.82,-1475.39 -696.87,-3479.02 -455.2,-5518.46 224.55,-1894.82 499.06,-3245.61 1085.58,-4092.55 607.61,-877.42 1522.07,-1208.71 3008.95,-1026.96zm3016.22 2780.11c-690.56,-1327.17 -1745.67,-2256.99 -3058.2,-2417.43 -1338.93,-163.66 -2151.25,118.59 -2674.49,874.18 -544.36,786.06 -804.85,2087.8 -1022.62,3925.48 -235.13,1984.2 -140.73,3923.81 430.01,5337.11 474.3,1174.51 1282.42,1981.87 2511.46,2132.11 1357.86,165.98 2412,-95.98 3174.09,-842.27 773.14,-757.07 1261.42,-2018.02 1477.42,-3840.73 222.54,-1878.03 -98.68,-3748.18 -837.68,-5168.45z"></path> <path class="fil3" d="M5826.34 8468c1197.92,0 2169.03,1067.24 2169.03,2383.77 0,1316.53 -971.1,2383.77 -2169.03,2383.77 -1197.92,0 -2169.03,-1067.24 -2169.03,-2383.77 0,-1316.53 971.1,-2383.77 2169.03,-2383.77z"></path> <g style="clip-path:url(#id0)"> <g id="_105553324654720"> <g> <path id="_1" class="fil4" d="M7010.96 13070.73l-12.05 -438.47c119.22,-3.37 218.57,92.04 221.88,213.11 3.32,121.07 -90.62,221.98 -209.84,225.35zm-1072.85 -3478.55l0 0 -150.06 1.01 -141.85 18.59 -134.18 34.85 -126.64 50.01 -119.02 64.23 -111.18 77.56 -102.86 89.95 -93.95 101.34 -84.35 111.61 -74.06 120.66 -63.07 128.43 -51.43 134.82 -39.16 139.81 -26.33 143.38 -13.03 145.57 0.73 146.38 14.91 145.88 29.47 144.18 44.44 141.38 59.89 137.54 75.95 132.84 92.73 127.22 110.43 120.73 129.17 113.23 149.03 104.57 170.05 94.6 192.15 83.16 215.23 70.13 239.19 55.4 263.92 38.99 289.3 20.89 315.41 1.13 12.05 438.47 -342.99 -1.24 -319.62 -23.09 -296.6 -43.82 -274.1 -63.5 -251.92 -82.07 -230.03 -99.55 -208.26 -115.84 -186.55 -130.86 -164.79 -144.41 -143.05 -156.32 -121.39 -166.46 -99.97 -174.75 -78.92 -181.12 -58.41 -185.62 -38.56 -188.36 -19.39 -189.43 -0.99 -188.94 16.71 -186.99 33.7 -183.59 50.09 -178.87 65.91 -172.74 81.17 -165.28 96.02 -156.39 110.4 -146.02 124.38 -134.1 137.88 -120.49 150.85 -105.17 163.2 -87.97 174.63 -68.87 184.99 -47.98 194.11 -25.39 201.56 -1.36 0 0 -22.91 438.04zm0 0l22.91 -438.04c119.09,6.42 210.52,109.7 204.19,230.66 -6.32,120.95 -108.01,213.8 -227.1,207.38zm1061.46 1679.34l0.01 0 17.71 -61.39 14.75 -63.54 11.71 -65.39 8.59 -66.97 5.4 -68.28 2.18 -69.25 -1.11 -69.9 -4.42 -70.3 -7.75 -70.41 -11.08 -70.17 -14.44 -69.67 -17.79 -68.92 -21.11 -67.83 -24.43 -66.5 -27.72 -64.91 -31.01 -63.08 -34.25 -61.01 -37.51 -58.74 -40.71 -56.26 -43.92 -53.56 -47.15 -50.74 -50.4 -47.73 -53.71 -44.57 -57.1 -41.27 -60.59 -37.81 -64.25 -34.19 -68.04 -30.39 -71.99 -26.39 -76.16 -22.12 -80.47 -17.61 -84.98 -12.79 -89.74 -7.65 22.91 -438.04 116.33 9.93 112.41 16.9 108.25 23.68 103.98 30.2 99.6 36.47 95.04 42.44 90.36 48.09 85.61 53.39 80.72 58.33 75.8 62.87 70.83 67.06 65.85 70.82 60.9 74.27 55.96 77.29 51.08 80.01 46.28 82.39 41.52 84.46 36.84 86.23 32.23 87.7 27.68 88.91 23.18 89.85 18.77 90.55 14.37 90.99 10.03 91.16 5.73 91.14 1.43 90.87 -2.82 90.34 -7.1 89.61 -11.37 88.65 -15.65 87.43 -19.99 85.99 -24.33 84.28 0.01 0 -410.97 -134.92zm0.01 0l410.95 134.92c-36.68,115.25 -158.41,178.49 -271.89,141.24 -113.47,-37.25 -175.74,-160.9 -139.06,-276.15zm-1164.5 592.89l0 0 42.13 12.15 42.74 9.89 43.31 7.66 43.79 5.44 44.19 3.24 44.5 1.06 44.69 -1.13 44.78 -3.26 44.77 -5.42 44.63 -7.52 44.4 -9.61 44.02 -11.65 43.5 -13.66 42.95 -15.65 42.22 -17.59 41.36 -19.46 40.42 -21.32 39.38 -23.11 38.18 -24.83 36.9 -26.5 35.53 -28.16 34.09 -29.74 32.51 -31.23 30.85 -32.7 29.13 -34.12 27.32 -35.49 25.44 -36.8 23.5 -38.13 21.48 -39.4 19.43 -40.65 17.26 -41.91 15.09 -43.25 410.97 134.92 -23.13 66.28 -26.53 64.37 -29.73 62.26 -32.75 60.07 -35.65 57.85 -38.37 55.55 -40.94 53.18 -43.33 50.78 -45.61 48.34 -47.72 45.87 -49.69 43.36 -51.54 40.83 -53.28 38.29 -54.86 35.67 -56.32 33.07 -57.69 30.42 -58.95 27.75 -60.07 25.01 -61.07 22.27 -62.03 19.48 -62.81 16.62 -63.51 13.75 -64.11 10.8 -64.61 7.81 -64.99 4.75 -65.23 1.63 -65.4 -1.55 -65.41 -4.79 -65.31 -8.13 -65.05 -11.52 -64.68 -14.98 -64.11 -18.49 0 0 129.01 -418.62zm0 0l-129.01 418.62c-113.82,-36.17 -177.2,-159.22 -141.58,-274.82 35.62,-115.6 156.78,-179.97 270.6,-143.8zm-354.13 -1302.4l0 0 -27.65 32.03 -25.28 34.33 -22.97 36.64 -20.68 38.93 -18.31 41.04 -15.88 43.06 -13.37 44.89 -10.82 46.54 -8.2 47.97 -5.52 49.13 -2.82 50.08 -0.09 50.75 2.66 51.16 5.4 51.31 8.13 51.21 10.83 50.81 13.49 50.15 16.12 49.28 18.69 48.14 21.17 46.75 23.63 45.15 25.98 43.34 28.27 41.32 30.48 39.15 32.64 36.8 34.76 34.34 36.82 31.74 38.92 29.05 41.02 26.27 43.2 23.37 45.48 20.38 48.02 17.28 -129.01 418.62 -78.25 -28.16 -74.89 -33.53 -71.24 -38.52 -67.44 -43.14 -63.52 -47.41 -59.53 -51.29 -55.49 -54.81 -51.45 -57.99 -47.37 -60.81 -43.36 -63.36 -39.32 -65.58 -35.35 -67.52 -31.39 -69.25 -27.44 -70.68 -23.53 -71.93 -19.63 -72.93 -15.7 -73.72 -11.8 -74.29 -7.85 -74.67 -3.89 -74.86 0.13 -74.84 4.2 -74.58 8.34 -74.15 12.57 -73.48 16.87 -72.6 21.32 -71.45 25.84 -70.04 30.5 -68.34 35.24 -66.27 40.1 -63.9 45.04 -61.11 49.91 -57.8 0 0 313.25 301.98zm0 0l-313.25 -301.98c82.1,-87.84 218.8,-91.46 305.3,-8.08 86.5,83.38 90.05,222.22 7.95,310.06zm729.65 -56.81l0 0 -9.9 -19.93 -10.88 -18.93 -11.81 -17.91 -12.69 -16.85 -13.51 -15.77 -14.29 -14.67 -15.03 -13.58 -15.71 -12.43 -16.41 -11.29 -17.09 -10.16 -17.7 -8.95 -18.41 -7.8 -19.06 -6.57 -19.8 -5.32 -20.57 -4.05 -21.38 -2.68 -22.32 -1.25 -23.19 0.26 -24.18 1.92 -25.22 3.67 -26.26 5.59 -27.4 7.68 -28.44 9.88 -29.5 12.28 -30.57 14.86 -31.57 17.57 -32.53 20.47 -33.39 23.49 -34.2 26.7 -34.94 30.03 -35.57 33.48 -36.15 37.1 -313.25 -301.98 48.9 -50.2 49.55 -46.64 50.13 -43.09 50.7 -39.56 51.23 -36.05 51.68 -32.52 52.1 -29.02 52.48 -25.5 52.77 -21.96 52.92 -18.41 53 -14.84 53 -11.3 52.78 -7.7 52.47 -4.16 51.97 -0.6 51.24 2.89 50.47 6.32 49.42 9.7 48.25 12.97 46.88 16.16 45.35 19.18 43.73 22.14 41.91 24.9 40.05 27.56 38.05 30.08 35.93 32.43 33.77 34.67 31.5 36.78 29.16 38.72 26.78 40.58 24.31 42.29 21.77 43.85 0 0 -391.39 185.49zm0 0l391.39 -185.49c50.42,109.76 3.7,240.28 -104.38,291.5 -108.08,51.22 -236.58,3.75 -287,-106.01zm-326.74 509.9l42.03 9.98 38.11 6.42 34.31 3.3 30.55 0.59 27.03 -1.7 23.77 -3.56 20.77 -5.06 18.26 -6.3 16.25 -7.41 14.62 -8.45 13.4 -9.57 12.53 -10.84 11.82 -12.25 11.18 -13.84 10.59 -15.59 9.92 -17.41 9.13 -19.21 8.19 -20.95 7.15 -22.62 5.98 -24.16 4.71 -25.49 3.33 -26.6 1.91 -27.53 0.43 -28.24 -1.07 -28.69 -2.59 -28.93 -4.08 -28.97 -5.55 -28.71 -6.98 -28.23 -8.36 -27.54 -9.69 -26.7 -10.91 -25.64 391.39 -185.49 20.52 48.18 17.83 49.13 15.17 49.95 12.52 50.6 9.88 51.08 7.25 51.43 4.61 51.75 1.93 51.9 -0.8 51.94 -3.61 51.86 -6.5 51.66 -9.49 51.29 -12.6 50.79 -15.88 50.18 -19.33 49.3 -22.94 48.17 -26.69 46.74 -30.63 44.98 -34.69 42.81 -38.78 40.13 -42.78 36.91 -46.7 33.23 -50.3 29 -53.55 24.39 -56.42 19.47 -58.87 14.33 -60.87 9.12 -62.63 3.92 -64.2 -1.22 -65.57 -6.29 -66.92 -11.27 -68.19 -16.18 111.1 -423.88zm0 0l-111.1 423.88c-115.24,-31.16 -183.8,-151.32 -153.12,-268.37 30.67,-117.04 148.99,-186.67 264.23,-155.52z"></path> </g> </g> </g> <path class="fil5" d="M5826.34 8468c1197.92,0 2169.03,1067.24 2169.03,2383.77 0,1316.53 -971.1,2383.77 -2169.03,2383.77 -1197.92,0 -2169.03,-1067.24 -2169.03,-2383.77 0,-1316.53 971.1,-2383.77 2169.03,-2383.77z"></path> <path class="fil3" d="M11426.96 8468c1197.92,0 2169.02,1067.24 2169.02,2383.77 0,1316.53 -971.09,2383.77 -2169.02,2383.77 -1197.92,0 -2169.03,-1067.24 -2169.03,-2383.77 0,-1316.53 971.1,-2383.77 2169.03,-2383.77z"></path> <g style="clip-path:url(#id1)"> <g id="_105553324637536"> <g> <path id="_1_0" class="fil4" d="M10239.85 13070.73c-119.22,-3.37 -213.16,-104.28 -209.84,-225.35 3.32,-121.07 102.67,-216.49 221.88,-213.11l-12.05 438.47zm1072.85 -3478.55l-22.91 -438.04 0 0 201.56 1.36 194.11 25.39 184.99 47.98 174.63 68.87 163.19 87.97 150.87 105.17 137.88 120.49 124.37 134.1 110.41 146.02 96.01 156.39 81.18 165.28 65.9 172.75 50.09 178.86 33.71 183.59 16.71 186.99 -0.99 188.94 -19.39 189.43 -38.56 188.36 -58.41 185.62 -78.92 181.12 -99.97 174.75 -121.4 166.46 -143.05 156.32 -164.79 144.41 -186.55 130.86 -208.26 115.84 -230.03 99.55 -251.92 82.07 -274.1 63.5 -296.6 43.82 -319.61 23.09 -343 1.24 12.05 -438.47 315.42 -1.13 289.29 -20.89 263.92 -38.99 239.19 -55.4 215.23 -70.13 192.15 -83.16 170.05 -94.6 149.03 -104.57 129.17 -113.23 110.45 -120.73 92.72 -127.22 75.95 -132.84 59.89 -137.54 44.44 -141.38 29.47 -144.18 14.91 -145.88 0.73 -146.38 -13.03 -145.57 -26.34 -143.38 -39.16 -139.82 -51.41 -134.81 -63.08 -128.43 -74.05 -120.66 -84.36 -111.61 -93.94 -101.34 -102.86 -89.95 -111.18 -77.56 -119.03 -64.23 -126.64 -50.01 -134.18 -34.85 -141.85 -18.59 -150.06 -1.01 0 0zm0 0c-119.09,6.42 -220.78,-86.43 -227.1,-207.38 -6.32,-120.95 85.11,-224.23 204.19,-230.66l22.91 438.04zm-1061.47 1679.34l-410.95 134.92 0 0 -24.33 -84.28 -19.99 -85.99 -15.65 -87.43 -11.37 -88.65 -7.1 -89.61 -2.82 -90.34 1.43 -90.87 5.73 -91.14 10.03 -91.16 14.37 -90.99 18.77 -90.55 23.18 -89.85 27.68 -88.91 32.23 -87.7 36.84 -86.23 41.52 -84.46 46.28 -82.39 51.08 -80.01 55.96 -77.29 60.9 -74.27 65.85 -70.82 70.83 -67.06 75.8 -62.87 80.72 -58.33 85.61 -53.39 90.36 -48.09 95.04 -42.44 99.6 -36.47 103.98 -30.2 108.25 -23.68 112.41 -16.9 116.33 -9.93 22.91 438.04 -89.74 7.65 -84.98 12.79 -80.47 17.61 -76.16 22.12 -71.99 26.39 -68.04 30.39 -64.25 34.19 -60.59 37.81 -57.1 41.27 -53.71 44.57 -50.4 47.73 -47.15 50.74 -43.92 53.56 -40.71 56.26 -37.51 58.74 -34.25 61.01 -31.01 63.08 -27.72 64.91 -24.43 66.5 -21.11 67.83 -17.79 68.92 -14.44 69.67 -11.08 70.17 -7.75 70.41 -4.42 70.3 -1.11 69.9 2.18 69.25 5.4 68.28 8.59 66.97 11.71 65.39 14.75 63.54 17.71 61.39 0 0zm0 0c36.68,115.25 -25.59,238.91 -139.06,276.15 -113.47,37.25 -235.21,-25.99 -271.89,-141.24l410.95 -134.92zm1164.51 592.89l129.01 418.62 0 0 -64.11 18.49 -64.68 14.98 -65.05 11.52 -65.31 8.13 -65.42 4.79 -65.39 1.55 -65.24 -1.63 -64.99 -4.75 -64.6 -7.81 -64.12 -10.8 -63.5 -13.75 -62.8 -16.62 -62.04 -19.48 -61.09 -22.27 -60.06 -25.02 -58.94 -27.74 -57.69 -30.42 -56.32 -33.07 -54.86 -35.67 -53.28 -38.28 -51.55 -40.85 -49.68 -43.36 -47.73 -45.86 -45.61 -48.35 -43.34 -50.79 -40.92 -53.17 -38.38 -55.55 -35.64 -57.85 -32.76 -60.07 -29.72 -62.26 -26.53 -64.34 -23.13 -66.3 410.95 -134.92 15.09 43.23 17.28 41.93 19.42 40.65 21.49 39.4 23.49 38.13 25.45 36.8 27.32 35.5 29.12 34.11 30.85 32.69 32.52 31.25 34.08 29.74 35.54 28.15 36.9 26.52 38.18 24.83 39.38 23.11 40.42 21.32 41.37 19.47 42.21 17.58 42.92 15.65 43.51 13.66 44.03 11.65 44.39 9.61 44.64 7.52 44.76 5.42 44.78 3.26 44.7 1.13 44.49 -1.06 44.2 -3.24 43.79 -5.44 43.31 -7.66 42.74 -9.89 42.13 -12.15 0 0zm0 0c113.82,-36.17 234.98,28.21 270.6,143.8 35.62,115.6 -27.77,238.65 -141.58,274.82l-129.01 -418.62zm354.12 -1302.4l313.25 -301.98 0 0 49.91 57.8 45.04 61.11 40.1 63.9 35.24 66.27 30.5 68.34 25.84 70.04 21.32 71.45 16.87 72.6 12.57 73.48 8.34 74.15 4.2 74.58 0.13 74.84 -3.89 74.86 -7.85 74.67 -11.8 74.29 -15.7 73.72 -19.63 72.93 -23.53 71.93 -27.44 70.68 -31.37 69.24 -35.35 67.53 -39.33 65.58 -43.34 63.36 -47.39 60.81 -51.43 57.98 -55.51 54.82 -59.53 51.29 -63.51 47.4 -67.44 43.15 -71.24 38.52 -74.89 33.53 -78.25 28.16 -129.01 -418.62 48.02 -17.28 45.48 -20.38 43.2 -23.37 41.02 -26.26 38.91 -29.06 36.84 -31.74 34.74 -34.33 32.64 -36.82 30.49 -39.15 28.26 -41.32 25.99 -43.34 23.61 -45.14 21.18 -46.76 18.69 -48.14 16.12 -49.28 13.49 -50.15 10.83 -50.81 8.13 -51.21 5.4 -51.31 2.66 -51.16 -0.09 -50.75 -2.82 -50.08 -5.52 -49.13 -8.2 -47.97 -10.82 -46.54 -13.37 -44.89 -15.88 -43.06 -18.31 -41.04 -20.68 -38.93 -22.97 -36.64 -25.28 -34.33 -27.65 -32.03 0 0zm0 0c-82.1,-87.84 -78.54,-226.68 7.95,-310.06 86.5,-83.38 223.2,-79.76 305.3,8.08l-313.25 301.98zm-729.65 -56.81l-391.39 -185.49 0 0 21.77 -43.85 24.31 -42.29 26.78 -40.58 29.16 -38.72 31.5 -36.78 33.79 -34.68 35.93 -32.43 38.02 -30.06 40.04 -27.56 41.93 -24.91 43.73 -22.14 45.36 -19.19 46.88 -16.15 48.24 -12.97 49.43 -9.7 50.47 -6.32 51.23 -2.89 51.99 0.6 52.46 4.16 52.79 7.7 53 11.3 53 14.85 52.91 18.4 52.77 21.96 52.48 25.5 52.1 29.02 51.68 32.52 51.23 36.05 50.7 39.56 50.13 43.09 49.55 46.64 48.9 50.2 -313.25 301.98 -36.15 -37.1 -35.57 -33.48 -34.94 -30.03 -34.2 -26.7 -33.39 -23.49 -32.53 -20.47 -31.57 -17.57 -30.57 -14.86 -29.5 -12.28 -28.45 -9.89 -27.38 -7.67 -26.26 -5.59 -25.23 -3.67 -24.17 -1.92 -23.2 -0.26 -22.31 1.25 -21.38 2.68 -20.58 4.05 -19.79 5.32 -19.08 6.58 -18.4 7.79 -17.7 8.95 -17.07 10.15 -16.4 11.29 -15.74 12.46 -15.05 13.58 -14.27 14.66 -13.51 15.77 -12.69 16.85 -11.81 17.91 -10.88 18.93 -9.9 19.93 0 0zm0 0c-50.43,109.76 -178.94,157.23 -287.02,106.01 -108.08,-51.22 -154.8,-181.74 -104.37,-291.5l391.39 185.49zm326.74 509.9l111.1 423.88 -68.19 16.18 -66.92 11.27 -65.57 6.29 -64.2 1.22 -62.63 -3.92 -60.87 -9.12 -58.87 -14.33 -56.42 -19.47 -53.55 -24.39 -50.3 -29 -46.7 -33.23 -42.8 -36.93 -38.75 -40.11 -34.68 -42.78 -30.65 -45 -26.71 -46.77 -22.92 -48.16 -19.32 -49.28 -15.87 -50.14 -12.62 -50.82 -9.49 -51.32 -6.49 -51.63 -3.6 -51.82 -0.82 -51.94 1.93 -51.93 4.61 -51.75 7.25 -51.43 9.89 -51.11 12.52 -50.56 15.15 -49.93 17.84 -49.15 20.52 -48.18 391.39 185.49 -10.91 25.64 -9.68 26.68 -8.36 27.56 -7 28.26 -5.54 28.68 -4.08 28.97 -2.59 28.93 -1.07 28.66 0.43 28.24 1.92 27.56 3.34 26.63 4.69 25.46 5.98 24.12 7.16 22.65 8.2 20.97 9.13 19.22 9.9 17.38 10.57 15.57 11.22 13.87 11.82 12.27 12.52 10.82 13.4 9.57 14.62 8.45 16.25 7.41 18.26 6.3 20.77 5.06 23.77 3.56 27.03 1.7 30.55 -0.59 34.31 -3.3 38.11 -6.42 42.03 -9.98zm0 0c115.24,-31.16 233.55,38.47 264.23,155.52 30.67,117.04 -37.88,237.21 -153.12,268.37l-111.1 -423.88z"></path> </g> </g> </g> <path class="fil5" d="M11426.96 8468c1197.92,0 2169.02,1067.24 2169.02,2383.77 0,1316.53 -971.09,2383.77 -2169.02,2383.77 -1197.92,0 -2169.03,-1067.24 -2169.03,-2383.77 0,-1316.53 971.1,-2383.77 2169.03,-2383.77z"></path> <path class="fil1" d="M5832.74 8267.5c654.12,0 1246.04,292 1674.23,764.12 424.81,468.38 687.57,1113.8 687.57,1825.2 0,711.39 -262.76,1356.82 -687.57,1825.2 -428.2,472.11 -1020.11,764.12 -1674.23,764.12 -654.13,0 -1246.03,-292.01 -1674.23,-764.12 -424.81,-468.38 -687.57,-1113.81 -687.57,-1825.2 0,-711.4 262.76,-1356.82 687.57,-1825.2 428.19,-472.12 1020.12,-764.12 1674.23,-764.12zm1412.55 1011.15c-361.77,-398.88 -861.22,-645.6 -1412.55,-645.6 -551.33,0 -1050.78,246.72 -1412.55,645.6 -365.15,402.6 -591.01,960.48 -591.01,1578.17 0,617.68 225.86,1175.57 591.01,1578.17 361.78,398.87 861.22,645.6 1412.55,645.6 551.33,0 1050.77,-246.73 1412.55,-645.6 365.15,-402.6 591.01,-960.49 591.01,-1578.17 0,-617.69 -225.86,-1175.57 -591.01,-1578.17z"></path> <path class="fil1" d="M11408.42 8267.5c654.12,0 1246.04,292 1674.23,764.12 424.81,468.38 687.57,1113.8 687.57,1825.2 0,711.39 -262.76,1356.82 -687.57,1825.2 -428.2,472.11 -1020.11,764.12 -1674.23,764.12 -654.09,0 -1246.03,-292.01 -1674.23,-764.12 -424.81,-468.39 -687.57,-1113.8 -687.57,-1825.2 0,-711.4 262.76,-1356.82 687.57,-1825.2 428.19,-472.12 1020.12,-764.12 1674.23,-764.12zm1412.55 1011.15c-361.77,-398.88 -861.22,-645.6 -1412.55,-645.6 -551.33,0 -1050.78,246.72 -1412.55,645.6 -365.15,402.6 -591.01,960.48 -591.01,1578.17 0,617.69 225.86,1175.56 591.01,1578.17 361.78,398.87 861.23,645.6 1412.55,645.6 551.33,0 1050.77,-246.73 1412.55,-645.6 365.15,-402.6 591.01,-960.49 591.01,-1578.17 0,-617.69 -225.86,-1175.57 -591.01,-1578.17z"></path> <path class="fil1" d="M7853.17 11205.99c10.56,-9.38 24.34,-22.76 40.21,-38.13 35.86,-34.76 78.85,-76.41 99.39,-92.1l0 -0.71c397.28,-302.99 724.53,-146.91 1065.9,15.91 84.78,40.45 170.7,81.43 262.06,113.54l-116.15 345.55c-99.21,-34.87 -198.78,-82.37 -297.06,-129.25 -241.93,-115.39 -473.85,-226.01 -700.65,-53.04l-0.31 -0.43c-3.71,3.42 -38.03,36.71 -66.91,64.69 -25.65,24.86 -48.3,46.8 -51.39,49.55l-235.09 -275.58z"></path> <path class="fil6" d="M9181.14 15459.66c199.98,-461.7 302.65,210.04 531.45,-491.35 192.07,-588.83 180.98,-922.29 653.61,-1430.11 1272.19,-1366.83 4164.41,-1245.14 4598.48,1254.61 352.36,2029.16 -872.47,3768.25 -3156.13,3379.1 -959.68,-163.53 -1543.97,-653.12 -1997.92,-1884.64 -77.06,-209.05 -185.2,-408.34 -578.23,-678.13 -36.63,-25.15 -73.02,-99.21 -51.25,-149.47z"></path> <path class="fil1" d="M9007.43 15384.68c158.76,-366.55 310.43,-317.68 463.65,-268.29 2.83,0.91 -5.71,-1.85 61.12,-206.73 46.23,-141.76 78.31,-259.13 108.14,-368.4 110.15,-403.36 193.85,-709.78 587.04,-1132.23 434.19,-466.49 1042.35,-770.8 1683.94,-882.21 425.42,-73.87 866.9,-63.13 1283.25,41.19 420.14,105.26 814.84,305.82 1142.51,610.8 398.18,370.61 695,892.81 814.68,1582.07 80.34,462.69 82.24,912.12 11.33,1328.26 -98.93,580.58 -339.68,1096.47 -707.24,1494.71 -370.2,401.09 -866.65,681.23 -1473.99,786.7 -363.49,63.1 -766.44,63.19 -1205.23,-11.58 -515.73,-87.87 -932.8,-265.4 -1285.12,-589.33 -345.75,-317.89 -621.28,-772 -859.05,-1417.06 -32.95,-89.38 -71.88,-175.84 -141.66,-265.06 -74.25,-94.91 -186.07,-198.74 -365.3,-321.76 -51.2,-35.15 -99.72,-99.88 -122.77,-167.13 -22.67,-66.1 -26.17,-142.65 4.71,-213.96zm347.85 92.5c-3.01,-0.97 -2.66,-0.85 -1.09,0.91l1.9 -0.65 -0.81 -0.26zm-1.09 0.91c0.83,0.93 1.99,2.29 3.19,4.19l1.16 -4.04 -2.46 -0.8 -1.9 0.65zm538.8 -451.13c-171.77,526.6 -338.25,511.73 -502.53,461.38 185.16,132.35 309.44,251.88 398.77,366.09 101.78,130.12 155.48,247.88 199.58,367.52 216.16,586.42 459.77,992.93 759.56,1268.57 293.22,269.59 648.18,418.68 1092.11,494.32 394.75,67.26 754.87,67.6 1077.53,11.58 520.42,-90.37 944.23,-328.7 1258.7,-669.42 317.11,-343.58 525.54,-792.92 612.24,-1301.7 63.74,-374.06 61.65,-780.24 -11.33,-1200.56 -104.28,-600.55 -358.72,-1051.65 -698.88,-1368.27 -278.3,-259.03 -615.68,-429.9 -976.22,-520.23 -364.31,-91.28 -752.2,-100.39 -1127.34,-35.26 -562.75,97.71 -1093.87,362.13 -1470.14,766.4 -330.62,355.24 -403.52,622.08 -499.44,973.36 -33.2,121.57 -68.86,252.12 -112.6,386.22z"></path> </g> </svg> 