<?xml version="1.0" encoding="UTF-8"?> <svg xmlns="http://www.w3.org/2000/svg" xmlns:xlink="http://www.w3.org/1999/xlink" xmlns:xodm="http://www.corel.com/coreldraw/odm/2003" xml:space="preserve" width="175.052mm" height="209.859mm" version="1.1" style="shape-rendering:geometricPrecision; text-rendering:geometricPrecision; image-rendering:optimizeQuality; fill-rule:evenodd; clip-rule:evenodd" viewBox="0 0 19992.81 23968.18"> <defs> <style type="text/css"> .str1 {stroke:black;stroke-width:402.91;stroke-miterlimit:22.9256} .str2 {stroke:black;stroke-width:322.33;stroke-linecap:round;stroke-linejoin:round;stroke-miterlimit:22.9256} .str3 {stroke:black;stroke-width:241.75;stroke-linecap:round;stroke-linejoin:round;stroke-miterlimit:22.9256} .str0 {stroke:black;stroke-width:402.91;stroke-linecap:round;stroke-linejoin:round;stroke-miterlimit:22.9256} .fil1 {fill:#2B2B2B} .fil5 {fill:#333333} .fil8 {fill:#474747} .fil4 {fill:#A60910} .fil2 {fill:#BDA98C} .fil6 {fill:#CCCCCC} .fil7 {fill:white} .fil0 {fill:white} .fil3 {fill:black;fill-rule:nonzero} </style> </defs> <g id="Слой_x0020_1"> <metadata id="CorelCorpID_0Corel-Layer"></metadata> <path class="fil0 str0" d="M15900.84 14500.82c564.34,-337.57 1276.53,-656.86 1341.46,-404.07 128.06,498.62 222.6,2799.57 -297.72,2911.6 -782.62,168.52 -1776.97,178.6 -2706.33,-88.71 -70.03,-20.14 -532.91,991.44 -452.31,1177.02 101.59,233.88 785.06,259.7 1479.36,472.3 -205.64,173.93 -2411.17,1200.72 -2716.72,1008.76 -329.68,-207.14 -982.2,-86.38 -1535.75,-806.6 -273.1,695 -179.04,747.28 -479.62,1353.96 -171.43,277.36 -1888.69,985.13 -2046.37,934.8 27,-261.28 79.33,-682.51 235.48,-1361.12 7.6,-33 -177.35,-215.92 -715.44,-1027.17 -775.93,-5114.2 -978.9,-11595.68 587.16,-15484.61 118.16,-104.73 986.7,-2650.01 1249.32,-2555.66 77.54,27.84 364.6,1955.96 717.85,2480.74 591.74,-660.6 645.26,-2803.53 885.4,-2782.3 206.61,148.22 1027.4,1023.67 1134.24,1349.24 212.6,647.88 28.6,1951.2 101.43,1960.02 866.71,-406.93 1459.46,-755.73 1690.63,-810.74 501.76,-119.41 2202.61,2483.48 2044.15,3006.69 -32.88,108.6 -1346.49,-202.15 -1566.95,-81.8 -105.49,426.41 -217.64,1021.1 -263.53,1420.22 -0.8,173.32 1258.4,356.79 1557.04,383.11 -270.68,810.49 -920.94,1244.46 -1249.15,2168.83 20.31,389.93 1080.22,294.53 1567.72,599.34 279.21,174.58 160.11,1455.47 163.92,1821.99 -358.12,-20.87 -873.59,-660.96 -1080.02,-572.89 -147.49,62.93 -533.16,899.23 -516.34,1222.14 58.77,200.82 545.17,1804.22 871.11,1704.89z"></path> <path class="fil1 str0" d="M8006.88 18671.59c-142.48,104.73 -1458.04,2165.68 -1774.72,2071.34 -93.49,-27.84 -102.12,-1425.75 -430.22,-2064.72 -375.49,495.15 -513.5,1518.01 -803.07,1496.78 -249.15,-148.22 -1263.86,-754.75 -1414.58,-1070.8 -147.63,-309.56 126.69,-1484.42 38.87,-1493.24 -454.21,45.52 -939.53,3.64 -1165.99,-2.67 -333.38,-9.3 -1853.75,-1701.3 -1772.27,-2041.8 39.68,-108.61 1068.45,278.39 1237.6,220.21 75.94,-260.79 392.69,-958.66 490.38,-1366.7 0,0 -975.6,-690.32 -1495.44,-995.29 -196.28,-115.16 -486.25,-2126.25 -365.22,-2199.92 57.27,-34.85 681.3,640.68 958.88,706.2 174.78,-331.45 900.22,-1555.51 753.61,-1766.18 -44.49,-63.94 -992.53,-76.16 -1150.46,-194.68 -166.37,-124.88 -912.77,-1431.01 -912.77,-1969.86 167.7,0 987.25,332.73 1246.82,321.64 183.06,-7.82 1017.94,-789.96 1224.92,-928.13 0.99,-441.44 -467.28,-1404.01 -648.46,-1285.08 -321.33,210.92 -747.62,1171.97 -801.46,919.18 -106.2,-498.62 -184.61,-3246.58 246.89,-3358.62 649.03,-168.55 1326.08,107.16 2020.14,537.64 53.76,33.36 386.16,-955.76 290.67,-1300.25 -67.05,-241.85 -1080.95,-693.99 -1732.28,-1064.58 170.53,-173.93 1947.5,-1208.91 2452.94,-712.95 250.48,245.75 1078.96,1055.19 1529.55,1641.86 321.66,-802.65 463.82,-872.15 713.08,-1478.83 410.45,-998.95 1617.23,-1132.09 1747.99,-1081.77 -22.39,261.28 -257.18,788.25 -386.71,1466.87 -155.05,812.34 1234.25,2601.13 1256.39,3423.21 87.59,3251.6 -579.73,8683.02 -1355.04,13571.15z"></path> <g> <path class="fil2" d="M6439.1 22541.48c828.3,-1115.49 727.43,-720.32 838.6,-2193.57 20.22,-267.94 681.17,-2516.64 700.33,-2526.6 557.84,-289.54 1594.65,255.01 846.39,1642.62 -601.61,1115.63 276.64,3077.55 -1015.15,3077.55 -429.34,0 -1124.04,263.52 -1370.18,0z"></path> <path id="_1" class="fil3" d="M7076.8 20332.93l401.79 29.97 0 0.01 -9.8 132.27 -8.78 122.08 -7.97 112.62 -7.38 103.84 -7 95.77 -6.85 88.4 -6.92 81.8 -7.22 75.89 -7.79 70.82 -8.63 66.45 -9.77 62.82 -11.23 59.84 -12.99 57.41 -15.09 55.5 -17.43 53.79 -19.9 52.3 -22.44 50.97 -24.94 49.84 -27.4 48.99 -29.76 48.57 -32.2 48.79 -34.71 49.62 -37.43 51.26 -40.37 53.62 -43.59 56.8 -47.13 60.69 -50.94 65.36 -55.05 70.73 -59.44 76.83 -64.1 83.61 -69.01 91.06 -74.19 99.23 -324.13 -237.99 75.74 -101.28 70.45 -92.98 65.33 -85.21 60.33 -77.99 55.51 -71.32 50.82 -65.2 46.24 -59.57 41.81 -54.44 37.5 -49.81 33.32 -45.62 29.32 -41.9 25.55 -38.67 22.09 -36.01 19.02 -34 16.42 -32.76 14.31 -32.49 12.65 -33.25 11.35 -35.09 10.31 -37.98 9.45 -41.86 8.71 -46.47 8.03 -51.78 7.49 -57.68 7.04 -64.06 6.76 -70.96 6.62 -78.33 6.67 -86.16 6.91 -94.53 7.36 -103.38 7.97 -112.81 8.83 -122.74 9.87 -133.23 0 0.01zm0 -0.01c8.33,-110.33 105.03,-193.05 215.97,-184.77 110.94,8.28 194.15,104.43 185.82,214.76l-401.79 -29.99zm808.01 -2689.2l186.44 355.2 0.09 -0.05 90.3 -96.28 -3.88 10.87 -9.38 28.08 -12.96 40.41 -16 51.03 -18.67 60.61 -21.11 69.26 -23.23 77.07 -25.15 84.1 -26.81 90.28 -28.23 95.72 -29.41 100.33 -30.36 104.21 -31.07 107.28 -31.53 109.56 -31.77 111.09 -31.76 111.82 -31.53 111.78 -31.05 110.96 -30.35 109.35 -29.39 106.96 -28.2 103.77 -26.77 99.8 -25.1 95.02 -23.18 89.44 -21.03 83 -18.59 75.65 -15.91 67.42 -12.94 58.05 -9.65 47.29 -5.97 34.19 -2.04 15.89 -401.79 -29.97 5.43 -45.7 8.53 -49.06 11.43 -56.09 14.22 -63.88 16.89 -71.58 19.37 -78.81 21.64 -85.42 23.69 -91.36 25.51 -96.65 27.14 -101.17 28.52 -104.94 29.68 -107.99 30.6 -110.26 31.28 -111.76 31.74 -112.53 31.97 -112.51 31.96 -111.76 31.72 -110.2 31.25 -107.9 30.54 -104.82 29.59 -100.97 28.42 -96.38 27.03 -91.01 25.38 -84.88 23.53 -78.05 21.45 -70.42 19.15 -62.12 16.66 -53.18 14.06 -43.77 11.52 -34.48 10.44 -28.53 97.58 -111.01 0.09 -0.05zm-0.09 0.05c98.6,-51.24 220.32,-13.28 271.86,84.77 51.53,98.05 13.36,219.1 -85.24,270.34l-186.62 -355.1zm1117.25 1914.84l-355.08 -189.34 0 0 60.66 -119.12 50.72 -113.24 41.32 -107.38 32.48 -101.46 24.17 -95.5 16.45 -89.55 9.33 -83.64 2.82 -77.79 -3.07 -72.06 -8.39 -66.55 -13.16 -61.29 -17.42 -56.29 -21.28 -51.63 -24.75 -47.28 -27.97 -43.22 -30.92 -39.39 -33.66 -35.7 -36.2 -32.15 -38.55 -28.67 -40.6 -25.16 -42.37 -21.62 -43.86 -18.06 -44.98 -14.45 -45.68 -10.79 -45.97 -7.13 -45.83 -3.45 -45.31 0.17 -44.29 3.73 -42.83 7.21 -41.06 10.55 -38.89 13.74 -36.55 16.82 -186.44 -355.2 70.72 -32.58 73.15 -25.87 74.96 -19.3 76.29 -12.85 77.14 -6.52 77.58 -0.31 77.67 5.85 77.38 11.99 76.64 18.13 75.49 24.27 73.94 30.46 71.91 36.72 69.34 43 66.23 49.29 62.59 55.63 58.3 61.9 53.39 68.06 47.87 74.05 41.77 79.81 35.1 85.3 27.99 90.49 20.44 95.32 12.6 99.92 4.44 104.26 -3.94 108.37 -12.53 112.39 -21.38 116.35 -30.43 120.24 -39.72 124.15 -49.29 128.12 -59.17 132.11 -69.31 136.12 0 0zm0 0c-52.57,97.5 -174.7,134.15 -272.75,81.88 -98.05,-52.27 -134.91,-173.71 -82.33,-271.22l355.08 189.34zm-1192.69 3183.21l0 -400.65 0 0 94.21 -4.61 78.95 -12.75 65.24 -19.31 53.66 -24.64 44.87 -29.57 38.82 -35.18 34.62 -42.14 31.28 -50.5 27.99 -59.71 24.44 -69.06 20.63 -78.03 16.78 -86.41 13.07 -94.02 9.65 -100.78 6.64 -106.84 4.18 -112.13 2.25 -116.73 0.93 -120.72 0.27 -124.09 0.25 -126.87 0.91 -129.13 2.27 -130.84 4.34 -132.07 7.13 -132.84 10.67 -133.11 14.98 -132.94 20.11 -132.31 26.09 -131.25 32.97 -129.7 40.77 -127.57 49.52 -124.84 59.12 -121.18 355.08 189.34 -45.23 92.78 -38.83 98.03 -32.92 103.13 -27.38 107.86 -22.25 112.11 -17.58 115.8 -13.39 118.94 -9.73 121.49 -6.6 123.45 -4.09 124.88 -2.18 125.72 -0.89 126.07 -0.25 125.91 -0.27 125.21 -0.97 124.12 -2.36 122.58 -4.5 120.65 -7.39 118.38 -11.11 115.83 -15.76 113 -21.41 109.94 -28.3 106.63 -36.57 102.92 -46.4 98.52 -57.85 92.97 -70.59 85.52 -83.8 75.68 -96.47 63.44 -107.79 49.49 -117.64 34.91 -126.67 20.54 -135.51 6.72 0 0zm0 0c-111.25,0 -201.46,-89.69 -201.46,-200.33 0,-110.64 90.2,-200.33 201.46,-200.33l0 400.65zm-1532.24 -319.32l324.13 237.99 -14.46 -255.33 7.45 7.05 8.98 6.73 11.32 6.72 14.37 6.69 17.71 6.46 21.16 5.87 24.6 5.04 27.83 3.99 30.87 2.79 33.62 1.51 36.11 0.22 38.32 -1.06 40.31 -2.28 42.08 -3.41 43.56 -4.47 44.94 -5.39 46.07 -6.19 47.01 -6.86 47.82 -7.41 48.48 -7.83 48.95 -8.09 49.34 -8.23 49.61 -8.21 49.7 -8.03 49.7 -7.73 49.66 -7.29 49.5 -6.65 49.28 -5.88 49.02 -4.92 48.72 -3.79 48.45 -2.44 48.01 -0.86 0 400.65 -33.99 0.63 -36.43 1.85 -38.72 3.02 -40.75 4.1 -42.57 5.08 -44.13 5.94 -45.52 6.67 -46.76 7.28 -47.76 7.73 -48.63 8.05 -49.38 8.23 -50 8.27 -50.47 8.13 -50.81 7.89 -51.1 7.46 -51.21 6.88 -51.27 6.14 -51.3 5.24 -51.21 4.15 -51.11 2.9 -51 1.38 -50.8 -0.31 -50.66 -2.31 -50.49 -4.59 -50.38 -7.25 -50.18 -10.36 -49.94 -13.96 -49.42 -18.11 -48.59 -22.87 -47.13 -28.19 -44.75 -33.75 -41.3 -39.32 -14.46 -255.33zm14.46 255.33c-75.71,-81.06 -71,-207.83 10.51,-283.12 81.51,-75.29 208.99,-70.61 284.7,10.45l-295.21 272.67z"></path> </g> <path class="fil2 str1" d="M8692.91 4272.06c3163.39,380.73 5031.86,4470.76 4536.71,8584.81 -495.15,4114.05 -2266.21,5718.69 -5429.6,5337.95 -3163.39,-380.73 -3963.45,-4342.17 -3468.3,-8456.21 495.16,-4114.05 1197.8,-5847.29 4361.19,-5466.56z"></path> <path class="fil0 str0" d="M13514.2 5449.67c24.56,29.22 406.49,2681.79 697.3,3951.71 4.68,309.2 -183.77,3469.04 -198.42,3753.97 -87.79,366.62 -1610.62,4717.23 -1772.21,4903.87 -6.82,-70.99 553.63,-6079.4 532.76,-6361.92 -37.28,-334.85 -619.98,-3886.84 -632.57,-3915.94 -162.8,-274.05 -337.52,-474.74 -608.26,-856.97 -198.78,-55.69 -860.86,-431.05 -909.15,-387.89 -25.7,22.96 61.32,934.24 16.71,1011.26 -46.99,81.14 -2779.52,1581 -3012.59,1604.62 -6.98,-76.36 1586.69,-1848.11 1571.2,-1965.73 -10.92,-82.89 -216.03,-539.97 -408.06,-651.09 -754.39,-633.15 -1362.8,-1121.29 -1269.02,-1538.56 413.24,-327.6 857.05,-538.09 1589.61,-715.37 339.17,-90.15 1783.2,-573.51 1964.4,-596.72 467.76,429.09 1860.51,1077.07 2438.3,1764.76z"></path> <path class="fil1 str0" d="M8790.9 6535.56c-77.46,7.66 -731.77,242.52 -1095.36,360.16 -76.36,482.79 -178.6,783.81 -260.48,1250.73 -275.68,489.48 -1938.47,2494.38 -2377.41,2979.18 -59.16,-240.84 756.05,-2656.67 986.91,-3124.66 -398.1,428.09 -1064.42,1243.93 -1322.45,1445.25 -140.15,555.2 -268.75,1973.1 -388.13,2827.32 -64.73,620.76 1282.57,6368.51 1215.2,6356.55 -31.73,-10.51 -2195.42,-4567.05 -2419.51,-4970.25 -84.54,-345.32 -75.31,-3821.67 -46.67,-4132.17 114.34,-263.98 632.57,-3332.35 627.7,-3512.38 458.99,-445.51 1402.75,-1049.95 1789.92,-1522.35 275.4,-247.76 870.31,-1192.17 1072.22,-1382.36 787.31,159.5 1609.81,789.21 2538.65,1171.05 -354.85,306.47 -723.4,740.2 -728.59,888.62 -9.74,278.75 247.92,931.12 408,1365.31z"></path> <path class="fil4 str1" d="M14028.67 16985.44c85.2,-514.13 803.61,-836.01 1049.67,-1787.93 213.7,-826.82 655.36,-1989.88 714.88,-2515.57 24.72,-218.39 -625.3,336.1 -782.61,524.81 -205.12,246.07 -497.91,1466.48 -1319.98,2768.81 -545.69,864.5 -929.88,945.33 -1184.42,1338.87 -426.85,659.93 1387.49,485.35 1522.47,-329z"></path> <path class="fil4 str1" d="M11362.32 17658.88c107.47,-847.16 143.64,-2090.09 286.82,-2599.39 59.5,-211.59 452.34,547.14 526.83,781.24 259.44,815.13 -169.51,1318.56 33.81,1922.17 131.01,388.9 -906.25,359.57 -847.46,-104.01z"></path> <path class="fil4 str1" d="M12312.23 17148.25c-685.61,419.15 -1189.22,686.02 -1573.49,1002.49 -159.63,131.47 642.74,182.02 872.59,157.38 239.42,-25.66 923.57,-435.03 1906.89,-773.29 244.59,-144.36 -630.84,-738.17 -1205.99,-386.58z"></path> <path class="fil5 str0" d="M8908.09 17821.34c73.03,153.77 144.85,417.24 217.88,571.01 3432.19,-1629.79 7061.85,-3186.97 10494.04,-4816.75 -73.03,-153.77 -342.34,-489.84 -415.35,-643.61 -3432.2,1629.79 -6864.37,3259.57 -10296.57,4889.36z"></path> <path class="fil4 str0" d="M12279.44 23110.9c90.81,-272.24 -791.33,-3288.46 -396.03,-3648.5 421.62,-384.03 1646.42,-155.9 1842.37,-548.82 232.6,-466.38 325.91,-876.39 840.92,-1713.91 138.88,-225.85 109.65,-512.2 5.69,-811.48 -206.62,-594.79 -88.84,-4553.1 -393.67,-4508.99 -101.91,14.72 -518.4,498.63 -586.75,1025.91 -64.08,494.33 116.91,1483.59 115.38,2079 -2.98,1154.11 -126.01,1820.03 -130.37,1837.86 -52.98,216.32 -1143.05,-682.59 -1485.82,-458.53 -277.91,181.7 -1991.13,1075.64 -2176.01,1368.57 -48.08,76.18 448.37,269.77 633.21,267.04 539.98,-7.97 1408.92,-741.07 1833.13,-819.97 24.51,35.84 571.99,619.18 493.8,684.44 -462.29,305.69 -2023.3,694.25 -2093.12,771.51 -453.82,502.09 -453.63,1379.22 -547.82,2072.09 -223.29,1642.66 -264.03,2672.95 -261.67,2677.27 358.5,657.17 2081.28,402.4 2306.76,-273.5z"></path> <path class="fil6 str2" d="M19373.82 7598.27c901.48,1107.1 -49.45,1197.42 316.15,2322.46 298.47,918.4 26.1,1434.48 68.96,2356.97 19.2,413.26 -604.79,90.1 -613.88,-167.34 -56.51,-1601 -1231.83,-0.38 -959.81,-2072.71 96.95,-738.59 212.36,-304.1 806.71,-1065.78 152.46,-195.37 337.69,-1427.84 381.88,-1373.59z"></path> <path class="fil7 str0" d="M15900.84 14500.82c73.03,153.77 164.27,531.27 237.3,685.05 735.04,-304.06 2832.18,-1301.75 3481.88,-1610.27 -73.03,-153.77 -320.1,-485 -415.35,-643.61 -3432.2,1629.79 128.37,-60.95 -3303.82,1568.83z"></path> <path class="fil8 str2" d="M5505.83 8297.05c-372.97,-16.69 -1353.84,518.01 -1362.18,1404.42 283.73,-169.01 561.89,-505.95 1133.9,-595.39 783.52,620.68 1751.71,1516.22 2743.98,1296.94 22.67,-219.33 50.05,-176.09 58.42,-451.76 -1368.55,-287.97 -2539.7,-1652.67 -2574.12,-1654.21z"></path> <path class="fil8 str2" d="M11864.84 8297.05c372.97,-16.69 1353.84,518.01 1362.18,1404.42 -283.73,-169.01 -561.89,-505.95 -1133.9,-595.39 -783.52,620.68 -1751.71,1516.22 -2743.98,1296.94 -22.67,-219.33 -50.05,-176.09 -58.42,-451.76 1368.55,-287.97 2539.7,-1652.67 2574.12,-1654.21z"></path> <path class="fil1 str3" d="M10105.17 11416.85c-43.11,-167.32 -538.32,-1634.53 -117.27,-1728.63 180.43,-40.33 472.11,672.05 676.04,890.39 433.04,463.66 36.51,-1665.67 551.47,-1425.89 379.03,176.49 86.24,1972.86 561.03,1059.58 186.27,-358.29 478.57,-713.37 614.21,-690.39 109.46,18.55 116.67,295.08 -40.2,808.82 -266.74,873.58 576.94,-365.21 939.24,-372.05 583.12,-11 -748.31,1562.72 -882.47,1504.55 -867.57,-376.23 -2293.29,-12.44 -2302.03,-46.37z"></path> <path class="fil1 str3" d="M7443.23 11350.43c-674.74,-301.38 -1725.85,-118.84 -2400.86,205.73 -6.74,3.23 -917.1,-936.89 -539.26,-1246.74 93.52,-76.68 104.31,19.77 275.91,154.62 192.09,150.99 622.81,579.35 437.71,-7.36 -50.95,-161.51 -206.65,-745.8 4.66,-821.19 212.49,-75.81 472.5,697.17 636.91,921.68 131.79,179.98 207.04,38.58 295.65,-584.21 42.14,-296.26 121.36,-544.67 247.89,-607.42 144.19,-71.48 201.31,129.63 255.97,795.56 27.78,338.46 192.38,562.31 332.37,89.18 63.22,-213.65 261.21,-776.18 479,-679.67 154.36,68.4 93.57,1047.25 -25.95,1779.82z"></path> </g> </svg> 