<?xml version="1.0" encoding="UTF-8"?> <svg xmlns="http://www.w3.org/2000/svg" xmlns:xlink="http://www.w3.org/1999/xlink" xmlns:xodm="http://www.corel.com/coreldraw/odm/2003" xml:space="preserve" width="113.759mm" height="170.27mm" version="1.1" style="shape-rendering:geometricPrecision; text-rendering:geometricPrecision; image-rendering:optimizeQuality; fill-rule:evenodd; clip-rule:evenodd" viewBox="0 0 9069.96 13575.54"> <defs> <style type="text/css"> .str1 {stroke:black;stroke-width:281.27;stroke-miterlimit:22.9256} .str2 {stroke:black;stroke-width:225.01;stroke-linecap:round;stroke-linejoin:round;stroke-miterlimit:22.9256} .str0 {stroke:black;stroke-width:225;stroke-linecap:round;stroke-linejoin:round;stroke-miterlimit:22.9256} .str3 {stroke:black;stroke-width:225.01;stroke-linecap:round;stroke-linejoin:round;stroke-miterlimit:22.9256} .str31 {stroke:black;stroke-width:35.33;stroke-linecap:round;stroke-linejoin:round;stroke-miterlimit:22.9256} .str28 {stroke:black;stroke-width:35.33;stroke-linecap:round;stroke-linejoin:round;stroke-miterlimit:22.9256} .str30 {stroke:black;stroke-width:35.33;stroke-linecap:round;stroke-linejoin:round;stroke-miterlimit:22.9256} .str29 {stroke:black;stroke-width:35.33;stroke-linecap:round;stroke-linejoin:round;stroke-miterlimit:22.9256} .str17 {stroke:black;stroke-width:46.3;stroke-linecap:round;stroke-linejoin:round;stroke-miterlimit:22.9256} .str10 {stroke:black;stroke-width:46.3;stroke-linecap:round;stroke-linejoin:round;stroke-miterlimit:22.9256} .str24 {stroke:black;stroke-width:46.3;stroke-linecap:round;stroke-linejoin:round;stroke-miterlimit:22.9256} .str20 {stroke:black;stroke-width:46.3;stroke-linecap:round;stroke-linejoin:round;stroke-miterlimit:22.9256} .str14 {stroke:black;stroke-width:46.3;stroke-linecap:round;stroke-linejoin:round;stroke-miterlimit:22.9256} .str23 {stroke:black;stroke-width:46.3;stroke-linecap:round;stroke-linejoin:round;stroke-miterlimit:22.9256} .str12 {stroke:black;stroke-width:46.3;stroke-linecap:round;stroke-linejoin:round;stroke-miterlimit:22.9256} .str22 {stroke:black;stroke-width:46.3;stroke-linecap:round;stroke-linejoin:round;stroke-miterlimit:22.9256} .str7 {stroke:black;stroke-width:46.3;stroke-linecap:round;stroke-linejoin:round;stroke-miterlimit:22.9256} .str27 {stroke:black;stroke-width:46.3;stroke-linecap:round;stroke-linejoin:round;stroke-miterlimit:22.9256} .str18 {stroke:black;stroke-width:46.3;stroke-linecap:round;stroke-linejoin:round;stroke-miterlimit:22.9256} .str11 {stroke:black;stroke-width:46.3;stroke-linecap:round;stroke-linejoin:round;stroke-miterlimit:22.9256} .str25 {stroke:black;stroke-width:46.3;stroke-linecap:round;stroke-linejoin:round;stroke-miterlimit:22.9256} .str9 {stroke:black;stroke-width:46.3;stroke-linecap:round;stroke-linejoin:round;stroke-miterlimit:22.9256} .str16 {stroke:black;stroke-width:46.3;stroke-linecap:round;stroke-linejoin:round;stroke-miterlimit:22.9256} .str21 {stroke:black;stroke-width:46.3;stroke-linecap:round;stroke-linejoin:round;stroke-miterlimit:22.9256} .str19 {stroke:black;stroke-width:46.3;stroke-linecap:round;stroke-linejoin:round;stroke-miterlimit:22.9256} .str26 {stroke:black;stroke-width:46.3;stroke-linecap:round;stroke-linejoin:round;stroke-miterlimit:22.9256} .str13 {stroke:black;stroke-width:46.3;stroke-linecap:round;stroke-linejoin:round;stroke-miterlimit:22.9256} .str15 {stroke:black;stroke-width:46.3;stroke-linecap:round;stroke-linejoin:round;stroke-miterlimit:22.9256} .str8 {stroke:black;stroke-width:46.3;stroke-linecap:round;stroke-linejoin:round;stroke-miterlimit:22.9256} .str6 {stroke:black;stroke-width:117.75;stroke-linecap:round;stroke-linejoin:round;stroke-miterlimit:22.9256} .str5 {stroke:black;stroke-width:130.45;stroke-linecap:round;stroke-linejoin:round;stroke-miterlimit:22.9256} .str4 {stroke:black;stroke-width:130.45;stroke-linecap:round;stroke-linejoin:round;stroke-miterlimit:22.9256} .str32 {stroke:black;stroke-width:130.45;stroke-linecap:round;stroke-linejoin:round;stroke-miterlimit:22.9256} .fil4 {fill:none} .fil3 {fill:#474747} .fil1 {fill:#806D4F} .fil7 {fill:gray} .fil0 {fill:#818F51} .fil8 {fill:#9EAB73} .fil6 {fill:white} .fil9 {fill:white} .fil2 {fill:black;fill-rule:nonzero} .fil5 {fill:black;fill-rule:nonzero} </style> </defs> <g id="Слой_x0020_1"> <metadata id="CorelCorpID_0Corel-Layer"></metadata> <path class="fil0 str0" d="M4633 6468.7c-1165.47,720.92 -4341.21,1028.34 -4506.44,665.78 -162.33,-356.18 1103.59,-1638.04 2260.68,-2585.87 1011.65,-99.9 3473.36,-1409.76 5254.97,-1697.78 5.58,-0.91 -2706.91,3430.89 -3009.2,3617.87z"></path> <g> <path class="fil1" d="M4072.92 13354c578.23,-778.71 507.81,-502.85 585.42,-1531.31 14.11,-187.05 475.52,-1756.84 488.89,-1763.79 389.42,-202.12 1113.21,178.02 590.86,1146.7 -419.98,778.81 193.12,2148.41 -708.67,2148.41 -299.72,0 -784.68,183.96 -956.51,0z"></path> <path id="_1" class="fil2" d="M4518.1 11812.23l280.49 20.92 0 0.01 -6.84 92.33 -6.13 85.22 -5.57 78.62 -5.15 72.49 -4.89 66.85 -4.78 61.71 -4.83 57.1 -5.04 52.98 -5.44 49.44 -6.03 46.39 -6.82 43.85 -7.84 41.77 -9.07 40.08 -10.53 38.74 -12.17 37.55 -13.89 36.51 -15.67 35.58 -17.41 34.79 -19.13 34.2 -20.78 33.91 -22.48 34.06 -24.23 34.64 -26.13 35.78 -28.18 37.43 -30.43 39.65 -32.9 42.37 -35.56 45.63 -38.43 49.38 -41.49 53.63 -44.74 58.37 -48.17 63.57 -51.79 69.27 -226.27 -166.14 52.88 -70.7 49.18 -64.91 45.61 -59.49 42.11 -54.45 38.75 -49.79 35.48 -45.52 32.28 -41.59 29.19 -38.01 26.18 -34.77 23.26 -31.84 20.47 -29.25 17.84 -27 15.42 -25.14 13.27 -23.74 11.47 -22.87 9.99 -22.68 8.83 -23.21 7.93 -24.49 7.2 -26.51 6.59 -29.22 6.08 -32.44 5.6 -36.15 5.23 -40.26 4.91 -44.72 4.72 -49.54 4.62 -54.68 4.66 -60.15 4.82 -65.99 5.13 -72.17 5.57 -78.75 6.16 -85.69 6.89 -93 0 0.01zm0 -0.01c5.81,-77.02 73.32,-134.77 150.77,-128.99 77.45,5.78 135.53,72.9 129.72,149.92l-280.49 -20.94zm564.06 -1877.31l130.15 247.96 0.06 -0.03 63.03 -67.21 -2.71 7.59 -6.55 19.61 -9.05 28.21 -11.17 35.62 -13.04 42.31 -14.73 48.35 -16.22 53.8 -17.56 58.71 -18.71 63.03 -19.71 66.82 -20.53 70.04 -21.19 72.75 -21.69 74.89 -22.01 76.48 -22.18 77.55 -22.17 78.06 -22.01 78.03 -21.68 77.46 -21.18 76.33 -20.51 74.67 -19.69 72.44 -18.69 69.67 -17.52 66.34 -16.19 62.44 -14.68 57.94 -12.98 52.81 -11.11 47.06 -9.03 40.53 -6.74 33.02 -4.17 23.87 -1.43 11.09 -280.49 -20.92 3.79 -31.9 5.96 -34.25 7.98 -39.16 9.93 -44.59 11.79 -49.97 13.52 -55.01 15.11 -59.63 16.54 -63.78 17.81 -67.47 18.94 -70.62 19.91 -73.26 20.72 -75.38 21.36 -76.97 21.84 -78.02 22.16 -78.56 22.32 -78.54 22.31 -78.02 22.14 -76.93 21.81 -75.32 21.32 -73.18 20.66 -70.49 19.84 -67.28 18.87 -63.54 17.72 -59.26 16.42 -54.49 14.97 -49.16 13.37 -43.36 11.63 -37.12 9.81 -30.55 8.04 -24.07 7.29 -19.92 68.12 -77.5 0.06 -0.03zm-0.06 0.03c68.83,-35.77 153.81,-9.27 189.78,59.18 35.97,68.45 9.33,152.95 -59.5,188.72l-130.28 -247.9zm779.94 1336.73l-247.88 -132.18 0 0 42.34 -83.16 35.41 -79.05 28.85 -74.96 22.68 -70.83 16.87 -66.67 11.48 -62.52 6.51 -58.39 1.97 -54.3 -2.14 -50.3 -5.86 -46.46 -9.18 -42.78 -12.16 -39.3 -14.85 -36.05 -17.28 -33.01 -19.53 -30.17 -21.58 -27.5 -23.5 -24.92 -25.27 -22.44 -26.91 -20.01 -28.34 -17.56 -29.58 -15.09 -30.62 -12.61 -31.4 -10.09 -31.89 -7.53 -32.09 -4.98 -32 -2.41 -31.63 0.12 -30.92 2.61 -29.9 5.03 -28.66 7.37 -27.15 9.59 -25.51 11.74 -130.15 -247.96 49.37 -22.75 51.07 -18.06 52.33 -13.47 53.26 -8.97 53.85 -4.55 54.16 -0.22 54.22 4.08 54.02 8.37 53.5 12.65 52.7 16.94 51.62 21.26 50.2 25.63 48.4 30.02 46.24 34.41 43.69 38.84 40.7 43.21 37.27 47.51 33.41 51.7 29.16 55.72 24.5 59.55 19.54 63.17 14.27 66.54 8.79 69.76 3.1 72.79 -2.75 75.66 -8.75 78.46 -14.93 81.22 -21.24 83.94 -27.73 86.67 -34.41 89.44 -41.31 92.22 -48.39 95.02 0 0zm0 0c-36.7,68.07 -121.95,93.65 -190.4,57.16 -68.45,-36.49 -94.18,-121.27 -57.48,-189.33l247.88 132.18zm-832.61 2222.17l0 -279.69 0 0 65.77 -3.22 55.12 -8.9 45.54 -13.48 37.46 -17.2 31.33 -20.64 27.1 -24.56 24.17 -29.42 21.84 -35.26 19.54 -41.68 17.06 -48.21 14.4 -54.47 11.71 -60.32 9.12 -65.63 6.74 -70.35 4.63 -74.59 2.92 -78.28 1.57 -81.49 0.65 -84.27 0.19 -86.63 0.18 -88.56 0.64 -90.14 1.59 -91.34 3.03 -92.2 4.98 -92.73 7.45 -92.92 10.46 -92.81 14.04 -92.37 18.21 -91.63 23.02 -90.54 28.46 -89.06 34.57 -87.15 41.27 -84.59 247.88 132.18 -31.57 64.77 -27.11 68.43 -22.98 72 -19.11 75.3 -15.53 78.26 -12.27 80.84 -9.34 83.03 -6.79 84.81 -4.61 86.18 -2.85 87.18 -1.52 87.77 -0.62 88.01 -0.18 87.89 -0.19 87.41 -0.68 86.65 -1.65 85.57 -3.14 84.23 -5.16 82.64 -7.76 80.86 -11 78.88 -14.95 76.75 -19.76 74.44 -25.53 71.84 -32.39 68.77 -40.38 64.9 -49.28 59.7 -58.5 52.83 -67.35 44.29 -75.25 34.55 -82.12 24.37 -88.43 14.34 -94.6 4.69 0 0zm0 0c-77.66,0 -140.64,-62.61 -140.64,-139.85 0,-77.23 62.97,-139.85 140.64,-139.85l0 279.69zm-1069.64 -222.92l226.27 166.14 -10.09 -178.24 5.2 4.92 6.27 4.7 7.9 4.69 10.03 4.67 12.37 4.51 14.77 4.1 17.17 3.52 19.43 2.78 21.55 1.95 23.47 1.05 25.21 0.15 26.75 -0.74 28.14 -1.59 29.37 -2.38 30.41 -3.12 31.37 -3.76 32.16 -4.32 32.82 -4.79 33.38 -5.17 33.85 -5.47 34.17 -5.64 34.44 -5.75 34.63 -5.73 34.7 -5.6 34.7 -5.4 34.67 -5.09 34.55 -4.64 34.4 -4.11 34.22 -3.44 34.01 -2.65 33.82 -1.71 33.52 -0.6 0 279.69 -23.73 0.44 -25.43 1.29 -27.03 2.1 -28.45 2.86 -29.72 3.55 -30.81 4.15 -31.78 4.66 -32.64 5.08 -33.34 5.4 -33.95 5.62 -34.48 5.75 -34.91 5.77 -35.23 5.68 -35.47 5.51 -35.67 5.21 -35.75 4.8 -35.79 4.29 -35.81 3.66 -35.75 2.89 -35.68 2.03 -35.6 0.96 -35.46 -0.22 -35.37 -1.61 -35.25 -3.21 -35.17 -5.06 -35.03 -7.23 -34.87 -9.74 -34.5 -12.65 -33.92 -15.96 -32.9 -19.68 -31.24 -23.56 -28.83 -27.45 -10.09 -178.24zm10.09 178.24c-52.85,-56.58 -49.57,-145.08 7.34,-197.64 56.9,-52.56 145.9,-49.29 198.75,7.3l-206.09 190.35z"></path> </g> <path class="fil1 str1" d="M5646.29 600.28c2208.33,265.79 3512.7,3121 3167.04,5992.98 -345.66,2871.98 -1582.02,3992.17 -3790.35,3726.38 -2208.33,-265.79 -2766.85,-3031.23 -2421.19,-5903.2 345.67,-2871.98 836.17,-4081.94 3044.51,-3816.15z"></path> <path class="fil3 str2" d="M2508.77 5749.18c35.34,33.89 441.42,713.61 578.34,1050.92 55.83,137.53 -7.63,895.43 98.39,1363.68 39.21,173.19 73.13,348.79 325.23,551.84 6.82,-548.64 393.75,-1259.66 1048.68,-1327.26 300.76,-31.04 549.66,-57.39 1089.23,-110.19 672.7,-65.83 880.96,92.96 1446.26,244.47 431.35,115.61 664.32,822.21 633.51,1011.05 148.9,-144.14 218.44,-231.4 295.96,-414.39 169.09,-399.12 47.22,-1182.67 176.55,-1403.58 133.98,-228.89 630.74,-876.09 665.89,-880.21 32.19,-3.77 29.53,1176.19 -159.79,1788.87 -92.97,300.89 -20.79,596.5 -45.93,711.84 -41.03,188.26 -205.78,543.7 -364.03,660.15 -114.21,84.05 -233.4,606.97 -351.08,689.58 -170.17,119.46 -850.83,528.31 -909.69,548.27 -423.19,143.48 -657.01,576.16 -1141.42,573.12 -197.29,-1.24 -353.51,159.06 -664.72,-6.86 -220.65,-117.64 -756.73,-286.66 -777,-290.55 -77.66,-14.9 -445.91,-340.01 -568.62,-465.97 -84.31,-86.55 -460.42,-295.02 -500.82,-325.89 -186.38,-142.45 -124.85,-362.28 -281.6,-529.36 -156.18,-166.47 -300.96,-305.89 -410.79,-503.76 -103.05,-185.65 -100.13,-601.7 -147.94,-820.91 -57.67,-264.42 -97.93,-1900.22 -34.59,-2114.84zm1391.31 3217.3c162.61,197.51 490.84,333.01 688.2,407.38 210.24,79.23 394.78,222.73 555.44,219.1 172.3,-3.9 377.14,-32.51 583.22,-32.26 198.9,0.24 437.09,59.19 610.27,-13.71 149.45,-62.9 304.85,-181.18 419.98,-226.3 377.58,-147.99 247.87,-106.42 590,-431.23 -148.4,-1055.54 -998.8,-764.2 -1669.47,-827.19 -595.56,-55.94 -1633.12,-115.35 -1777.64,904.21z"></path> <path class="fil3 str1" d="M5646.29 600.28c141.61,17.03 579.91,-13.24 714.74,21.34 124.7,31.98 369.48,165.29 575.28,306.11 161.7,110.65 543.48,179.75 652.35,283.29 117.66,111.93 211.89,497.43 379.12,724.76 -1330.39,359.96 -3664.09,328.98 -5052.84,322.45 51.45,-167.54 44.78,-394.37 146.5,-600.04 66.69,-134.83 326.72,-260.57 378.93,-354.53 152.3,-274.01 212.27,-329.6 281.6,-392.01 146.69,-132.02 399.61,-179.75 601.96,-242.85 181.61,-56.63 408.99,-194.88 634.33,-181.88 164.86,9.5 427.26,81.99 688.02,113.36z"></path> <path class="fil0 str3" d="M8795.52 3224.5c-139.34,-1178.35 -402.87,-2159.24 -609.35,-2646.51 -223.09,-526.49 -3006.56,-571.08 -3882.73,-310.08 -478.98,142.68 -1905.1,806.05 -2080.15,1232.36 -175.84,428.22 -152.95,2087.58 -88.92,3109.63 1186.68,-56.7 6661.58,-1381.74 6661.15,-1385.4zm-2289.52 -957.41c202.21,-112.97 1161.48,-389.38 1504.14,-170.04 179.85,115.12 228.6,436.99 255.29,627.66 -6.08,5.56 -2003.96,483.72 -2023.93,420.47 -129.69,-410.83 -127.18,-659.25 264.5,-878.09z"></path> <path class="fil4 str4" d="M4228.2 291.23c29.27,138.37 223.59,489.52 297.73,711.31 68.89,206.03 203.03,2144.28 195.03,2716.8"></path> <path class="fil4 str5" d="M4303.45 267.91c113.16,-17.09 1868.7,160.05 2036.94,407.13 85.44,125.47 336.74,1009.17 420.69,1448.7"></path> <path class="fil0 str6" d="M2662.25 1893.65c321.69,-154.98 1410.62,-291.34 1829.01,-347.91 178.3,-24.11 258.47,57.66 283.56,216.06 43.72,275.94 51.63,726.72 71.3,1001.37 29.24,408.24 -150.93,478.07 -519.64,543.66 -469.82,83.57 -966.45,204.32 -1484.4,279.95 -287.31,41.95 -329.13,-22.28 -358.38,-427.88 -26.96,-373.92 15.37,-770 51.95,-1017.98 18.29,-124.01 6.72,-189.5 126.59,-247.27z"></path> <g id="_105553463629856"> <path class="fil5 str7" d="M3687.83 2651.8c0.74,-4.85 1.66,-9.87 2.58,-15.04 5.87,-31.36 17.53,-95.64 17.16,-152.2 -0.73,-59.95 -7.42,-98.64 -11.43,-121.76 -3.21,-18.51 -5.05,-28.52 0.79,-36.25 4.93,-6.45 24.33,-18.11 42.95,-26.3 15.39,-6.64 31.05,-11.43 40.03,-9.98 20.5,2.89 14.5,68.15 10.21,112.19 -0.64,7.18 -1.29,13.59 -2.23,18.44 15.67,-8.98 30.72,-14.37 43.97,-17.17 28.6,-6.03 50.95,-0.88 58.15,3.76 27.2,17.35 25.8,114.09 24.82,174.91 -0.1,10.11 -0.61,19.45 -0.48,26.45 -0.03,7.45 -1.04,14.81 -3.85,20.85 -3.68,8.26 -10.17,14.32 -20.18,15.89 -4.23,0.66 -8.27,1.47 -12.3,2.14 -28.85,4.95 -56.54,9.84 -63.42,-4.75 -3.49,-7.91 -0.63,-29.19 2.81,-54.83 4.69,-35.67 10.88,-80.89 2.83,-95.11 -1.41,-1.17 -5.1,-1.31 -10.09,-0.14 -6.34,1.08 -13.36,4.22 -18.81,7.89 -0.57,0.18 -1.14,0.67 -1.51,1 -0.06,2.65 -0.14,5.13 -0.21,7.63 -1.07,38.74 -3.59,132.12 -18.3,144.79 -10.25,8.72 -36.56,13.86 -55.16,13.98 -5.25,-0.06 -10.1,-0.29 -14.01,-0.88 -5.48,-0.99 -9.64,-2.96 -12.29,-5.94 -0.21,-0.14 -0.21,-0.14 -0.22,-0.45 -1.67,-2.56 -2.4,-5.63 -1.79,-9.09zm24.32 -14.52c-0.65,2.83 -1.09,5.49 -1.36,8.15 2.54,0.33 5.45,0.36 8.75,0.51 14.53,-0.07 33.59,-3.01 39,-7.61 5.57,-5.24 8.09,-90.37 9.11,-126.01 0.19,-4.05 0.17,-8.55 0.17,-12.61 0.24,-3.27 1.44,-6.59 4.03,-9.2 2.58,-2.62 5.76,-5.25 9.34,-7.59 8.45,-5.53 18.71,-9.91 28.32,-11.77 10.95,-2.08 21.27,-1.17 27.37,4.91 1.02,1.04 1.83,1.93 2.67,3.14 0.02,0.31 0.22,0.61 0.43,0.75 11.01,19.68 4.43,68.64 -0.69,107.44 -3.01,22.36 -5.41,40.81 -4.12,43.72 0.88,2.12 21.26,-1.49 42.42,-4.98 4.23,-0.67 8.27,-1.48 12.5,-2.3 0.37,-0.02 0.56,-0.34 0.73,-0.66 1.04,-2.38 1.64,-6.29 1.43,-10.79 0.21,-7.94 0.36,-16.81 0.47,-26.61 0.96,-56.93 2.48,-147.15 -16.32,-159.3 -4.8,-2.88 -20.84,-6 -43.29,-1.04 -14.78,3.04 -31.9,9.92 -49.89,22.9 -6.77,4.67 -12.03,3.99 -15.61,-2.06 -2.94,-4.67 -1.4,-21.06 0.7,-42.15 3.47,-36.99 8.63,-91.48 5.29,-92.1 -4.69,-0.7 -16.12,3.41 -27.91,8.32 -15.19,6.78 -29.93,14.79 -32.3,18.03 -0.91,1.12 2.18,5.17 4.33,17.35 4.23,23.58 11.14,62.88 11.78,125.02 0.49,58.88 -11.51,124.27 -17.34,156.57z"></path> <path class="fil5 str8" d="M4136.01 2463.96c-0.53,-23.28 -11.5,-37.69 -27.59,-45.93 -22.07,-11.53 -53.71,-12.36 -82.59,-8.33 -11.55,1.64 -23.25,12.45 -32.87,26.28 -13.98,19.79 -23.84,44.81 -25.43,60.28 -3.4,30.15 -0.49,58.77 7.53,80.77 6.96,19.88 18.11,33.95 31.64,37.35 19.25,5.14 42.79,3.09 64.2,-3.52 21.2,-6.61 39.69,-17.29 48.79,-29.84 4.91,-6.77 11.59,-17.03 15.07,-25.43 1.04,-2.54 1.72,-4.59 1.45,-6.14 -0.58,0.03 -1.74,0.09 -3.48,0.17 -3.65,0.65 -6.96,0.65 -10.44,0.66 -4.44,0.21 -9.3,0.28 -15.24,1.35 -2.12,0.25 -3.66,0.48 -4.81,1 -6.92,9.34 -17.62,16.69 -28.44,21.55 -15.36,6.96 -32.9,9.2 -39.62,6.56 -5.92,-2.36 -16.55,-9.62 -22.93,-21.29 -4.26,-8.18 -6.87,-18.32 -4.94,-30.38 1.79,-11.11 32.07,-14.74 60.2,-18.25 15.81,-1.85 31.04,-3.82 36.03,-4.83 6.52,-1.25 12.29,-2.3 17.1,-3.15 10.19,-1.73 15.58,-2.61 16.14,-3.1 1.1,-1.3 0.91,-9.37 0.49,-26.29 -0.14,-3.1 -0.29,-6.04 -0.26,-9.46zm-15.17 -65.95c21.68,11.39 36.38,31.05 37.1,62.26 -0.05,3.11 0.29,6.2 0.25,9.31 0.7,22.82 1.21,33.52 -6.12,42.41 -6.77,8.41 -15.42,9.91 -31.77,12.56 -5.01,0.7 -10.39,1.74 -16.92,2.98 -6.15,1.23 -21.37,3.05 -37.37,5.05 -18.88,2.3 -36.44,-12.09 -37.77,-3.48 -1.23,6.9 0.41,12.88 2.96,17.58 4.04,7.42 10.08,11.96 13.62,13.19 2.58,1.12 12.37,-1.06 22.8,-5.76 7.41,-3.31 14.55,-8 17.96,-13.59 2.54,-3.7 5.72,-6.18 10.48,-7.96 2.66,-1.06 6.11,-2 10.52,-2.83 7.89,-1.16 13.31,-1.26 18.15,-1.34 3.1,-0.14 6,-0.29 8.71,-0.57 5.2,-0.72 9.49,-0.3 13.03,0.78 7.67,2.27 11.22,7.69 11.95,14.81 0.63,5.25 -0.83,11.23 -3.24,17.41 -4.33,10.93 -12.27,23.12 -18.11,31.01 -12.72,17.54 -36.28,31.88 -62.64,39.98 -25.22,7.73 -53.03,9.98 -76.37,4.11 -19.83,-5.11 -35.05,-23.35 -44.21,-48.71 -8.54,-24.61 -11.82,-56.62 -8.16,-89.6 2,-19.21 13.57,-48.98 29.9,-72.29 13.8,-19.47 31.11,-34.75 50.17,-37.37 32.74,-4.51 69.05,-3.45 95.09,10.07zm-87.17 70.53c6.55,-0.78 15.23,-1.98 23.7,-3.16 7.3,-1.28 14.61,-2.56 20.55,-3.93 -2.58,-1.28 -5.54,-2.38 -8.67,-3.17 -9.03,-2.2 -18.73,-2.52 -23.16,-1.84 -0.19,0.16 -0.38,0.17 -0.57,0.18 -3.06,0.77 -6.99,3.75 -9.89,8.08 -0.73,1.12 -1.44,2.41 -1.95,3.83zm23.96 18.43c-15.79,2.46 -31.6,4.31 -36.44,4.39 -5.58,0.88 -10.21,-2.77 -10.65,-8.04 -1.12,-11.14 2.3,-20.93 7.34,-28.79 6.51,-9.94 16.46,-16.79 25.07,-19.07 0.96,-0.2 1.72,-0.39 2.87,-0.76 6.74,-0.94 19.93,-0.79 31.71,2.22 13.33,3.25 25.51,10.6 27.31,23.88 0.04,0.92 -0.1,1.87 0.12,2.63 -0.15,0.64 -0.12,1.25 -0.1,1.72 -0.77,8.42 -9.04,13.64 -21.3,16.86 -6.88,1.89 -16.3,3.58 -25.92,4.97zm24.94 -21.7c0.08,1.71 0.32,2.78 0.45,1.53 -0.22,-0.45 -0.24,-0.92 -0.45,-1.53z"></path> <path class="fil5 str9" d="M4173.41 2610.12c4.54,-10.47 9.53,-27.8 14.03,-47.3 3.82,-17.43 7.17,-36.7 8.63,-54.65 3.33,-40.1 -1.09,-71.75 -4.18,-91.66 -2.44,-18.69 -4.14,-29.95 5.43,-36.48 7.51,-5.17 19.75,-8.87 32.32,-9.46 10.83,-0.52 22.35,1.11 31.47,5.49 0.41,0.45 0.81,0.74 1.4,0.86 2.61,1.75 4.47,4.3 5.76,7.03 5.67,-3.07 12.48,-6.65 19.31,-9.77 12.33,-5.72 25.27,-10.69 34.95,-10.99 13.73,-0.81 32.08,1.89 46.24,5.87 15.91,4.53 27.73,12.36 27.43,22.32 0.01,0.16 0.02,0.32 0.02,0.32 -0.29,5.92 -1.36,16.22 -4.32,27.24 -3.12,11.96 -8.68,25.13 -18.62,36.48 -11.97,13.31 -20.51,8.91 -32.66,2.18 -5.17,-2.86 -11.94,-6.43 -20.32,-7.27 -14.81,-1.62 -31.08,-1.31 -41.29,0.11 0.65,21.57 1.53,72.67 1.02,110.61 -0.58,28.32 -2.99,51.27 -8.56,56.21 -2.6,2.46 -6.39,4.35 -11.74,6 -3.64,0.96 -8.62,2.12 -15.92,3.4 -6.93,1.12 -27.34,3.95 -42.85,3.91 -6.39,0.14 -12.04,-0.35 -16.36,-1.55 -8.43,-1.94 -13.28,-6.21 -12.33,-14.49 -0.01,-0.31 0.15,-0.94 0.33,-1.42 0.15,-0.93 0.49,-1.89 0.82,-3zm35.82 -45.69c-3.86,16.81 -8.16,32.24 -12.25,43.8 2.13,0.05 4.66,0.24 7.18,0.11 14.15,0.1 32.46,-2.31 38.8,-3.4 6.15,-1.08 10.37,-2.06 13.43,-2.82 1.52,-0.54 1.36,-0.06 1.53,-0.38 0.94,-0.66 -0.92,-15.49 -0.25,-37.75 0.63,-43.55 -0.64,-102.56 -1.12,-116.83 -0.01,-0.15 -0.02,-0.46 0.15,-0.94 -0.06,-1.24 0.09,-2.33 0.41,-3.6 1.12,-4.87 4.25,-8.28 9.19,-10.54 0.37,-0.33 0.75,-0.34 1.32,-0.69 2.28,-1.04 5.53,-1.97 8.99,-2.61 11.74,-1.95 31.68,-2.28 49.02,-0.47 12.09,1.29 20.84,6 27.61,9.72 2.98,1.56 2.97,5.45 4.08,4.16 6.8,-7.63 10.61,-17.29 13.1,-25.96 2.46,-9.29 3.23,-17.72 3.39,-22.55 -0.01,-0.16 -0.02,-0.3 -0.02,-0.46 0.16,-0.63 -5.84,-0.65 -13.71,-2.77 -12.2,-3.76 -28.01,-5.96 -39.4,-5.11 -6.19,0.29 -16.29,4.04 -25.95,8.7 -10.82,4.86 -21.02,10.48 -27.43,14.36 -5.48,3.06 -11.92,2.13 -14.66,-2.56 -1.05,-1.82 -1.74,-3.96 -2.99,-5.92 -0.47,-1.69 0.43,-2.98 -0.18,-3.57 -0.19,0.01 -0.19,0.01 -0.2,-0.14 -6.16,-2.97 -13.96,-3.99 -21.69,-3.63 -8.12,0.54 -15.59,2.46 -19.73,5.13 -3.76,2.51 4.79,2.88 6.23,12.61 3.13,20.83 7.8,53.87 4.2,96.32 -1.79,19.2 -5.09,39.4 -9.06,57.78z"></path> <path class="fil5 str10" d="M4577.55 2466.2c3.53,-23.33 -4.62,-39.88 -18.73,-51.02 -19.35,-15.56 -49.9,-22.02 -78.27,-23.3 -11.46,-0.39 -24.41,8.48 -36.23,20.69 -16.63,17.27 -30.07,40.45 -34.18,55.72 -8.28,29.45 -10.18,58.76 -6.16,82.19 3.34,21.3 11.86,37.2 24.36,43.29 17.47,8.49 40.65,10.64 62.03,7.91 21.77,-2.89 41.39,-10.21 52.29,-21.3 5.73,-5.88 14.02,-14.97 18.7,-22.65 1.24,-2.54 2.3,-4.46 2.62,-5.88 -0.78,-0.12 -1.95,-0.22 -3.7,-0.45 -3.69,-0.14 -6.82,-0.77 -10.14,-1.23 -4.29,-0.57 -8.99,-1.44 -14.99,-1.46 -1.76,-0.06 -3.32,-0.15 -4.46,0.06 -8.32,8.32 -19.71,13.53 -31.01,16.54 -16.27,4.21 -33.38,3.32 -39.38,-0.45 -5.4,-3.47 -14.56,-12.67 -18.66,-25.68 -2.56,-8.9 -3.46,-19.58 0.26,-31.09 3.76,-10.91 33.49,-9.22 61.09,-7.73 0.21,0.14 0.39,0.13 0.58,0.12 15.17,0.99 29.36,1.71 34.79,1.76 5.8,-0.12 12.01,-0.1 17.06,0.12 10.08,-0.02 15.51,-0.12 16.27,-0.32 1.1,-1.29 2.46,-9.28 4.74,-26.33 0.24,-3.27 0.67,-6.39 1.11,-9.53zm-3.48 -68.7c18.95,15.27 30.27,37.26 25.59,68.88 -0.62,3.3 -0.87,6.26 -1.3,9.38 -3.17,23.01 -4.78,33.81 -12.96,41.2 -8.18,7.38 -16.72,7.16 -33.01,7.01 -4.07,-0.11 -8.92,-0.04 -16.49,0.01 -6,0.14 -20.77,-0.72 -36.72,-1.67 -0.19,0.01 -0.39,0.02 -0.39,0.02 -18.27,-1.14 -33.06,-18.62 -35.76,-10.25 -2.21,6.63 -1.52,12.81 0.09,18.18 2.52,8.12 7.63,13.79 10.82,15.65 2.41,1.59 11.89,1.14 22.8,-1.71 7.66,-1.92 15.25,-5.39 20.04,-10.6 2.76,-2.93 6.16,-4.95 10.95,-5.96 3.07,-0.62 6.55,-0.93 10.82,-0.83 7.77,0.25 13.23,0.92 17.92,1.79 2.93,0.48 5.65,0.81 8.19,1 4.86,0.39 8.98,1.28 11.98,3.01 0.2,0.15 0.39,0.14 0.57,-0.02 7.17,3.85 9.4,9.96 8.95,16.97 -0.33,5.45 -2.57,11.15 -5.97,17.08 -5.92,10.07 -15.67,20.95 -22.91,27.82 -14.78,15.16 -40.27,25.39 -66.86,28.84 -25.44,3.23 -52.7,0.65 -74.13,-9.67 -18.25,-8.62 -29.71,-29.52 -34.31,-56.65 -4.36,-26.53 -2.04,-59.12 6.87,-91.56 5.31,-18.9 21.04,-46.7 40.62,-67.06 16.24,-16.94 35.64,-29.05 54.67,-28.25 32.05,1.27 66.74,9.09 89.91,27.4zm-95.68 54.62c6.42,0.46 14.98,1 23.71,1.2 7.18,0.13 14.35,0.25 20.16,-0.03 -2.03,-1.92 -5,-3.32 -8.18,-4.9 -8.12,-3.65 -17.33,-5.84 -21.81,-5.95 -0.19,0.02 -0.38,0.02 -0.38,0.02 -3.28,0.3 -7.45,2.52 -11.15,6.27 -0.72,0.96 -1.63,2.26 -2.35,3.38zm20.1 23.12c-15.53,-0.49 -31.09,-1.62 -36.16,-2.15 -5.45,-0.37 -9.14,-4.7 -8.63,-10.16 0.64,-11.22 5.43,-20.47 11.68,-27.44 8.11,-8.94 18.73,-13.94 27.22,-14.66 1.16,-0.06 2.12,-0.26 3.28,-0.32 6.61,0.3 19.14,2.97 29.85,7.9 12.49,5.94 23.02,15.22 22.32,28.93 -0.11,1.71 -0.06,2.8 -0.37,4.37 -2.14,8.18 -11.26,12.04 -23.23,13.08 -7.34,0.65 -16.64,0.64 -25.95,0.45zm27.48 -17.16c-0.12,1.56 -0.26,2.65 0.07,1.4 0.17,-0.48 -0.05,-0.92 -0.07,-1.4z"></path> <path class="fil5 str11" d="M3177.52 2569.38c-7.08,9.97 -28.64,41.78 -44.67,67.42 -9.54,15.21 -16.71,27.52 -17.16,30.35 -2.41,18.61 1.04,38.02 9.4,54.72 7.96,16.72 20.66,30.88 36.36,38.99 20.29,10.69 38.78,12.29 55.28,8.55 16.88,-3.6 32.92,-12.76 48.12,-23.43 8.06,-5.83 16.76,-18.37 23.66,-32.06 9.42,-18.02 15.7,-36.81 15.71,-44.58 -0.01,-20.36 -4.37,-38.65 -11.94,-55.08 -8.43,-18.25 -21.01,-33.96 -35.61,-47.41 -1,-0.73 -2.2,-1.45 -3.21,-2.18 -9.01,-6.1 -24.3,-9.57 -39.59,-9.14 -14.14,0.52 -27.34,4.26 -34.71,12.23 -0.56,0.49 -1.1,1.29 -1.67,1.63zm-62.75 58.18c16.56,-26.6 38.84,-59.22 46.12,-69.35 0.91,-1.29 2,-2.74 3.1,-4.03 12.88,-14.3 33.33,-20.71 53.47,-21.21 18.97,-0.59 38.37,3.92 50.4,12.06 1.59,1.01 3.22,2.34 5.03,3.8 16.61,14.91 30.43,32.43 39.75,52.96 8.83,18.55 13.71,39.61 13.89,63.53 0.13,10.88 -7.46,34.55 -18.66,56.07 -8.88,17.05 -20.5,33.61 -32.67,42.43 -18.01,12.52 -36.89,23.36 -57.99,27.95 -21.11,4.58 -44.08,2.57 -68.93,-10.23 -18.89,-9.98 -34.24,-26.81 -43.72,-46.71 -9.67,-19.91 -13.9,-43.48 -10.93,-66.47 1.04,-6.89 9.96,-22.85 21.13,-40.79zm105.55 -2.09c-5.57,-3.01 -8.28,1.17 -12.8,7.91 -2.18,3.06 -4.17,6.11 -6.71,9.65 -0.54,0.81 -1.09,1.45 -1.63,2.26 -7.85,10.48 -21.14,28.21 -16.97,34.53 16.59,26.73 26.51,35.58 32.63,33.88 5.92,-1.83 13.21,-15.86 21.98,-34.92 2.99,-6.67 2.17,-15.65 -0.18,-24.09 -4.59,-15.01 -13.34,-27.65 -16.32,-29.21zm-30.54 -2.27c12.67,-18.79 20.83,-30.52 43.52,-18.25 5.37,2.7 18.8,20.25 24.57,39.71 3.91,13.02 4.8,27.43 -0.98,40.3 -12.33,26.08 -23.05,45.24 -39.47,50.38 -15.67,4.63 -32.65,-5.91 -54.67,-40.76 -11.75,-18.71 7.73,-44.97 19.59,-60.78 0.54,-0.65 1.1,-1.29 1.64,-2.1 2.18,-2.9 4.17,-5.94 5.8,-8.51z"></path> <path class="fil5 str12" d="M3328.7 2519.74c2.48,11.38 30.58,72.2 56.46,123.04 18.83,37.03 34.87,68.42 35.07,68.42 6.19,-0.29 11.98,-0.88 16.75,-2.34 4.41,-1.16 8.95,-3.39 13.46,-6.55 0.37,-0.33 5.17,-9.26 11.25,-20.12 7.34,-12.78 15.38,-26.99 20.87,-33.94 4.03,-5.17 11.12,-6.75 15.55,-3.39 0,0 0,0 0.18,-0.01 10.01,6.51 18.53,18.39 25.99,28.61 5.39,7.36 5.37,14.97 7.47,14.26 3.44,-0.95 7.46,-1.91 11.88,-2.91 16.66,-4.36 42.9,-10.9 43.42,-12.17 19.76,-45.08 43.13,-119.86 61.26,-179.02 3.69,-11.82 7.21,-23.5 10.91,-35.33 0.98,-3.78 1.83,-6.31 1.75,-8.01 -1.55,-0.07 -4.82,0.54 -9.26,1.06 -11.74,1.81 -28.83,5.26 -43.19,9.06 -9.77,2.49 -16.39,1.87 -18.49,2.59 -1.46,17.95 -10.58,74.8 -18.19,110.44 -1.89,9.11 -4.02,17.13 -5.88,22.97 -3.52,11.52 -8.83,18.3 -16.98,18.07 -0.77,0.04 -1.55,-0.08 -2.14,-0.37 -0.79,-0.27 -1.77,-0.38 -2.57,-0.96 -0.19,0.01 -0.39,-0.13 -0.61,-0.43 -8.59,-5.65 -35.65,-36.07 -44.26,-46.08 -5.8,0.28 -13.34,0.95 -19.87,2.04 -4.82,0.85 -8.47,1.49 -8.66,1.65 -0.19,0.01 -3.45,8.87 -7.09,17.91 -5.41,12.54 -10.43,25.21 -16.04,29.52 -6.35,4.97 -12.17,4.94 -16.15,-1.25 -6.05,-9.03 -14.86,-30.99 -22.35,-53.79 -7.49,-23.11 -13.69,-47.37 -14.68,-59.91 -0.34,-3.09 -6.31,5.89 -15.16,7.56 -8.06,1.47 -17.64,3.8 -26.43,6.55 -8.8,2.6 -16.6,5.6 -22.1,8.2 -0.57,0.19 -2.97,-9.33 -2.19,-5.33zm36.36 136.12c-26.34,-52.06 -55.14,-115.19 -57.86,-127.64 -1.79,-9.08 5.01,-16.87 16.93,-22.88 7.01,-3.44 16.34,-6.99 26.08,-9.94 9.57,-2.79 19.73,-5.29 29.33,-7 19.99,-3.75 36.17,-1.87 36.87,8.96 0.9,10.68 6.82,33.26 14.07,55.13 3.87,11.94 8.11,23.7 12.04,33 0.35,-0.96 0.7,-1.75 1.04,-2.69 5.05,-12.06 10.28,-24.28 14.93,-28.38 4.28,-3.64 12.31,-6.19 20.95,-7.69 9.62,-1.55 21.02,-2.56 27.41,-2.56 3.1,-0.14 5.67,0.98 7.51,3.07 0.01,0.15 20.31,23.27 33.36,36.8 0.78,-3.93 1.76,-7.7 2.56,-11.47 8.09,-37.53 17.64,-97.68 18.02,-109.81 0,0 0,0 -0.01,-0.16 -0.07,-1.55 0.24,-3.12 0.93,-4.7 3.13,-7.61 18.71,-14.26 37.1,-19.02 15.12,-3.99 33.18,-7.65 45.88,-9.5 8.48,-1.18 15.25,-1.5 18.58,-0.73 6.48,1.87 10.36,5.88 11.86,12.96 0.82,5.09 0.17,11.66 -2.53,20.02 -3.9,11.84 -7.22,23.5 -10.75,35.02 -18.46,59.94 -41.81,135.35 -62.09,181.7 -6.12,13.81 -40.22,22.43 -62.06,27.83 -3.64,0.94 -7.47,1.91 -10.91,2.85 -11.28,3.33 -19.17,-7.48 -28.7,-20.55 -4.16,-5.87 -8.94,-12.47 -13.83,-17.52 -3.6,5.76 -7.73,12.96 -11.28,19.65 -7.88,13.59 -14.86,25.73 -19.53,29.22 -7.14,5.16 -14.34,8.46 -21.8,10.52 -6.9,1.88 -14.02,2.84 -21.96,3.07 -8.9,0.42 -30.57,-35.22 -52.16,-77.55z"></path> <path class="fil5 str13" d="M2740.16 2593.84c-0.83,-5.09 0.69,-9.98 4.53,-14.68 4.04,-4.7 11.02,-8.91 19.37,-12.73 6.83,-3.13 15.6,-6.18 23.8,-9.06 21,-6.75 43.78,-8.93 46.26,-5.63 10.98,14.7 37.26,41.43 65.78,70.22 23.22,23.3 47.65,47.93 66.68,68.77 -8.43,-34.25 -18.52,-79.16 -25.85,-114.86 -7.4,-37.42 -10.39,-67.43 -3.64,-72.57 5.6,-4.15 20.02,-11.06 36.21,-17.26 14.65,-5.84 31.24,-11.45 44.47,-14.57 16.67,-4.21 30.23,-4.55 34.64,2.7 1.02,1.2 1.48,2.57 1.94,3.95 -0.18,0.32 -0.18,0.48 -0.16,0.79 1.49,6.92 0.64,13.34 -0.26,22.85 -1.74,16.41 -4.89,44.07 1.47,104.23 2.45,26.76 13.01,81.75 22.49,129.94 9.99,50.82 18.47,94.39 8.7,100.92 -1.13,0.84 -19.55,8.86 -38.57,16.61 -12.37,4.94 -24.73,9.89 -33.5,12.95 -1.91,0.71 -3.62,1.41 -5.33,1.96 -26.68,9.66 -31.06,11.27 -42.54,-5.74 -13.4,-20.81 -31.11,-46.39 -48.69,-69.48 -10.94,-14.09 -21.84,-27.09 -31.63,-37.19 2.96,9.18 5.37,18.86 7.95,28.37 14.69,51.83 30.46,106.26 14.81,115.24 -11.7,6.63 -30.7,14.84 -48.97,21.93 -19.23,7.44 -38.13,13.47 -47.93,15.19 -17.88,3.03 -21.69,-40 -26.48,-95.72 -1.8,-21.51 -3.72,-45.37 -6.35,-68.24 -7.14,-64.32 -24.61,-125.65 -33.53,-158.33 -2.38,-9.06 -4.45,-15.95 -5.64,-20.55zm28.94 -6.82c-2.46,1.05 -4.54,2.08 -6.06,2.93 1.2,4.92 2.6,9.67 3.79,14.43 9.53,32.96 26.84,95.24 34.47,161.39 2.69,23.96 4.78,47.49 6.57,68.7 3.7,45.05 3.63,80.18 5.36,79.79 8.08,-1.32 25.07,-6.79 42.96,-13.71 17.33,-6.58 34.99,-14.42 45.18,-20.34 3.21,-1.87 -16.4,-42.89 -28.52,-85.68 -2.34,-8.44 -4.88,-16.86 -7.02,-25.31 -5.16,-18.56 -9.83,-35.29 -1.72,-44.22 7.18,-7.96 17.1,-7.19 32.1,6.39 12.17,11.39 26.33,27.81 40.18,45.65 17.77,23.09 35.69,49.27 49.69,70.37 3.56,5.57 5.85,4.85 19.57,-0.17 1.72,-0.54 3.62,-1.26 5.53,-1.97 9.34,-3.4 21.34,-8.01 32.17,-12.57 17.69,-7.06 33.46,-13.57 33.65,-13.73 5.63,-3.85 -12.79,-32.35 -21.02,-74.84 -9.09,-48.22 -19.88,-103.66 -22.57,-131.66 -6.47,-62.32 -3.2,-91.39 -1.32,-108.89 0.86,-6.42 1.22,-10.94 1.04,-14.81 -1.72,0.4 -6.85,2.65 -14.33,4.42 -12.25,3.07 -27.71,8.32 -41.22,13.62 -14.27,5.51 -26.24,10.89 -29.79,13.55 -2.79,2.3 8.83,18.23 14.65,46.86 8.12,40.48 19.9,92.14 28.51,126.4 3.56,13.5 4.98,23.07 4.5,29.15 -0.13,1.41 -0.45,2.82 -1.16,4.26 -6.96,16.5 -16.76,14.32 -30.34,-2.12 -18.74,-22.89 -50.92,-55.24 -81.05,-85.35 -28.54,-29.25 -55.61,-56.4 -67.21,-72.01 -0.63,-0.9 -11.31,6.91 -25.24,11.47 -7.64,2.38 -15.08,5.06 -21.34,8zm109.72 154.22c0.65,-2.66 1.54,-4.42 -0.13,-2.63 -0.36,0.49 -0.32,1.42 0.13,2.63z"></path> <path class="fil5 str14" d="M3450.31 2049.85c-7.06,10.44 -25.53,41.78 -39.63,67.48 -8.19,15.16 -14.38,27.73 -14.63,30.54 -1.25,18.41 3.52,37.3 12.62,53.33 9.1,15.89 22.54,29.39 38.77,36.54 20.81,9.42 38.67,9.81 54.93,5.46 16.46,-4.67 31.68,-14.42 46.68,-25.23 4.11,-3.16 12.68,-18.79 20.01,-35.62 7.7,-17.46 14.03,-35.03 13.54,-41.36 -1.55,-20.13 -7.04,-37.9 -15.54,-53.35 -9.76,-17.72 -23.27,-32.62 -38.59,-45.1 -1,-0.57 -2,-1.31 -3.4,-2.02 -9.38,-5.61 -24.62,-8.31 -39.49,-7.13 -13.71,1.12 -26.88,5.48 -33.47,13.71 -0.73,0.98 -1.27,1.77 -1.81,2.73zm-58.04 59.18c14.06,-26.15 33.27,-58.31 40.49,-69.38 0.18,-0.32 0.36,-0.64 0.54,-0.96 0.71,-1.28 1.63,-2.41 2.72,-3.86 0,0 0.18,-0.17 0.37,-0.33 11.7,-14.71 31.33,-21.86 51.03,-23.42 18.74,-1.36 38.11,2.38 50.67,9.4 1.79,1 3.4,2.32 5.2,3.48 17.34,13.94 32.29,30.47 43.11,50.17 9.77,18.03 16.18,38.4 17.88,61.78 0.68,10.07 -6.42,32.17 -15.52,52.65 -9.1,20.64 -20.74,40.78 -29.17,46.79 -16.85,12.45 -34.92,23.89 -55.01,29.51 -20.67,5.49 -43.17,5.33 -68.54,-6.36 -19.61,-8.7 -35.68,-24.56 -46.68,-43.78 -10.99,-19.21 -16.74,-41.95 -15.1,-64.56 0.45,-6.71 8.03,-22.76 18.01,-41.12zm104.33 -7.31c-5.75,-2.52 -8.25,1.79 -12.19,8.67 -1.98,3.21 -4.13,6.72 -5.93,9.61 -0.55,0.81 -1.09,1.61 -1.63,2.26 -7.05,10.75 -18.79,28.88 -14.44,34.88 18.47,25.23 28.76,33.76 34.86,31.6 5.72,-1.99 11.82,-16.26 19.25,-35.42 2.6,-6.49 1.02,-15.12 -2.09,-23.37 -5.34,-14.51 -14.64,-26.65 -17.82,-28.22zm-30.27 -0.57c11.11,-19.02 18.1,-30.86 41.51,-19.85 5.33,2.23 20.09,18.94 27,37.72 5.06,12.51 6.69,26.41 1.7,39.71 -10.2,25.98 -19.35,45.37 -35.35,51.11 -15.44,5.56 -32.78,-4.19 -57.05,-37.38 -12.67,-17.73 4.87,-44.37 15.54,-60.42 0.34,-0.8 0.9,-1.44 1.25,-2.24 2.16,-3.52 3.98,-6.09 5.41,-8.65z"></path> <path class="fil5 str15" d="M3296.18 1976.7c-1.42,6.9 -3.07,21.13 -4.87,40.02 -4.61,45.6 -9.35,116.85 -9.8,176.56 -0.29,54.87 1.27,99.56 7.49,100.2 0,0 0,0 0.18,-0.17 3.86,-0.49 11.77,-1.34 20.82,-2.54 8.87,-1.2 18.5,-2.44 26.19,-3.74 5.2,-0.72 6.63,-3.27 6.68,-6.23 0.14,-5.29 -1.55,-12.05 -3.24,-18.96 -0.02,-0.47 -0.24,-0.92 -0.26,-1.55 -9.26,-39.5 -14.39,-78.1 -17.07,-114.04 -3.22,-43.05 -2.8,-82.86 -0.34,-116.86 1.04,-14.66 3.42,-29.69 5.51,-43.01 1.66,-9.87 2.98,-18.79 3.45,-25.04 -0.97,-0.1 -2.33,0.11 -3.87,0.34 -3.07,0.61 -6.69,1.87 -10.68,3.46 -10.07,4.22 -19.91,9.5 -20.2,11.54zm-26.3 41.82c1.95,-19.83 3.95,-35.01 5.34,-42.38 1.81,-10.65 19.38,-24.39 36.48,-31.58 4.94,-2.1 10.1,-3.74 15.09,-4.76 5.76,-1.21 10.99,-1.14 15.14,0.37 6.7,2.32 10.64,7.57 10.46,16.28 -0.39,7.95 -2.03,18.28 -3.8,30.03 -2.1,12.68 -4.35,26.78 -5.43,40.67 -2.1,33.2 -2.58,71.77 0.59,113.74 2.84,35.14 7.91,72.51 16.92,110.78 -0.16,0.62 -0.14,1.09 0.08,1.55 2.12,7.97 3.87,16.28 3.66,24.06 0.01,0.15 0.01,0.15 0.01,0.15 -0.22,15.71 -6.79,28.14 -28.54,31.67 -8.46,1.35 -18.28,2.74 -26.95,3.94 -9.44,1.22 -17.72,2.24 -21.58,2.58 -0.96,0.21 -1.75,0.09 -2.33,0.11 -19.78,-0.29 -25.8,-53.32 -25.06,-118.78 0.61,-60.65 5.69,-132.69 9.91,-178.43z"></path> <path class="fil5 str16" d="M4113.55 1875.83c-12.14,34 -20.61,79.94 -25.92,127.12 -6.59,56.74 -8.12,114.32 -5.41,154.59 0.2,4.19 0.58,8.22 0.94,11.62 1.06,10.05 1.51,15.32 -2.85,21.43 -4.89,7.23 -10.49,7.65 -22.25,8.99 -2.7,0.44 -5.19,0.87 -7.71,0.99 -11.57,1.33 -20.86,1.78 -28.04,1.5 -9.14,-0.5 -15.61,-2.21 -20.19,-4.63 -0.4,-0.14 -0.41,-0.45 -0.61,-0.59 -4.19,-2.76 -6.11,-6.24 -6.48,-10.1 -10.83,4.71 -24.76,9.42 -40.53,12.04 -16.37,2.33 -34.99,2.29 -53.87,-3.34 -17.5,-5.08 -26.88,-27.16 -30.78,-55.89 -4.25,-32.12 -1.77,-73.58 4.56,-107.6 0.43,-2.98 1.27,-5.82 2.29,-8.82 6.45,-19.11 22.8,-38.08 40.18,-51.81 17.36,-14.19 36.88,-23.37 48.53,-22.99 0,0 0.19,-0.01 0.39,-0.02 1.17,0.1 2.34,0.2 3.13,0.47 15.67,3.45 29.72,9.46 39.82,13.8 4.74,1.79 -1.04,10.61 3.24,6.98 1.87,-1.48 1.9,-57.6 2.17,-84.65 0.02,-3.26 0.36,-8.56 0.02,-11.66 0.62,-11.38 14.73,-20.59 33.03,-26.92 14.11,-4.86 31.74,-9.13 45.23,-10.86 1.93,-0.24 3.67,-0.33 5.6,-0.57 18.33,-1.81 23.9,5.23 23.3,16.92 -0.33,5.45 -2.76,11.17 -5.19,17.19 -0.66,2.36 -1.72,4.58 -2.58,6.81zm-47.41 127.68c5.42,-48.75 14.57,-96.74 27.58,-132.8 0.66,-2.52 1.9,-5.07 2.93,-7.6 1.04,-2.54 1.89,-5.06 2.78,-6.82 -2.69,0.59 -4.63,0.53 -6.93,0.95 -12.15,1.51 -28.06,5.07 -41.03,9.73 -9.16,3.08 -15.72,3.55 -15.88,4.32 -0.01,3.89 -0.04,7.31 -0.07,10.74 -0.09,30.62 -0.54,94.21 -10.95,103.41 -6.71,5.76 -14.44,2.4 -26.1,-2.34 -9.5,-4.2 -22.95,-9.62 -36.67,-12.7 -0.19,0.02 -0.19,0.02 -0.19,0.02 -6.61,-0.47 -19.84,6.69 -33.1,17.43 -13.82,11.07 -26.89,25.52 -31.64,39.74 -0.69,1.75 -1,3.47 -1.31,5.04 -6.02,32.47 -8.24,70.95 -4.31,100.76 2.98,21.77 8.6,37.98 18.05,40.95 15.91,4.53 31.43,4.56 45.29,2.5 21.55,-3.36 39.17,-11.97 47.65,-17.04 1.32,-0.69 2.85,-1.23 4.2,-1.44 6.15,-0.92 10.99,3.05 10.9,9.11 0.12,2.48 -0.17,4.66 -0.26,7.01 -0.49,1.88 -3.18,2.32 -2.36,3.22 0,0 0.01,0.15 0.21,0.14 2.18,1.15 5.91,1.9 11.35,2.26 6.21,0.18 14.34,-0.06 24.17,-1.46 2.9,-0.14 5.6,-0.41 8.48,-1.03 4.07,-0.19 2.55,4.54 4.37,2.12 1.08,-1.75 -1.4,-0.86 -1.83,-5.65 -0.33,-2.94 -0.51,-6.82 -0.96,-12.08 -2.75,-41.37 -1.12,-100.67 5.62,-158.49zm-41.38 51.09c0.03,4.82 -0.12,9.64 -0.09,14.3 -0.17,16.94 -0.43,39.81 -3.29,44.77 -0.18,0.31 -0.37,0.49 -0.37,0.49 -1.28,1.91 -2.74,3.55 -4.4,5.33 -0.37,0.33 -0.55,0.65 -0.73,0.81 -6.84,6.85 -18.93,13.8 -31.34,17.65 -13.38,4.06 -27.88,4.91 -39.43,-1.37 -2.58,-1.44 -4.99,-3.19 -7.23,-5.41 -2.65,-2.82 -5.8,-11.84 -7.52,-23.42 -1.72,-11.73 -2.84,-27.05 -1.78,-41.25 1.16,-16.22 5.29,-31.34 13.98,-40.45 3.51,-3.6 7.45,-6.27 12.24,-7.58 6.68,-2.03 16.45,-0.48 26.88,2.6 9.04,2.68 18.72,6.41 26.62,9.61 5.14,1.93 9.18,5.16 12.06,8.91 3.11,4.2 4.71,9.26 4.4,15.02zm-21.86 17.37c0.16,-4.98 0.31,-9.81 0.27,-14.77 -0.05,-1.09 -0.09,-1.87 -0.72,-2.77 -0.83,-1.21 -2.44,-2.37 -4.41,-3.21 -7.33,-3.08 -16.59,-6.36 -25.05,-8.91 -6.89,-2.01 -12.76,-3.28 -15.05,-2.71 -0.39,0.02 -0.77,0.36 -1.13,0.83 -4.07,4.08 -5.95,13.35 -6.79,24.11 -0.76,12.47 0.28,26.25 1.76,36.91 1.14,7.71 1.96,12.65 2.36,12.94 1.01,0.88 1.83,1.78 3.22,2.49 6.37,3.43 15.25,2.69 23.85,0.1 8.61,-2.58 16.34,-7.15 20.6,-11.24 0.37,-0.33 1.29,-1.3 1.65,-1.94 0.54,-0.96 -0.65,-17.68 -0.56,-31.84z"></path> <path class="fil5 str17" d="M3831.54 1974.77c-3.65,28.93 -4.42,73.57 -1.79,112.76 2.14,32.7 6.6,61.23 13.95,72.85 12.21,20.24 6.05,33.6 -9.99,42.6 -10.95,6.27 -27.89,8.79 -45.5,9.32 -13.56,0.18 -21.13,-8 -27.04,-13.94 0.19,-0.16 0.37,-0.33 0.55,-0.81 -18.94,13.66 -37.57,21.23 -53.87,25.11 -28,6.31 -50.34,1.16 -57.56,-3.79 -13.6,-8.99 -19.23,-37.46 -20.08,-71.46 -1.19,-45.33 5.57,-102.69 11.62,-134.38 0.31,-1.56 0.61,-3.13 0.92,-4.86 2.55,-15.52 4.88,-27.75 22.37,-30.76 4.04,-0.65 8.28,-1.32 12.5,-2.14 24.8,-4.6 39.39,-7.33 46.12,7.74 3.5,8.39 1.08,30.73 -1.55,56.96 -3.69,32.35 -8.01,71.72 -3.03,90.92 0.97,-0.05 2.53,0.02 4.84,-0.23 4.24,-0.52 9.22,-1.69 13.97,-3.94 0,0 0.19,-0.01 0.38,-0.17 2.26,-1.04 4.15,-2.06 6.04,-3.4 -0.06,-5.13 -0.29,-10.09 -0.15,-15.38 -0.1,-42.58 -0.17,-125.42 13.2,-137.71 9.3,-8.22 28.87,-12.57 44.37,-12.84 5.62,0.04 10.67,0.26 14.79,1.16 5.29,1.15 9.84,3.11 12.5,6.24 2.26,2.69 3.21,6.07 2.42,10.14zm-23.46 117.54c-2.61,-38.27 -1.76,-81.68 1.63,-112.14 -0.19,0.16 -0.19,0.16 -0.19,0.16 -2.93,-0.64 -6.63,-0.92 -10.51,-0.89 -11.24,0.06 -24.12,2.4 -28.58,6.34 -4.85,4.27 -4.74,79.49 -4.42,118.65 0.08,9.77 0.06,17.4 -0.15,21.14 -0.06,2.96 -1.08,5.96 -3.47,8.56 -4.61,5.04 -11,9.22 -17.83,12.35 -0.18,0.32 -0.37,0.33 -0.57,0.33 -7.01,3.44 -14.87,5.37 -21.62,6 -7.53,0.68 -14.37,-0.56 -18.8,-4.07 -0.4,-0.14 -0.61,-0.44 -0.82,-0.73 -1.82,-1.63 -3.08,-3.74 -3.99,-6.34 -6.7,-22.53 -2.14,-65.49 1.79,-100.8 2.58,-23.12 4.75,-42.66 3.22,-46.31 -0.88,-2.14 -10.11,-0.46 -25.66,2.46 -4.23,0.82 -8.46,1.65 -12.68,2.31 -0.19,0.01 -0.58,4.07 -1.51,9.09 -0.29,2.04 -0.6,3.76 -0.71,5.48 -5.92,30.43 -12.39,85.76 -11.27,129.53 0.77,28.26 4.18,50.94 12.37,56.31 4.42,3.05 20.28,6.17 42.33,1.08 14.57,-3.34 31.48,-10.52 49.07,-23.94 10.67,-7.97 15.58,-2.46 22.51,4.67 3.28,3.72 7.79,8.63 13.01,8.39 14.13,-0.37 27.24,-2.06 34.41,-5.99 2.27,-1.2 2.5,-4.31 -0.86,-9.91 -9.02,-14.33 -14.41,-46.09 -16.7,-81.72zm-46.9 106.05c1.88,-1.32 3.74,-2.97 5.8,-4.47 -1.87,1.49 -3.56,2.66 -5.25,3.67 -0.18,0.48 -0.36,0.65 -0.55,0.81z"></path> <path class="fil5 str18" d="M4220.3 1951.54c7.1,6.51 9.69,20.22 11.79,31.78 0.63,5.09 1.8,9.23 2.27,10.92 0.42,0.91 1.86,2.4 3.69,4.33 3.86,3.7 9.48,7.63 14.26,10.51 1.4,0.86 1.08,2.28 0.75,3.38 3.95,-6.4 8.41,-18.58 12.33,-29.96 6.36,-17.09 12.38,-33.07 21.49,-37.39 5.29,-2.89 31.65,-6.95 54.68,-7.89 16.25,-0.61 31.6,0.05 38.95,3.74 2.6,1.58 4.46,4.13 4.8,7.07 0.01,0.16 0.02,0.47 0.22,0.61 0.07,1.55 -0.25,2.97 -0.76,4.54 -4.94,22.31 -43.28,92.37 -84.67,151.22 -32.68,46.33 -67.77,87.02 -91.04,95.11 -8.4,2.89 -21.03,2.1 -34.18,-1.32 -12.95,-3.11 -26.97,-8.51 -37.94,-15.12 -10.95,-6.16 -7.57,-24.51 0.9,-41.85 2.85,-5.58 5.69,-10.84 8.95,-15.82 0.18,-0.17 0.37,-0.49 0.54,-0.81 3.45,-4.82 6.75,-9.03 9.7,-11.97 7.22,-7.02 14.48,-9.39 20.72,-4.55 1.21,1.18 3.98,2.14 6.71,2.48 0.59,0.12 1.18,0.25 1.95,0.22 1.32,-0.85 7.73,-8.76 13,-16.17 2.19,-2.9 5.82,0.03 4.94,-2.26 0,0 0,0 -0.01,-0.15 -0.63,-1.06 -9.05,-6.87 -17.29,-13.01 -8.62,-5.96 -17.05,-11.93 -21.35,-16.7 -11.27,-12.83 -22.59,-30.63 -31.92,-47.43 -15.72,-28.94 -23.01,-59.68 -18.94,-63.75 1.12,-0.83 2.06,-1.5 3.2,-2.02 9.05,-5.41 29.48,-7.79 49.08,-7.32 22.7,0.16 46.71,3.68 53.2,9.58zm-9.42 38.37c-1.56,-8.47 -3.42,-18.79 -6.04,-20.99 -3.25,-2.96 -21.94,-4.86 -40.76,-5.05 -16.89,-0.44 -32.56,0.31 -35.37,2.31 -0.2,0.01 -0.2,0.01 -0.2,0.01 -1.09,1.29 12.93,15.08 24.42,36.28 8.9,15.9 19.58,32.64 29.83,44.12 2.86,3.13 10.49,8.67 18.11,14.06 9.65,7.15 19.47,13.99 22.84,19.73 0.41,0.45 0.63,0.9 0.85,1.51 2.42,5.95 -1.8,15.01 -7.97,23.85 -6.92,9.34 -17.03,20.87 -20.24,22.88 -5.25,3.67 -11.61,4.44 -17.47,3.48 -3.31,-0.3 -6.84,-1.23 -9.82,-2.64 -1.28,1.46 -2.74,3.4 -4.19,5.64 -0.18,0.32 -0.37,0.48 -0.36,0.63 -2.73,3.86 -5.42,8.35 -7.34,12.95 -4.07,7.96 -7.81,14.98 -7.61,15.12 9.58,5.76 21.81,10.31 32.99,13.04 9.61,2.34 18,3.5 22,1.91 17.55,-6.12 48.36,-42.88 78.51,-85.49 37.75,-53.87 73.23,-114.63 79.87,-134.06 -5.65,-0.66 -14.17,-0.41 -23.27,-0.13 -20.32,0.81 -42.08,3.72 -45.5,5.43 -3.11,7.92 -5.65,15.5 -8.58,23.1 -5.64,15.81 -11.82,32.74 -19.92,41.67 -0.57,0.49 -1.3,1.3 -1.87,1.64 -0.74,0.66 -1.32,0.84 -1.87,1.33 -5.48,3.06 -14.11,0.99 -22.28,-3.91 -5.79,-3.45 -12.42,-8.27 -17.48,-13 -3.27,-3.26 -5.94,-6.55 -7.65,-9.9 -1.74,-3.64 -2.58,-9.35 -3.66,-15.52z"></path> <path class="fil5 str19" d="M3147.94 2132.51c1.11,-1.3 2.22,-2.44 3.31,-3.73 0.55,-0.81 1.08,-1.76 1.62,-2.73 -1.99,2.89 -10.08,12.29 -4.93,6.46zm3.31 -3.73c2.03,-2.12 4.06,-4.39 6.09,-6.51 14.38,-15.77 42.91,-39.35 41.25,-41.6 -42.54,-58.43 -68.3,-49.74 -129.33,-28.8 -5.72,1.83 -11.06,3.8 -16.4,5.6 -12.22,4 -26.84,18.54 -40.49,37.37 -18.61,24.36 -35.34,55.77 -46.66,82.42 -8.68,21.24 -11.43,73.43 -4.15,120.34 5.54,34.86 16.34,66.05 34.32,77.31 13.57,8.36 41.37,9.98 70.53,7.35 34.75,-3.05 70.37,-12.06 87.15,-22.04 19.6,-11.81 35.5,-23.91 46.99,-35.03 11.31,-10.8 18.23,-19.99 19.7,-25.96 0.94,-4.56 -0.61,-12.72 -4.46,-24.35 -4.42,-11.44 -11.11,-25.9 -20.83,-42.53 -3.52,3.59 -8.24,10.03 -13.53,17.13 -13.1,17.88 -28.21,38.64 -46.94,43.89 -3.44,0.94 -6.71,1.87 -9.96,2.8 -59.09,17.13 -98.27,28.64 -105.12,-49.68 -1.59,-21.22 4.79,-45.92 16.28,-69.17 11.85,-23.88 29.38,-46.47 48.41,-61.99 19.59,-16.02 52.8,1.51 69.29,9.9 -0.91,1.13 -1.63,2.41 -2.16,3.52zm20.32 7.26c-2.96,3.09 -5.89,6.5 -8.84,9.74 -6.79,7.79 -12.57,4.65 -21.71,0.1 -12.33,-6.55 -37.98,-19.94 -45.83,-13.82 -15.85,13.04 -30.65,32.08 -40.72,52.61 -9.36,19.1 -14.81,39.1 -13.43,55.66 5.01,56.5 35.62,47.57 81.51,34.2 3.25,-0.77 6.51,-1.71 9.94,-2.81 9.96,-2.65 22.34,-19.41 32.71,-33.73 8.03,-10.48 14.93,-20.3 22.25,-25.31 10.09,-7.64 18.62,-7.89 25.35,3.29 10.99,18.9 18.73,35.02 23.43,48.15 5.57,15.28 6.94,27.49 5.02,36.28 -2.57,11.16 -12.17,25.29 -27.36,40.01 -13.17,12.44 -30.75,25.87 -52.05,38.7 -19.98,11.98 -59.81,22.28 -97.65,25.64 -32.81,2.97 -64.71,0.75 -81.9,-10.08 -22.79,-14.3 -36.12,-50.03 -42.27,-89.53 -7.65,-50.62 -3.83,-108.61 6.43,-133.5 11.82,-28.54 29.99,-62.21 49.67,-88.48 17.12,-23.2 35.85,-41.19 53.59,-47.17 5.53,-1.81 11.07,-3.64 16.41,-5.44 70.58,-24.2 99.96,-34.15 150.36,34.78 8.91,12.01 -25.74,49.57 -44.9,70.69z"></path> <path class="fil5 str20" d="M4386.05 2852.85c-4.72,-5.37 -15.14,-12.49 -26.41,-17.08 -8.91,-3.62 -17.92,-5.83 -23.26,-3.87 -9.54,3.26 -19,8.05 -27.84,13.92 -9.77,6.38 -19.09,14.27 -27.4,22.91 -4.82,4.74 -11.43,12.51 -17.07,20.08 -4.19,5.64 -7.81,11.09 -9.38,14.74 -0.52,1.28 0.78,4.01 3.25,7.31 4.12,5.09 10.79,10.52 19.14,14.93 6.18,3.6 17.54,6 29.09,8.4 23.51,5.25 48.78,10.57 52.97,29.49 1.27,6.16 -0.91,13.41 -5.25,19.68 -3.98,6.09 -9.54,11.49 -15.77,15.05 -14.71,8.48 -27.06,9.85 -38.61,7.44 -10.37,-2.14 -19.17,-7.79 -28.57,-13.86 -4.81,-3.19 -5,-3.03 -7.75,0.21 -0.75,0.65 -1.48,1.32 -1.84,1.96 -5.56,5.55 -10.81,13.25 -14.75,20.12 -2.48,4.78 -5.09,6.93 -4.88,7.38 2.39,5.33 10.17,10.09 19.66,13.83 11.45,4.27 25.5,6.25 37.69,5.67 9.66,-0.62 19.48,-2.02 29.06,-4.5 19.15,-4.8 37.19,-12.81 50.89,-22.32 11.99,-8.5 20.08,-17.91 20.82,-26.8 0.14,-1.09 0.08,-2.33 0.03,-3.41 -5.65,-49.46 -38.27,-58.48 -63.62,-65.51 -7.28,-2.14 -13.95,-4 -20.09,-6.66 -3.95,-1.68 -6.4,-4.05 -8.08,-6.92 -2.08,-2.85 -2.43,-6.26 -2.02,-9.7 0.45,-2.82 1.47,-5.83 3.09,-8.54 0.18,-0.32 0.36,-0.64 0.54,-0.81 3.8,-5.93 10.31,-11.53 15.94,-15.37 17.68,-11.57 30.33,-2.22 39.98,5.09 1.41,1.02 -1.39,3.33 -0.41,3.44 3.17,-2.64 8.44,-10.04 13.13,-17.25 3.44,-5.14 6.61,-7.78 7.72,-9.07zm-15.9 -36.38c15.63,6.71 30.7,17.65 35.72,25.17 0.21,0.3 0.41,0.61 0.61,0.75 0.22,0.77 0.65,1.53 0.88,2.29 0.77,3.85 -4.49,15.6 -11.53,26.51 -6.52,9.64 -14.55,20.28 -20.54,24.6 -1.69,1.17 -3.59,2.04 -5.29,2.74 -7.82,2.7 -12.86,-1.25 -19.09,-5.77 -4.83,-3.66 -10.86,-8.19 -15.38,-5.49 -2.64,1.67 -5.44,3.99 -7.08,6.08 4.36,1.97 10.24,3.4 16.34,5.29 30.26,8.5 69.35,19.22 76.33,80.29 0.32,2.47 0.43,4.94 -0.03,7.45 -1.36,16.07 -13.63,31.43 -31.25,43.92 -16.32,11.51 -37.59,20.76 -59.42,26.31 -10.92,2.69 -22.47,4.65 -33.3,5.17 -15.27,1.04 -32.25,-1.57 -46.07,-6.67 -13.62,-5.09 -24.85,-12.96 -29.19,-22.54 -2.38,-5.33 0.62,-15.42 6.53,-25.81 4.63,-8.45 11.35,-18.1 17.98,-25.26 0.56,-0.49 1.12,-1.14 1.84,-1.95 15.86,-17.08 17.17,-18.23 36.59,-5.33 7.81,5.22 15.2,9.85 22.45,11.36 6.27,1.41 13.4,0.45 22.27,-4.64 2.65,-1.36 5.24,-3.98 7.05,-6.71 0.89,-1.44 1.6,-2.87 1.59,-3.18 -1.75,-8.31 -21.34,-12.5 -39.75,-16.45 -12.93,-2.8 -25.08,-5.48 -33.85,-10.35 -10.55,-5.71 -19.01,-12.46 -24.4,-19.66 -6.41,-8.55 -8.59,-17.62 -4.94,-26.34 2.26,-5.54 6.95,-12.76 12.24,-19.86 6.56,-8.71 14.1,-17.3 19.46,-22.84 9.62,-9.62 20.24,-18.83 31.5,-26.37 10.9,-7.2 22.25,-13.03 33.71,-16.84 11.45,-3.81 25.14,-1.2 37.99,4.1z"></path> <path class="fil5 str21" d="M3709.27 3019.75c-0.53,-3.09 -0.68,-6.03 -1.38,-8.64 -3.64,-19.25 -13.75,-31.98 -28.77,-38.09 -15.82,-6.55 -37.14,-6.31 -62.23,0.01 -5.94,1.52 -12.06,3.38 -18.15,5.53 -12.02,4.15 -23.45,16.5 -33.02,31.11 -12.08,19.07 -19.76,41.04 -20.43,55.36 -1.75,28.22 2.99,54.42 11.69,74.2 8.41,17.94 19.85,30.13 33.7,31.96 19.33,2.97 42.41,-0.93 63.16,-8.91 20.56,-7.98 37.84,-19.68 46.35,-32.21 0.35,-0.95 1.06,-2.07 1.99,-3.21 5.6,-8.5 12.65,-19.25 12.49,-22.82 -0.06,-1.24 -1.05,2.54 -3.74,2.97 -3.08,0.61 -6.13,1.54 -9.38,2.47 -4.59,1.31 -9.57,2.63 -16.28,4.04 -1.92,0.4 -2.46,1.36 -3.18,2.64 -3.23,5.44 -7.35,12.31 -20.36,20.08 -8.67,5.23 -20.3,9.37 -31.68,10.53 -8.68,0.88 -17.25,0.04 -25.15,-3.16 -7.92,-3.35 -14.97,-8.92 -19.08,-17.9 -4.06,-7.88 -5.73,-18.52 -4.65,-32.25 0.87,-10.31 33.49,-17.46 62.46,-23.66 15.54,-3.54 30.13,-6.57 34.91,-7.89 7.26,-2.06 12.44,-3.39 16.65,-4.52 9.97,-2.34 15.33,-3.69 15.87,-4.49 0.91,-1.29 0.17,-8.71 -1.16,-24.34 -0.14,-2.95 -0.47,-5.88 -0.61,-8.83zm19.4 -16.01c0.74,3.4 1.12,7.1 1.49,10.81 0.33,2.94 0.46,5.73 0.8,8.67 2.17,21.03 3.04,31.09 -3.34,39.79 -6.18,8.54 -14.8,10.66 -30.7,14.68 -4.98,1.17 -10.72,2.69 -16.28,4.19 -5.73,1.67 -20.32,4.86 -36.05,8.09 -20.34,4.39 -41.6,-6.41 -42.38,1.56 -0.69,9.81 0.44,17.23 2.82,22.55 2.77,5.01 6.41,8.4 10.94,9.89 4.56,2.12 10.21,2.62 15.8,2.04 7.92,-0.84 15.53,-3.54 21.38,-6.93 7.35,-4.39 9.31,-8.05 11.3,-11.1 4.12,-7.04 7.36,-12.17 20.04,-14.95 5.95,-1.06 10.54,-2.37 14.57,-3.49 3.81,-1.11 7.45,-2.22 11.29,-2.86 18.23,-3.98 25.11,2.06 25.43,12.92 0.51,10.7 -8.89,24.98 -16.3,36.21 -0.73,0.96 -1.64,2.1 -2.18,3.21 -11.2,17.16 -33.73,32.7 -59.23,42.46 -23.8,9.22 -51.09,14.1 -74.33,10.54 -19.73,-3.09 -35.79,-18.65 -45.99,-41.48 -10.17,-22.05 -15.45,-51.64 -13.84,-82.96 0.9,-17.6 10.29,-44.47 24.72,-66.77 12.27,-19.08 28.17,-35.38 46.47,-41.85 7.06,-2.36 13.75,-4.39 20.26,-6.1 29.3,-7.61 54.9,-7.28 74.48,0.65 20.38,8.51 33.96,24.96 38.84,50.21zm-124.19 30.19c11.35,-1.79 28.49,-4.47 42.29,-7.61 7.48,-1.76 13.9,6.78 13.69,2.45 -0.87,-10.06 -7.88,-14.85 -16.64,-15.52 -4.67,-0.55 -9.67,0.3 -14.65,1.63 -4.79,1.16 -9.52,3.56 -13.65,6.4 -5.07,3.35 -9.13,7.74 -11.03,12.65zm43.45 12.68c-20.71,4.72 -48.05,8.67 -54.41,9.44 -5,1 -9.77,-1.71 -10.6,-6.65 -3.02,-18.51 7.47,-34.4 22.87,-44.76 6.19,-4.35 13.59,-7.65 21.25,-9.72 7.45,-2.22 14.97,-3.05 22.16,-2.62 16.94,1.52 30.78,10.96 32.14,31.57 0.72,10.99 -14.06,18.07 -33.42,22.73z"></path> <path class="fil5 str22" d="M3088.1 3271.03c-0.83,-5.25 -1.93,-12.03 -3.27,-19.74 -5.15,-30.83 -12.8,-77.25 -10.85,-125.84 -0.02,-0.46 0.14,-1.09 0.12,-1.55 0.14,-1.1 0.47,-2.2 0.82,-3.15 2.78,-6.51 10.17,-10.28 20.15,-12.46 6.33,-1.24 14.62,-2.26 23.13,-2.81 16.59,-1.57 34.43,-1.8 38.14,-1.04 0.2,-0.01 0.39,-0.02 0.77,0.12 1.22,-7.21 1.67,-17.8 0.85,-26.93 -0.7,-6.49 -1.51,-11.43 -2.53,-12.31 -4.42,-3.36 -37.15,5.5 -56.86,10.95 -9.18,2.62 -16.26,4.51 -19.17,4.35 -4.46,0.05 -7.69,-2.74 -8.47,-6.75 -4.42,-19.69 -4.47,-36.93 -2.25,-51.18 2.46,-13.32 7.17,-24.43 12.78,-32.78 6.52,-9.49 13.99,-15.59 21.02,-18.56 3.24,-1.24 6.31,-1.86 9.22,-2 7.55,-0.2 18.07,4.74 28.77,9.66 7.53,3.52 14.88,7.22 19.6,8.39 1.48,-1.31 2.96,-2.93 4.81,-4.74 9.25,-9.46 32.74,-32.95 32.66,-38.7 -17.64,-8.32 -40.97,-17.78 -61.97,-23.15 -15.32,-3.93 -29.36,-5.75 -37.58,-3.33 -11.65,3.66 -29.63,16.95 -44.96,32.76 -13.51,13.7 -24.59,29.16 -27.51,41.25 -1.94,8.02 -3.18,18.49 -4.07,32.37 -0.67,14.49 -0.79,32.21 -0.5,54.42 0.1,14.3 -17.95,18.11 -37.13,22.14 -11.13,2.4 -21.53,-0.06 -22,2.29 -0.18,0.17 -0.18,0.32 -0.37,0.49 -0.97,3.77 -5.47,23.58 -6.14,37.9 0,4.04 -4.13,6.73 -2.58,6.81 0.2,0.14 11.43,-3.96 23.25,-8.26 10.88,-3.78 22.29,-8.21 29.78,-9.81 9.97,-2.34 16.26,-0.62 16.66,7.76 0.27,9.77 0.55,19.71 1,29.32 1.5,35.38 3.09,80.84 5.55,116.15 2.34,0.2 5.44,0.22 9.29,-0.29 15.82,-1.83 37.26,-7.53 49.85,-11.7zm17.91 -27.12c1.96,12.8 3.83,23.44 4.15,30.26 0.22,4.66 -2.65,9.61 -7.18,12.01 -7.95,3.95 -43.88,14.84 -66.81,17.64 -5.8,0.44 -10.83,0.68 -15.12,0.1 -6.26,-0.94 -10.64,-3.69 -12.44,-8.58 -0.64,-1.37 -0.71,-2.77 -0.78,-4.31 -2.23,-34.55 -4.13,-82.49 -5.29,-118.96 -0.33,-6.82 -0.65,-13.49 -0.79,-20.48 -6.12,1.85 -14.69,5.06 -22.5,7.92 -14.48,5.2 -28.21,10.21 -33.66,9.54 -9.18,-1.27 -11.8,-11.56 -11.25,-24.48 0.6,-15.89 5.75,-38.05 7.25,-43.09 -0.01,-0.32 -0.02,-0.63 0.15,-0.79 3.84,-12.93 23.61,-17.13 42.04,-20.97 8.25,-1.79 16.34,9.32 16.23,2.96 -0.31,-22.68 -0.21,-41.03 0.64,-55.68 0.82,-15.27 2.2,-26.99 4.66,-36.28 3.84,-16.97 17.83,-36.76 34.27,-53.7 18.49,-18.92 40.62,-34.59 56.28,-39.52 12.21,-4.01 29.76,-1.89 48.21,2.83 22.96,5.89 48.47,16.33 67.32,25.39 1,0.41 1.99,1.14 3.01,2.03 14.58,17.18 -22.24,54.06 -36.29,68.25 -0.18,0.17 -0.37,0.18 -0.4,-0.29 -0.39,-0.14 -0.6,-0.44 -0.81,-0.89 -1.69,9.41 -7.51,13.41 -16.39,14.14 -8.7,0.41 -20.21,-5.25 -31.9,-10.44 -8.73,-4.25 -17.45,-8.18 -20.55,-8.2 -0.39,0.02 -0.57,0.19 -0.96,0.21 -2.65,1.21 -5.8,4.16 -8.9,8.5 -3.6,5.62 -6.91,13.39 -8.59,23.11 -1.86,9.88 -2.06,21.86 0.34,35.73 2.3,-0.58 4.6,-1.16 6.9,-1.89 23.16,-6.23 61.05,-16.59 72.67,-8.75 0.01,0.16 0.21,0.3 0.41,0.29 5.23,4.11 8,13.46 9.11,24.28 0.93,11.46 0.03,25.18 -1.67,34.12 -1.87,9.42 -5.11,14.54 -11.54,17.96 -5.1,2.73 -9.58,2.33 -16.22,1.4 -0.19,0.01 -0.19,0.01 -0.4,-0.14 -2.92,-0.33 -18.42,-0.05 -33.48,1.29 -7.72,0.68 -15.24,1.35 -20.81,2.55 -0.19,0.01 -0.2,-0.15 -0.41,-0.61 -0.8,44.33 6.47,86.72 11.53,115.55zm-11.01 -120.85c-0.17,0.62 -0.13,1.4 -0.1,2.02 -0.06,-1.4 0.28,-2.34 0.1,-2.02zm64.29 -17.69c0.01,0.16 0.01,0.16 0.2,0.15 0.57,-0.49 0.37,-0.33 -0.2,-0.15zm17.93 -111.82c-0.18,0.47 -0.34,0.95 -0.33,1.26 0.22,0.45 0.42,0.76 0.81,0.89 -0.45,-1.38 -0.06,-5.13 -0.5,-2.46 0.01,0.16 0.02,0.31 0.02,0.31z"></path> <path class="fil5 str23" d="M3200.05 3252.63c3.17,-10.72 6.25,-27.35 8.46,-46.1 1.71,-16.87 3.16,-35.44 2.9,-52.83 -0.64,-37.9 -7.76,-65.22 -12.07,-82.42 -4.27,-16.58 -6.68,-26.41 1.88,-33.81 5.57,-5.09 15.26,-9.13 25.02,-11.77 11.48,-3.35 23.99,-5.18 30.03,-4.54 0.19,-0.01 0.58,0.14 0.97,0.11 6.63,0.92 10.4,6.81 13.6,12.88 10.15,-6.71 23.74,-14.5 36.6,-21.34 16.44,-8.87 32.39,-15.99 40.65,-17.64 6.14,-1.22 19.19,0.02 29.01,2.66 9.84,2.95 17.84,8 18.37,15.28 0.27,5.74 0.56,15.52 -1.24,26.64 -1.76,11.9 -5.98,25 -14.7,37.23 -10.72,15.12 -26.88,9.67 -42.84,4.22 -6.3,-2.03 -12.6,-4.06 -16.29,-4.19 -0.18,0.16 -0.18,0.16 -0.18,0.16 -0.4,-0.14 -1.16,0.22 -1.92,0.41 -5.72,1.99 -13.6,7.49 -20.32,13.09 -4.46,3.94 -8.18,7.22 -9.49,8.38 0.77,3.85 1.54,7.85 2.3,11.7 5.71,30.19 17.42,88.84 9.03,128.25 -0.18,0.32 -0.17,0.63 -0.34,0.96 -2.46,9.28 -11.06,12.17 -26.33,17.1 -0.96,0.36 -1.91,0.71 -2.67,0.91 -6.86,2.34 -26.2,7.61 -41.78,10.08 -6.16,1.06 -11.76,1.49 -16.23,1.08 -8.17,-0.55 -13.38,-4.03 -13.55,-11.63 0.14,-1.26 0.26,-2.65 0.77,-4.07 -0.02,-0.32 0.16,-0.64 0.35,-0.8zm29.7 -47.89c-1.92,16.57 -4.69,31.78 -7.43,43.25 2.13,-0.1 4.62,-0.38 7.33,-0.82 13.86,-2.06 31.64,-7.26 37.74,-9.26 0.96,-0.21 1.91,-0.56 2.88,-0.76 5.91,-1.99 7.45,6.01 8.41,1.77 0,0 0,0 0,-0.15 7.81,-35.34 -3.4,-91.54 -8.84,-120.19 -1.27,-6.16 -2.08,-11.24 -2.63,-14.48 0,-0.15 -0.01,-0.31 -0.02,-0.46 -0.25,-1.08 -0.3,-2.16 0.04,-3.27 -0.02,-0.31 -0.02,-0.47 -0.04,-0.78 1.09,-5.49 8.96,-15.34 18.83,-23.74 8.94,-7.73 20.01,-15.42 29.36,-18.51 2.86,-0.91 5.75,-1.36 8.44,-1.64 0.21,0.14 0.4,0.14 0.59,0.13 6.98,-0.02 14.66,2.57 22.16,5.16 8.28,2.87 16.02,6.54 16.58,6.2 5.81,-8.36 8.64,-17.97 9.97,-26.59 1.51,-9.08 1.3,-17.47 1.07,-22.43 0.13,-1.4 -2.65,1.37 -6.19,0.29 -7.66,-2.12 -16.44,-3.26 -19.89,-2.62 -5.57,1.2 -19.04,7.43 -33.78,15.29 -16.46,8.55 -33.61,19.01 -42.97,25.82 -4.86,3.65 -11.07,3.48 -13.98,-0.73 -1.65,-2.1 -2.94,-4.67 -4.43,-7.4 -1.89,-3.18 -1.08,-6.47 -2.25,-6.58 -0.2,0.01 -0.2,0.01 -0.2,-0.14 -4.08,-0.27 -13.31,1.25 -22.31,3.7 -6.51,1.87 -12.6,4.33 -14.81,6.47 -3.18,2.63 4.35,1.96 6.47,9.94 4.55,18.12 12.13,46.83 12.68,86.91 0.3,18.48 -0.71,37.95 -2.77,55.61z"></path> <path class="fil5 str24" d="M3765 3143.6c3.37,-26.9 3.29,-69.32 -0.42,-106.45 -2.81,-30.63 -7.96,-57.28 -15.44,-67.48 -12.69,-18.2 -6.72,-31.08 8.95,-40.07 10.56,-6.09 27.09,-9.06 44.47,-10.36 14.3,-1.15 21.93,8.44 27.88,15.46 -1.31,1.15 -2.62,2.14 -3.91,3.29 19.66,-14.61 38.84,-22.99 55.49,-27.36 27.58,-7.22 49.66,-3.45 57.02,0.55 23.08,12.41 17.16,70.98 12.11,123.75 -2.72,24.22 -5.11,47.18 -4.38,62.54 0.33,6.82 -0.5,13.85 -2.73,19.86 -3.51,7.79 -9.62,13.68 -19.6,15.87 -4.23,0.97 -8.24,1.95 -12.28,2.76 -24.94,5.54 -39.51,8.87 -46.74,-4.45 -4.46,-8.18 -0.71,-35.1 3.14,-64.18 4.35,-30.67 8.94,-64.46 5.23,-73.14 -0.81,-0.74 -2.55,-0.66 -5.05,-0.23 -4.04,0.66 -8.62,2.28 -12.96,4.66 -2.46,1.36 -4.91,2.87 -7.14,4.69 0.22,4.66 0.26,9.31 0.47,13.81 1.48,39.25 3.91,114.52 -9.46,126.81 -8.92,8.04 -28.85,13.04 -45.08,14.12 -5.21,0.25 -10.27,0.18 -14.35,-0.24 -5.47,-0.68 -9.81,-2.5 -12.28,-5.33 -0.19,0.01 -0.2,-0.14 -0.22,-0.45 -2.05,-2.23 -2.96,-5.15 -2.73,-8.42zm20.63 -111.96c3.66,36.04 3.87,77.06 1.16,105.47 2.93,0.33 6.62,0.3 10.29,0.29 11.6,-0.71 25.22,-3.69 29.88,-7.64 4.64,-4.27 2.34,-72.85 1.22,-108.39 -0.39,-8.21 -0.51,-14.89 -0.7,-18.78 -0.14,-2.94 0.87,-6.09 3.27,-8.7 4.8,-5.05 11.17,-9.7 17.79,-13.29 6.61,-3.57 13.86,-6.09 20.6,-7.03 7.69,-1.3 15.12,-0.1 19.76,4.03 2.02,1.62 3.47,3.56 4.55,6 5.67,13.09 0.62,49.54 -3.99,82.87 -3.4,25.96 -6.54,49.74 -4.84,52.92 1.08,2.12 10.48,-0.04 26.39,-3.6 4.23,-0.97 8.44,-1.95 12.65,-2.93 0.39,-0.02 0.77,-0.34 0.93,-0.66 0.86,-2.37 1.26,-6.27 1.05,-10.62 -0.78,-16.43 1.57,-40.18 4.26,-65.17 4.91,-47.33 10.18,-99.49 -3.16,-106.78 -4.98,-2.71 -20.97,-4.74 -42.79,1.12 -14.55,3.8 -31.07,11.11 -48.28,24.22 -10.67,8.12 -15.79,2.3 -22.36,-5.46 -3.49,-4.19 -8.22,-9.87 -12.66,-9.5 -14.3,0.99 -27.39,3.01 -34.55,7.24 -2.09,1.03 -2.35,3.68 1.17,8.49 9.15,12.93 15.22,42.63 18.35,75.9zm43.7 -95.96c-2.8,2.31 -9.53,7.45 -4.66,3.8 0.56,-0.5 1.11,-0.99 1.87,-1.49 0.93,-0.66 1.87,-1.49 2.8,-2.31z"></path> <path class="fil5 str25" d="M4202.76 2774.1c-8.29,33.5 -11.79,77.97 -11.41,122.55 0.05,53.77 5.35,107.92 12.76,145.33 0.01,0.16 0.01,0.16 0.01,0.16 0.77,3.85 1.71,7.37 2.44,10.45 1.99,9.38 3.19,14.14 -0.21,20.2 -0.17,0.33 -0.35,0.65 -0.73,0.97 -3.96,6.41 -9.52,7.77 -20.64,10.31 -2.67,0.75 -5.37,1.35 -8.04,1.95 -11.11,2.7 -20.53,4.54 -28.06,5.21 -0.19,0.02 -0.19,0.02 -0.19,0.02 -9.08,0.59 -15.89,0.14 -20.44,-1.83 -5.13,-1.78 -7.61,-5.07 -8.76,-8.91 -10.2,5.77 -23.65,12.16 -39.35,16.49 -16.65,4.53 -35.34,6.98 -55.05,4.34 -0.18,0.17 -0.38,0.02 -0.59,-0.13 -17.96,-2.72 -29.92,-21.88 -37.17,-47.81 -7.99,-29.3 -10.43,-68.19 -8.11,-100.79 0.06,-2.81 0.49,-5.78 1.16,-8.29 4.32,-19.02 18.7,-38.67 34.46,-53.87 16.11,-15.69 34.77,-27 46.55,-28.02 1.34,-0.37 2.5,-0.28 3.67,-0.18 0.01,0.15 0.21,0.14 0.39,-0.02 15.95,1.25 30.87,4.9 41.65,7.34 4.71,1.33 0.67,10.07 4.36,6.16 1.47,-1.78 -4.72,-54.18 -7.86,-79.51 -0.37,-3.55 -0.92,-6.95 -1.09,-10.51 -0.02,-0.47 -0.03,-0.78 -0.06,-1.4 -0.1,-10.1 12.99,-20.37 29.84,-28.63 14.22,-6.59 31.57,-12.85 44.98,-16.3 1.73,-0.23 3.65,-0.63 5.57,-1.19 18.03,-3.97 24.12,1.64 25.01,12.33 0.25,5.27 -1.24,10.78 -3.08,16.93 -0.48,1.89 -1.35,4.1 -2,6.62zm-32.39 125.89c-0.27,-46.45 3.14,-92.62 12.14,-127.72 0.66,-2.2 1.5,-5.04 2.15,-7.56 1.15,-4.25 2.53,-8.04 2.26,-9.43 -0.07,-1.55 -0.66,2.51 -2.77,3.09 -1.72,0.39 -3.25,0.77 -4.79,1 -12.06,3.06 -27.9,8.63 -40.21,14.66 -8.53,3.99 -15.42,6.02 -15.78,6.51 0.36,3.4 0.53,6.97 1.06,10.21 3.5,28.59 10.79,87.77 0.98,97.71 -5.71,6.18 -14.13,4.42 -26.49,1.27 -10,-2.32 -23.93,-5.85 -38.13,-6.73 -0.39,0.02 -0.58,0.03 -0.78,-0.12 -6.75,0.63 -19.33,9.17 -31.76,20.94 -12.6,12.26 -24.06,27.89 -27.28,41.71 -0.5,1.73 -0.62,3.29 -0.74,4.86 -2.21,30.88 0.12,67.45 7.63,94.75 5.39,19.64 13.08,34.19 23.02,35.58 0.01,0.15 0.21,0.14 0.4,0.14 16.59,2.31 32.39,0.16 46.35,-3.61 21.42,-6.16 38.19,-16.27 46.24,-22.25 1.12,-0.84 2.46,-1.36 3.97,-2.06 5.75,-1.51 10.93,1.51 11.77,6.9 0.49,2.15 0.41,4.33 0.51,6.51 -0.1,2.02 -2.75,3.24 -1.38,3.64 2.18,0.83 5.68,1.13 11.47,0.69 0,0 0,0 0.19,-0.01 6.37,-0.45 14.44,-2.09 24.4,-4.58 2.69,-0.6 5.57,-1.2 8.44,-1.95 4.03,-0.81 3.44,3.1 4.71,1.33 0,0 -0.01,-0.15 -0.02,-0.31 0.9,-1.59 -1.39,-0.72 -2.18,-5.18 -0.7,-2.61 -1.44,-5.99 -2.46,-10.76 0,0 -0.01,-0.15 -0.01,-0.15 -7.65,-38.33 -13.01,-94.03 -12.93,-149.05zm-36.41 53.49c0.22,4.5 0.82,8.98 1.42,13.3 1.91,15.92 4.49,37.09 1.82,42.18 -1.06,2.08 -2.34,4 -3.99,5.95 -6.03,7.59 -17.64,16.23 -30.37,21.65 -12.72,5.58 -27.34,8.14 -39.74,4.07 -2.97,-1.11 -5.37,-2.7 -7.96,-4.29 -3.2,-2.03 -7.07,-10.23 -10.09,-20.65 -3.23,-10.72 -6.23,-25.04 -6.87,-38.37 -0.53,-15.05 1.68,-29.77 9.37,-39.3 2.93,-3.72 6.85,-6.86 11.41,-8.63 6.47,-2.8 16.54,-2.81 27.47,-1.32 9.56,1.25 19.75,3.4 27.99,5.5 5.29,1.15 9.85,3.42 13.31,6.67 0.2,0.14 0.41,0.29 0.61,0.59 3.08,3.43 5.21,7.53 5.64,12.63zm-19.64 18.97c-0.46,-5.72 -1.08,-10.36 -1.45,-14.07 -0.03,-0.78 -0.26,-1.54 -0.88,-2.14 -0.19,0.01 -0.19,0.01 -0.2,-0.14 -1.41,-1.18 -3.19,-1.87 -5.35,-2.39 -7.85,-1.95 -17.64,-3.97 -26.22,-4.96 -7.41,-1.05 -13.63,-1.52 -15.53,-0.66 -0.57,0.33 -0.96,0.52 -1.32,1 -3.67,4.37 -4.77,13.75 -4.08,23.97 0.56,11.78 3.3,24.56 6.08,34.06 2.08,7.05 3.66,11.64 4.06,11.93 1.2,0.73 2.4,1.44 3.58,1.85 6.7,2.32 15.91,0.48 24.28,-3.17 8.73,-3.83 16.42,-9.18 20.08,-13.86 0.55,-0.49 0.92,-0.97 1.28,-1.46 0.34,-0.95 -2.93,-16.65 -4.34,-29.95z"></path> <path class="fil5 str26" d="M3438.91 3005.3c-4.23,24.92 -10.04,82.23 -11.91,132.2 -1.12,29.44 -0.81,56.15 1.83,71.1 12.13,-1.98 32.33,-5.12 46.16,-7.64 2.89,-0.61 4.98,-1.49 6.1,-2.32 0.38,-0.17 0.75,-0.65 0.92,-0.81 1.24,-2.55 -1.3,1.14 -1.42,-1.33 -2.45,-22.89 -11,-100.67 -9.66,-202.52 -0.18,0.16 -0.39,0.02 -0.4,-0.14 -1.37,-0.39 -3.69,-0.28 -6.38,0.3 -3.26,0.63 -6.9,1.58 -10.51,3.15 -7.8,3.17 -14.61,6.75 -14.74,8.01zm-32.89 135.54c1.83,-51.07 7.76,-109.63 11.98,-134.85 1.83,-10.35 15.83,-21.59 31.05,-27.91 4.94,-2.1 10.29,-3.6 15.1,-4.46 5.57,-1.2 10.99,-1.3 15.31,-0.11 7.65,1.98 12.56,7.34 12.45,16.97 -1.01,100.61 7.3,177.3 9.74,200.03 0.31,2.47 0.41,4.48 0.29,6.19 0.45,1.54 0.35,3.25 -0.15,4.98 -0.17,0.63 -0.33,1.11 -0.52,1.43 -2.48,4.78 -5.59,8.81 -10.67,12.02 -4.12,2.83 -9.07,4.94 -15.4,6.17 -14.61,2.71 -35.58,6.2 -47.49,8.17 -2.31,0.41 -4.62,0.69 -6.94,0.95 -4.59,1.16 -9.35,-0.96 -10.52,-5.25 -5.17,-14.67 -5.78,-47.91 -4.23,-84.35z"></path> <path class="fil5 str27" d="M3495.42 2921.93c-2.42,10.07 -8.8,18.61 -16.65,24.74 -6.74,5.13 -14.5,8.93 -22.38,10.54 -8.08,1.47 -16.23,1.09 -23.34,-1.67 -8.91,-3.62 -16.42,-10.72 -20.27,-22.36 -0.42,-0.75 -0.46,-1.52 -0.7,-2.44 -2.05,-10.48 2.4,-22.97 10.22,-33.76 7.26,-10.44 17.66,-19.96 27.32,-24.76 0.94,-0.36 1.9,-0.87 3.04,-1.24 26.04,-10.88 39.31,-4.98 44.6,8.44 4.41,11.14 2.09,27.41 -1.85,42.51zm-27.87 9.26c3.94,-2.83 6.47,-6.68 7.63,-10.93 3.13,-11.5 5.07,-23.71 2.44,-30.11 -1.75,-4.27 -7.43,-5.4 -20.36,-0.12 -0.57,0.18 -1.13,0.53 -1.51,0.7 -5.68,2.91 -12.17,8.96 -17.09,15.88 -3.97,5.95 -6.79,11.98 -6.02,15.99 0.02,0.47 0.23,0.77 0.26,1.24 2.24,6.26 6.11,10.13 10.64,11.93 3.76,1.53 8.24,1.79 12.45,0.81 4.42,-0.84 8.2,-2.73 11.56,-5.37z"></path> <path class="fil6" d="M4146.97 2462.19c-1.52,-62.25 -66.39,-70.97 -121.09,-63.38 -35.42,4.96 -66.06,67.48 -69.37,98.12 -6.77,62.47 11.9,119.43 45.87,128.21 43.17,11.15 104.69,-9.15 126.09,-38.82 11.69,-16.2 33.83,-51.04 4.71,-47.46 -7.89,0.96 -14.73,-0.01 -26.28,1.87 -7.3,1.19 -10.54,2.37 -12.18,4.62 -12.45,19.4 -47.14,28.08 -55.21,25.02 -7.91,-3.01 -26.19,-17.6 -22.33,-41.36 0.33,-2.06 71.85,-9.5 85.88,-12.33 48.4,-9.3 45.25,-0.32 43.92,-54.48zm-125.52 18.43c8.12,-0.54 72.59,-7.81 72.55,-15.12 -0.1,-19.73 -40.81,-22.05 -49.78,-19.54 -10.34,2.9 -24.62,16.41 -22.77,34.66z"></path> <path class="fil6" d="M3698.69 2651.75c3.41,-20.98 20.55,-100.14 19.83,-169.27 -1.04,-101.28 -19.43,-142.26 -13.36,-150.12 6.52,-8.43 56.34,-33.66 71.4,-31.23 18.35,2.97 -4.4,142.6 1.19,138.58 49.88,-35.91 95.56,-28.94 105.35,-22.75 26.97,17.06 20.36,142.48 20.29,193.62 -0.02,11.96 -2.81,22.38 -13.2,24.1 -29.04,4.82 -60.88,12.06 -65.42,2.34 -6.25,-13.39 21.03,-122.84 5.21,-150.55 -6.81,-11.93 -37.9,-2.23 -50.83,11.28 -0.96,20.56 -2.45,138.39 -14.24,148.49 -12.97,11.12 -67.75,14.88 -66.23,5.49z"></path> <path class="fil6" d="M4183.84 2613.06c8.84,-21.1 19.73,-65.75 23.25,-105.71 6.17,-69.76 -11.62,-113.53 -4.49,-118.53 10.9,-7.35 36.29,-10.49 52.61,-2.51 3.33,1.63 5.12,9.55 7.02,12.88 13.59,-7.79 43.45,-24.01 59.49,-24.9 23.78,-1.32 63.78,8.15 63.29,18.11 -0.64,11.06 -3.05,37.6 -19.79,56.43 -9.77,10.88 -18.95,-7.03 -42.15,-9.49 -25.51,-2.52 -55.44,-0.61 -55.2,4.96 0.78,19.55 3.28,159.4 -3.17,165.22 -2.47,2.22 -8.14,3.95 -21.41,6.31 -11.73,2.1 -64.16,8.48 -59.45,-2.76z"></path> <path class="fil6" d="M4592.82 2465.47c9.01,-62.48 -52.23,-82.84 -106.42,-85.22 -34.98,-1.44 -74.63,55.66 -82.96,85.87 -16.94,61.44 -8.59,122.1 22.83,136.92 39.79,18.76 102.57,9.55 128.13,-16.37 14,-14.19 41.08,-45.36 12.49,-46.91 -7.77,-0.43 -14.09,-2.45 -25.9,-2.65 -7.19,-0.11 -10.45,0.34 -12.29,2.46 -15.47,17.21 -50.29,19.7 -57.45,15.17 -7.23,-4.57 -22.24,-22.43 -14.58,-45.62 0.63,-1.91 70.93,3.45 84.68,3.27 48.23,-0.91 43.6,7.66 51.47,-46.9zm-124.08 -4.03c7.81,1.03 71.12,5.26 72.22,-2.05 3.01,-20.09 -35.71,-29.33 -44.78,-28.48 -10.42,1 -26.19,11.82 -27.43,30.53z"></path> <path class="fil6" d="M3169.31 2563.87c-11.97,16.3 -62.99,91.43 -64.64,103.95 -5.46,41.43 15.43,85.35 50.11,103.45 45.24,23.62 82.12,6.93 115.15,-16.38 23.42,-16.53 45.74,-70.87 45.65,-87.5 -0.23,-46.76 -21.02,-82.6 -50.98,-109.47 -19.25,-17.25 -75.42,-21.07 -95.29,5.95zm57.5 51.19c-17.25,-9.18 -21.55,4.71 -34.61,22.32 -9.51,12.83 -28.08,36.61 -19.73,49.74 39,61.22 53.23,39.86 74.2,-5.25 11.9,-25.62 -13.26,-63.31 -19.86,-66.81z"></path> <path class="fil6" d="M3318.04 2523.98c4.58,20.92 90.33,198.83 100.77,198.33 13.93,-0.66 25.16,-2.64 37.07,-11.25 4.2,-3.03 25.39,-44.73 34.9,-56.85 17.99,11.43 33.45,46.6 42.23,44.15 14.73,-4.11 60.12,-13.55 64.25,-22.96 24.19,-55.2 53.06,-153.64 72.29,-215.6 4.12,-13.28 2.82,-18.74 -3.11,-20.37 -8.99,-2.46 -86.98,14.26 -87.17,21.72 -0.49,18.53 -21.48,145.59 -28.11,142.01 -7.89,-4.26 -45.52,-47.73 -45.52,-47.73 -10.47,-0.12 -35.79,2.29 -40.97,6.78 -5.05,4.39 -20.69,51.55 -23.74,46.98 -11.35,-16.97 -33.69,-86.2 -35.44,-109.13 -0.81,-10.68 -90.04,12.09 -87.46,23.91z"></path> <path class="fil6" d="M2750.04 2589.63c-2.72,-12.26 72.44,-32.13 74.19,-29.81 23.09,30.84 110.8,111.91 148.04,156.91 12.75,15.4 14.81,11.43 7.27,-18.23 -16.06,-63.09 -41.95,-183.32 -37.79,-186.56 13.04,-10.17 98.59,-42.34 101.15,-29.39 3.32,16.74 -8.7,34 0.62,126.79 5.42,53.98 41.56,216 37.58,218.75 -1.08,0.75 -45.81,19.43 -69.05,27.85 -25.15,9.12 -28.29,11.42 -36.28,-0.74 -24.4,-37.11 -60.85,-89.03 -88.64,-114.68 -24.71,-22.81 -18.09,-0.41 -10.8,25.7 14.68,52.57 35.17,119.69 28.01,123.77 -22.27,12.71 -74.64,32.74 -92.52,35.66 -11.74,1.91 -13.59,-78.01 -22.38,-156.22 -9.38,-83.33 -35.22,-160.86 -39.41,-179.81z"></path> <path class="fil6" d="M3442.07 2043.87c-10.69,16.46 -56.21,92.81 -57.01,105.15 -2.65,40.98 20.97,83.02 56.5,99.1 46.49,21.05 80.98,1.96 112.77,-21.38 12.78,-9.38 40.26,-71.86 39.03,-88.13 -3.47,-45.83 -26.22,-80.24 -57.56,-105.27 -20.24,-16.16 -75.89,-16.93 -93.71,10.54zm60.24 47.48c-17.63,-8.18 -20.87,5.66 -32.61,23.63 -8.49,12.99 -25.59,37.28 -16.42,49.89 42.48,58.42 55.46,36.52 73.25,-8.94 10.03,-25.64 -17.28,-61.37 -24.21,-64.59z"></path> <path class="fil6" d="M3285.7 1976.27c-3.8,20.71 -11.65,103.45 -14.06,180.64 -2.42,77.21 -0.25,148.98 15.96,147.67 7.14,-0.57 31.63,-3.89 48.55,-6.51 23.48,-3.64 18.12,-23.58 13.89,-42 -19.73,-85.8 -21.54,-166.37 -17.46,-227.79 1.78,-26.82 8.75,-55.13 9.24,-70.39 0.67,-21 -53.79,5.7 -56.11,18.38z"></path> <path class="fil6" d="M4103.55 1873.35c-27.51,76.39 -37.08,211.44 -32.27,286.43 1.98,30.83 6.48,26.23 -20.87,29.75 -22.55,2.9 -35.38,1.63 -41.79,-2.04 -5.34,-3.06 -1.75,-12.51 -2.03,-18.25 -15.08,8.96 -57.57,28.53 -101.42,15.56 -29.88,-8.83 -31.12,-92.39 -20.27,-152.44 6.63,-36.67 62.84,-76.68 80.66,-72.85 26.45,5.7 50.15,20.22 52.8,17.84 7.01,-6.3 6.45,-85.48 6.63,-104.91 0.1,-11.35 47.49,-24.51 72.4,-26.62 21.22,-1.79 11.66,12.22 6.16,27.53zm-89.38 182.53c-0.42,10.44 -0.15,50.34 -1.93,53.09 -8.32,12.96 -48.26,31.79 -66.22,13.73 -5.64,-5.68 -16.5,-85.68 10.25,-93.75 8.79,-2.64 31.75,5.67 46.9,11.91 6.79,2.8 11.28,8.02 10.99,15.01z"></path> <path class="fil6" d="M3821.07 1974.65c-7.43,55.36 -4.17,164.01 13.07,192.56 15.59,25.82 -12.77,32.93 -44.52,33.84 -16.26,0.46 -22.59,-19.8 -28.08,-15.61 -49.31,37.58 -94.71,30.48 -104.33,23.94 -26.64,-17.84 -14.81,-143.07 -4.69,-195.76 2.44,-12.72 2.59,-23.44 12.76,-25.16 27.9,-4.74 43.92,-10.03 48.48,0.33 6.29,14 -15.34,112.83 -4.55,148.18 3,9.85 33.14,4.02 45.86,-9.81 0.53,-21.47 -2.4,-138.88 8.96,-149.32 12.41,-11.37 58.32,-12.72 57.04,-3.19z"></path> <path class="fil6" d="M4212.57 1960.16c7.84,6.96 8.49,32.24 11.98,39.83 4.07,8.83 30.12,26.2 33.46,22.65 12.88,-13.69 22.93,-63.47 32.61,-68.08 7.37,-3.5 70.25,-10.8 84.17,-3.55 3.23,19.11 -118.83,220.94 -167.97,238.04 -12.44,4.32 -43.2,-3.72 -63.75,-15.61 -11.94,-6.9 20.32,-61.72 27.56,-56.18 4.42,3.37 14.81,6.22 20.67,2.43 3.72,-2.41 24.95,-28.22 23.27,-32.51 -2.5,-6.38 -32.5,-23.83 -40.33,-32.58 -27.39,-30.59 -55.09,-93.44 -52.66,-95.72 9.81,-9.18 81.44,-7.25 90.99,1.26z"></path> <path class="fil6" d="M3155.24 2139.15c9.88,-11.23 56.86,-60.08 52.48,-66.07 -50.37,-68.94 -78.35,-52.64 -156.36,-26.57 -33.23,11.1 -74.17,77.41 -95.28,127.95 -16.98,40.64 -13.97,181 32.93,210.42 33.43,20.98 134.34,5.29 168.7,-15.36 42.34,-25.44 69.21,-53.19 73.05,-69.85 2.9,-12.56 -5.63,-38.85 -27.5,-76.55 -12.34,-21.27 -39.83,50.89 -69.67,59.42 -58.13,16.64 -97.02,32.31 -103.46,-39.2 -3.46,-38.53 25.24,-91.87 59.44,-119.55 18.24,-14.77 64.16,17.09 65.67,15.36z"></path> <path class="fil6" d="M4396.89 2848.61c-7.84,-11.35 -43.09,-32.88 -62.52,-26.4 -22.35,7.46 -43.1,22.75 -60.32,40.18 -8.86,8.98 -24.45,28.06 -28.97,38.84 -4.37,10 7.14,24.27 25.47,34.22 20.87,11.33 73.26,10.96 78.13,32.33 1.5,6.61 -6.35,17.54 -14.83,22.32 -23.79,13.39 -38.93,4.81 -55.96,-6.82 -12.81,-8.25 -12.83,-7.06 -24.19,5.05 -11.69,12.45 -24.07,34.23 -21.79,39.11 7.21,15.48 39.63,25.93 66.49,24.34 53.37,-2.86 116.05,-36.8 112.2,-70.01 -8,-68.95 -62.07,-67.47 -88.88,-79.07 -11.98,-5.18 -0.65,-17.26 8.77,-23.41 17.28,-11.28 30.46,12.29 37.5,9.86 8.03,-2.78 30.19,-38.67 28.89,-40.54z"></path> <path class="fil6" d="M3719.69 3018.63c-5.24,-57.88 -54.28,-72.4 -122.9,-48.54 -33.96,11.81 -60.74,68.81 -62.22,97.62 -3.05,58.89 18.83,110.4 52.62,115.62 43.15,6.65 102.3,-17.64 121.63,-47.3 10.46,-16.2 30.3,-43.41 1.88,-37.7 -7.68,1.61 -14.33,4.22 -25.66,6.66 -14.57,3.14 -7.54,12.24 -27.54,24.32 -23.53,14.23 -70.42,17.33 -65.85,-35.24 0.18,-2.03 74.44,-16.97 88,-20.67 47.1,-12.87 44.59,-4.46 40.04,-54.75zm-126.2 28.55c7.9,-1 77.94,-10.72 77.39,-19.39 -2.74,-44.15 -84.14,-20.39 -77.39,19.39z"></path> <path class="fil6" d="M3099.5 3278.26c-1.24,-21.85 -17.93,-85.73 -15.08,-153.46 0.33,-7.79 61.54,-9.89 68.21,-8.85 9.33,1.46 12.38,1.25 14.49,-9.08 2.91,-14.3 2.72,-43.76 -4.49,-49.36 -10.7,-8.31 -75.15,13.83 -81.36,13.67 -13.24,-57.96 13.35,-90.1 28.65,-90.42 13.35,-0.28 55,29.4 56.91,14.53 0.2,-1.55 49.94,-46.21 38.88,-58.59 -32.55,-16.01 -85.12,-35.74 -108.75,-28.38 -25.83,8.04 -74.54,52.65 -81.68,83.95 -3.91,17.1 -5.36,44.4 -4.86,89.28 0.1,8.24 -55.88,11 -58.89,21.31 -1.32,4.5 -13.06,55.38 -2.33,56.84 6.23,0.84 62.51,-23.64 62.72,-18.39 1.37,35.69 3.53,102.57 6.5,148.43 -1.62,14.85 70.29,-5.84 81.08,-11.48z"></path> <path class="fil6" d="M3209.85 3254.8c6.55,-21.14 12.8,-64.8 11.95,-102.99 -1.24,-66.61 -20.92,-101.11 -14.41,-106.85 9.12,-7.9 36.95,-13.68 45.91,-12.92 5.05,0.43 8.9,11.86 12.84,17.26 18.54,-13.79 67.26,-40.61 82.07,-43.4 8.44,-1.58 36.33,3.24 36.74,10.22 0.61,10.53 0.75,35.86 -13.59,56.28 -8.36,11.75 -34.2,-5.49 -49.13,-5.57 -14.15,-0.08 -45.35,28.58 -44.53,33.67 2.42,18.38 21.52,93.32 11.66,138.87 -0.83,2.83 -7.71,4.87 -20.5,9.05 -11.27,3.65 -62.55,17.76 -59.02,6.39z"></path> <path class="fil6" d="M3775.68 3143.87c5.97,-51.11 0.5,-155.12 -17.33,-180.23 -16.44,-23.15 11.72,-30.82 43.21,-33.15 16.22,-1.19 23.14,21.74 28.76,17.58 47.49,-36.61 92.83,-32.33 102.62,-26.96 27.24,14.92 1.22,131.12 3.32,179.19 0.54,11.47 -1.69,21.57 -12.06,23.74 -28.21,5.89 -44.23,11.43 -49.31,2.51 -6.42,-12.59 17.12,-116.45 8.79,-136.73 -5.24,-12.34 -33.26,-2.3 -45.61,11.19 -0.02,19.75 6.43,126.68 -4.72,136.69 -12.45,11.17 -58.7,15.06 -57.67,6.17z"></path> <path class="fil6" d="M4192.64 2773.18c-18.89,75.5 -12.78,202.84 0.99,272.4 5.64,28.51 9.82,23.67 -17.55,30.53 -22.44,5.62 -35.89,6.17 -42.47,3.74 -6.03,-2.24 -3.46,-11.49 -4.49,-16.89 -14.22,10.63 -54.79,34.56 -101.01,28.45 -31.41,-4.16 -42.46,-82.21 -38.46,-139.76 2.43,-35.07 54.74,-80.14 73.2,-79.03 27.42,1.66 53.07,12.18 55.52,9.63 6.59,-6.88 -3.24,-80.98 -5.32,-99.06 -1.23,-10.66 45.13,-29.39 70.27,-34.9 21.1,-4.62 13.06,9.96 9.33,24.88zm-69.21 182.97c0.93,9.89 5.92,47.06 4.51,49.83 -6.75,13.32 -45.45,36.29 -65.83,21.95 -6.29,-4.43 -26.96,-77.78 -0.37,-89.04 8.55,-3.62 32.61,1.14 48.7,4.83 7.43,1.7 12.39,5.95 13,12.43z"></path> <path class="fil6" d="M3428.46 3005.64c-7.14,42.76 -19.06,181.51 -8.18,214.57 7.69,-1.31 36.57,-5.6 54.82,-9.15 9.22,-1.79 14.28,-5.64 16.54,-10.73 0.35,-0.79 -11.62,-87.27 -10.32,-208.09 0.24,-21.46 -50.68,0.24 -52.87,13.4z"></path> <path class="fil6" d="M3485.48 2921.02c-7.06,27.25 -51.62,39.6 -62.65,7.34 -5.17,-15.13 15.65,-41.24 31.64,-47.83 39.89,-16.43 37.84,14.1 31.01,40.49z"></path> </g> <path class="fil7 str28" d="M2700.93 2122.31c46.63,53.16 155.54,-28.31 61.72,-91.88 -35.08,-23.78 -95.21,53.7 -61.72,91.88z"></path> <path class="fil7 str29" d="M4521.73 1713.23c-107.15,94.33 40.16,171.14 75.44,59.69 15.26,-48.19 -21.64,-107.05 -75.44,-59.69z"></path> <path class="fil7 str30" d="M2780.79 3411.82c15.35,-31.76 -4.93,-58.98 -30.9,-64.78 -183.98,-41.16 -38.58,208.39 30.9,64.78z"></path> <path class="fil7 str31" d="M4577.28 2974.54c-48.12,11.29 -63.66,111.07 26.39,103.12 65.4,-5.79 91.84,-130.86 -26.39,-103.12z"></path> <path class="fil8 str32" d="M6387.08 3116.18c-204.81,39.82 -205.34,140.71 -159.2,314.7 50.44,190.17 42.1,349.82 144.29,365.43 42.89,6.55 2381.39,-393.39 2405.89,-547.2 21.38,-134.22 -25.36,-584.86 -87.18,-646.65 -873.29,191.85 -1410.5,340 -2303.8,513.71z"></path> <path class="fil8 str32" d="M6387.08 3116.18c-204.83,39.83 -205.35,140.71 -159.2,314.7 50.44,190.19 42.11,349.83 144.29,365.43 42.88,6.55 1864.28,-297.19 1952.88,-425.27 55.83,-80.71 148.08,-228.45 135.86,-349.01 -15.76,-155.5 -188.22,-262.84 -223.04,-297.64 -873.29,191.85 -957.49,218.04 -1850.8,391.78z"></path> <path class="fil9 str32" d="M7361.24 2867.83c-25.71,56.23 114.73,788.73 174.94,779.2 14.18,-2.25 208.93,-34.69 241.62,-63.99 46.92,-42.07 -113.5,-756.67 -129.55,-776.75 -25.92,-32.41 -281.45,49.38 -287.01,61.54z"></path> <path class="fil3 str2" d="M3037.4 3723.48c-293.17,81.53 -648.62,448.56 -903.02,998.05 245.61,72.05 630.53,-136.35 1072.34,-126.94 599.4,12.77 1330.96,150.64 1933.75,190.72 13.38,-103.52 30.24,-180.4 59.4,-329.37 52.61,-268.78 -97.54,-361.78 -389.3,-417.07 -742.29,-140.68 -1532.12,-382.43 -1773.17,-315.39z"></path> <path class="fil3 str2" d="M8028.11 2733.78c436.83,-138.01 923.53,814.79 929.35,1433.58 -198.07,-117.98 -392.25,-353.2 -791.56,-415.64 -546.97,433.29 -1222.85,1058.46 -1915.55,905.39 -15.83,-153.11 -64.57,-439.44 -70.41,-631.9 864.27,-348.68 1825.23,-1284.16 1848.17,-1291.42z"></path> </g> </svg> 