<?xml version="1.0" encoding="UTF-8"?> <svg xmlns="http://www.w3.org/2000/svg" xmlns:xlink="http://www.w3.org/1999/xlink" xmlns:xodm="http://www.corel.com/coreldraw/odm/2003" xml:space="preserve" width="106.581mm" height="198.159mm" version="1.1" style="shape-rendering:geometricPrecision; text-rendering:geometricPrecision; image-rendering:optimizeQuality; fill-rule:evenodd; clip-rule:evenodd" viewBox="0 0 11345.49 21094.03"> <defs> <style type="text/css"> .str0 {stroke:black;stroke-width:375.53;stroke-miterlimit:22.9256} .str2 {stroke:#3D3830;stroke-width:150.21;stroke-linecap:round;stroke-linejoin:round;stroke-miterlimit:22.9256} .str3 {stroke:black;stroke-width:300.42;stroke-linecap:round;stroke-linejoin:round;stroke-miterlimit:22.9256} .str4 {stroke:black;stroke-width:225.32;stroke-linecap:round;stroke-linejoin:round;stroke-miterlimit:22.9256} .str1 {stroke:black;stroke-width:375.53;stroke-linecap:round;stroke-linejoin:round;stroke-miterlimit:22.9256} .fil4 {fill:none} .fil7 {fill:#1F1F1F} .fil0 {fill:#2B2B2B} .fil3 {fill:#806D4F} .fil2 {fill:#BEA98C} .fil6 {fill:#CCCCCC} .fil5 {fill:#D41200} .fil1 {fill:black;fill-rule:nonzero} </style> <clipPath id="id0"> <path d="M10295.77 16510.37c-702.02,-795.95 -3063.2,-1496.69 -4114.21,-1493.51 -695.13,2.1 -858.08,-101.7 -45.03,641.99 559.14,511.43 3048.45,1591.69 3785.66,1667.55 58.83,6.07 366.66,-752.75 373.59,-816.02z"></path> </clipPath> </defs> <g id="Слой_x0020_1"> <metadata id="CorelCorpID_0Corel-Layer"></metadata> <g> <path class="fil0" d="M3172.75 20798.25c772.02,-1039.69 678,-671.37 781.62,-2044.51 18.84,-249.73 634.88,-2345.62 652.74,-2354.91 519.93,-269.86 1486.29,237.68 788.88,1530.99 -560.72,1039.82 257.84,2868.42 -946.17,2868.42 -400.17,0 -1047.66,245.61 -1277.07,0z"></path> <path id="_1" class="fil1" d="M3767.12 18739.78l374.49 27.93 0 0.01 -9.13 123.28 -8.19 113.78 -7.43 104.97 -6.88 96.78 -6.53 89.26 -6.39 82.39 -6.45 76.24 -6.73 70.74 -7.26 66.01 -8.05 61.93 -9.1 58.55 -10.46 55.77 -12.1 53.51 -14.06 51.72 -16.24 50.14 -18.54 48.74 -20.92 47.51 -23.25 46.45 -25.54 45.66 -27.74 45.27 -30.01 45.48 -32.35 46.25 -34.88 47.77 -37.63 49.98 -40.63 52.94 -43.93 56.57 -47.48 60.92 -51.31 65.92 -55.4 71.61 -59.74 77.93 -64.32 84.87 -69.15 92.48 -302.1 -221.82 70.6 -94.4 65.66 -86.66 60.89 -79.42 56.23 -72.69 51.73 -66.48 47.37 -60.77 43.1 -55.52 38.97 -50.74 34.95 -46.42 31.05 -42.52 27.33 -39.06 23.81 -36.04 20.59 -33.56 17.72 -31.69 15.31 -30.53 13.34 -30.28 11.79 -30.99 10.58 -32.7 9.61 -35.39 8.8 -39.01 8.12 -43.31 7.48 -48.26 6.98 -53.76 6.56 -59.71 6.3 -66.14 6.17 -73 6.22 -80.31 6.44 -88.11 6.86 -96.36 7.43 -105.14 8.23 -114.4 9.2 -124.17 0 0.01zm0 -0.01c7.76,-102.83 97.89,-179.93 201.3,-172.21 103.41,7.72 180.95,97.34 173.19,200.17l-374.49 -27.95zm753.1 -2506.46l173.77 331.06 0.09 -0.04 84.16 -89.74 -3.62 10.13 -8.74 26.18 -12.08 37.66 -14.91 47.56 -17.4 56.49 -19.67 64.55 -21.65 71.83 -23.44 78.39 -24.98 84.15 -26.31 89.22 -27.41 93.52 -28.29 97.12 -28.95 99.99 -29.39 102.12 -29.61 103.54 -29.6 104.23 -29.39 104.18 -28.94 103.42 -28.28 101.92 -27.39 99.69 -26.28 96.72 -24.95 93.02 -23.4 88.57 -21.61 83.36 -19.6 77.36 -17.33 70.51 -14.83 62.84 -12.06 54.11 -9 44.08 -5.57 31.87 -1.91 14.81 -374.49 -27.93 5.06 -42.59 7.95 -45.73 10.66 -52.28 13.25 -59.54 15.74 -66.71 18.05 -73.45 20.17 -79.61 22.08 -85.15 23.78 -90.08 25.29 -94.29 26.58 -97.81 27.67 -100.65 28.52 -102.77 29.16 -104.16 29.58 -104.89 29.8 -104.86 29.78 -104.16 29.56 -102.71 29.12 -100.56 28.46 -97.7 27.58 -94.11 26.48 -89.83 25.2 -84.83 23.65 -79.11 21.93 -72.75 19.99 -65.64 17.85 -57.9 15.53 -49.56 13.1 -40.79 10.74 -32.14 9.73 -26.59 90.95 -103.47 0.09 -0.04zm-0.09 0.04c91.9,-47.75 205.35,-12.38 253.38,79.01 48.03,91.39 12.45,204.21 -79.44,251.97l-173.94 -330.97zm1041.32 1784.72l-330.95 -176.47 0 0 56.54 -111.03 47.27 -105.55 38.51 -100.08 30.27 -94.57 22.52 -89.01 15.33 -83.47 8.7 -77.95 2.63 -72.5 -2.86 -67.16 -7.82 -62.03 -12.26 -57.12 -16.23 -52.47 -19.83 -48.13 -23.07 -44.07 -26.07 -40.28 -28.82 -36.71 -31.37 -33.28 -33.74 -29.97 -35.93 -26.72 -37.84 -23.45 -39.49 -20.15 -40.88 -16.83 -41.92 -13.47 -42.58 -10.06 -42.85 -6.64 -42.72 -3.21 -42.23 0.16 -41.28 3.48 -39.92 6.72 -38.27 9.84 -36.25 12.81 -34.06 15.68 -173.77 -331.06 65.91 -30.37 68.18 -24.11 69.86 -17.99 71.11 -11.98 71.9 -6.08 72.31 -0.29 72.4 5.45 72.12 11.18 71.43 16.89 70.36 22.62 68.92 28.39 67.02 34.22 64.63 40.08 61.73 45.94 58.33 51.85 54.34 57.7 49.77 63.43 44.61 69.02 38.93 74.39 32.71 79.51 26.09 84.34 19.05 88.84 11.74 93.13 4.14 97.18 -3.67 101.01 -11.68 104.76 -19.93 108.44 -28.36 112.07 -37.02 115.71 -45.94 119.42 -55.15 123.13 -64.6 126.87 0 0zm0 0c-49,90.88 -162.83,125.04 -254.21,76.31 -91.39,-48.72 -125.74,-161.91 -76.74,-252.79l330.95 176.47zm-1111.65 2966.9l0 -373.43 0 0 87.81 -4.3 73.59 -11.88 60.8 -18 50.01 -22.96 41.82 -27.56 36.18 -32.79 32.26 -39.28 29.16 -47.07 26.09 -55.65 22.78 -64.37 19.22 -72.73 15.64 -80.54 12.18 -87.63 9 -93.93 6.18 -99.58 3.9 -104.51 2.1 -108.8 0.86 -112.52 0.26 -115.66 0.23 -118.24 0.85 -120.35 2.12 -121.95 4.05 -123.1 6.64 -123.81 9.94 -124.07 13.97 -123.91 18.75 -123.32 24.31 -122.33 30.73 -120.88 38 -118.9 46.16 -116.36 55.1 -112.94 330.95 176.47 -42.15 86.48 -36.19 91.37 -30.68 96.12 -25.52 100.53 -20.74 104.49 -16.38 107.93 -12.48 110.86 -9.07 113.23 -6.15 115.06 -3.81 116.39 -2.03 117.18 -0.83 117.5 -0.23 117.35 -0.26 116.7 -0.9 115.69 -2.2 114.25 -4.19 112.45 -6.89 110.34 -10.36 107.96 -14.69 105.32 -19.96 102.47 -26.38 99.38 -34.09 95.92 -43.25 91.82 -53.92 86.65 -65.8 79.71 -78.1 70.53 -89.92 59.13 -100.47 46.12 -109.64 32.54 -118.06 19.14 -126.3 6.26 0 0zm0 0c-103.69,0 -187.77,-83.6 -187.77,-186.71 0,-103.12 84.07,-186.71 187.77,-186.71l0 373.43zm-1428.12 -297.62l302.1 221.82 -13.48 -237.98 6.94 6.57 8.37 6.27 10.55 6.26 13.39 6.24 16.51 6.03 19.73 5.47 22.93 4.69 25.94 3.72 28.77 2.6 31.34 1.41 33.66 0.2 35.71 -0.99 37.57 -2.13 39.22 -3.18 40.6 -4.16 41.89 -5.02 42.94 -5.77 43.81 -6.4 44.57 -6.91 45.19 -7.3 45.62 -7.54 45.99 -7.68 46.24 -7.65 46.33 -7.48 46.33 -7.21 46.28 -6.79 46.14 -6.2 45.93 -5.48 45.69 -4.59 45.41 -3.53 45.16 -2.28 44.75 -0.8 0 373.43 -31.68 0.59 -33.96 1.72 -36.09 2.81 -37.98 3.82 -39.67 4.74 -41.13 5.54 -42.43 6.22 -43.58 6.78 -44.52 7.21 -45.33 7.5 -46.03 7.68 -46.6 7.71 -47.04 7.58 -47.36 7.36 -47.63 6.95 -47.73 6.41 -47.79 5.73 -47.82 4.89 -47.73 3.86 -47.64 2.7 -47.53 1.29 -47.35 -0.29 -47.22 -2.15 -47.06 -4.28 -46.96 -6.76 -46.77 -9.66 -46.55 -13.01 -46.06 -16.88 -45.28 -21.31 -43.93 -26.27 -41.71 -31.46 -38.49 -36.65 -13.48 -237.98zm13.48 237.98c-70.57,-75.55 -66.18,-193.71 9.79,-263.88 75.97,-70.17 194.79,-65.81 265.36,9.74l-275.15 254.14z"></path> </g> <path class="fil2 str0" d="M5273.41 3770.3c2948.43,354.86 4689.93,4166.96 4228.42,8001.44 -461.5,3834.48 -2112.21,5330.08 -5060.64,4975.22 -2948.43,-354.86 -3694.12,-4047.11 -3232.62,-7881.58 461.51,-3834.48 1116.4,-5449.95 4064.83,-5095.09z"></path> <path class="fil0 str1" d="M2369.72 3759.17c2842.05,-623.38 3120.16,-662.03 5133.57,23.41 174.9,-563.49 482.2,-2390.5 796.94,-3455.25 136.45,-461.6 1404.47,3857.8 1546.67,6527.13 78.19,1467.69 191.69,6134.67 -493.41,7526.96 -620.6,1261.22 -2863.2,3356.17 -4433.41,3074.14 -1605.14,-288.3 -3276.52,-1905.2 -3963.63,-3222.59 -1036.51,-1987.27 -745.82,-6389.77 -685.69,-7990.95 169.04,-4500.94 1101.31,-6865.97 1122.59,-5802.85 2,99.99 477.79,2523.02 976.37,3319.98zm358.25 10432.43c114.08,-57.46 1116.95,-408.08 1358.01,-433.28 274.94,-28.75 976.91,465.28 1187.44,411.68 234.64,-59.74 875.53,-671.18 986.39,-703.2 653.23,-188.66 1676.47,-422.43 2683.23,-779.47 307.65,-109.11 -1199.01,3984.82 -3069.57,4072.93 -2793,131.55 -3310.92,-2485.34 -3145.5,-2568.67zm1626.96 -4056.56c-195.17,-310.21 -2076.73,-1611.68 -2832.68,-1415.86 -365.9,94.77 -20.74,1464.16 359.19,1848.96 201.49,204.08 461.11,362.99 743.18,349.73 499.75,-23.48 1631.11,-271.16 1730.31,-782.83zm1973.27 -417.42c439.48,-194.25 885.38,-362.78 1334.9,-398.01 886.39,-69.48 1340.19,9.23 854.87,1036.46 -225.98,478.35 -403.59,596.2 -866.14,648.9 -206.8,23.54 -1339.38,-463.03 -1666.22,-842.31 -178.21,-208.5 162.43,-365.41 342.59,-445.05z"></path> <g id="_105553394842816"> <path class="fil3" d="M10295.77 16510.37c-702.02,-795.95 -3063.2,-1496.69 -4114.21,-1493.51 -695.13,2.1 -858.08,-101.7 -45.03,641.99 559.14,511.43 3048.45,1591.69 3785.66,1667.55 58.83,6.07 366.66,-752.75 373.59,-816.02z"></path> <g style="clip-path:url(#id0)"> <g> <path id="_1_0" class="fil4 str2" d="M6274.51 15769.34c257.46,-236.76 854.31,-493.92 1334.33,-531.06"></path> <path class="fil4 str2" d="M7222.55 16311.5c276.35,-238.54 1085.09,-629.18 1653.1,-647.08"></path> <path class="fil4 str2" d="M8376.78 16831.38c381.21,-336.74 890.27,-584.69 1453.39,-694.56"></path> </g> </g> <path class="fil4 str3" d="M10295.77 16510.37c-702.02,-795.95 -3063.2,-1496.69 -4114.21,-1493.51 -695.13,2.1 -858.08,-101.7 -45.03,641.99 559.14,511.43 3048.45,1591.69 3785.66,1667.55 58.83,6.07 366.66,-752.75 373.59,-816.02z"></path> <path class="fil5 str3" d="M9891.24 17322.76c553.84,87.87 789.6,-552.69 404.53,-812.39 -67.97,-12.41 -101.19,-13.73 -183.65,7.78 -386.91,100.95 -420.52,455 -336.92,666.05 24.98,63.08 54.2,92.4 116.04,138.57z"></path> <path class="fil6 str3" d="M10816.2 12400.67c746.42,878.29 -40.94,949.94 261.77,1842.45 247.12,728.6 21.6,1138.01 57.1,1869.85 15.89,327.85 -500.76,71.48 -508.29,-132.75 -46.8,-1270.12 -1019.96,-0.3 -794.72,-1644.33 80.28,-585.94 175.83,-241.25 667.95,-845.51 126.24,-154.99 279.6,-1132.74 316.19,-1089.7z"></path> </g> <path class="fil4 str4" d="M2369.72 3812.4c-640.38,321.64 -956.96,885.67 -1141.78,1523.79"></path> <path class="fil4 str4" d="M7503.29 3857.09c516.81,371.25 1037.44,744.22 1424.64,1641.77"></path> <path class="fil7 str3" d="M8618.03 8488.39c391.43,108.86 866,598.89 1205.65,1332.53 -327.92,96.2 -841.84,-182.05 -1431.72,-169.48 -800.28,17.05 -1777.01,201.13 -2581.82,254.64 -17.86,-138.21 -40.38,-240.86 -79.31,-439.76 -70.25,-358.86 130.23,-483.03 519.77,-556.85 991.06,-187.83 2045.59,-510.6 2367.42,-421.08z"></path> <path class="fil7 str3" d="M1954.75 7167.01c-583.23,-184.26 -1233.04,1087.85 -1240.81,1914.02 264.45,-157.52 523.71,-471.57 1056.85,-554.93 730.28,578.5 1632.68,1413.19 2557.52,1208.81 21.13,-204.43 86.2,-586.71 94.01,-843.68 -1153.92,-465.54 -2436.93,-1714.53 -2467.56,-1724.22z"></path> </g> </svg> 