<?xml version="1.0" encoding="UTF-8"?> <svg xmlns="http://www.w3.org/2000/svg" xmlns:xlink="http://www.w3.org/1999/xlink" xmlns:xodm="http://www.corel.com/coreldraw/odm/2003" xml:space="preserve" width="119.02mm" height="164.936mm" version="1.1" style="shape-rendering:geometricPrecision; text-rendering:geometricPrecision; image-rendering:optimizeQuality; fill-rule:evenodd; clip-rule:evenodd" viewBox="0 0 11712.24 16230.54"> <defs> <style type="text/css"> .str0 {stroke:black;stroke-width:347.15;stroke-miterlimit:22.9256} .str2 {stroke:black;stroke-width:69.43;stroke-miterlimit:22.9256} .str10 {stroke:black;stroke-width:69.43;stroke-miterlimit:22.9256} .str16 {stroke:black;stroke-width:69.43;stroke-miterlimit:22.9256} .str12 {stroke:black;stroke-width:69.43;stroke-miterlimit:22.9256} .str11 {stroke:black;stroke-width:69.43;stroke-miterlimit:22.9256} .str15 {stroke:black;stroke-width:69.43;stroke-miterlimit:22.9256} .str13 {stroke:black;stroke-width:69.43;stroke-miterlimit:22.9256} .str14 {stroke:black;stroke-width:69.43;stroke-miterlimit:22.9256} .str3 {stroke:black;stroke-width:69.43;stroke-miterlimit:22.9256} .str4 {stroke:black;stroke-width:69.43;stroke-miterlimit:22.9256} .str7 {stroke:black;stroke-width:69.43;stroke-miterlimit:22.9256} .str9 {stroke:black;stroke-width:69.43;stroke-miterlimit:22.9256} .str8 {stroke:black;stroke-width:69.43;stroke-miterlimit:22.9256} .str5 {stroke:black;stroke-width:69.43;stroke-miterlimit:22.9256} .str6 {stroke:black;stroke-width:69.43;stroke-miterlimit:22.9256} .str20 {stroke:black;stroke-width:69.43;stroke-miterlimit:22.9256} .str22 {stroke:black;stroke-width:69.43;stroke-miterlimit:22.9256} .str21 {stroke:black;stroke-width:69.43;stroke-miterlimit:22.9256} .str18 {stroke:black;stroke-width:69.43;stroke-miterlimit:22.9256} .str19 {stroke:black;stroke-width:69.43;stroke-miterlimit:22.9256} .str17 {stroke:black;stroke-width:69.43;stroke-miterlimit:22.9256} .str1 {stroke:black;stroke-width:347.15;stroke-miterlimit:22.9256} .fil2 {fill:#9EF8FA} .fil4 {fill:#BCFF57} .fil0 {fill:#BDA98C} .fil3 {fill:#D41200} .fil1 {fill:#FF99CC} </style> </defs> <g id="Слой_x0020_1"> <metadata id="CorelCorpID_0Corel-Layer"></metadata> <path class="fil0 str0" d="M3957.7 15956.14c713.67,-961.11 626.76,-620.63 722.55,-1890 17.42,-230.86 586.9,-2168.36 603.41,-2176.94 480.64,-249.47 1373.96,219.72 729.26,1415.29 -518.35,961.24 238.36,2651.65 -874.66,2651.65 -369.92,0 -968.48,227.05 -1180.56,0z"></path> <path class="fil0 str0" d="M5899.61 215.03c2725.61,328.04 5820.83,2873.51 5630.75,6745.62 -190.11,3872.12 -3328.83,5632.99 -6400.07,5250.37 -3071.24,-382.61 -5415.98,-3886.81 -4880.2,-7304.15 535.77,-3417.35 2923.91,-5019.89 5649.52,-4691.84zm234.62 3957.02c2766.77,333 2870.17,4666.19 -471.66,4249.84 -3140.71,-391.25 -2384.62,-4593.61 471.66,-4249.84z"></path> <path class="fil1 str1" d="M3502.91 907.58c430.81,-395.23 585.59,-18.2 1075.47,-203.33 358.09,-135.34 391.04,209.94 1064.52,-21.87 240.31,-82.71 1056.46,-235.14 1293.83,-53.99 469.63,358.36 1250.41,-21.75 1714.52,576.17 389.32,501.56 1180.39,113.89 1516.99,856.06 168.33,371.16 -6.09,283.44 376.94,841.37 267.05,389 -117.12,753.01 283.99,1664.62 67.73,153.95 -165.67,32.7 178.39,668.79 74.31,137.38 461.6,1047.25 408.38,1167.39 -254.23,573.87 -527.01,222.22 -224.87,1314.67 95.92,346.83 -198.75,238.15 -195.48,761.07 6.4,1022.53 -228,452.25 -312,1049.15 -130.57,927.66 186.17,659.63 -804.81,1043.33 -702.4,271.97 20.02,1512.46 -2131.78,1186.19 -812.85,-123.24 -1489.69,870.74 -2290.35,463.41 -1066.87,-542.75 -581.63,-154.58 -1495.46,-155.5 -733.34,-0.73 -642.65,-735.7 -1717.26,-1042.64 -738.76,-211.02 168.44,-618.58 -1070.33,-1355.7 -956.72,-569.29 98.34,-1030.24 -544.05,-2023.1 -239.84,-370.71 601.13,-512.96 -128.83,-1517.34 -406.95,-559.96 289.98,-915.46 -49.56,-1782.87 -466.68,-1192.18 674.94,-546.11 699.55,-1787.99 14.91,-752.09 564.29,-329.6 935,-973.29 531.54,-922.95 1120.32,-402.22 1417.2,-674.6zm422.77 3944.43c158.89,-990.74 891.98,-625.03 1391.19,-867.57 129.26,-62.8 1131.41,-931.9 1552.76,-53.57 184.95,385.58 970.67,197.11 991.36,622.95 30.5,627.44 209.15,627.8 514.85,1081.9 394.45,585.93 178.65,1110.37 -107.92,1396.33 -461.13,460.13 -131.1,1631.77 -1005.79,1602.89 -470.8,-15.55 -1128.61,-361.18 -1599.56,-213.07 -801.98,252.23 -929.88,169.82 -1196.86,94.39 -947.11,-267.6 -322.87,-910.68 -750.63,-1563.12 -349.49,-533.04 -540.6,-1055.27 -435.88,-1276.01 113.34,-238.94 542.52,-176.93 646.48,-825.13z"></path> <path class="fil2 str2" d="M2999.7 1799.77c-20.15,114.78 -430.47,1007.15 8.76,830.29 268.27,-108.02 357.17,-1021.69 79.64,-916.18 -47.19,17.94 -80.25,39.49 -88.4,85.89z"></path> <path class="fil3 str2" d="M4351.81 1227.72c-515.3,594.15 -38.05,1151.91 283.35,205.34 111.81,-329.27 -143.55,-366.53 -283.35,-205.34z"></path> <path class="fil4 str2" d="M3698.27 2550.52c163.21,-31.97 739.89,-210.52 801.78,52.9 10.77,45.85 -963.91,368.6 -801.78,-52.9z"></path> <path class="fil2 str2" d="M5419.65 2560.92c540.84,900.4 1018.39,336.05 390.92,-90.94 -182.79,-124.38 -438.14,12.33 -390.92,90.94z"></path> <path class="fil4 str2" d="M5258.43 1640.43c812.05,703.81 802.32,-337.51 40.7,-297.33 -66.61,3.52 -136.84,214 -40.7,297.33z"></path> <path class="fil4 str2" d="M7541.44 1286.8c-92.96,70.97 -511.04,446.42 -172.5,494.94 241.04,34.54 829.36,-734.31 172.5,-494.94z"></path> <path class="fil4 str2" d="M7083.8 2493.31c-9.82,149.54 23.77,736.29 297.33,523.47 212.93,-165.67 -270.45,-932.76 -297.33,-523.47z"></path> <path class="fil3 str2" d="M8649.16 1765.24c-18.84,-138.09 -156.36,-878.85 208.91,-683.95 201.29,107.41 240.17,878.26 -161.97,728.07 -9.94,-3.71 -45.41,-32.91 -46.95,-44.12z"></path> <path class="fil2 str2" d="M7884.68 3533.42c-22.44,128.36 -276.2,748.82 64.04,671.75 281.03,-63.67 311.55,-913.31 -38.03,-705.49 -20.05,11.92 -21.91,10.33 -26.01,33.73z"></path> <path class="fil2 str3" d="M10434.43 8938.78c-39.93,-109.49 -130.77,-1087.46 -422.73,-714.68 -178.32,227.68 201.52,1063.4 389.11,833.26 31.89,-39.13 49.75,-74.33 33.62,-118.58z"></path> <path class="fil4 str4" d="M9939.58 10090.73c149.19,-772.2 -543,-1016.61 -348.05,-36.15 67.8,341.06 307.59,245.64 348.05,36.15z"></path> <path class="fil3 str5" d="M9138.64 8018.18c-125.35,109.29 -535.5,552.26 -720.81,355.07 -32.25,-34.31 650.47,-801.17 720.81,-355.07z"></path> <path class="fil2 str4" d="M8348.22 9470.06c-918.59,-509.35 -1049.98,218.16 -293.09,274.22 220.5,16.33 373.28,-229.75 293.09,-274.22z"></path> <path class="fil4 str4" d="M8948.08 10186.61c-1055.17,-203.49 -526.07,693.45 113.41,277.85 55.92,-36.35 11.51,-253.75 -113.41,-277.85z"></path> <path class="fil2 str6" d="M7544.93 11400.74c45.03,-107.94 219.36,-642.12 -98.07,-514.88 -226.02,90.6 -351.09,1050.6 98.07,514.88z"></path> <path class="fil3 str7" d="M7010.92 10056.95c-66.26,-134.41 -388.73,-625.75 -519.23,-304.66 -101.57,249.93 700.6,672.57 519.23,304.66z"></path> <path class="fil4 str8" d="M5908.87 11432.98c85.37,110.16 574.83,682.92 161.05,696.77 -228.02,7.63 -647.11,-640.51 -223.76,-711.51 10.46,-1.76 55.78,5.79 62.71,14.74z"></path> <path class="fil4 str9" d="M5846.89 9504.76c-44.75,-122.38 -135.21,-786.6 -391.34,-549.73 -211.54,195.65 186.84,946.72 385.68,591.95 11.41,-20.34 13.82,-19.91 5.66,-42.22z"></path> <path class="fil4 str10" d="M1755.78 8964.39c114.78,20.15 1007.15,430.47 830.29,-8.76 -108.02,-268.27 -1021.69,-357.17 -916.18,-79.64 17.94,47.19 39.49,80.25 85.89,88.4z"></path> <path class="fil3 str10" d="M1183.74 7612.27c594.15,515.3 1151.91,38.05 205.34,-283.35 -329.27,-111.81 -366.53,143.55 -205.34,283.35z"></path> <path class="fil4 str10" d="M2506.53 8265.81c-31.97,-163.21 -210.52,-739.89 52.9,-801.78 45.85,-10.77 368.6,963.91 -52.9,801.78z"></path> <path class="fil4 str10" d="M2516.93 6544.44c900.4,-540.84 336.05,-1018.39 -90.94,-390.92 -124.38,182.79 12.33,438.14 90.94,390.92z"></path> <path class="fil2 str10" d="M1596.45 6705.66c703.81,-812.05 -337.51,-802.32 -297.33,-40.7 3.52,66.61 214,136.84 297.33,40.7z"></path> <path class="fil4 str10" d="M1242.81 4422.64c70.97,92.96 446.42,511.04 494.94,172.5 34.54,-241.04 -734.31,-829.36 -494.94,-172.5z"></path> <path class="fil4 str10" d="M2449.33 4880.29c149.54,9.82 736.29,-23.77 523.47,-297.33 -165.67,-212.93 -932.76,270.45 -523.47,297.33z"></path> <path class="fil4 str10" d="M1721.25 3314.93c-138.09,18.84 -878.85,156.36 -683.95,-208.91 107.41,-201.29 878.26,-240.17 728.07,161.97 -3.71,9.94 -32.91,45.41 -44.12,46.95z"></path> <path class="fil3 str10" d="M3489.43 4079.41c128.36,22.44 748.82,276.2 671.75,-64.04 -63.67,-281.03 -913.31,-311.55 -705.49,38.03 11.92,20.05 10.33,21.91 33.73,26.01z"></path> <path class="fil2 str11" d="M10590.05 4517.48c-104.91,-50.74 -851.29,-689.16 -801.12,-218.33 30.64,287.58 885.31,622.62 859.6,326.82 -4.37,-50.29 -16.07,-87.98 -58.48,-108.49z"></path> <path class="fil3 str12" d="M6516.95 714.75c-430.85,-657.97 -1097.74,-351.19 -274.92,216.5 286.22,197.48 391.8,-38 274.92,-216.5z"></path> <path class="fil4 str13" d="M10454.17 5374.57c-13.81,165.73 0.46,769.26 -269.85,756.85 -47.05,-2.16 -91.35,-1027.93 269.85,-756.85z"></path> <path class="fil2 str14" d="M9876.17 6713.51c-1013.88,274.39 -601.39,887.9 -19.28,400.9 169.57,-141.87 107.78,-424.85 19.28,-400.9z"></path> <path class="fil4 str15" d="M11010.25 7357.63c-898.82,588.97 105.57,864 274.91,120.36 14.8,-65.05 -168.5,-190.09 -274.91,-120.36z"></path> <path class="fil4 str16" d="M9430.46 2734.85c-108.82,42.88 -613.53,289.88 -301.11,429.02 222.44,99.05 998.36,-479.9 301.11,-429.02z"></path> <path class="fil3 str16" d="M8660.71 3770.52c-50.29,141.17 -178.2,714.79 143.07,584.76 250.08,-101.21 -5.43,-971.16 -143.07,-584.76z"></path> <path class="fil4 str16" d="M10365.4 3497.63c19.58,-137.99 89.6,-888.15 387.76,-600.9 164.3,158.3 -8.81,910.46 -354.64,656.17 -8.55,-6.28 -34.7,-44.06 -33.11,-55.26z"></path> <path class="fil4 str16" d="M9147.1 4989.8c-56.63,117.36 -470.2,644.93 -121.85,663.71 287.74,15.5 549.13,-793.51 156.08,-689.06 -22.53,5.99 -23.9,3.96 -34.24,25.35z"></path> <path class="fil4 str17" d="M5901.08 10843.25c28.58,-127.14 311.86,-734.69 -31.7,-674.06 -283.76,50.1 -355.08,897.29 4.09,706.5 20.6,-10.94 22.39,-9.27 27.6,-32.44z"></path> <path class="fil3 str18" d="M2955.05 10286.59c102.35,55.72 817.21,729.26 789.7,256.56 -16.8,-288.71 -854.37,-664.42 -842.91,-367.73 1.95,50.44 11.83,88.65 53.21,111.17z"></path> <path class="fil2 str19" d="M3131.95 9437.02c21.76,-164.88 36.5,-768.4 305.9,-743.02 46.88,4.43 41.85,1031.13 -305.9,743.02z"></path> <path class="fil4 str20" d="M3705.16 11741.26c110.75,-37.61 626.74,-260.08 321.37,-414.06 -217.44,-109.62 -1020.27,431.39 -321.37,414.06z"></path> <path class="fil2 str21" d="M4846.28 11125.37c57.01,-138.58 212.34,-705.4 -114.82,-590.96 -254.64,89.09 -41.22,970.3 114.82,590.96z"></path> <path class="fil4 str22" d="M2297.29 9902.71c-26.19,136.88 -132.16,882.8 -416.18,581.56 -156.5,-166 52.54,-908.98 385.76,-638.36 8.24,6.69 32.54,45.67 30.42,56.8z"></path> <path class="fil4 str21" d="M4419.02 9884.13c62.21,-114.5 500.65,-621.6 153.59,-657.09 -286.65,-29.31 -586.61,766.21 -189,680.76 22.8,-4.9 24.06,-2.79 35.41,-23.67z"></path> </g> </svg> 