<?xml version="1.0" encoding="UTF-8"?> <svg xmlns="http://www.w3.org/2000/svg" xmlns:xlink="http://www.w3.org/1999/xlink" xmlns:xodm="http://www.corel.com/coreldraw/odm/2003" xml:space="preserve" width="87.1992mm" height="191.907mm" version="1.1" style="shape-rendering:geometricPrecision; text-rendering:geometricPrecision; image-rendering:optimizeQuality; fill-rule:evenodd; clip-rule:evenodd" viewBox="0 0 9127.5 20087.71"> <defs> <style type="text/css"> .str0 {stroke:black;stroke-width:369.27;stroke-miterlimit:22.9256} .str1 {stroke:black;stroke-width:369.27;stroke-linejoin:round;stroke-miterlimit:22.9256} .fil1 {fill:yellow} .fil0 {fill:white} </style> </defs> <g id="Слой_x0020_1"> <metadata id="CorelCorpID_0Corel-Layer"></metadata> <path class="fil0 str0" d="M2239.65 19795.82c759.14,-1022.34 666.69,-660.17 768.58,-2010.4 18.53,-245.57 624.29,-2306.49 641.85,-2315.62 511.26,-265.36 1461.49,233.72 775.72,1505.45 -551.37,1022.48 253.54,2820.57 -930.39,2820.57 -393.49,0 -1030.18,241.51 -1255.77,0z"></path> <path class="fil0 str0" d="M4305.27 3051.92c2899.24,348.94 4611.69,4097.45 4157.89,7867.97 -453.8,3770.52 -2076.98,5241.17 -4976.22,4892.23 -2899.24,-348.94 -3632.5,-3979.6 -3178.69,-7750.1 453.81,-3770.52 1097.78,-5359.03 3997.02,-5010.09z"></path> <path class="fil1 str1" d="M972.95 3455.84c253.66,-2187.44 3033.38,-2673.32 2718.54,-2271.19 -73.17,93.44 -717.17,788.85 -333.9,879.73 118.01,27.98 1174.39,-1139.04 2734.75,-773.28 448.79,105.2 559.58,243.52 289.92,335.64 -526.1,179.7 -1407.07,692 -626.62,816.86 252.3,40.36 2365.81,-780.45 3187.21,538.4 -837.8,-172.14 -2646.73,158.6 -2096.74,843.15 283.33,352.65 620.32,1174.27 788.23,1942.18 -273.27,-163.2 -417.58,-793.73 -984.85,-1248.01 -260.62,-208.7 -877.58,-609.07 -1206.88,-368.73 -78.43,57.38 -1923.99,1120.47 -1921.59,580.47 0.03,-6.86 789.45,-712.43 349.09,-854.9 -1552.58,-502.36 -3157.48,1846.71 -3173.56,1844.17 -130.21,-20.59 19.17,-852.8 86.92,-1118.66 153.71,-603.06 -348.46,-18.38 -335.18,-485.53 4.58,-161.34 195.21,-332.5 360.68,-388.01 109.34,-36.68 151.51,-164.64 163.98,-272.29z"></path> <g id="_105553461287680"> <path class="fil1 str1" d="M573.88 1868.94c373.38,328.49 2740.84,469.92 3593.67,491.73 1088.19,27.83 3260.47,-24.77 3880.49,-553.49 932.33,-795.05 -433.86,-1294.57 -1448.87,-1465.69 -1241.12,-209.23 -3375.14,-209.45 -4561.69,1.27 -1327.71,235.78 -2331.76,762.4 -1463.61,1526.18zm597.51 -870.1c-1041.41,444.96 1779.53,538.59 3342.88,542.12 938,2.11 3965.15,-148.06 2911.87,-535.43 -1291.41,-474.95 -5208.27,-453.83 -6254.75,-6.69z"></path> <path class="fil0" d="M3197.57 1852.22c1486.57,102.28 2613.43,33.08 4101.81,-156.22 -769.76,465.96 -3784.59,446.05 -4101.81,156.22z"></path> </g> </g> </svg> 