<?xml version="1.0" encoding="UTF-8"?> <svg xmlns="http://www.w3.org/2000/svg" xmlns:xlink="http://www.w3.org/1999/xlink" xmlns:xodm="http://www.corel.com/coreldraw/odm/2003" xml:space="preserve" width="110.842mm" height="193.244mm" version="1.1" style="shape-rendering:geometricPrecision; text-rendering:geometricPrecision; image-rendering:optimizeQuality; fill-rule:evenodd; clip-rule:evenodd" viewBox="0 0 11384.42 19847.77"> <defs> <style type="text/css"> .str0 {stroke:black;stroke-width:362.33;stroke-miterlimit:22.9256} .str1 {stroke:black;stroke-width:362.33;stroke-linecap:round;stroke-linejoin:round;stroke-miterlimit:22.9256} .fil2 {fill:none} .fil3 {fill:#91E80E} .fil5 {fill:red} .fil0 {fill:#FFB44A} .fil1 {fill:white} .fil4 {fill:black;fill-rule:nonzero} </style> </defs> <g id="Слой_x0020_1"> <metadata id="CorelCorpID_0Corel-Layer"></metadata> <path class="fil0 str0" d="M3461.63 19561.37c744.88,-1003.14 654.17,-647.77 754.15,-1972.64 18.18,-240.95 612.56,-2263.18 629.8,-2272.13 501.66,-260.38 1434.04,229.33 761.15,1477.18 -541.02,1003.27 248.78,2767.6 -912.91,2767.6 -386.1,0 -1010.83,236.98 -1232.18,0z"></path> <path class="fil1 str0" d="M5488.45 3131.93c2844.79,342.39 4525.08,4020.49 4079.8,7720.2 -445.28,3699.7 -2037.97,5142.73 -4882.76,4800.35 -2844.79,-342.39 -3564.27,-3904.85 -3118.99,-7604.55 445.29,-3699.7 1077.16,-5258.38 3921.95,-4916z"></path> <ellipse class="fil2 str0" cx="2841.66" cy="8934.97" rx="2197.33" ry="2385.4"></ellipse> <ellipse class="fil2 str0" cx="8454.77" cy="8934.97" rx="2197.33" ry="2385.4"></ellipse> <path class="fil2 str0" d="M5070.77 9339.6c435.59,-381.35 805.07,-33.69 1223.83,111.25"></path> <path class="fil3" d="M1120.69 4204.86c-1766.36,-344.8 -715.36,-2007.07 477.81,-1491.18 -668.15,-593.78 736.61,-2476.38 2003.29,-1083.15 -303.12,-2273.47 2966.19,-1555.31 2498.81,-18.27 -32.36,54.69 347.47,-1255.7 1548.45,-949.99 781.7,198.99 958.28,797.66 641.82,1378.52 -25.03,5.1 427.78,-562.85 1189.67,-501.88 710.3,56.85 1076.78,741.7 536.56,1371.57 0.83,39.29 968.65,-62.67 1163.65,660.02 143.94,533.35 -412.85,1173.72 -1241.19,951.6 310.28,328.88 277.2,905.94 -236.62,1136.16 -536.26,240.28 -1121.66,95.09 -1482.61,-434.08 -128.94,452.71 -357.28,985.83 -1202.26,962.01 -896.52,-25.29 -973.84,-992.42 -975.22,-989.57 -254.96,1269.07 -1862.59,1211.1 -2013.84,33.58 -92.2,476.36 -1599.4,1438.1 -1789.41,146.81 -309.14,558.94 -2657.81,102.54 -1118.9,-1172.14z"></path> <path class="fil4" d="M759.14 4295.14c-409.82,-143.95 -634.6,-376.07 -719.59,-628.52 -58.22,-172.92 -49.97,-352.41 10.4,-519.91 57.86,-160.51 163.57,-309.14 303.67,-428.2 227.26,-193.12 548.24,-312.05 902.6,-278.46 -32.17,-195.39 7.26,-413.27 102.85,-621.74 77.28,-168.54 191.64,-331.54 333.5,-469.29 143.6,-139.42 316.01,-254.33 507.71,-324.94 360.98,-132.98 784.26,-112.86 1205.1,187.52 33.59,-501.85 262.82,-833.32 580.73,-1022.95 265.34,-158.27 589.62,-211.86 910.15,-179.73 314.94,31.57 629.33,146.18 881.13,325.31 221.1,157.3 395.5,362.92 484.9,605.68 272.79,-329.85 728.58,-632.03 1431.34,-453.14 141.99,36.13 268.18,85.45 378.74,145.69 233.68,127.31 390.44,301.1 474.92,502.23 53.71,127.86 77.63,265.1 73.04,406.99 222.5,-118.49 518.44,-211.71 874.38,-183.23 259.37,20.76 482.02,114.38 647.57,256.35 107.75,92.43 191.31,205.61 245.33,333.09 54.24,127.97 78.16,268.52 66.43,415.02 -10.42,130.37 -48.78,265.47 -118.82,400.32 345.05,44.55 866.17,189.11 1020.37,760.55 40.05,148.44 37.48,302.72 -2,449.94 -44.58,166.24 -136.77,323.66 -267.89,452.72 -129.25,127.2 -296.39,226.9 -492.74,279.88 -98.44,26.56 -204.17,41.37 -316.01,41.98 42.73,134.37 53.9,277.35 30.5,416.01 -29.55,175.05 -113.28,342.99 -256.96,478.56 -74.66,70.43 -165.71,131.8 -273.91,180.27 -311.99,139.8 -640.21,165.18 -943.24,76.46 -197.57,-57.85 -383.02,-163.47 -544.8,-316.72 -63.41,150.3 -148.18,297.64 -270.58,425.56 -211.49,221.03 -522.88,371.79 -1004.8,358.21 -553.37,-15.6 -841.96,-329.4 -991.67,-625.17 -124.93,198.22 -290.46,344.02 -474.58,438.72 -180.75,92.97 -379.03,136.07 -574.42,130.8 -196.94,-5.3 -390.61,-59.17 -560.43,-160.04 -184.73,-109.73 -341.75,-273.89 -444.82,-490.28 -136.35,144.5 -317.53,282.56 -512.32,381.5 -160.18,81.36 -332.49,139.46 -500.08,156.83 -182.93,18.96 -359.89,-9.83 -512.12,-106.66 -130.94,-83.3 -238.94,-213.3 -310.17,-401.88 -224.17,102.05 -536.03,126.03 -828.76,73.55 -201.5,-36.12 -397.95,-107.17 -552.13,-212.04 -173.29,-117.88 -295.66,-277.64 -323.97,-479.57 -31.16,-222.26 57.33,-483.98 331.48,-777.25zm-377.08 -743.17c66.78,198.36 300.4,382.95 773.31,475.26 39.66,7.74 76.98,28.72 104.74,62.27 63.7,76.99 52.93,191.07 -24.06,254.77 -354.79,293.87 -472.91,517.37 -450.3,678.57 12.67,90.36 76.52,168.05 168.29,230.48 110.87,75.42 258.42,127.64 413.43,155.43 310.15,55.61 632.49,21.8 712.3,-116.54 26.1,-49.12 74.41,-85.6 133.66,-94.26 98.88,-14.45 190.77,53.98 205.22,152.86 34.41,233.84 114.3,369.86 217.96,435.79 78.2,49.74 176.1,63.8 281.42,52.88 120.68,-12.51 250.12,-57.06 374.09,-120.04 287.53,-146.04 530.32,-373.67 559.27,-523.24l0.34 0.06c14.27,-74.69 75.11,-135.08 154.64,-145.14 98.88,-12.5 189.19,57.52 201.69,156.39 38.89,302.76 190.74,514.86 387.97,632.02 117.33,69.7 250.33,106.89 384.92,110.51 136.15,3.68 274.34,-26.38 400.33,-91.17 221.37,-113.85 406.29,-337 480.12,-676.07 52.27,-253.13 345.51,-243.62 367.89,39.71 28.19,172.18 167.84,765.54 793.75,783.19 363.02,10.23 588.33,-93.67 734.48,-246.4 151.01,-157.82 230.31,-379.5 288.75,-584.69l0.22 0.06c11.15,-39.28 35.6,-75.03 71.97,-99.84 82.46,-56.27 194.95,-35.05 251.22,47.41 153.09,224.44 350.27,367.95 564.14,430.56 220.75,64.63 462.75,44.84 695.55,-59.47 69.03,-30.93 126.65,-69.64 173.42,-113.76 82.85,-78.18 131.08,-174.58 147.98,-274.74 17.33,-102.69 2.67,-209.68 -40.52,-306.09 -23.62,-52.72 -56.13,-102.56 -96.92,-147.05 -45.28,-44.19 -66.04,-110.86 -48.55,-176.34 25.79,-96.54 124.98,-153.88 221.51,-128.09 192.35,51.57 365.66,49.24 513.22,9.43 133.73,-36.08 246.53,-102.96 332.81,-187.87 84.39,-83.05 143.46,-183.38 171.66,-288.55 23.35,-87.08 25.13,-177.34 2,-263.1 -124.13,-460.01 -694.64,-498.28 -907.29,-512.53 -157.42,-10.55 -254,-17.29 -261.63,-179.17 -3.87,-46.42 10.09,-94.32 42.77,-132.5 134.92,-157.31 201.8,-314.72 213.29,-458.39 7.12,-88.85 -6.63,-172.3 -38.13,-246.6 -31.69,-74.78 -81.99,-142.29 -147.67,-198.63 -109.05,-93.52 -260.4,-155.57 -440.92,-170.01 -465.31,-37.23 -798.98,194.54 -950.02,335.69 -25.51,23.85 -44.21,43.2 -56.83,57.53 -2.12,2.85 -4.31,5.66 -6.61,8.41l-0.5 0.54 -3.03 5.59c-26.49,48.64 -72.11,80.22 -122.44,90.52 -73.48,15.15 -133.62,-6.53 -179.74,-66.74l-0.12 0.1c-2.91,-3.78 -5.65,-7.73 -8.21,-11.83 -40.21,-61.53 -38.19,-139.82 0.88,-198.56 41.86,-79.2 73.13,-159.33 93.36,-238.86 39.05,-153.38 33.52,-299.85 -19.87,-426.96 -53.59,-127.59 -156.94,-239.98 -313.57,-325.31 -82.02,-44.69 -180.21,-82.44 -295.23,-111.72 -678.94,-172.83 -1053.24,262.21 -1220.91,563.39 -41.97,75.38 -71.37,142.85 -89.61,191.12 -32,77.61 -36.88,148.3 -111.95,181.94 7.13,13.77 -282.44,110.23 -263.07,-158 -0.45,-36.12 14.77,-87.43 26.26,-121.88 80.62,-361.62 -96.26,-665.79 -377.27,-865.72 -201.17,-143.11 -453.47,-234.79 -707.04,-260.21 -247.99,-24.86 -494.18,13.79 -689.35,130.2 -284.7,169.81 -466.7,518.72 -391.92,1098.73 11.05,59.52 -8.01,123.21 -56.07,166.94 -73.87,67.22 -188.25,61.83 -255.48,-12.04 -404.07,-444.43 -814.2,-509.69 -1143.22,-388.48 -142.62,52.54 -271.87,138.96 -380.31,244.25 -110.14,106.95 -198.3,232.08 -257.09,360.32 -108.26,236.13 -116.64,478.64 31.38,610.18l-0.36 0.41c56.51,50.29 77.27,132.97 45.65,206.23 -39.47,91.45 -145.62,133.59 -237.07,94.12 -368.71,-159.42 -718.89,-72.56 -939.87,115.23 -92.66,78.75 -161.44,173.85 -197.51,273.93 -33.54,93.07 -38.7,191.11 -7.59,283.54z"></path> <ellipse class="fil5 str1" cx="5782.66" cy="11154.19" rx="1335.5" ry="1325.22"></ellipse> </g> </svg> 