<?xml version="1.0" encoding="UTF-8"?> <svg xmlns="http://www.w3.org/2000/svg" xmlns:xlink="http://www.w3.org/1999/xlink" xmlns:xodm="http://www.corel.com/coreldraw/odm/2003" xml:space="preserve" width="125.169mm" height="205.911mm" version="1.1" style="shape-rendering:geometricPrecision; text-rendering:geometricPrecision; image-rendering:optimizeQuality; fill-rule:evenodd; clip-rule:evenodd" viewBox="0 0 12473.43 20519.58"> <defs> <style type="text/css"> .str0 {stroke:black;stroke-width:351.56;stroke-miterlimit:22.9256} .str1 {stroke:black;stroke-width:351.56;stroke-linecap:round;stroke-linejoin:round;stroke-miterlimit:22.9256} .fil2 {fill:#474747} .fil0 {fill:#BDA98C} .fil1 {fill:black;fill-rule:nonzero} </style> </defs> <g id="Слой_x0020_1"> <metadata id="CorelCorpID_0Corel-Layer"></metadata> <g> <path class="fil0" d="M4239.84 20242.69c722.72,-973.3 634.71,-628.5 731.71,-1913.96 17.64,-233.79 594.34,-2195.85 611.06,-2204.54 486.73,-252.63 1391.38,222.5 738.51,1433.24 -524.92,973.43 241.38,2685.27 -885.75,2685.27 -374.62,0 -980.76,229.93 -1195.53,0z"></path> <path id="_1" class="fil1" d="M4796.26 18315.65l350.58 26.15 0 0.01 -8.55 115.41 -7.66 106.52 -6.96 98.27 -6.44 90.6 -6.11 83.56 -5.98 77.13 -6.04 71.37 -6.3 66.22 -6.8 61.79 -7.53 57.98 -8.52 54.81 -9.8 52.21 -11.33 50.1 -13.16 48.42 -15.21 46.94 -17.36 45.63 -19.58 44.48 -21.76 43.49 -23.91 42.74 -25.97 42.38 -28.09 42.57 -30.28 43.3 -32.66 44.72 -35.23 46.79 -38.04 49.56 -41.13 52.96 -44.45 57.03 -48.03 61.72 -51.86 67.04 -55.93 72.96 -60.21 79.45 -64.73 86.58 -282.81 -207.66 66.09 -88.37 61.47 -81.13 57 -74.35 52.64 -68.05 48.43 -62.23 44.35 -56.89 40.35 -51.98 36.48 -47.5 32.72 -43.46 29.07 -39.8 25.58 -36.56 22.29 -33.74 19.27 -31.42 16.59 -29.67 14.33 -28.58 12.49 -28.35 11.04 -29.01 9.91 -30.61 9 -33.13 8.24 -36.52 7.6 -40.55 7.01 -45.18 6.54 -50.32 6.14 -55.9 5.9 -61.91 5.78 -68.34 5.82 -75.18 6.03 -82.48 6.42 -90.21 6.96 -98.43 7.7 -107.1 8.61 -116.25 0 0.01zm0 -0.01c7.26,-96.26 91.64,-168.44 188.44,-161.22 96.8,7.22 169.4,91.12 162.14,187.39l-350.58 -26.17zm705.01 -2346.42l162.67 309.92 0.08 -0.04 78.79 -84.01 -3.39 9.49 -8.18 24.5 -11.31 35.26 -13.96 44.52 -16.29 52.89 -18.42 60.43 -20.27 67.25 -21.94 73.38 -23.39 78.78 -24.63 83.52 -25.66 87.55 -26.49 90.92 -27.11 93.6 -27.51 95.6 -27.72 96.93 -27.71 97.57 -27.51 97.53 -27.1 96.81 -26.48 95.41 -25.64 93.32 -24.6 90.54 -23.36 87.08 -21.9 82.91 -20.23 78.04 -18.35 72.42 -16.22 66.01 -13.88 58.83 -11.29 50.65 -8.42 41.27 -5.21 29.84 -1.78 13.86 -350.58 -26.15 4.73 -39.87 7.44 -42.81 9.98 -48.94 12.41 -55.74 14.74 -62.45 16.9 -68.76 18.88 -74.53 20.67 -79.71 22.26 -84.33 23.68 -88.27 24.88 -91.56 25.9 -94.22 26.7 -96.2 27.29 -97.51 27.69 -98.19 27.89 -98.17 27.88 -97.51 27.67 -96.16 27.27 -94.14 26.65 -91.46 25.82 -88.1 24.79 -84.1 23.59 -79.41 22.14 -74.06 20.53 -68.1 18.71 -61.45 16.71 -54.2 14.54 -46.4 12.27 -38.19 10.05 -30.09 9.11 -24.89 85.14 -96.86 0.08 -0.04zm-0.08 0.04c86.03,-44.7 192.24,-11.59 237.2,73.96 44.96,85.55 11.66,191.17 -74.37,235.88l-162.83 -309.84zm974.83 1670.76l-309.82 -165.2 0 0 52.93 -103.94 44.26 -98.81 36.05 -93.69 28.34 -88.53 21.09 -83.33 14.35 -78.14 8.14 -72.98 2.46 -67.87 -2.68 -62.87 -7.32 -58.07 -11.48 -53.47 -15.2 -49.12 -18.57 -45.05 -21.59 -41.26 -24.4 -37.71 -26.98 -34.37 -29.37 -31.15 -31.59 -28.05 -33.63 -25.01 -35.43 -21.95 -36.97 -18.86 -38.27 -15.76 -39.24 -12.61 -39.86 -9.42 -40.11 -6.22 -39.99 -3.01 -39.53 0.15 -38.65 3.26 -37.37 6.29 -35.83 9.21 -33.93 11.99 -31.89 14.68 -162.67 -309.92 61.71 -28.43 63.83 -22.57 65.4 -16.84 66.57 -11.21 67.31 -5.69 67.69 -0.27 67.77 5.1 67.51 10.46 66.87 15.81 65.87 21.18 64.52 26.58 62.74 32.04 60.5 37.52 57.79 43.01 54.61 48.54 50.87 54.01 46.59 59.38 41.76 64.61 36.44 69.64 30.62 74.43 24.42 78.95 17.84 83.17 10.99 87.19 3.88 90.97 -3.44 94.56 -10.93 98.07 -18.66 101.52 -26.55 104.91 -34.66 108.32 -43.01 111.79 -51.63 115.27 -60.48 118.77 0 0zm0 0c-45.87,85.07 -152.43,117.05 -237.98,71.44 -85.55,-45.61 -117.71,-151.57 -71.84,-236.65l309.82 165.2zm-1040.67 2777.46l0 -349.58 0 0 82.2 -4.03 68.89 -11.12 56.92 -16.85 46.82 -21.5 39.15 -25.8 33.87 -30.69 30.2 -36.77 27.29 -44.07 24.42 -52.1 21.33 -60.26 18 -68.08 14.64 -75.4 11.4 -82.03 8.42 -87.93 5.79 -93.23 3.65 -97.84 1.96 -101.86 0.81 -105.33 0.24 -108.27 0.22 -110.69 0.8 -112.67 1.98 -114.16 3.79 -115.24 6.22 -115.91 9.31 -116.15 13.07 -116 17.55 -115.45 22.76 -114.52 28.77 -113.17 35.58 -111.31 43.21 -108.93 51.58 -105.73 309.82 165.2 -39.46 80.96 -33.88 85.53 -28.72 89.99 -23.89 94.11 -19.41 97.82 -15.34 101.04 -11.68 103.78 -8.49 106 -5.76 107.71 -3.57 108.96 -1.9 109.7 -0.78 110 -0.22 109.86 -0.24 109.25 -0.85 108.3 -2.06 106.96 -3.93 105.27 -6.45 103.29 -9.7 101.07 -13.75 98.6 -18.68 95.93 -24.69 93.04 -31.91 89.8 -40.49 85.96 -50.47 81.12 -61.6 74.62 -73.12 66.03 -84.18 55.36 -94.05 43.18 -102.64 30.46 -110.53 17.92 -118.24 5.86 0 0zm0 0c-97.07,0 -175.78,-78.26 -175.78,-174.79 0,-96.53 78.71,-174.79 175.78,-174.79l0 349.58zm-1336.93 -278.62l282.81 207.66 -12.62 -222.78 6.5 6.15 7.83 5.87 9.88 5.86 12.54 5.84 15.46 5.64 18.47 5.12 21.47 4.39 24.29 3.48 26.94 2.43 29.34 1.32 31.51 0.19 33.43 -0.93 35.17 -1.99 36.71 -2.98 38.01 -3.9 39.21 -4.7 40.2 -5.4 41.02 -5.99 41.72 -6.47 42.3 -6.84 42.71 -7.06 43.05 -7.18 43.29 -7.17 43.37 -7.01 43.37 -6.75 43.33 -6.36 43.19 -5.8 43 -5.13 42.77 -4.3 42.51 -3.31 42.27 -2.13 41.89 -0.75 0 349.58 -29.66 0.55 -31.79 1.61 -33.78 2.63 -35.56 3.58 -37.14 4.43 -38.51 5.18 -39.72 5.82 -40.8 6.35 -41.67 6.75 -42.43 7.03 -43.09 7.18 -43.63 7.21 -44.04 7.1 -44.34 6.89 -44.58 6.51 -44.68 6 -44.73 5.36 -44.76 4.57 -44.68 3.62 -44.59 2.53 -44.5 1.21 -44.33 -0.27 -44.21 -2.01 -44.06 -4.01 -43.96 -6.33 -43.79 -9.04 -43.58 -12.18 -43.12 -15.8 -42.39 -19.95 -41.13 -24.59 -39.04 -29.45 -36.03 -34.31 -12.62 -222.78zm12.62 222.78c-66.06,-70.72 -61.95,-181.34 9.17,-247.03 71.12,-65.69 182.35,-61.61 248.41,9.12l-257.58 237.91z"></path> </g> <path class="fil0 str0" d="M6206.37 4301.99c2760.17,332.2 4390.47,3900.89 3958.43,7490.54 -432.04,3589.65 -1977.34,4989.75 -4737.51,4657.55 -2760.17,-332.2 -3458.24,-3788.69 -3026.21,-7378.33 432.05,-3589.65 1045.12,-5101.96 3805.29,-4769.76z"></path> <path class="fil2 str1" d="M1582.32 1803.68c-22.33,-531.23 1455.04,849.18 1574.12,951.87 451.47,389.33 240.24,-1082.69 558.7,-2579.74 746.61,1624.69 1406.54,5480.78 903.13,7396.47 -316.9,-33.73 -663.08,-156.4 -975.11,-331.58 -362.75,994.23 -176.74,1940.99 -389.64,2979.93 -818.9,-1420.22 -920.67,935.16 -906.66,2006.49 -1094.39,-1407.99 -1333.98,-1981.34 -1762.18,-3110.99 -614.63,-1621.48 -436.27,-3489.02 -118.43,-2733.57 599.65,1425.23 1219.85,-2111 1116.07,-4578.87z"></path> <path class="fil2 str1" d="M8084.57 554.45c225.69,1119.93 358.15,1887.85 694.36,2590.42 648.81,-217.88 1322.93,-1027.63 1370.17,-1083 132.04,87.94 1192.22,3312.46 1132.96,3806.24 305.52,-235 822.02,-250.88 1015.56,-605.74 0,970.19 -551.06,2994.64 -925.79,3931.33 529.69,-99.28 878.44,-1077.03 362.96,548.92 -316.22,997.42 -970.44,2387.79 -1765.33,3210.93 120.97,-1213.23 229.57,-3971.95 -45.75,-4254.78 -189.06,-194.2 -480.19,608.49 -711.78,1006.12 -361.38,-537.7 -458.87,-1594.75 -712.29,-2332.82 -274.02,113.67 -806.66,253.07 -1147.91,249.05 505.28,-2478.15 -248.66,-4951.57 732.84,-7066.65z"></path> </g> </svg> 