<?xml version="1.0" encoding="UTF-8"?> <svg xmlns="http://www.w3.org/2000/svg" xmlns:xlink="http://www.w3.org/1999/xlink" xmlns:xodm="http://www.corel.com/coreldraw/odm/2003" xml:space="preserve" width="115.406mm" height="183.209mm" version="1.1" style="shape-rendering:geometricPrecision; text-rendering:geometricPrecision; image-rendering:optimizeQuality; fill-rule:evenodd; clip-rule:evenodd" viewBox="0 0 13466.69 21378.57"> <defs> <style type="text/css"> .str0 {stroke:black;stroke-width:411.66;stroke-miterlimit:22.9256} .str2 {stroke:black;stroke-width:329.32;stroke-linecap:round;stroke-linejoin:round;stroke-miterlimit:22.9256} .str1 {stroke:#FC49A3;stroke-width:329.32;stroke-linecap:round;stroke-linejoin:round;stroke-miterlimit:22.9256} .str3 {stroke:#9900CC;stroke-width:247;stroke-linecap:round;stroke-linejoin:round;stroke-miterlimit:22.9256} .fil6 {fill:none} .fil0 {fill:#333333} .fil2 {fill:#7EBDBF} .fil7 {fill:#91E80E} .fil9 {fill:#BCFF57} .fil3 {fill:#BDA98C} .fil4 {fill:#CCCCCC} .fil5 {fill:red} .fil1 {fill:#FF99CC} .fil8 {fill:#FFB44A} </style> </defs> <g id="Слой_x0020_1"> <metadata id="CorelCorpID_0Corel-Layer"></metadata> <g id="_105553466343168"> <path class="fil0 str0" d="M1601.48 6409.7c98.77,936.64 553.53,357.51 197.54,1169.75 -170.94,390.05 145.83,885.03 -149.35,1125.85 -540.38,440.99 -11.67,1172.87 -75.93,1652.95 -45.96,343.38 -289.7,753.03 -271.97,1131.03 17.62,375.51 186.42,1032.48 261.57,1102.04 1022.82,946.67 3673.04,-2038.94 3827.11,-3138.44 167.03,-1192.12 -230.2,-2775.27 -1588.92,-3009.84 -84.58,-14.6 -2242.49,-435.86 -2200.05,-33.35z"></path> <path class="fil1 str1" d="M1610.84 5693.54c-285.04,-195.36 -743.45,-691.42 -442.24,-1030.6 304.75,-343.18 44.68,-2199.15 537.18,-2748.91 183.28,-204.58 -99.57,-447.34 261.34,-610.88 336.37,-152.42 48.32,-761.21 1226.43,-868.49 600.27,-54.66 138.78,354.69 755.56,111.53 629.97,-248.35 642.78,-614.09 1610.97,-180.6 666.45,298.4 365.96,465.01 1126.1,103.14 157.6,-75.02 1427.62,38.52 1526.97,385 179.44,625.85 -375.1,219.83 46.2,676.68 143.47,155.58 1010.16,-92.3 642.62,800.36 -130.3,316.45 204.68,965.67 -92.87,1015.49 -493.13,82.55 513.14,1107.45 -963.22,703.75 -39.99,-10.93 -129.86,126.57 -331.81,190.4 -783.93,247.78 -615.71,-211.29 -1579.24,-129.27 -56.37,4.8 -243.82,585.77 -1038.83,147.01 -642.22,-354.44 -456.52,824.22 -1581.57,54.13 -414.82,-283.95 -857.39,2073.41 -1605.41,1449.21 -50.91,-42.47 -32.84,-23.19 -98.17,-67.96z"></path> <path class="fil2 str0" d="M3406.63 21053.19c846.28,-1139.69 743.22,-735.95 856.8,-2241.17 20.65,-273.75 695.95,-2571.25 715.53,-2581.42 569.95,-295.82 1629.25,260.54 864.76,1678.26 -614.66,1139.84 282.64,3144.33 -1037.18,3144.33 -438.66,0 -1148.43,269.24 -1399.91,0z"></path> <path class="fil2 str0" d="M5767.94 4086.32c491.04,59.08 846.06,-429.92 1272.18,-209.1 430.39,223.05 872.72,-541.44 1229.04,-180.46 1612.97,1634.09 2426.74,4541.97 2075.34,7461.65 -76.59,636.4 -183.11,1214.09 -319.85,1734.74 -116.01,441.74 -1296.56,395.73 -1696.21,581.35 -427,198.3 -255.93,1048.87 -375.86,1461.98 -163.33,562.63 326.15,993.15 -150.39,1249.58 -811.61,436.76 -1811.34,569.83 -3005.12,426.15 -1881.56,-226.46 -2944.81,-1692.83 -3404.99,-3707.95 -104.05,-455.66 774.48,-314.37 729.62,-818.16 -69.59,-781.56 1403.71,-1196.82 2281.59,-2181.95 352.34,-395.38 -378.63,-2055.88 -337.19,-2400.42 76.94,-639.31 -2653.77,-753.57 -2558.95,-1281.27 161.44,-898.25 360.59,-1636.26 637.3,-2218.73 167.57,-352.72 788.32,494.93 1021.7,255.22 276.37,-283.87 820.77,214.47 1127.21,-154.79 407.04,-490.5 677.61,-113.73 1474.57,-17.84z"></path> <path class="fil3 str2" d="M1929.27 7210.7c5.06,-221.03 -335.73,-426.29 -195,-618.15 25.86,-35.26 739.3,171.79 846.98,189.85 197.86,33.19 355.67,259.25 559.04,360.77 251.03,125.3 -201.83,421.34 -248.8,486.03 -134.11,184.67 62.76,558.65 -143.53,570.8 -195.56,11.53 -779.16,-2.12 -884.88,-244.77 -187.97,-431.44 148.76,-543.25 77.63,-721.36l-11.44 -23.17z"></path> <path class="fil1 str2" d="M2399.58 8190.55c-6.67,387.62 -132.41,346.47 -129.4,689.52 2.56,290.87 362.59,163.98 347.28,613.03 -4.35,127.91 200.13,141.95 199.63,658.55 -0.47,479.13 500.7,456.77 437.22,-18.46 -26.89,-201.35 -74.47,-785.4 56.29,-939.94 206.34,-243.89 254.28,-264.55 259.79,-633.48 4.64,-311.26 174.77,-304.92 108.29,-682.59 -60.08,-341.35 631.35,-331.61 153.96,-691.93 -87.34,-65.93 -588.23,-124.82 -665.9,-109.99 -73.28,14 33.19,257.92 -116.04,365.46 -308.67,222.46 -123.33,653.38 -295.01,749.44 -114.3,63.96 -177.02,14.75 -328.91,38.74l-27.2 -38.33z"></path> <path class="fil4 str2" d="M4472.34 9231.39c198.07,897.29 -527.75,1055.38 -1041.03,567.66 -427.72,-406.42 756.78,-1855.39 1041.03,-567.66z"></path> <path class="fil5 str2" d="M2547.89 9347.97c53.4,151.57 -146.57,437.26 -226.95,757.38 -68.79,273.95 216.47,650.15 159.12,956.37 -42.4,226.44 -227.7,394.3 -330.57,619.52 -81.81,179.08 -84.66,430.32 -114.94,518.92 -160.3,468.89 -572.79,287.17 -650.65,-117.16 -108.14,-561.57 119.8,-902.59 216.38,-1256.36 64.6,-236.7 47.25,-510.17 92.57,-737.06 91.12,-456.13 -468.46,-775.11 -134.18,-1226.16 123.18,-166.24 858.73,114.15 989.22,484.54z"></path> <ellipse class="fil6 str0" cx="2702.27" cy="8980.28" rx="2496.44" ry="2710.11"></ellipse> <ellipse class="fil6 str0" cx="9079.45" cy="8980.28" rx="2496.44" ry="2710.11"></ellipse> <path class="fil6 str0" d="M5132.96 9510.22c24.97,-21.86 151.6,-111.86 176.19,-129.62 463.02,-334.59 864.32,29.42 1316.08,185.78"></path> <path class="fil7 str2" d="M10060.52 12752.52c-23.52,-151.12 -347.27,-100.71 -727.27,-20.22 -270.39,57.27 -394.16,260.81 -583.97,347.91 -252.18,115.72 -483.3,120 -526.63,218.76 -138.46,315.53 -56.2,420.76 -213.65,999.18 -20.65,75.88 -17.46,439.06 -53.21,584.09 -120.91,490.41 58.41,1363.04 332.21,1414.45 184.19,34.6 -36.75,1594.23 424.6,1554.86 454.17,-38.78 219.05,-1199.82 384.46,-1587.98 341.35,-801 -248.57,-855.94 -32.66,-1529.97 23.17,-72.38 -299.28,-270.63 -72,-660.81 263.67,-452.66 1135.47,-887.59 1068.12,-1320.26z"></path> <path class="fil8 str2" d="M10071.94 14363.06c-446.53,305.5 -1234.91,460.98 -987.27,-113.43 33.79,-78.37 706.18,-495.61 756.37,-742.63 65.89,-324.24 38.4,-318.76 145.29,-428.04 39.52,-40.39 738.28,837.55 85.61,1284.11z"></path> <path class="fil5 str2" d="M10129.15 15482.29c-13.45,412.86 -657.63,1064.42 -837.9,312.61 -10.83,-45.15 -58.79,-152.23 -144.01,-265.3 -111.86,-148.44 -129.25,-133.55 -105.13,-223.39 23.05,-85.87 1092.47,10.16 1087.03,176.08z"></path> <path class="fil1 str3" d="M9479.87 14017.01c211.28,103.81 306.94,223.56 104.11,469.53 167.79,1.83 505.29,212.16 272.91,595.59 439.86,-36.7 542.65,309.42 417.75,515.29 106.74,-86.06 562.5,-108.5 558.25,250.8 47.45,-151.82 266.89,-333.72 479.39,-89.84 83.01,-319.19 356.49,-356.91 532.48,-256.63 9.51,-275.75 534.54,-419.12 646.81,-89.66 380.24,-228.59 539.84,199.57 459.74,292.55 338.9,-44.76 438.35,454.5 244.27,545.63 193.53,172.55 180.23,568.98 55.42,603.07 -139.68,38.15 -557.17,-209.04 -451.02,-446.35 -88.7,23.37 -447.28,-172.01 -247.12,-365.72 -306.99,255.22 -475.22,-15.73 -516.71,-39.43 72.46,302.51 -395.14,479.1 -575.97,275.16 -50.21,358.13 -459.57,481.44 -769.74,157.11 -220.05,241.85 -815.33,-42.53 -764.08,-403.39 -180.71,54.68 -624.39,-208.9 -476.12,-621.56 -251.9,-25.48 -585,-238.27 -388.31,-636.58 -239.82,-53.86 -513.97,-363.79 -262.11,-644.38 147.88,-164.74 526.3,-186.75 680.04,-111.2z"></path> <path class="fil4 str2" d="M8881.7 14922.23c182.42,632.65 -329.43,778.69 -718.63,453.24 -324.34,-271.2 456.84,-1361.17 718.63,-453.24z"></path> <path class="fil4 str2" d="M8862.15 13425.84c203.07,470.43 419.86,631.56 222.51,823.79 -152.02,148.09 -604.52,275.49 -821.28,217.87 -254.71,-67.73 -401.76,-552.4 -360.1,-874.89 14,-108.43 254.66,-353.02 525.28,-470.85 217.39,-94.65 340.72,88.94 433.59,304.08z"></path> <path class="fil6 str1" d="M3428.34 2138.79c-468.16,409.17 -570.12,145.88 -873.2,309.31 -94.99,51.21 99.28,161 -45.42,347.97 -69.45,89.75 -16.76,317.78 265.72,266.96 386.71,-69.57 271.94,420.73 739.21,14.11 88.01,-76.58 157.04,-59.83 264.81,-59.83"></path> <path class="fil6 str1" d="M4069.46 2437.36c133.28,-43.98 491.03,-277.97 588.84,102.79 54.94,213.86 -362.31,242.08 103.73,396.45 183.68,60.84 -40.53,494.51 445.86,276.79 153.29,-68.62 638.62,352.85 622.9,-100.04 -16.66,-479.99 1650.34,479.03 707.91,-698.4 -100.64,-125.74 -185.2,-360.87 -518.88,-182.58 -174.54,93.27 -118.32,283.66 -689.19,224.62 -22.72,-43.91 -261.2,-259.21 -57.38,-402.58 196.82,-138.45 -753.33,-467.83 -820.52,-367.92 -6.41,-0.44 -292.8,-521.83 107.09,-559.39 143.42,-13.47 219.56,-733.89 786.77,-65.37 226.79,267.29 114.8,215.72 452,215.72"></path> <path class="fil6 str1" d="M6399.99 1277.46c472.7,0 547.3,-489.84 1009.55,160.18 34.27,48.19 -14.04,202.99 96.65,269.41 0,210.08 -691.08,-38.8 -206.82,474.09 280.81,297.42 -94.62,740.87 565.53,591.92 122.16,-27.56 324.84,100.97 272.17,-287.83 -8.75,-64.67 -18.72,-51.12 -18.72,-123.05"></path> <path class="fil1 str3" d="M3372.82 2174.18c-139.81,117.16 -254.66,147.39 -365.35,-73.46 -53.91,118.32 -308.77,291.52 -507.62,6.64 -111.91,323.19 -389.4,287.51 -496.12,134.45 27.52,102.63 -99.49,432.61 -352.76,316.95 92.71,81.23 152.8,293.75 -86.64,367.87 200.16,158.9 141.14,364.51 14.89,457.78 192.42,93.19 129.4,510.2 -139.27,486.44 42.77,341.13 -310.67,319.96 -351.44,234.04 -74.55,254.2 -459.51,168.13 -463.23,2.02 -182.95,83.04 -459.69,-50.69 -444.71,-149.83 16.77,-110.94 322.82,-329.26 457.7,-179.64 11.25,-70.18 262.13,-263.01 336.64,-60.45 -84.61,-297.56 160.14,-331.81 189.95,-353.78 -237.08,-43.5 -215.6,-430.22 -14.4,-494.41 -238.02,-147.87 -197.04,-476.61 130.03,-594.71 -102.38,-231.77 285.78,-564.41 525.43,-414.95 17.91,-145.2 343.8,-376.95 589.72,-142.5 97.04,-170.51 352.26,-339.82 572.83,-75.54 113.36,-153.06 418.94,-250.15 538.8,16.3 70.38,156.45 -32.68,431.49 -134.43,516.76z"></path> <path class="fil9 str2" d="M8094.2 3622c347.8,113.78 748.87,-534.27 1114.02,-358.01 459.58,295.71 -102.77,587.59 107.83,945.73 177.72,302.23 332.3,559.4 37.42,761.34 -146.24,100.15 -259.77,121.19 -336.38,265.88 -89.2,168.45 -640.05,-378.42 -479.92,229.36 44.76,169.9 -365.67,909.64 -484.86,498.98 -95.14,-327.76 84.48,-412.65 -36.01,-811.98 -53.46,-177.18 272.05,-378.65 -7.05,-1152.52 -53.74,-148.99 -12.15,-410.52 84.94,-378.77z"></path> <path class="fil5 str2" d="M7920.3 15262.43c-761.63,-267.32 -425.78,-540.91 -505.36,-780.52 -66.47,-200.06 -107.9,-256.09 -53.19,-407.9 54.89,-152.29 356.43,2.03 606.46,-238.15 17.66,-16.94 66.28,108.31 146.67,493.63 44.2,211.88 -59.31,299.59 -129.82,438.64 -85.58,168.79 37.52,530.2 -64.76,494.31z"></path> </g> </g> </svg> 