<?xml version="1.0" encoding="UTF-8"?> <svg xmlns="http://www.w3.org/2000/svg" xmlns:xlink="http://www.w3.org/1999/xlink" xmlns:xodm="http://www.corel.com/coreldraw/odm/2003" xml:space="preserve" width="107.594mm" height="173.331mm" version="1.1" style="shape-rendering:geometricPrecision; text-rendering:geometricPrecision; image-rendering:optimizeQuality; fill-rule:evenodd; clip-rule:evenodd" viewBox="0 0 9448.3 15220.93"> <defs> <style type="text/css"> .str1 {stroke:black;stroke-width:247.83;stroke-miterlimit:22.9256} .str2 {stroke:#806D4F;stroke-width:92.93;stroke-miterlimit:22.9256} .str7 {stroke:black;stroke-width:185.88;stroke-miterlimit:22.9256} .str0 {stroke:black;stroke-width:309.79;stroke-miterlimit:22.9256} .str3 {stroke:black;stroke-width:247.83;stroke-linecap:round;stroke-linejoin:round;stroke-miterlimit:22.9256} .str6 {stroke:black;stroke-width:185.88;stroke-linecap:round;stroke-linejoin:round;stroke-miterlimit:22.9256} .str5 {stroke:#E968BA;stroke-width:135.8;stroke-linecap:round;stroke-linejoin:round;stroke-miterlimit:22.9256} .str4 {stroke:#E968BA;stroke-width:135.8;stroke-linecap:round;stroke-linejoin:round;stroke-miterlimit:22.9256} .fil4 {fill:none} .fil2 {fill:#97A85E} .fil0 {fill:#BDA98C} .fil3 {fill:#FF99CC} .fil1 {fill:black;fill-rule:nonzero} </style> <clipPath id="id0"> <path d="M1361.18 2624.97c856.05,601.12 2020.25,1539.18 2914.3,2343.57 323.02,419.51 386.24,1013.61 -76.28,1361.64 -762.27,573.58 -1420.92,180.26 -1607.7,78.61 -287.41,-154.49 -1055.89,-3192.01 -1230.32,-3783.82z"></path> </clipPath> </defs> <g id="Слой_x0020_1"> <metadata id="CorelCorpID_0Corel-Layer"></metadata> <g> <path class="fil0" d="M3600.93 14976.93c636.86,-857.67 559.31,-553.84 644.78,-1686.59 15.54,-206.01 523.73,-1934.99 538.47,-1942.64 428.91,-222.62 1226.09,196.07 650.77,1262.97 -462.56,857.79 212.7,2366.26 -780.53,2366.26 -330.11,0 -864.25,202.61 -1053.5,0z"></path> <path id="_1" class="fil1" d="M4091.24 13278.83l308.93 23.04 0 0.01 -7.53 101.7 -6.75 93.86 -6.13 86.59 -5.67 79.84 -5.38 73.63 -5.27 67.97 -5.32 62.89 -5.55 58.35 -5.99 54.45 -6.64 51.09 -7.51 48.3 -8.63 46.01 -9.98 44.14 -11.6 42.67 -13.4 41.36 -15.3 40.21 -17.26 39.19 -19.18 38.32 -21.07 37.66 -22.88 37.35 -24.75 37.51 -26.69 38.16 -28.78 39.41 -31.04 41.23 -33.52 43.67 -36.24 46.66 -39.17 50.26 -42.33 54.38 -45.7 59.07 -49.28 64.29 -53.06 70.01 -57.04 76.29 -249.22 -182.99 58.24 -77.87 54.16 -71.49 50.23 -65.52 46.38 -59.97 42.68 -54.84 39.08 -50.13 35.56 -45.8 32.15 -41.86 28.83 -38.3 25.62 -35.07 22.54 -32.22 19.64 -29.73 16.98 -27.69 14.62 -26.14 12.63 -25.19 11 -24.98 9.73 -25.56 8.73 -26.98 7.93 -29.2 7.26 -32.18 6.7 -35.73 6.17 -39.81 5.76 -44.35 5.41 -49.25 5.2 -54.56 5.09 -60.22 5.13 -66.25 5.31 -72.68 5.66 -79.49 6.13 -86.73 6.79 -94.37 7.59 -102.44 0 0.01zm0 -0.01c6.4,-84.83 80.75,-148.43 166.06,-142.07 85.3,6.37 149.28,80.3 142.87,165.13l-308.93 -23.06zm621.26 -2067.66l143.35 273.1 0.07 -0.04 69.43 -74.03 -2.99 8.36 -7.21 21.59 -9.97 31.07 -12.3 39.24 -14.36 46.6 -16.23 53.25 -17.86 59.26 -19.34 64.67 -20.61 69.42 -21.71 73.6 -22.61 77.14 -23.34 80.12 -23.89 82.48 -24.25 84.24 -24.43 85.42 -24.42 85.98 -24.25 85.94 -23.88 85.31 -23.33 84.07 -22.59 82.24 -21.68 79.79 -20.58 76.73 -19.3 73.06 -17.83 68.77 -16.17 63.81 -14.3 58.17 -12.23 51.84 -9.95 44.64 -7.42 36.36 -4.59 26.29 -1.57 12.21 -308.93 -23.04 4.17 -35.13 6.56 -37.72 8.79 -43.13 10.93 -49.11 12.99 -55.03 14.89 -60.59 16.64 -65.68 18.21 -70.24 19.62 -74.31 20.86 -77.79 21.93 -80.68 22.82 -83.03 23.53 -84.78 24.05 -85.93 24.4 -86.52 24.58 -86.51 24.57 -85.93 24.39 -84.73 24.03 -82.96 23.48 -80.6 22.75 -77.64 21.85 -74.11 20.79 -69.98 19.51 -65.26 18.09 -60.01 16.49 -54.15 14.73 -47.76 12.81 -40.89 10.81 -33.65 8.86 -26.51 8.03 -21.94 75.03 -85.36 0.07 -0.04zm-0.07 0.04c75.81,-39.39 169.4,-10.21 209.02,65.18 39.62,75.39 10.27,168.46 -65.54,207.86l-143.49 -273.03zm859.02 1472.27l-273.01 -145.58 0 0 46.64 -91.59 39 -87.07 31.77 -82.56 24.97 -78.01 18.58 -73.43 12.65 -68.86 7.17 -64.31 2.17 -59.81 -2.36 -55.4 -6.45 -51.17 -10.12 -47.12 -13.39 -43.28 -16.36 -39.7 -19.03 -36.36 -21.51 -33.23 -23.77 -30.29 -25.88 -27.45 -27.84 -24.72 -29.64 -22.04 -31.22 -19.35 -32.58 -16.62 -33.72 -13.88 -34.58 -11.11 -35.13 -8.3 -35.35 -5.48 -35.24 -2.65 -34.84 0.13 -34.05 2.87 -32.93 5.54 -31.57 8.11 -29.9 10.56 -28.1 12.94 -143.35 -273.1 54.37 -25.05 56.24 -19.89 57.63 -14.84 58.66 -9.88 59.31 -5.01 59.65 -0.24 59.72 4.5 59.49 9.22 58.92 13.94 58.05 18.66 56.85 23.42 55.29 28.23 53.31 33.06 50.92 37.9 48.12 42.77 44.83 47.6 41.05 52.33 36.8 56.94 32.11 61.36 26.99 65.59 21.52 69.58 15.72 73.29 9.69 76.83 3.42 80.17 -3.03 83.33 -9.63 86.42 -16.44 89.46 -23.39 92.45 -30.54 95.45 -37.9 98.51 -45.5 101.57 -53.29 104.66 0 0zm0 0c-40.42,74.97 -134.32,103.15 -209.71,62.95 -75.39,-40.19 -103.73,-133.57 -63.31,-208.53l273.01 145.58zm-917.03 2447.49l0 -308.05 0 0 72.44 -3.55 60.71 -9.8 50.16 -14.85 41.26 -18.94 34.5 -22.74 29.85 -27.05 26.62 -32.4 24.05 -38.83 21.52 -45.91 18.79 -53.1 15.86 -59.99 12.9 -66.44 10.05 -72.29 7.42 -77.49 5.1 -82.15 3.21 -86.22 1.73 -89.75 0.71 -92.82 0.21 -95.41 0.19 -97.54 0.7 -99.28 1.75 -100.6 3.34 -101.55 5.48 -102.14 8.2 -102.35 11.52 -102.22 15.46 -101.73 20.06 -100.92 25.35 -99.72 31.35 -98.09 38.08 -95.99 45.45 -93.17 273.01 145.58 -34.77 71.34 -29.86 75.37 -25.31 79.3 -21.05 82.93 -17.11 86.2 -13.51 89.03 -10.29 91.45 -7.48 93.41 -5.08 94.92 -3.14 96.02 -1.68 96.67 -0.68 96.93 -0.19 96.81 -0.21 96.27 -0.75 95.44 -1.82 94.25 -3.46 92.77 -5.68 91.02 -8.54 89.06 -12.12 86.88 -16.47 84.53 -21.76 81.98 -28.12 79.13 -35.68 75.75 -44.48 71.48 -54.28 65.76 -64.43 58.19 -74.18 48.78 -82.88 38.05 -90.45 26.84 -97.39 15.79 -104.19 5.16 0 0zm0 0c-85.54,0 -154.9,-68.96 -154.9,-154.03 0,-85.07 69.36,-154.03 154.9,-154.03l0 308.05zm-1178.11 -245.52l249.22 182.99 -11.12 -196.32 5.73 5.42 6.9 5.17 8.7 5.16 11.05 5.15 13.62 4.97 16.27 4.51 18.92 3.87 21.4 3.06 23.74 2.14 25.85 1.16 27.77 0.17 29.46 -0.82 30.99 -1.76 32.35 -2.63 33.49 -3.43 34.55 -4.14 35.42 -4.76 36.14 -5.28 36.77 -5.7 37.28 -6.02 37.64 -6.22 37.94 -6.33 38.15 -6.31 38.22 -6.17 38.22 -5.95 38.18 -5.6 38.06 -5.11 37.89 -4.52 37.69 -3.78 37.46 -2.92 37.25 -1.88 36.92 -0.66 0 308.05 -26.13 0.48 -28.01 1.42 -29.77 2.32 -31.33 3.15 -32.73 3.91 -33.93 4.57 -35 5.13 -35.95 5.59 -36.72 5.95 -37.39 6.19 -37.97 6.33 -38.45 6.36 -38.81 6.25 -39.07 6.07 -39.29 5.73 -39.38 5.29 -39.42 4.72 -39.45 4.03 -39.38 3.19 -39.3 2.23 -39.21 1.06 -39.06 -0.24 -38.95 -1.77 -38.82 -3.53 -38.73 -5.58 -38.59 -7.96 -38.4 -10.73 -38 -13.93 -37.36 -17.58 -36.24 -21.67 -34.41 -25.95 -31.75 -30.23 -11.12 -196.32zm11.12 196.32c-58.21,-62.32 -54.59,-159.8 8.08,-217.68 62.67,-57.89 160.69,-54.29 218.9,8.03l-226.98 209.65z"></path> </g> <path class="fil0 str0" d="M5333.83 929.99c2432.26,292.74 3868.88,3437.47 3488.17,6600.67 -380.71,3163.2 -1742.43,4396.97 -4174.69,4104.23 -2432.26,-292.74 -3047.41,-3338.6 -2666.7,-6501.79 380.72,-3163.2 920.96,-4495.85 3353.22,-4203.11z"></path> <path class="fil2 str1" d="M5216.03 327.81c-1534.73,-519.2 -2605.35,315.8 -3066.42,1281.38 -144.69,303.04 -502.88,1373.55 -545.34,1645.44 -46.04,294.78 4.36,525.01 296.84,515.25 1047.24,-34.95 470.38,218.01 1260.31,-1424.09 197.09,-409.71 298.6,-350.95 294.66,-164.45 -5.89,278.1 -318.75,1645.65 -65.53,1721.88 228.47,68.77 979.51,206.35 979.51,-385.95 0,-277.1 127.35,-2270.7 389.18,-935.01 208.47,1063.43 -331.81,1533.25 967.26,1449.79 522.96,-33.6 16.88,-2857.62 503.92,-1611.41 129.98,332.59 114.94,1546.02 455.93,1546.02 1315.53,0 783.4,-3.1 643.5,-1402.73 -10.74,-107.45 -91.34,-765.47 178.78,-381.68 394.37,560.31 439.76,1362.24 661.35,1615.94 75.68,86.65 184.38,135.87 354.55,135.87 1231.87,0 775.39,-392.2 377.72,-1767 -655.95,-2267.61 -2868.27,-2231.43 -3686.22,-1839.27z"></path> <path class="fil3 str1" d="M2805.49 4686.67c327.74,-118.08 487.71,-654.65 1381.93,-279.91 325.19,136.3 767.22,538.42 753.02,909.19 -14.64,381.77 -151.37,315.22 4.81,853.22 76.93,264.99 -193.46,513.48 -317.84,965.22 -158.07,574.08 -241.73,1052.49 -638.16,939.63 -374.04,-106.51 -256.58,-660.96 -508.06,-693.25 -101.93,-13.08 -331.79,277.29 -546.03,257.18 -267.22,-25.1 -444.73,-532.42 -511.58,-606.52 -246.24,-273.02 -267.74,-673.77 -344.88,-836.3 -450.97,-936.39 194.41,-1261.41 726.79,-1508.46z"></path> <path class="fil0" d="M1361.18 2624.97c856.05,601.12 2020.25,1539.18 2914.3,2343.57 323.02,419.51 386.24,1013.61 -76.28,1361.64 -762.27,573.58 -1420.92,180.26 -1607.7,78.61 -287.41,-154.49 -1055.89,-3192.01 -1230.32,-3783.82z"></path> <g style="clip-path:url(#id0)"> <g id="_105553463177472"> <path id="_1_0" class="fil4 str2" d="M2124.5 3107.73c34.19,188.26 -138.49,778.69 -289.84,1045.21"></path> <path class="fil4 str2" d="M2543.37 3440.62c-66.31,406.55 -265.59,1066.2 -536.09,1515.34"></path> <path class="fil4 str2" d="M2956.27 3788.86c-32.7,421.94 -527.45,1522.82 -716.78,1712.29"></path> <path class="fil4 str2" d="M3383.44 4149.04c-77.07,604.38 -627.38,1664.11 -987.48,1922.89"></path> <path class="fil4 str2" d="M3819.29 4526.09c-150.43,662.28 -540.27,1468.02 -1055.08,1915.85"></path> <path class="fil4 str2" d="M4220.92 4905.07c-83.49,618.46 -574.73,1309.86 -1046.83,1656.25"></path> <path class="fil4 str2" d="M1871.75 2946.14c-32.87,150.19 -108.11,466.02 -233.99,616.45"></path> <path class="fil4 str2" d="M2154.6 3128.77c-169.36,83.56 -357.46,121 -537.41,137.24"></path> <path class="fil4 str2" d="M2497.66 3400.96c-48.1,-11.42 -635.77,192.28 -859.9,161.62"></path> <path class="fil4 str2" d="M2833.87 3686.18c-254.47,114.63 -708,234.01 -1092.5,278.26"></path> <path class="fil4 str2" d="M3216.53 4007.69c-442.23,167.94 -821.98,286.56 -1335.42,351.95"></path> <path class="fil4 str2" d="M3632.96 4362.99c-192.86,78.37 -1138.79,323.59 -1690.9,366.49"></path> <path class="fil4 str2" d="M4061.91 4746.89c-370.51,114.92 -1409.63,387.34 -1940.89,410.61"></path> <path class="fil4 str2" d="M4372.86 5113.08c-367.41,206.86 -1602.47,442.63 -1985.37,442.63 -38.81,0 -77.61,0 -116.42,0"></path> <path class="fil4 str2" d="M4517.17 5477.95c-371.91,240.29 -1254.08,477.94 -2159.53,366.32"></path> <path class="fil4 str2" d="M4482.27 5989.91c-948.88,309.11 -1220.17,324.33 -2037.29,288.31"></path> </g> </g> <path class="fil4 str3" d="M1361.18 2624.97c856.05,601.12 2020.25,1539.18 2914.3,2343.57 323.02,419.51 386.24,1013.61 -76.28,1361.64 -762.27,573.58 -1420.92,180.26 -1607.7,78.61 -287.41,-154.49 -1055.89,-3192.01 -1230.32,-3783.82z"></path> <path class="fil3 str1" d="M7952.98 5050.98c-287.59,-103.62 -427.97,-574.45 -1212.63,-245.62 -285.36,119.6 -673.22,472.48 -660.78,797.81 12.83,334.98 -351.63,400.35 -290.5,955.74 30.96,281.24 410.61,503.45 528.57,935.07 138.7,503.75 242.38,925.47 590.23,826.43 328.21,-93.45 332.4,-721.7 553.06,-750.02 89.44,-11.48 137.18,482.24 410.2,466.94 292.5,-16.4 388.19,-509.4 514.17,-894.95 71.07,-217.51 140.29,-517.08 214.21,-748.83 262.31,-822.43 -179.38,-1125.8 -646.54,-1342.58z"></path> <path class="fil3 str1" d="M8051.99 4887.89c-287.59,-103.62 -561.96,-498.72 -1346.6,-169.89 -792.05,331.95 -637.07,558.33 -769.85,1015.71 -67.51,232.5 72.91,604.12 182.07,1000.52 233.57,362.73 1217.15,537.49 1635.05,388.82 768.37,-273.32 602.71,-375.13 873.04,-944.66 395.72,-821.66 -106.54,-1073.71 -573.71,-1290.51z"></path> <path class="fil4 str4" d="M6893.88 5746.81c201.42,-229.36 328.98,-135.96 555.93,-200.94"></path> <path class="fil4 str4" d="M8044.01 5551.7c72.55,196.66 6.94,453.72 -167.48,545.21"></path> <path class="fil4 str5" d="M7187.77 6360.9c-248.64,-65.3 -530.96,61.65 -571.51,-131.09"></path> <path class="fil3 str6" d="M1484.44 4996.5c-1079.11,-807.14 -1466.1,93.84 -881.53,286.26 320.14,105.38 556.41,-184.53 881.53,-286.26z"></path> <path class="fil3 str6" d="M881.42 6358.21c-1004.48,-119.7 -917.89,611.27 -465.64,516.96 247.67,-51.65 292.47,-328.8 465.64,-516.96z"></path> <path class="fil3 str7" d="M7809.61 11944.35c606.8,143.28 226.4,-719.37 46.18,-671.41 -189.69,50.48 -433.92,579.87 -46.18,671.41z"></path> <path class="fil3 str7" d="M6706.57 9907.97c606.8,143.28 226.4,-719.37 46.18,-671.41 -189.69,50.48 -433.92,579.87 -46.18,671.41z"></path> </g> </svg> 