<?xml version="1.0" encoding="UTF-8"?> <svg xmlns="http://www.w3.org/2000/svg" xmlns:xlink="http://www.w3.org/1999/xlink" xmlns:xodm="http://www.corel.com/coreldraw/odm/2003" xml:space="preserve" width="118.536mm" height="188.062mm" version="1.1" style="shape-rendering:geometricPrecision; text-rendering:geometricPrecision; image-rendering:optimizeQuality; fill-rule:evenodd; clip-rule:evenodd" viewBox="0 0 12172.22 19311.66"> <defs> <style type="text/css"> .str1 {stroke:black;stroke-width:362.26;stroke-miterlimit:22.9256} .str9 {stroke:black;stroke-width:362.26;stroke-linecap:round;stroke-linejoin:round;stroke-miterlimit:22.9256} .str6 {stroke:black;stroke-width:257.94;stroke-linecap:round;stroke-linejoin:round;stroke-miterlimit:22.9256} .str7 {stroke:black;stroke-width:171.97;stroke-linecap:round;stroke-linejoin:round;stroke-miterlimit:22.9256} .str8 {stroke:black;stroke-width:171.97;stroke-linecap:round;stroke-linejoin:round;stroke-miterlimit:22.9256} .str0 {stroke:black;stroke-width:362.26;stroke-linecap:round;stroke-linejoin:round;stroke-miterlimit:22.9256} .str3 {stroke:black;stroke-width:343.93;stroke-linecap:round;stroke-linejoin:round;stroke-miterlimit:22.9256} .str2 {stroke:black;stroke-width:343.93;stroke-linecap:round;stroke-linejoin:round;stroke-miterlimit:22.9256} .str5 {stroke:black;stroke-width:343.93;stroke-linecap:round;stroke-linejoin:round;stroke-miterlimit:22.9256} .str4 {stroke:black;stroke-width:317.97;stroke-linecap:round;stroke-linejoin:round;stroke-miterlimit:22.9256} .fil5 {fill:none} .fil8 {fill:black} .fil4 {fill:#1A1A1A} .fil9 {fill:#A6090F} .fil1 {fill:#BDA98C} .fil7 {fill:#BEA98C} .fil6 {fill:#CCCCCC} .fil10 {fill:yellow} .fil3 {fill:white} .fil0 {fill:white} .fil2 {fill:black;fill-rule:nonzero} </style> </defs> <g id="Слой_x0020_1"> <metadata id="CorelCorpID_0Corel-Layer"></metadata> <path class="fil0 str0" d="M11592.57 16976c1527.38,-11190.07 -1602.75,-15883.58 -4749.12,-15308.06 -3885.97,-715.58 -7826.19,565.61 -6343.67,15211.06 20.6,203.49 1364,69.87 2566.37,125.33 215.11,9.92 637.05,-999.07 737.7,-1088.94 175.55,-156.76 627.75,979.73 815.73,983.6 763.23,15.74 2163.33,21.84 2918.14,15.08 279.83,-2.5 336.96,-1109.9 502.01,-1101.93 251.14,-66.75 468.34,814.86 804.8,1214.89 432.65,32.56 2747.41,-46.36 2748.04,-51.04z"></path> <g> <path class="fil1" d="M3846.75 19026.33c744.73,-1002.94 654.04,-647.64 753.99,-1972.25 18.18,-240.91 612.44,-2262.72 629.67,-2271.68 501.56,-260.32 1433.76,229.28 761,1476.88 -540.91,1003.07 248.73,2767.04 -912.73,2767.04 -386.02,0 -1010.63,236.93 -1231.93,0z"></path> <path id="_1" class="fil2" d="M4420.12 17040.61l361.25 26.95 0 0.01 -8.81 118.92 -7.9 109.76 -7.17 101.26 -6.63 93.36 -6.29 86.1 -6.16 79.48 -6.22 73.54 -6.49 68.24 -7 63.68 -7.76 59.74 -8.78 56.48 -10.09 53.8 -11.68 51.62 -13.57 49.9 -15.67 48.37 -17.89 47.02 -20.18 45.83 -22.43 44.81 -24.63 44.04 -26.76 43.67 -28.95 43.87 -31.21 44.62 -33.65 46.09 -36.3 48.21 -39.2 51.07 -42.38 54.57 -45.8 58.77 -49.5 63.59 -53.44 69.08 -57.63 75.18 -62.04 81.87 -66.71 89.21 -291.43 -213.98 68.1 -91.06 63.34 -83.6 58.74 -76.62 54.24 -70.13 49.91 -64.13 45.7 -58.62 41.58 -53.56 37.59 -48.95 33.71 -44.78 29.95 -41.01 26.36 -37.68 22.97 -34.77 19.86 -32.38 17.1 -30.57 14.77 -29.45 12.87 -29.21 11.38 -29.89 10.21 -31.55 9.27 -34.14 8.49 -37.64 7.84 -41.78 7.22 -46.56 6.74 -51.86 6.33 -57.6 6.08 -63.8 5.96 -70.42 6 -77.47 6.21 -84.99 6.61 -92.95 7.17 -101.42 7.94 -110.36 8.87 -119.79 0 0.01zm0 -0.01c7.49,-99.2 94.43,-173.57 194.18,-166.13 99.75,7.44 174.56,93.9 167.07,193.09l-361.25 -26.97zm726.48 -2417.87l167.63 319.36 0.08 -0.04 81.18 -86.57 -3.49 9.78 -8.43 25.25 -11.66 36.33 -14.39 45.88 -16.79 54.5 -18.98 62.27 -20.89 69.29 -22.61 75.62 -24.1 81.17 -25.38 86.06 -26.44 90.21 -27.29 93.69 -27.93 96.45 -28.35 98.51 -28.57 99.88 -28.56 100.54 -28.35 100.5 -27.92 99.76 -27.28 98.31 -26.42 96.17 -25.35 93.3 -24.07 89.73 -22.57 85.44 -20.85 80.41 -18.9 74.62 -16.72 68.02 -14.3 60.62 -11.63 52.2 -8.68 42.52 -5.37 30.74 -1.84 14.28 -361.25 -26.95 4.88 -41.09 7.67 -44.11 10.28 -50.43 12.78 -57.43 15.19 -64.35 17.42 -70.85 19.46 -76.8 21.3 -82.14 22.94 -86.89 24.4 -90.96 25.64 -94.35 26.69 -97.09 27.51 -99.13 28.13 -100.48 28.54 -101.18 28.74 -101.16 28.73 -100.48 28.52 -99.08 28.1 -97.01 27.46 -94.25 26.61 -90.79 25.55 -86.66 24.31 -81.83 22.82 -76.32 21.15 -70.18 19.28 -63.32 17.22 -55.85 14.98 -47.81 12.64 -39.35 10.36 -31 9.39 -25.65 87.74 -99.81 0.08 -0.04zm-0.08 0.04c88.65,-46.07 198.09,-11.94 244.43,76.21 46.33,88.16 12.01,197 -76.64,243.06l-167.79 -319.28zm1004.52 1721.64l-319.26 -170.24 0 0 54.54 -107.1 45.6 -101.81 37.15 -96.55 29.2 -91.23 21.73 -85.87 14.79 -80.52 8.39 -75.2 2.54 -69.94 -2.76 -64.79 -7.55 -59.84 -11.83 -55.1 -15.66 -50.61 -19.13 -46.43 -22.25 -42.51 -25.15 -38.86 -27.8 -35.42 -30.26 -32.1 -32.55 -28.91 -34.66 -25.77 -36.51 -22.62 -38.1 -19.44 -39.43 -16.23 -40.44 -12.99 -41.08 -9.7 -41.33 -6.41 -41.21 -3.1 -40.74 0.15 -39.82 3.36 -38.51 6.48 -36.92 9.49 -34.97 12.35 -32.86 15.13 -167.63 -319.36 63.58 -29.3 65.77 -23.26 67.39 -17.35 68.6 -11.55 69.36 -5.86 69.76 -0.28 69.84 5.26 69.57 10.78 68.9 16.3 67.88 21.82 66.48 27.39 64.65 33.01 62.34 38.66 59.55 44.32 56.27 50.02 52.42 55.66 48.01 61.19 43.04 66.58 37.55 71.76 31.56 76.7 25.17 81.36 18.38 85.7 11.33 89.84 3.99 93.74 -3.54 97.44 -11.26 101.05 -19.22 104.61 -27.36 108.11 -35.71 111.62 -44.32 115.19 -53.2 118.78 -62.32 122.38 0 0zm0 0c-47.27,87.66 -157.07,120.62 -245.23,73.62 -88.16,-47 -121.29,-156.19 -74.03,-243.85l319.26 170.24zm-1072.36 2862.04l0 -360.23 0 0 84.71 -4.15 70.99 -11.46 58.66 -17.36 48.24 -22.15 40.35 -26.59 34.9 -31.63 31.12 -37.89 28.13 -45.41 25.17 -53.69 21.98 -62.1 18.55 -70.16 15.08 -77.69 11.75 -84.53 8.68 -90.61 5.97 -96.06 3.76 -100.82 2.02 -104.96 0.83 -108.54 0.25 -111.57 0.23 -114.07 0.82 -116.1 2.04 -117.64 3.9 -118.75 6.41 -119.44 9.59 -119.68 13.47 -119.53 18.08 -118.96 23.45 -118.01 29.65 -116.61 36.66 -114.7 44.53 -112.25 53.15 -108.95 319.26 170.24 -40.66 83.42 -34.91 88.14 -29.59 92.73 -24.61 96.98 -20 100.8 -15.8 104.11 -12.03 106.94 -8.75 109.23 -5.94 111 -3.68 112.28 -1.96 113.04 -0.8 113.35 -0.23 113.2 -0.25 112.58 -0.87 111.6 -2.13 110.21 -4.05 108.48 -6.64 106.44 -9.99 104.15 -14.17 101.6 -19.25 98.85 -25.45 95.87 -32.88 92.53 -41.72 88.58 -52.01 83.59 -63.47 76.89 -75.34 68.04 -86.74 57.04 -96.92 44.49 -105.77 31.39 -113.89 18.46 -121.84 6.04 0 0zm0 0c-100.03,0 -181.13,-80.64 -181.13,-180.11 0,-99.47 81.1,-180.11 181.13,-180.11l0 360.23zm-1377.65 -287.1l291.43 213.98 -13 -229.57 6.7 6.34 8.07 6.05 10.18 6.04 12.92 6.02 15.93 5.81 19.03 5.28 22.12 4.53 25.02 3.58 27.76 2.51 30.23 1.36 32.47 0.2 34.45 -0.95 36.24 -2.05 37.83 -3.07 39.17 -4.02 40.41 -4.85 41.42 -5.57 42.27 -6.17 43 -6.66 43.59 -7.04 44.01 -7.27 44.36 -7.4 44.61 -7.38 44.69 -7.22 44.69 -6.95 44.65 -6.55 44.5 -5.98 44.31 -5.29 44.07 -4.43 43.81 -3.41 43.56 -2.2 43.17 -0.77 0 360.23 -30.56 0.56 -32.76 1.66 -34.81 2.71 -36.64 3.69 -38.27 4.57 -39.68 5.34 -40.93 6 -42.04 6.54 -42.94 6.95 -43.72 7.24 -44.4 7.4 -44.96 7.43 -45.38 7.31 -45.69 7.1 -45.94 6.71 -46.05 6.18 -46.1 5.52 -46.13 4.71 -46.05 3.73 -45.95 2.61 -45.85 1.24 -45.68 -0.28 -45.55 -2.07 -45.4 -4.13 -45.3 -6.52 -45.12 -9.31 -44.91 -12.55 -44.43 -16.29 -43.68 -20.56 -42.38 -25.34 -40.23 -30.34 -37.13 -35.36 -13 -229.57zm13 229.57c-68.07,-72.88 -63.84,-186.86 9.45,-254.55 73.29,-67.69 187.91,-63.48 255.98,9.4l-265.43 245.16z"></path> </g> <path class="fil1 str1" d="M5873.17 2600.19c2844.22,342.32 4524.17,4019.69 4078.98,7718.65 -445.19,3698.96 -2037.56,5141.7 -4881.78,4799.38 -2844.22,-342.32 -3563.56,-3904.07 -3118.37,-7603.02 445.2,-3698.96 1076.95,-5257.33 3921.17,-4915.01z"></path> <path class="fil0 str0" d="M10323.96 7580.38c-216.96,-3142.38 -1111.35,-5940.17 -4257.72,-5364.65 -2813.43,-603.96 -3917.14,1405.35 -4694.31,5029.8 -42.89,200.01 808.99,307.69 2011.36,363.19 215.14,9.92 777.89,-2131.22 878.54,-2221.1 175.56,-156.77 486.89,2111.88 674.88,2115.76 763.24,15.75 2163.32,21.86 2918.14,15.08 279.85,-2.51 200.3,-2242.06 365.35,-2234.09 251.14,-66.75 604.99,1947.02 941.46,2347.05 432.65,32.56 1162.62,-46.25 1162.29,-51.05z"></path> <g id="_105553391232704"> <path class="fil3 str2" d="M5673.85 7039.06c875.49,68.55 1269.75,1900.22 970.38,1884.78 -867.71,-44.77 -2588.35,639.72 -2811.86,588.16 -267.49,-1128.6 436.35,-2583 1841.49,-2472.94z"></path> <path class="fil3 str2" d="M8665.2 6599.64c1378.4,-428.9 1873.94,1338.65 2018.43,1826.2 -40.41,21.69 -168.91,79.71 -593.25,76.32 -578.22,-4.63 -1552.87,20.75 -2124.34,171.19 -252.92,66.58 6.49,-1858.18 699.16,-2073.7z"></path> <path class="fil4 str2" d="M7984.07 10823.28c-1491.55,51.53 -3395.41,365.44 -4690.18,1058.13 -856.51,458.2 -1485.99,2201.16 48.35,2845.46 1456.24,611.48 2627.98,-799.19 4105.97,-1027.13 709.28,-109.43 3269.37,-297.81 3196.18,-1142.87 -87.25,-1007.49 -1370.41,-1778.15 -2660.32,-1733.59z"></path> <path class="fil5 str3" d="M7704.42 7635.3c69.88,633.48 339.11,2774.22 -255.15,2733.25 -165.15,-11.39 -367.12,-250.4 -456.26,-428.6"></path> <path class="fil6 str4" d="M5251.73 6623.64c574.62,136.47 1373.14,435.6 1809.24,634.38 161.11,73.4 1180.03,-883.15 1704.84,-1224.56 817.12,-531.56 1812.89,-947.13 1637.24,-415.54 -50.75,153.54 -632.92,482.26 -1203.75,863.57 -548.47,366.35 -1084.52,786.23 -1239.88,923.98 -860.84,763.16 -528.08,626.66 -1617.99,209.06 -992.58,-380.31 -1316.04,-501.52 -2475.08,-578.94 -104.32,-6.94 -464.56,-33.02 -429.86,-280.54 62.46,-445.36 1454.08,-217.19 1815.23,-131.42z"></path> <path class="fil7 str5" d="M8961.39 10048.53c-874.23,-81.72 -1198.4,-1060.21 -1085.48,-1536.22 934.53,-313.23 2576.25,-208.88 2799.76,-157.32 -134.79,1132.47 -538.47,1803.41 -1714.28,1693.53z"></path> <path class="fil7 str5" d="M5767.35 10361.27c-1019.92,317.31 -1766.07,-213.98 -1934.98,-849.27 -121.84,-458.19 1881.21,-859.24 2862.52,-753.06 252.87,-66.55 -234.93,1386.82 -927.54,1602.33z"></path> <ellipse class="fil8" cx="5025.71" cy="8572.43" rx="184.66" ry="189.88"></ellipse> <ellipse class="fil8" cx="8906.5" cy="8013.16" rx="204.67" ry="210.46"></ellipse> <path class="fil9 str6" d="M5002.69 14690.64c17.48,-1045.38 773.72,-2736.89 2044.5,-2696.4 552.9,17.59 266.84,87.61 -90.45,477.58 -626.12,683.4 -67.77,1163.45 -201.39,1416.73 -366.47,153.38 -1398.95,708.52 -1752.66,802.09z"></path> <path class="fil3 str7" d="M3505.57 11846.56c313.53,522.31 886.32,209.31 754.1,-312.03 163.4,499.28 895.85,563.21 831.53,-231.15 180.82,425.33 928.92,623.55 928.9,-200.06 44.35,286.65 825.45,783.69 998.41,-95.25 152.36,569.74 866.28,498.09 1004.67,-64.15 58.45,353.85 596.55,681.84 927.09,95.54 17.28,354.85 411.68,687.1 639.46,153.58 -396.8,-250.61 -1326.87,-422.31 -1805.7,-368.6 -373.91,41.95 -635.4,29.91 -1005.65,21.74 -268.2,-5.91 -795.73,259.48 -1275.53,250.02 -134.42,-2.66 -773.16,214.58 -1004.7,253.74 -184.21,31.16 -1019.24,352.51 -992.59,496.61z"></path> <path class="fil3 str8" d="M9760.29 13291.12c-96.13,-438.69 -644.75,-513.45 -763.4,91.49 -163.4,-499.28 -820.62,-554.85 -940.26,114.09 -180.82,-425.33 -862.03,-573.4 -928.9,200.06 -203.25,-311.76 -900.73,-516.1 -948.26,295.94 -428.31,-477.75 -816.1,-138.48 -854.15,407.03 -267.5,-320.42 -655.1,-313.96 -810.04,255.62 -17.28,-354.85 -528.75,-394.4 -756.51,139.12 396.8,250.6 1094.18,-50.75 1514.97,-194.89 296.7,-33.29 1650.73,-909.91 2371.22,-895.7 134.42,2.66 806.6,-89.15 1038.14,-128.32 184.21,-31.16 1103.83,-140.34 1077.18,-284.43z"></path> <path class="fil5 str2" d="M7984.07 10823.28c-1491.55,51.53 -3395.41,365.44 -4690.18,1058.13 -856.51,458.2 -1485.99,2201.16 48.35,2845.46 1456.24,611.48 2627.98,-799.19 4105.97,-1027.13 709.28,-109.43 3269.37,-297.81 3196.18,-1142.87 -87.25,-1007.49 -1370.41,-1778.15 -2660.32,-1733.59z"></path> </g> <path class="fil10 str9" d="M2741.89 3925.8c-445.4,-308.12 -1376.56,-1381.66 -1188.61,-1984.74 436.87,-145.25 1546.69,1163.03 1289.09,-257.02 -38.86,-214.19 -61.15,-683.37 115.11,-731.69 477.11,-130.8 1095.36,1003.12 1411.86,623.11 281.48,-337.94 26.7,-1304.74 372.84,-1388.23 465.63,-112.33 723.46,1214.36 1111.49,1204.76 299.04,-7.4 487.2,-938.63 884.73,-763.49 384.6,169.44 -36.6,1762.09 -138.59,2104.33 -101.37,340.19 -3541.6,1144.11 -3857.92,1192.97z"></path> </g> </svg> 