<?xml version="1.0" encoding="UTF-8"?> <svg xmlns="http://www.w3.org/2000/svg" xmlns:xlink="http://www.w3.org/1999/xlink" xmlns:xodm="http://www.corel.com/coreldraw/odm/2003" xml:space="preserve" width="141.214mm" height="199.966mm" version="1.1" style="shape-rendering:geometricPrecision; text-rendering:geometricPrecision; image-rendering:optimizeQuality; fill-rule:evenodd; clip-rule:evenodd" viewBox="0 0 14273.42 20211.91"> <defs> <style type="text/css"> .str1 {stroke:black;stroke-width:356.58;stroke-miterlimit:22.9256} .str2 {stroke:black;stroke-width:213.95;stroke-linecap:round;stroke-linejoin:round;stroke-miterlimit:22.9256} .str0 {stroke:black;stroke-width:356.58;stroke-linecap:round;stroke-linejoin:round;stroke-miterlimit:22.9256} .fil3 {fill:#1C1C1C} .fil4 {fill:#333333} .fil0 {fill:#474747} .fil2 {fill:#B3B3B3} .fil1 {fill:#BEA98C} </style> </defs> <g id="Слой_x0020_1"> <metadata id="CorelCorpID_0Corel-Layer"></metadata> <path class="fil0 str0" d="M7147.17 661.69c-3479.78,-1579.06 -5808.69,907.22 -6406.85,4917.39 -909.64,6098.3 -459.32,10014.13 -389.29,14148.38 443.26,566.04 13483.9,178.75 13484.41,155.42 111.36,-5044.34 833.97,-9732.41 -758.45,-15298.03 -945.71,-3305.35 -3087.76,-5405.54 -5929.82,-3923.15z"></path> <path class="fil1 str1" d="M5013.26 18839.62c733.05,-987.2 643.78,-637.48 742.16,-1941.31 17.89,-237.13 602.83,-2227.22 619.79,-2236.04 493.69,-256.24 1411.26,225.68 749.06,1453.71 -532.42,987.34 244.83,2723.63 -898.41,2723.63 -379.97,0 -994.78,233.21 -1212.61,0z"></path> <path class="fil1 str1" d="M7007.88 2650.98c2799.6,336.95 4453.19,3956.62 4014.98,7597.55 -438.21,3640.93 -2005.59,5061.04 -4805.19,4724.09 -2799.6,-336.95 -3507.65,-3842.82 -3069.44,-7483.74 438.22,-3640.93 1060.05,-5174.85 3859.65,-4837.9z"></path> <path class="fil2 str1" d="M3364.89 5379.9c-933.93,-1262.47 -1044.46,-4804.76 -559.15,-4763.78 348.19,29.4 863.07,1326.44 2517.99,1579.49 -789.97,328.08 -1700.89,1634.86 -1958.84,3184.29z"></path> <path class="fil2 str1" d="M10602.36 5500.4c1035.91,-1446.46 816.42,-5046.59 331.11,-5005.6 -348.16,29.39 -936.19,1543.97 -2561.21,2030.19 -559.01,167.26 1424.36,1088.75 2230.1,2975.4z"></path> <path class="fil0 str0" d="M7239.63 2942.16c4208.02,2303.41 3255.93,10735.51 2518.47,15045.73 4886.82,-7782.05 1348.76,-18625.02 -2861.49,-16156.15 -6152.11,-2013.61 -5711.42,11170.57 -3253.85,15366.96 -381.74,-3701.16 -840.52,-6169.04 -270.8,-8999.36 879.61,-4369.88 3248.26,-4970.34 3867.67,-5257.17z"></path> <path class="fil3" d="M5901.91 8525.92c-6.07,537.93 32.43,897.22 -85.51,1032.27 -108.6,124.37 -128.42,-221.97 -264.2,-190.79 -193.08,44.35 -82.68,-485.98 -311.19,-447.63 -100.58,16.89 -244.98,350.19 -391.49,-21.08 -73.37,-185.92 -219.28,-17.39 -251.96,184.75 -30.12,186.27 -14.89,206.58 -65.37,311.55 -175.7,365.39 87.39,268.57 -56.69,573.48 -138.21,292.51 -296.74,-220.32 -263.38,-351.89 69.72,-274.92 -25.63,-481.94 -44.98,-567.29 -29.12,-128.49 -103.9,-205.92 -198.62,67.84 -74.78,216.13 -160.78,-212.69 -191.37,-409.14 424.67,-278.45 1590.19,-478.15 2124.76,-182.07z"></path> <path class="fil3" d="M8257.73 8584.71c6.11,537.94 -39.77,1014.7 78.17,1149.77 108.61,124.38 128.41,-221.98 264.2,-190.79 133.13,30.59 46.37,-217.79 120.54,-407.28 62.57,-159.87 145.4,-271.3 202.01,-261.79 100.59,16.89 6.51,531.89 391.49,-21.08 114.2,-164.04 219.28,-17.4 251.96,184.75 30.13,186.27 -10.07,418.63 40.42,523.61 175.71,365.4 -47.34,720.17 96.75,1025.09 138.22,292.52 338.95,-239.12 263.38,-351.89 -163.28,-243.61 111.94,-526.6 5.8,-801.05 -52.41,-135.49 72.51,-796.03 222.68,-362.07 74.79,216.15 211.25,-204.35 99.88,-446.22 -50.62,-109.96 -44.79,-157.4 -235.82,-172.75 -197.22,-15.85 -210.52,-61.43 -532.44,-61.43 -217.91,0 -1270.8,37.41 -1269.04,193.15z"></path> <path class="fil4 str2" d="M8257.73 8584.71c-38.16,-148.08 -476.41,-1446.56 -103.79,-1529.83 159.68,-35.69 417.82,594.76 598.29,787.99 383.24,410.34 32.31,-1474.12 488.05,-1261.91 335.44,156.19 76.32,1745.98 496.51,937.73 164.85,-317.09 423.53,-631.33 543.58,-611 96.87,16.41 103.25,261.14 -35.58,715.8 -236.06,773.11 510.59,-323.21 831.22,-329.27 516.06,-9.73 -662.25,1383.01 -780.99,1331.52 -767.8,-332.97 -2029.56,-11.01 -2037.3,-41.04z"></path> <path class="fil4 str2" d="M5901.91 8525.92c-597.14,-266.72 -1527.38,-105.17 -2124.76,182.07 -5.96,2.86 -811.63,-829.15 -477.24,-1103.36 82.76,-67.86 92.31,17.5 244.18,136.84 170,133.62 551.19,512.72 387.38,-6.51 -45.09,-142.93 -182.89,-660.03 4.12,-726.75 188.05,-67.09 418.16,616.99 563.66,815.69 116.63,159.29 183.23,34.14 261.65,-517.03 37.3,-262.19 107.4,-482.03 219.39,-537.57 127.61,-63.26 178.16,114.72 226.53,704.07 24.58,299.54 170.25,497.64 294.14,78.92 55.95,-189.08 231.17,-686.92 423.92,-601.51 136.61,60.53 82.81,926.81 -22.96,1575.14z"></path> </g> </svg> 