<?xml version="1.0" encoding="UTF-8"?> <svg xmlns="http://www.w3.org/2000/svg" xmlns:xlink="http://www.w3.org/1999/xlink" xmlns:xodm="http://www.corel.com/coreldraw/odm/2003" xml:space="preserve" width="83.2975mm" height="164.945mm" version="1.1" style="shape-rendering:geometricPrecision; text-rendering:geometricPrecision; image-rendering:optimizeQuality; fill-rule:evenodd; clip-rule:evenodd" viewBox="0 0 8328.96 16492.9"> <defs> <style type="text/css"> .str0 {stroke:black;stroke-width:352.75;stroke-miterlimit:22.9256} .str1 {stroke:black;stroke-width:352.75;stroke-linecap:round;stroke-linejoin:round;stroke-miterlimit:22.9256} .fil2 {fill:#A60910} .fil0 {fill:#BDA98C} .fil1 {fill:black;fill-rule:nonzero} </style> </defs> <g id="Слой_x0020_1"> <metadata id="CorelCorpID_0Corel-Layer"></metadata> <g> <path class="fil0" d="M2139.44 16215.83c725.17,-976.6 636.86,-630.63 734.19,-1920.45 17.7,-234.58 596.35,-2203.29 613.13,-2212.01 488.38,-253.49 1396.1,223.26 741.01,1438.09 -526.7,976.73 242.2,2694.36 -888.76,2694.36 -375.88,0 -984.09,230.71 -1199.58,0z"></path> <path id="_1" class="fil1" d="M2697.74 14282.38l351.77 26.02 0 0 -8.58 115.81 -7.69 106.88 -6.97 98.6 -6.47 90.91 -6.13 83.83 -5.99 77.39 -6.06 71.59 -6.33 66.42 -6.81 61.98 -7.56 58.14 -8.54 54.95 -9.82 52.33 -11.35 50.21 -13.2 48.54 -15.23 47.04 -17.4 45.72 -19.63 44.58 -21.82 43.59 -23.96 42.86 -26.05 42.5 -28.18 42.69 -30.38 43.44 -32.76 44.87 -35.34 46.94 -38.17 49.72 -41.26 53.14 -44.61 57.22 -48.2 61.92 -52.04 67.26 -56.11 73.2 -60.41 79.73 -64.96 86.87 -284.21 -206.84 66.3 -88.67 61.67 -81.39 57.19 -74.6 52.81 -68.28 48.6 -62.44 44.49 -57.08 40.5 -52.15 36.61 -47.68 32.84 -43.62 29.18 -39.95 25.68 -36.7 22.38 -33.89 19.35 -31.56 16.68 -29.8 14.4 -28.73 12.55 -28.5 11.1 -29.18 9.97 -30.78 9.04 -33.3 8.29 -36.71 7.64 -40.75 7.04 -45.38 6.56 -50.53 6.17 -56.1 5.91 -62.14 5.8 -68.59 5.85 -75.43 6.05 -82.77 6.43 -90.51 6.99 -98.76 7.73 -107.46 8.64 -116.63 0 0zm0 0c7.25,-96.16 91.89,-168.29 189.02,-161.11 97.13,7.18 169.99,90.97 162.74,187.13l-351.77 -26.02zm707.12 -2353.65l163.78 309.29 0.08 -0.04 78.87 -83.98 -3.42 9.58 -8.21 24.6 -11.37 35.39 -14 44.69 -16.36 53.07 -18.48 60.63 -20.34 67.47 -22.02 73.63 -23.47 79.05 -24.72 83.8 -25.75 87.85 -26.58 91.23 -27.2 93.92 -27.61 95.92 -27.82 97.26 -27.81 97.9 -27.61 97.87 -27.19 97.14 -26.58 95.74 -25.73 93.64 -24.69 90.85 -23.44 87.37 -21.98 83.2 -20.3 78.31 -18.42 72.66 -16.28 66.25 -13.93 59.03 -11.33 50.85 -8.46 41.44 -5.25 30 -1.8 14.03 -351.77 -26.02 4.74 -39.89 7.45 -42.9 10 -49.08 12.45 -55.9 14.79 -62.65 16.96 -68.97 18.94 -74.78 20.74 -79.97 22.34 -84.6 23.76 -88.57 24.97 -91.87 25.99 -94.54 26.78 -96.52 27.39 -97.84 27.79 -98.51 27.99 -98.5 27.98 -97.84 27.77 -96.48 27.36 -94.46 26.74 -91.77 25.91 -88.39 24.88 -84.38 23.67 -79.67 22.22 -74.31 20.6 -68.33 18.78 -61.65 16.76 -54.37 14.6 -46.55 12.29 -38.31 10.09 -30.18 9.12 -24.92 85.25 -96.88 0.08 -0.04zm-0.08 0.04c86.24,-44.82 192.87,-11.93 238.14,73.45 45.27,85.38 12.05,190.94 -74.19,235.76l-163.94 -309.21zm978.57 1674.93l-311.17 -164.46 0 0 53.12 -104.33 44.44 -99.19 36.2 -94.08 28.46 -88.91 21.18 -83.7 14.43 -78.5 8.17 -73.32 2.48 -68.22 -2.7 -63.21 -7.36 -58.39 -11.54 -53.76 -15.3 -49.42 -18.66 -45.31 -21.72 -41.48 -24.53 -37.91 -27.11 -34.53 -29.5 -31.29 -31.72 -28.18 -33.75 -25.09 -35.54 -22.03 -37.08 -18.92 -38.37 -15.8 -39.34 -12.63 -39.95 -9.44 -40.19 -6.23 -40.07 -3.02 -39.61 0.15 -38.71 3.27 -37.44 6.3 -35.9 9.23 -34.01 12 -31.97 14.72 -163.78 -309.29 61.94 -28.54 64.08 -22.68 65.67 -16.91 66.85 -11.26 67.6 -5.71 67.98 -0.27 68.06 5.12 67.8 10.51 67.14 15.88 66.13 21.27 64.76 26.68 62.97 32.16 60.71 37.65 57.98 43.17 54.77 48.68 51.02 54.16 46.71 59.54 41.87 64.76 36.52 69.79 30.7 74.58 24.46 79.09 17.88 83.34 11.02 87.35 3.88 91.15 -3.44 94.76 -10.97 98.3 -18.69 101.76 -26.62 105.18 -34.76 108.61 -43.14 112.1 -51.78 115.61 -60.66 119.13 0 0zm0 0c-45.87,85.06 -152.73,117.21 -238.65,71.8 -85.92,-45.41 -118.39,-151.21 -72.52,-236.27l311.17 164.46zm-1044.34 2786.75l0 -349.23 0 0 82.4 -4.03 69.04 -11.14 57.02 -16.9 46.94 -21.54 39.28 -25.88 34.02 -30.83 30.37 -36.97 27.44 -44.32 24.56 -52.39 21.44 -60.56 18.09 -68.41 14.71 -75.74 11.45 -82.38 8.45 -88.29 5.82 -93.58 3.66 -98.21 1.97 -102.21 0.81 -105.72 0.24 -108.63 0.22 -111.08 0.8 -113.03 1.99 -114.54 3.8 -115.6 6.23 -116.25 9.35 -116.5 13.11 -116.34 17.6 -115.78 22.83 -114.84 28.84 -113.47 35.67 -111.61 43.33 -109.22 51.73 -106.01 311.17 164.46 -39.63 81.31 -34.03 85.9 -28.85 90.37 -24 94.51 -19.49 98.22 -15.4 101.44 -11.73 104.18 -8.51 106.4 -5.79 108.13 -3.58 109.36 -1.91 110.08 -0.78 110.39 -0.22 110.22 -0.24 109.63 -0.85 108.64 -2.07 107.31 -3.94 105.59 -6.46 103.6 -9.73 101.35 -13.79 98.86 -18.73 96.16 -24.75 93.25 -31.98 90 -40.58 86.14 -50.6 81.29 -61.74 74.8 -73.33 66.22 -84.47 55.55 -94.41 43.36 -103.08 30.58 -110.98 18 -118.72 5.89 0 0zm0 0c-97.4,0 -176.37,-78.18 -176.37,-174.61 0,-96.43 78.97,-174.61 176.37,-174.61l0 349.23zm-1341.68 -278.03l284.21 206.84 -12.61 -221.97 6.54 6.2 7.87 5.89 9.9 5.88 12.54 5.85 15.48 5.64 18.48 5.13 21.5 4.4 24.33 3.48 26.99 2.44 29.41 1.32 31.59 0.18 33.53 -0.92 35.26 -2 36.83 -2.99 38.13 -3.91 39.33 -4.71 40.33 -5.42 41.15 -6.01 41.87 -6.5 42.45 -6.85 42.85 -7.08 43.2 -7.21 43.45 -7.19 43.52 -7.04 43.52 -6.77 43.49 -6.37 43.35 -5.83 43.16 -5.15 42.94 -4.31 42.68 -3.32 42.44 -2.14 42.07 -0.76 0 349.23 -29.73 0.54 -31.88 1.62 -33.88 2.64 -35.66 3.59 -37.26 4.45 -38.63 5.19 -39.85 5.85 -40.94 6.37 -41.82 6.76 -42.57 7.05 -43.24 7.21 -43.79 7.24 -44.19 7.13 -44.49 6.9 -44.75 6.53 -44.85 6.02 -44.91 5.39 -44.93 4.59 -44.85 3.63 -44.78 2.54 -44.67 1.22 -44.51 -0.28 -44.39 -2.02 -44.25 -4.02 -44.15 -6.36 -43.98 -9.08 -43.78 -12.23 -43.3 -15.88 -42.58 -20.03 -41.28 -24.68 -39.17 -29.55 -36.14 -34.4 -12.61 -221.97zm12.61 221.97c-66.12,-70.79 -61.75,-181.28 9.76,-246.75 71.51,-65.46 183.11,-61.14 249.24,9.65l-259 237.1z"></path> </g> <path class="fil0 str0" d="M4112.63 221.13c2769.52,333.33 4405.34,3914.11 3971.84,7515.92 -433.5,3601.81 -1984.04,5006.66 -4753.56,4673.33 -2769.52,-333.33 -3469.96,-3801.53 -3036.46,-7403.33 433.51,-3601.81 1048.66,-5119.24 3818.18,-4785.92zm17.05 1990.04c1865.4,224.51 2967.21,2636.34 2675.23,5062.33 -291.98,2425.99 -1336.34,3372.22 -3201.75,3147.71 -1865.4,-224.52 -2337.18,-2560.52 -2045.21,-4986.5 291.99,-2425.99 706.32,-3448.05 2571.73,-3223.54z"></path> <path class="fil2 str1" d="M4129.68 2211.17c1865.4,224.51 2967.21,2636.34 2675.23,5062.33 -289.52,2405.59 -1318.98,3355.98 -3155.01,3152.91 1288.11,-170.32 2033.08,-1164.41 2272.4,-3152.91 291.54,-2422.35 -806.57,-4830.45 -2666.9,-5061.17 249.61,-41.37 538.29,-41.6 874.28,-1.16z"></path> </g> </svg> 