<?xml version="1.0" encoding="UTF-8"?> <svg xmlns="http://www.w3.org/2000/svg" xmlns:xlink="http://www.w3.org/1999/xlink" xmlns:xodm="http://www.corel.com/coreldraw/odm/2003" xml:space="preserve" width="48.8078mm" height="53.1288mm" version="1.1" style="shape-rendering:geometricPrecision; text-rendering:geometricPrecision; image-rendering:optimizeQuality; fill-rule:evenodd; clip-rule:evenodd" viewBox="0 0 2920.29 3178.82"> <defs> <style type="text/css"> .str0 {stroke:black;stroke-width:159.53;stroke-linecap:round;stroke-linejoin:round;stroke-miterlimit:22.9256} .str1 {stroke:black;stroke-width:106.35;stroke-linecap:round;stroke-linejoin:round;stroke-miterlimit:22.9256} .fil1 {fill:#FF99CC} .fil0 {fill:yellow} .fil3 {fill:white} .fil2 {fill:black;fill-rule:nonzero} </style> </defs> <g id="Слой_x0020_1"> <metadata id="CorelCorpID_0Corel-Layer"></metadata> <g id="_105553392324640"> <path class="fil0 str0" d="M105.43 1684.02c-77.32,409.12 9.96,895.89 400.17,1206.03 359.5,285.74 998.4,275.88 1548.14,-12.81 873.39,-458.66 835.34,-1074.22 119.34,-1415.47 470.66,-109.45 384.81,-894.51 24.39,-1209.25 -303.74,-265.24 -782.98,-229.57 -1130.63,137.78 -299.05,316 -201.32,830.28 120.77,1063.62 95.37,69.1 298.05,60.73 496.48,103.23 -256.45,23.47 -608.72,-179.13 -1080.66,152.57 -110.4,77.59 -257.42,105.46 -497.99,-25.7z"></path> <g> <path class="fil1" d="M2224.94 957.1c204.2,-92.97 142.95,-391.27 157.38,-387.04 215.01,62.87 154.5,2.72 324.51,-68.86 105.6,-44.46 194.04,38.04 157.02,181.41 -43.79,169.59 -193.14,240.77 -306.16,255.11 308.65,-53.01 361.06,186.26 121.24,239.24 -27.31,6.03 -170.04,23.39 -184.77,14.81 -17.3,-10.07 -168.43,-71.87 -269.22,-234.67z"></path> <path id="_1" class="fil2" d="M2392.08 519.06l-19.53 102.01 -0.03 -0.01 46.7 -16.14 7.92 -17.87 0.56 -3.58 -0.05 2.08 0.01 5.19 0.13 7.34 0.21 9.06 0.22 10.55 0.16 11.82 0.04 12.96 -0.16 14 -0.42 14.9 -0.75 15.7 -1.15 16.42 -1.64 17.05 -2.2 17.6 -2.83 18.02 -3.55 18.37 -4.34 18.64 -5.23 18.79 -6.2 18.86 -7.26 18.8 -8.41 18.65 -9.66 18.37 -10.96 17.94 -12.36 17.38 -13.83 16.68 -15.33 15.81 -16.87 14.79 -18.43 13.63 -20 12.33 -21.54 10.9 -40.73 -97.98 15.21 -7.71 13.77 -8.5 12.48 -9.23 11.3 -9.92 10.23 -10.55 9.24 -11.16 8.34 -11.76 7.51 -12.3 6.71 -12.79 5.97 -13.24 5.26 -13.63 4.58 -13.94 3.94 -14.17 3.34 -14.33 2.77 -14.4 2.26 -14.35 1.78 -14.22 1.34 -14 0.96 -13.69 0.63 -13.28 0.36 -12.77 0.13 -12.17 -0.04 -11.52 -0.15 -10.79 -0.21 -10.01 -0.21 -9.24 -0.15 -8.56 0 -8.08 0.32 -8.39 1.44 -11.06 9.44 -22.17 48.98 -17.09 -0.03 -0.01zm0.03 0.01c25.87,7.58 42.46,36.56 37.05,64.73 -5.41,28.16 -30.77,44.84 -56.64,37.26l19.59 -101.99zm295.48 -67.35l38.48 98.97 0.01 -0.01 -14.25 6.22 -12.95 6.08 -11.8 5.95 -10.75 5.79 -9.82 5.64 -9.02 5.49 -8.33 5.34 -7.77 5.2 -7.34 5.07 -7.05 4.99 -6.93 4.92 -6.92 4.86 -7.05 4.78 -7.33 4.7 -7.72 4.54 -8.22 4.3 -8.76 3.94 -9.31 3.45 -9.85 2.85 -10.29 2.15 -10.71 1.45 -11.13 0.73 -11.52 0.04 -12.03 -0.62 -12.59 -1.26 -13.26 -1.87 -14.08 -2.48 -15.01 -3.11 -16.05 -3.72 -17.23 -4.36 -18.51 -5.02 -19.92 -5.69 19.53 -102.01 18.81 5.38 17.17 4.66 15.6 3.94 14.12 3.28 12.65 2.61 11.28 1.99 9.99 1.41 8.72 0.87 7.55 0.39 6.49 -0.02 5.5 -0.36 4.74 -0.64 4.15 -0.87 3.76 -1.09 3.67 -1.37 3.78 -1.71 4.06 -2.14 4.47 -2.64 4.97 -3.19 5.54 -3.76 6.16 -4.32 6.81 -4.84 7.52 -5.31 8.27 -5.73 9.07 -6.06 9.91 -6.35 10.81 -6.58 11.78 -6.77 12.82 -6.9 13.91 -7.01 15.09 -7.09 16.31 -7.12 0.01 -0.01zm-0.01 0.01c24.2,-10.19 52.44,3.7 63.07,31.03 10.63,27.33 -0.38,57.74 -24.57,67.93l-38.5 -98.96zm222.36 247.99l-92.18 -34.21 0 0 2.54 -10.84 1.91 -10.29 1.32 -9.74 0.78 -9.16 0.26 -8.59 -0.19 -8.04 -0.6 -7.42 -0.97 -6.83 -1.3 -6.26 -1.57 -5.73 -1.8 -5.16 -2 -4.66 -2.2 -4.22 -2.35 -3.81 -2.5 -3.42 -2.65 -3.09 -2.84 -2.81 -3.01 -2.53 -3.25 -2.3 -3.51 -2.07 -3.79 -1.82 -4.12 -1.58 -4.44 -1.3 -4.77 -0.99 -5.13 -0.63 -5.51 -0.26 -5.86 0.17 -6.19 0.63 -6.54 1.14 -6.86 1.68 -7.13 2.24 -7.43 2.87 -38.48 -98.97 12.27 -4.73 12.32 -3.88 12.33 -3.01 12.31 -2.14 12.3 -1.26 12.23 -0.35 12.15 0.56 12.04 1.51 11.88 2.45 11.66 3.42 11.38 4.37 11.07 5.34 10.68 6.31 10.22 7.23 9.7 8.16 9.08 9.01 8.43 9.82 7.71 10.58 6.94 11.24 6.14 11.85 5.34 12.42 4.51 12.9 3.66 13.29 2.83 13.67 2 14.03 1.17 14.31 0.35 14.56 -0.45 14.83 -1.27 15.07 -2.07 15.28 -2.88 15.5 -3.67 15.68 0 0zm0 0c-7.12,27.59 -33.54,42.3 -58.99,32.86 -25.45,-9.44 -40.31,-39.48 -33.19,-67.07l92.18 34.21zm-362.21 185.8l19.94 104.4 -18.09 -104.67 9.5 -1.35 9.7 -1.65 9.88 -1.97 10.02 -2.29 10.11 -2.61 10.2 -2.96 10.26 -3.29 10.27 -3.63 10.26 -3.98 10.23 -4.34 10.16 -4.68 10.06 -5.05 9.96 -5.41 9.8 -5.77 9.65 -6.14 9.45 -6.51 9.23 -6.87 9 -7.26 8.74 -7.63 8.47 -8.01 8.16 -8.39 7.84 -8.78 7.51 -9.18 7.15 -9.56 6.78 -9.99 6.4 -10.4 6 -10.83 5.58 -11.27 5.15 -11.74 4.7 -12.22 4.23 -12.72 3.75 -13.26 92.18 34.21 -5.07 17.96 -5.77 17.36 -6.44 16.75 -7.07 16.12 -7.66 15.49 -8.23 14.86 -8.75 14.22 -9.24 13.6 -9.7 12.98 -10.11 12.35 -10.49 11.76 -10.85 11.15 -11.15 10.56 -11.43 9.99 -11.69 9.42 -11.91 8.87 -12.1 8.33 -12.25 7.81 -12.4 7.3 -12.5 6.79 -12.58 6.31 -12.64 5.83 -12.66 5.37 -12.67 4.92 -12.66 4.48 -12.59 4.04 -12.53 3.64 -12.47 3.22 -12.35 2.82 -12.21 2.44 -12.06 2.05 -11.89 1.68 -18.09 -104.67zm18.09 104.67c-26.05,3.3 -50.8,-17.51 -55.29,-46.49 -4.48,-28.98 13,-55.15 39.05,-58.46l16.24 104.95zm125.05 238.58l-23.86 -103.62 -0.01 0 19.01 -4.83 17.15 -5.59 15.32 -6.23 13.5 -6.74 11.72 -7.09 9.93 -7.27 8.2 -7.28 6.55 -7.12 4.99 -6.76 3.57 -6.23 2.35 -5.56 1.34 -4.85 0.57 -4.17 -0.01 -3.68 -0.48 -3.42 -1.02 -3.51 -1.69 -3.84 -2.64 -4.33 -3.83 -4.83 -5.27 -5.21 -6.86 -5.45 -8.57 -5.47 -10.34 -5.28 -12.14 -4.89 -13.95 -4.31 -15.74 -3.56 -17.52 -2.66 -19.27 -1.61 -21.01 -0.42 -22.72 0.87 -24.4 2.29 -26.09 3.82 -19.94 -104.4 30.29 -4.43 28.95 -2.72 27.6 -1.05 26.27 0.53 24.96 2.09 23.64 3.58 22.32 5.06 21.03 6.5 19.74 7.95 18.4 9.4 17.05 10.89 15.6 12.4 14.05 13.96 12.3 15.5 10.31 16.96 8.05 18.25 5.52 19.2 2.82 19.73 0.05 19.75 -2.61 19.36 -5.12 18.6 -7.38 17.61 -9.46 16.53 -11.34 15.39 -13.11 14.25 -14.77 13.13 -16.41 12.01 -17.97 10.88 -19.56 9.76 -21.13 8.6 -22.69 7.4 -24.24 6.16 -0.01 0zm0.01 0c-25.59,5.65 -51.7,-12.96 -58.28,-41.57 -6.59,-28.61 8.82,-56.4 34.41,-62.05l23.87 103.62zm-217.11 9.42l40.81 -92.82 0.02 0.01 -8.06 -3.61 -2.9 -0.75 -0.06 -0.02 1.63 0.14 2.81 0.11 3.76 0.05 4.46 -0.03 5.06 -0.13 5.58 -0.22 6.03 -0.31 6.42 -0.39 6.71 -0.47 6.95 -0.54 7.17 -0.6 7.34 -0.66 7.41 -0.71 7.49 -0.76 7.5 -0.79 7.41 -0.81 7.36 -0.84 7.22 -0.86 7 -0.86 6.8 -0.87 6.51 -0.86 6.17 -0.85 5.78 -0.81 5.35 -0.8 4.85 -0.74 4.28 -0.7 3.64 -0.63 2.83 -0.53 1.9 -0.39 23.86 103.62 -3.88 0.81 -4.22 0.79 -4.58 0.78 -5.03 0.82 -5.44 0.84 -5.86 0.87 -6.25 0.89 -6.59 0.9 -6.88 0.9 -7.15 0.92 -7.4 0.91 -7.56 0.89 -7.71 0.89 -7.83 0.86 -7.86 0.83 -7.89 0.8 -7.88 0.75 -7.8 0.7 -7.71 0.65 -7.59 0.59 -7.41 0.51 -7.17 0.44 -6.96 0.36 -6.71 0.26 -6.44 0.16 -6.16 0.04 -5.9 -0.09 -5.79 -0.26 -5.83 -0.5 -6.29 -0.91 -7.8 -1.92 -11.55 -5.07 0.02 0.01zm-0.02 -0.01c-23.9,-13.92 -34.14,-45.99 -22.87,-71.62 11.27,-25.63 39.81,-35.12 63.71,-21.19l-40.84 92.81zm-269.17 -330.07l40.73 97.98 18.66 -77.05 8.64 13.48 8.88 12.95 9.09 12.46 9.27 11.96 9.44 11.48 9.57 11 9.67 10.54 9.75 10.08 9.78 9.62 9.79 9.16 9.76 8.73 9.72 8.28 9.63 7.87 9.5 7.43 9.36 7.01 9.18 6.61 8.95 6.19 8.71 5.8 8.43 5.4 8.11 5.03 7.77 4.64 7.38 4.27 6.99 3.92 6.55 3.57 6.1 3.22 5.6 2.9 5.13 2.6 4.61 2.31 4.09 2.02 3.75 1.87 3.51 1.79 3.87 2.13 -40.81 92.82 -0.15 -0.06 -2 -1.03 -3.21 -1.59 -4.22 -2.09 -5 -2.5 -5.72 -2.9 -6.4 -3.31 -7.01 -3.72 -7.59 -4.13 -8.11 -4.54 -8.6 -4.98 -9.04 -5.41 -9.47 -5.85 -9.83 -6.31 -10.18 -6.78 -10.49 -7.26 -10.76 -7.74 -11.01 -8.25 -11.21 -8.77 -11.36 -9.27 -11.51 -9.82 -11.61 -10.37 -11.67 -10.93 -11.69 -11.5 -11.67 -12.07 -11.64 -12.68 -11.55 -13.29 -11.43 -13.9 -11.27 -14.53 -11.06 -15.16 -10.83 -15.81 -10.54 -16.46 18.66 -77.05zm-18.66 77.05c-15.29,-24.7 -10.22,-57.3 11.33,-72.8 21.55,-15.5 51.43,-8.03 66.73,16.68l-78.06 56.12z"></path> </g> <path class="fil3 str1" d="M1726.72 514.15c39.3,-86.1 76.53,-192.55 115.15,-248.72 28.66,11.33 131.4,72.59 215.03,115.48 -50.94,75.89 -94.98,178.07 -127.9,235.07 32.25,20.27 231.01,97.01 235.9,104.68 -18.24,45.8 -102.07,178.52 -104.8,186.2 -57.1,-17.21 -158.75,-90.29 -268.52,-130.15 -26,58.84 -79.67,165.38 -114.62,229.04 -71.49,-18.46 -156.85,-68.9 -200.14,-83.9 43.29,-71.52 94.43,-151.36 127.04,-231 -40.75,-25.4 -113.38,-61.89 -183.49,-105.84 55.68,-93.14 89.08,-139.58 113.91,-185.18 103.42,44.14 145.27,101.38 192.43,114.32z"></path> </g> </g> </svg> 