<?xml version="1.0" encoding="UTF-8"?> <svg xmlns="http://www.w3.org/2000/svg" xmlns:xlink="http://www.w3.org/1999/xlink" xmlns:xodm="http://www.corel.com/coreldraw/odm/2003" xml:space="preserve" width="153.146mm" height="39.6659mm" version="1.1" style="shape-rendering:geometricPrecision; text-rendering:geometricPrecision; image-rendering:optimizeQuality; fill-rule:evenodd; clip-rule:evenodd" viewBox="0 0 4938.33 1279.06"> <defs> <style type="text/css"> .str0 {stroke:black;stroke-width:105.52;stroke-linecap:round;stroke-linejoin:round;stroke-miterlimit:22.9256} .fil0 {fill:#FF99CC;fill-rule:nonzero} </style> </defs> <g id="Слой_x0020_1"> <metadata id="CorelCorpID_0Corel-Layer"></metadata> <path class="fil0 str0" d="M906.7 309.79c31.57,-160.08 61.44,-240.12 89.62,-240.12l196.15 0c15.78,0 30.44,10.14 43.96,30.44 -6.76,59.75 -21.42,129.64 -43.96,209.68 130.77,-7.89 215.32,-2.82 253.65,15.22 1.13,16.91 1.69,34.38 1.69,52.42 0,100.33 -20.29,162.34 -60.87,186.01 -198.41,11.27 -297.61,58.06 -297.61,140.35 167.97,0 251.96,8.45 251.96,25.36l0 164.02c0,33.82 -104.84,54.11 -314.52,60.88 -52.99,170.22 -117.81,255.34 -194.46,255.34 -63.13,0 -103.15,-5.07 -120.06,-15.22 0,-12.4 0,-25.36 0,-38.89l15.22 -111.6c-1.13,-10.14 -1.69,-20.29 -1.69,-30.44l-133.58 0c-4.51,0 -9.58,5.07 -15.22,15.22l-74.4 150.5 -224.9 0c-10.14,0 -15.22,-16.91 -15.22,-50.73 0,-21.42 0,-34.38 0,-38.89 10.14,-27.06 15.22,-47.35 15.22,-60.88 0,-10.14 -5.07,-15.22 -15.22,-15.22 -139.79,-3.38 -209.68,-40.02 -209.68,-109.91 0,-83.42 10.15,-126.26 30.44,-128.52l255.34 -30.44c25.93,-3.38 45.66,-43.4 59.18,-120.06 -161.21,-3.38 -255.9,-13.53 -284.08,-30.44 -1.13,-22.55 -1.69,-45.09 -1.69,-67.64 0,-60.88 15.22,-103.15 45.66,-126.82 90.19,-22.55 195.03,-42.27 314.52,-59.18l15.22 -15.22 71.02 -209.68 199.53 0c16.91,0 36.64,14.66 59.18,43.97 -19.16,87.93 -28.75,143.17 -28.75,165.71l103.15 0 15.22 -15.22zm-268.86 434.58c16.91,1.13 34.38,1.69 52.42,1.69 47.35,0 79.48,-5.64 96.39,-16.91 22.55,-52.99 33.82,-94.7 33.82,-125.13 -86.8,0 -133.02,6.77 -138.66,20.29l-43.96 120.06zm1023.03 -84.55c0,-403.58 187.14,-605.37 561.4,-605.37 199.53,0 299.3,68.77 299.3,206.3 0,12.4 -4.51,22.55 -13.53,30.44l-136.97 136.97 -37.2 0 -148.81 -74.4c-4.51,-1.13 -12.96,-1.69 -25.36,-1.69 -125.13,0 -187.7,103.72 -187.7,311.14 0,160.08 66.51,240.12 199.53,240.12 74.4,0 124.57,-8.45 150.5,-25.36 100.33,-67.64 152.19,-101.46 155.57,-101.46 6.76,0 12.96,0.56 18.6,1.69 50.73,87.93 76.09,157.82 76.09,209.68 0,151.06 -116.11,226.59 -348.34,226.59 -375.4,0 -563.1,-184.88 -563.1,-554.64zm1160 -558.02c0,-31.57 31,-47.35 93,-47.35 86.81,0 134.72,8.45 143.73,25.36l373.71 673.01 13.53 11.84c0,-24.8 0,-49.6 0,-74.4 0,-40.58 0,-65.38 0,-74.4 -13.53,-144.3 -21.98,-252.52 -25.36,-324.67 -1.13,-12.4 -1.69,-49.6 -1.69,-111.6 0,-37.2 0.56,-74.4 1.69,-111.61 19.16,-9.02 67.07,-13.53 143.73,-13.53 112.73,0 169.1,15.78 169.1,47.35 0,13.53 -0.56,23.11 -1.69,28.75 -12.4,77.78 -20.29,135.84 -23.67,174.17 -9.02,72.15 -13.53,121.75 -13.53,148.8l0 760.94 -299.3 0 -23.67 -25.36c-45.09,-112.73 -90.75,-224.9 -136.97,-336.5 -38.33,-87.93 -76.09,-145.99 -113.3,-174.17 0,18.04 0,36.64 0,55.8 0,30.44 0,49.04 0,55.8 13.53,111.6 21.98,194.46 25.36,248.57 1.13,10.14 1.69,37.2 1.69,81.17 0,27.05 -0.56,54.11 -1.69,81.17 -36.07,9.02 -98.64,13.53 -187.7,13.53 -32.69,0 -65.95,0 -99.77,0 -16.91,-9.02 -25.36,-38.89 -25.36,-89.62 0,-23.67 0.56,-39.46 1.69,-47.35 9.02,-245.76 13.53,-402.45 13.53,-470.09 0,-83.42 -9.02,-242.37 -27.06,-476.85 0,-5.64 0,-15.22 0,-28.75zm1175.23 -10.14c12.4,-25.93 124,-38.89 334.81,-38.89 99.2,0 157.26,0.56 174.17,1.69 241.25,7.89 364.12,16.35 368.63,25.36l11.84 25.36 0 241.81c0,33.82 -16.35,50.73 -49.04,50.73 -14.66,0 -23.67,0 -27.06,0 -226.59,-34.94 -353.41,-52.42 -380.47,-52.42 -34.94,0 -69.33,0.56 -103.15,1.69 -16.91,11.27 -25.36,23.67 -25.36,37.2l0 140.35c238.99,16.91 358.49,77.79 358.49,182.62 0,39.46 -0.56,63.7 -1.69,72.71l-13.53 11.83 -329.74 0 0 419.36c0,10.14 -55.24,15.22 -165.71,15.22 -38.33,0 -76.66,-0.56 -114.99,-1.69 -28.18,-5.64 -45.09,-14.09 -50.73,-25.36 0,-31.57 0,-63.13 0,-94.7 0,-54.11 0,-86.24 0,-96.38 11.27,-392.31 15.78,-697.81 13.53,-916.51z"></path> </g> </svg> 