<?xml version="1.0" encoding="UTF-8"?> <svg xmlns="http://www.w3.org/2000/svg" xmlns:xlink="http://www.w3.org/1999/xlink" xmlns:xodm="http://www.corel.com/coreldraw/odm/2003" xml:space="preserve" width="211.038mm" height="153.348mm" version="1.1" style="shape-rendering:geometricPrecision; text-rendering:geometricPrecision; image-rendering:optimizeQuality; fill-rule:evenodd; clip-rule:evenodd" viewBox="0 0 9075.48 6594.59"> <defs> <style type="text/css"> .str0 {stroke:black;stroke-width:160.59;stroke-linecap:round;stroke-linejoin:round;stroke-miterlimit:22.9256} .str1 {stroke:black;stroke-width:160.59;stroke-linecap:round;stroke-linejoin:round;stroke-miterlimit:22.9256} .fil0 {fill:#FF99CC;fill-rule:nonzero} .fil1 {fill:white;fill-rule:nonzero} </style> </defs> <g id="Слой_x0020_1"> <metadata id="CorelCorpID_0Corel-Layer"></metadata> <g id="_105553466009088"> <path class="fil0 str0" d="M80.29 1004.09c0,-614.15 284.78,-921.23 854.32,-921.23 303.64,0 455.47,104.65 455.47,313.94 0,18.87 -6.86,34.31 -20.59,46.32l-208.44 208.43 -56.61 0 -226.45 -113.22c-6.86,-1.72 -19.73,-2.58 -38.6,-2.58 -190.42,0 -285.63,157.83 -285.63,473.48 0,243.6 101.21,365.4 303.65,365.4 113.23,0 189.56,-12.87 229.02,-38.6 152.68,-102.93 231.59,-154.4 236.74,-154.4 10.29,0 19.73,0.86 28.31,2.57 77.2,133.81 115.8,240.17 115.8,319.08 0,229.88 -176.7,344.81 -530.09,344.81 -571.26,0 -856.9,-281.34 -856.9,-844.03zm0 1465.9c0,-48.04 47.18,-72.05 141.53,-72.05 132.1,0 205.01,12.87 218.73,38.6l568.69 1024.16 20.59 18.01c0,-37.74 0,-75.48 0,-113.23 0,-61.76 0,-99.5 0,-113.22 -20.59,-219.59 -33.45,-384.28 -38.6,-494.07 -1.72,-18.87 -2.57,-75.48 -2.57,-169.84 0,-56.61 0.85,-113.23 2.57,-169.84 29.16,-13.73 102.07,-20.59 218.73,-20.59 171.55,0 257.33,24.01 257.33,72.05 0,20.59 -0.86,35.17 -2.57,43.75 -18.87,118.37 -30.88,206.72 -36.03,265.05 -13.73,109.79 -20.59,185.27 -20.59,226.45l0 1157.97 -455.47 0 -36.03 -38.6c-68.62,-171.55 -138.09,-342.25 -208.43,-512.08 -58.33,-133.81 -115.8,-222.16 -172.41,-265.05 0,27.45 0,55.75 0,84.92 0,46.32 0,74.62 0,84.92 20.59,169.83 33.45,295.92 38.6,378.27 1.72,15.43 2.58,56.61 2.58,123.51 0,41.17 -0.86,82.35 -2.58,123.52 -54.89,13.73 -150.11,20.59 -285.63,20.59 -49.75,0 -100.36,0 -151.82,0 -25.73,-13.72 -38.6,-59.18 -38.6,-136.38 0,-36.02 0.86,-60.04 2.58,-72.05 13.72,-373.98 20.59,-612.44 20.59,-715.37 0,-126.95 -13.73,-368.84 -41.18,-725.66 0,-8.58 0,-23.16 0,-43.75zm41.18 2299.63c18.87,-39.46 188.71,-59.18 509.5,-59.18 150.97,0 239.31,0.86 265.05,2.57 367.12,12.01 554.11,24.87 560.97,38.6l18.01 38.6 0 367.98c0,51.47 -24.87,77.2 -74.62,77.2 -22.3,0 -36.03,0 -41.18,0 -344.81,-53.18 -537.81,-79.77 -578.98,-79.77 -53.18,0 -105.5,0.86 -156.96,2.57 -25.73,17.15 -38.6,36.03 -38.6,56.61l0 213.58c363.69,25.73 545.53,118.37 545.53,277.91 0,60.04 -0.86,96.93 -2.58,110.65l-20.58 18.01 -501.79 0 0 638.17c0,15.44 -84.06,23.16 -252.18,23.16 -58.33,0 -116.66,-0.86 -174.98,-2.57 -42.89,-8.57 -68.62,-21.44 -77.2,-38.6 0,-48.04 0,-96.07 0,-144.11 0,-82.34 0,-131.24 0,-146.67 17.15,-597 24.01,-1061.9 20.59,-1394.71z"></path> <path class="fil1 str1" d="M1802.42 175.5c68.62,-49.75 138.1,-74.62 208.44,-74.62 46.32,0 70.34,6 72.05,18.01 1.72,22.3 2.58,44.6 2.58,66.9 0,36.03 -0.86,57.47 -2.58,64.33 -25.73,389.42 -38.6,592.71 -38.6,609.86 0,193.85 6.87,347.39 20.59,460.61 29.17,168.12 48.04,293.35 56.61,375.7 1.72,15.43 2.58,41.17 2.58,77.2 0,29.16 -0.86,47.18 -2.58,54.03l-18.01 18.01 -283.06 0c-63.47,0 -95.21,-207.58 -95.21,-622.73 0,-418.58 25.73,-767.69 77.2,-1047.32zm492.11 1142.53c0,-385.99 194.71,-578.99 584.13,-578.99 305.36,0 458.04,198.14 458.04,594.43 0,358.54 -169.84,537.81 -509.51,537.81 -355.11,0 -532.66,-184.42 -532.66,-553.25zm326.8 7.72c0,145.82 73.77,218.73 221.3,218.73 121.8,0 182.7,-69.48 182.7,-208.43 0,-168.12 -62.61,-252.18 -187.85,-252.18 -144.1,0 -216.15,80.63 -216.15,241.88zm836.93 -18.01c0,-145.82 0.86,-229.88 2.58,-252.18 5.14,-209.29 29.16,-313.94 72.05,-313.94l223.87 0c36.02,0 54.04,12.02 54.04,36.03l0 684.48c0,49.76 30.88,74.63 92.63,74.63 92.64,0 138.96,-18.87 138.96,-56.61l0 -609.86c0,-87.49 61.76,-131.24 185.28,-131.24 90.92,0 143.24,12.87 156.96,38.6 3.43,349.96 40.32,682.77 110.65,998.43 1.72,3.43 2.58,12.87 2.58,28.31 0,54.89 -60.04,82.34 -180.13,82.34 -8.58,0 -84.92,-30.88 -229.02,-92.63 -135.53,61.76 -246.18,92.63 -331.95,92.63 -199,0 -298.5,-192.99 -298.5,-578.98zm1801.9 -1091.06c32.6,-90.92 152.68,-136.38 360.26,-136.38 44.6,0 66.91,16.3 66.91,48.89 0,5.14 0,8.57 0,10.29 -65.19,329.38 -97.79,651.9 -97.79,967.55 0,140.67 12.87,367.12 38.6,679.35 1.72,5.15 2.58,15.44 2.58,30.88 0,27.45 -6.87,42.89 -20.59,46.32 -39.46,1.71 -78.06,2.57 -115.8,2.57 -133.81,0 -205.01,-33.45 -213.59,-100.35 -114.94,53.18 -224.73,79.77 -329.38,79.77 -44.6,0 -90.06,-0.86 -136.38,-2.57 -130.38,-51.46 -195.56,-252.18 -195.56,-602.15 0,-348.25 116.65,-522.37 349.96,-522.37 10.3,0 17.15,0.86 20.59,2.57 162.97,34.31 258.18,51.46 285.64,51.46 0,-281.34 -5.15,-466.62 -15.44,-555.82zm-347.39 1044.74c0,162.97 25.73,260.76 77.2,293.36 25.73,1.71 51.46,2.57 77.2,2.57 142.39,0 213.58,-33.45 213.58,-100.35l0 -290.78c0,-65.19 -88.35,-97.78 -265.04,-97.78 -68.62,0 -102.93,64.33 -102.93,192.99zm1562.59 -141.53l167.26 -349.96c6.86,-13.72 24.87,-26.59 54.03,-38.6 42.89,0 85.78,0 128.66,0 123.52,0 185.28,8.57 185.28,25.73 0,90.92 -79.77,278.77 -239.31,563.54 -207.58,370.55 -394.57,555.83 -560.97,555.83 -192.14,0 -288.2,-41.18 -288.2,-123.52 0,-140.67 36.88,-211.01 110.65,-211.01 20.59,0 33.45,0 38.6,0 24.02,10.29 42.03,16.29 54.04,18.01 6.86,1.71 24.02,2.57 51.47,2.57 49.75,0 94.35,-49.75 133.81,-149.25 -10.29,-13.73 -22.3,-25.73 -36.02,-36.03 -332.81,-228.16 -499.22,-381.7 -499.22,-460.61 0,-6.86 0,-12.87 0,-18.01 128.66,-99.5 227.31,-149.25 295.92,-149.25 25.73,0 43.75,6.86 54.04,20.59 150.97,200.72 267.62,317.37 349.97,349.96zm-4806.72 2513.22c0,-385.99 194.7,-578.99 584.13,-578.99 305.36,0 458.04,198.14 458.04,594.43 0,358.54 -169.84,537.81 -509.51,537.81 -355.11,0 -532.66,-184.42 -532.66,-553.25zm326.8 7.72c0,145.82 73.77,218.73 221.3,218.73 121.8,0 182.7,-69.48 182.7,-208.43 0,-168.12 -62.62,-252.18 -187.85,-252.18 -144.1,0 -216.15,80.63 -216.15,241.88zm2231.63 -571.27l18.01 -20.59c13.72,-13.72 84.06,-0.86 211.01,38.6 128.66,39.46 193,81.49 193,126.09 0,46.32 -32.6,138.1 -97.79,275.34 -97.78,204.14 -199.85,407.43 -306.21,609.86 -12.01,63.48 -109.8,95.21 -293.36,95.21 -22.3,0 -44.6,0 -66.9,0 -15.44,-12.01 -78.92,-95.21 -190.43,-249.61 -3.43,0 -6.86,0 -10.29,0 -10.3,0 -32.6,19.73 -66.91,59.19 -111.51,126.94 -187.85,190.42 -229.02,190.42 -85.78,0 -231.59,-223.01 -437.45,-669.05 -44.61,-92.64 -83.2,-187.85 -115.8,-285.63 0,-3.43 0,-6.01 0,-7.72 0,-84.06 117.51,-126.09 352.53,-126.09 22.3,0 44.6,0 66.91,0 73.77,355.11 137.24,546.39 190.42,573.84 97.79,-154.39 200.72,-231.59 308.79,-231.59 13.72,0 95.21,89.21 244.46,267.62 5.15,6.86 11.16,13.73 18.01,20.59 25.73,-15.44 45.46,-47.18 59.18,-95.21l151.83 -571.27zm569.31 -509.5c0,-108.08 99.5,-162.12 298.5,-162.12 32.6,0 54.04,12.87 64.33,38.6 22.3,101.21 28.31,309.65 18.01,625.3 120.08,-51.46 217.87,-77.2 293.35,-77.2 185.27,0 289.92,133.81 313.94,401.43 13.72,147.53 20.59,317.37 20.59,509.51 0,77.2 -0.86,153.54 -2.58,229.02 -17.16,25.73 -36.02,38.6 -56.61,38.6l-265.05 0 -38.6 -38.6c0,-3.43 0,-30.88 0,-82.34 0,-61.76 0,-103.79 0,-126.09 10.3,-126.94 17.15,-222.15 20.58,-285.63 0,-10.3 0,-36.89 0,-79.78 0,-162.97 -36.88,-244.46 -110.65,-244.46 -109.79,0 -164.68,19.73 -164.68,59.19l0 625.31c0,114.94 -66.91,172.4 -200.72,172.4 -101.21,0 -151.82,-21.44 -151.82,-64.33 0,-15.44 0,-25.73 0,-30.88 27.45,-319.08 41.17,-536.1 41.17,-651.04 0,-159.54 -25.73,-429.73 -77.2,-810.58 -1.71,-6.86 -2.57,-22.3 -2.57,-46.32zm1132.85 1008.72c0,-356.83 128.66,-535.24 385.99,-535.24 358.54,0 537.82,154.39 537.82,463.19 0,90.92 -18.87,137.24 -56.61,138.95l-563.54 38.6c-1.71,3.44 -2.57,6.01 -2.57,7.72 0,147.53 58.33,221.3 174.98,221.3 75.48,0 149.25,-32.59 221.3,-97.78l208.44 0c24.01,0 36.02,15.44 36.02,46.32 0,221.3 -162.97,331.95 -488.92,331.95 -301.93,0 -452.89,-205.01 -452.89,-615.01zm316.51 -151.83c178.41,0 286.49,-8.57 324.23,-25.73 1.71,-5.14 2.57,-11.15 2.57,-18.01 0,-63.48 -66.9,-95.21 -200.71,-95.21 -84.06,0 -126.09,46.32 -126.09,138.95zm739.14 -324.23c0,-36.03 37.74,-54.03 113.23,-54.03 54.9,0 98.64,6.86 131.24,20.58 34.31,12.01 56.61,18.01 66.91,18.01 15.44,0 24.87,0 28.3,0 147.54,-27.45 253.04,-41.17 316.51,-41.17 56.61,0 112.36,0.86 167.26,2.58 75.49,20.58 113.23,51.46 113.23,92.63 0,186.99 -37.74,274.48 -113.23,262.47 -41.17,-17.15 -72.05,-29.17 -92.63,-36.03 -73.77,-27.45 -151.83,-41.17 -234.16,-41.17 -39.46,0 -79.77,0.86 -120.94,2.57 -12.01,6.87 -18.01,16.3 -18.01,28.31 0,3.43 0,6.86 0,10.29 37.74,434.03 56.61,669.91 56.61,707.65 0,32.6 0,64.33 0,95.21 -32.6,25.73 -114.09,38.6 -244.46,38.6 -111.51,0 -167.26,-15.44 -167.26,-46.32 0,-5.15 0,-8.57 0,-10.3 37.74,-211.01 56.61,-379.98 56.61,-506.93 0,-48.03 -18.87,-215.29 -56.61,-501.79 -1.72,-6.86 -2.58,-20.59 -2.58,-41.17zm1068.52 476.05c0,-356.83 128.66,-535.24 385.99,-535.24 358.54,0 537.81,154.39 537.81,463.19 0,90.92 -18.87,137.24 -56.61,138.95l-563.55 38.6c-1.71,3.44 -2.57,6.01 -2.57,7.72 0,147.53 58.32,221.3 174.98,221.3 75.48,0 149.25,-32.59 221.3,-97.78l208.44 0c24.01,0 36.02,15.44 36.02,46.32 0,221.3 -162.97,331.95 -488.92,331.95 -301.93,0 -452.89,-205.01 -452.89,-615.01zm316.51 -151.83c178.42,0 286.49,-8.57 324.24,-25.73 1.71,-5.14 2.57,-11.15 2.57,-18.01 0,-63.48 -66.91,-95.21 -200.72,-95.21 -84.06,0 -126.09,46.32 -126.09,138.95zm-6667.82 1990.85c0,-36.03 37.74,-54.03 113.23,-54.03 54.9,0 98.64,6.86 131.24,20.58 34.31,12.01 56.61,18.01 66.91,18.01 15.44,0 24.87,0 28.3,0 147.54,-27.45 253.04,-41.17 316.51,-41.17 56.61,0 112.36,0.86 167.26,2.58 75.49,20.58 113.23,51.46 113.23,92.63 0,186.99 -37.74,274.48 -113.23,262.47 -41.17,-17.15 -72.05,-29.17 -92.63,-36.03 -73.77,-27.45 -151.83,-41.17 -234.16,-41.17 -39.46,0 -79.77,0.86 -120.94,2.57 -12.01,6.87 -18.01,16.3 -18.01,28.31 0,3.43 0,6.86 0,10.29 37.74,434.03 56.61,669.91 56.61,707.65 0,32.6 0,64.33 0,95.21 -32.6,25.73 -114.09,38.6 -244.46,38.6 -111.51,0 -167.26,-15.44 -167.26,-46.32 0,-5.15 0,-8.57 0,-10.3 37.74,-211.01 56.61,-379.98 56.61,-506.93 0,-48.03 -18.87,-215.29 -56.61,-501.79 -1.72,-6.86 -2.58,-20.59 -2.58,-41.17zm1119.99 -365.4c0,-116.66 69.48,-174.98 208.43,-174.98 39.46,0 70.34,18.01 92.64,54.03 1.71,25.73 2.57,50.61 2.57,74.63 0,125.23 -50.61,187.85 -151.82,187.85 -101.22,0 -151.82,-47.18 -151.82,-141.53zm20.58 419.44c18.87,-63.47 75.49,-95.21 169.84,-95.21 29.16,0 47.18,0.85 54.04,2.57l18.01 18.01c27.45,25.73 41.17,360.26 41.17,1003.57 0,56.61 -0.86,88.35 -2.57,95.21l-18.01 18.01 -298.49 0c-13.73,-89.21 -20.59,-175.84 -20.59,-259.9 0,-111.51 18.87,-372.26 56.61,-782.27zm438.07 422.01c0,-356.83 128.66,-535.24 385.99,-535.24 358.54,0 537.82,154.39 537.82,463.19 0,90.92 -18.87,137.24 -56.61,138.95l-563.54 38.6c-1.71,3.44 -2.57,6.01 -2.57,7.72 0,147.53 58.33,221.3 174.98,221.3 75.48,0 149.25,-32.59 221.3,-97.78l208.44 0c24.01,0 36.02,15.44 36.02,46.32 0,221.3 -162.98,331.95 -488.92,331.95 -301.93,0 -452.9,-205.01 -452.9,-615.01zm316.51 -151.83c178.41,0 286.49,-8.57 324.23,-25.73 1.71,-5.14 2.57,-11.15 2.57,-18.01 0,-63.48 -66.9,-95.21 -200.71,-95.21 -84.06,0 -126.09,46.32 -126.09,138.95zm746.86 -311.36c0,-49.75 19.73,-74.62 59.19,-74.62l203.28 0c3.44,0 16.3,6 38.6,18.01 66.91,39.46 103.79,59.19 110.65,59.19 10.29,0 17.15,-0.86 20.59,-2.57 150.97,-49.75 250.46,-74.62 298.49,-74.62 211.01,0 316.51,195.57 316.51,586.71 0,332.81 -31.74,522.37 -95.21,568.69 -27.45,1.72 -54.9,2.57 -82.34,2.57 -118.37,0 -177.55,-19.73 -177.55,-59.18l0 -633.02c0,-65.19 -12.01,-102.07 -36.02,-110.65 -22.3,-1.72 -44.6,-2.58 -66.91,-2.58 -63.47,0 -109.79,18.87 -138.95,56.61 5.14,174.98 5.14,349.11 0,522.37 -3.44,137.24 -22.31,205.86 -56.61,205.86l-241.89 0 -36.02 -18.01c0,-428.87 -24.88,-727.37 -74.62,-895.49 -27.45,-85.78 -41.17,-135.52 -41.17,-149.25zm1814.76 -573.84c32.6,-90.92 152.68,-136.38 360.26,-136.38 44.6,0 66.91,16.29 66.91,48.89 0,5.14 0,8.57 0,10.29 -65.19,329.38 -97.79,651.9 -97.79,967.55 0,140.67 12.87,367.12 38.6,679.35 1.72,5.15 2.58,15.44 2.58,30.88 0,27.45 -6.87,42.89 -20.59,46.32 -39.46,1.71 -78.06,2.57 -115.8,2.57 -133.81,0 -205.01,-33.45 -213.58,-100.35 -114.94,53.18 -224.73,79.77 -329.38,79.77 -44.6,0 -90.06,-0.86 -136.38,-2.57 -130.38,-51.46 -195.57,-252.18 -195.57,-602.15 0,-348.25 116.65,-522.37 349.96,-522.37 10.3,0 17.15,0.86 20.59,2.57 162.97,34.31 258.19,51.46 285.64,51.46 0,-281.34 -5.15,-466.62 -15.44,-555.82zm-347.39 1044.74c0,162.97 25.73,260.76 77.2,293.36 25.73,1.71 51.47,2.57 77.2,2.57 142.39,0 213.58,-33.45 213.58,-100.35l0 -290.78c0,-65.19 -88.35,-97.78 -265.05,-97.78 -68.62,0 -102.93,64.33 -102.93,192.99zm870.37 -174.98c0,-236.74 154.4,-355.11 463.19,-355.11 186.99,0 280.49,63.47 280.49,190.42 0,29.17 -48.9,86.64 -146.68,172.41 -66.9,-60.05 -114.94,-90.07 -144.1,-90.07 -61.76,0 -92.64,26.59 -92.64,79.78 0,10.29 0.86,19.73 2.58,28.3 312.22,159.54 468.33,321.66 468.33,486.35 0,169.84 -153.54,254.75 -460.61,254.75 -283.06,0 -424.59,-66.04 -424.59,-198.14 0,-135.52 57.47,-203.28 172.41,-203.28 10.29,0 49.75,18.87 118.37,56.61 44.61,25.73 90.92,38.6 138.96,38.6 87.49,0 131.24,-18.87 131.24,-56.61 0,-5.15 -6.01,-11.15 -18.01,-18.01l-360.26 -180.13c-85.78,-42.89 -128.66,-111.51 -128.66,-205.86z"></path> </g> </g> </svg> 