<?xml version="1.0" encoding="UTF-8"?> <svg xmlns="http://www.w3.org/2000/svg" xmlns:xlink="http://www.w3.org/1999/xlink" xmlns:xodm="http://www.corel.com/coreldraw/odm/2003" xml:space="preserve" width="123.485mm" height="105.498mm" version="1.1" style="shape-rendering:geometricPrecision; text-rendering:geometricPrecision; image-rendering:optimizeQuality; fill-rule:evenodd; clip-rule:evenodd" viewBox="0 0 69952.82 59763.24"> <defs> <style type="text/css"> .fil1 {fill:black;fill-rule:nonzero} .fil0 {fill:#FF99CC;fill-rule:nonzero} .fil2 {fill:white;fill-rule:nonzero} </style> </defs> <g id="Слой_x0020_1"> <metadata id="CorelCorpID_0Corel-Layer"></metadata> <path class="fil0" d="M677.29 8447.69c0,-5180.3 2402.02,-7770.45 7206.12,-7770.45 2561.2,0 3841.86,882.7 3841.86,2648.05 0,159.18 -57.9,289.42 -173.69,390.71l-1758.15 1758.09 -477.44 0 -1910.08 -954.98c-57.9,-14.5 -166.43,-21.75 -325.62,-21.75 -1606.16,0 -2409.27,1331.3 -2409.27,3993.79 0,2054.76 853.75,3082.14 2561.2,3082.14 955.1,0 1598.97,-108.54 1931.78,-325.56 1287.85,-868.26 1953.48,-1302.35 1996.92,-1302.35 86.79,0 166.38,7.25 238.72,21.7 651.18,1128.67 976.74,2025.82 976.74,2691.5 0,1938.97 -1490.43,2908.46 -4471.23,2908.46 -4818.6,0 -7227.87,-2373.07 -7227.87,-7119.33zm0 14542.53c0,-405.21 397.9,-607.73 1193.76,-607.73 1114.22,0 1729.2,108.48 1844.94,325.56l4796.9 8638.65 173.63 151.93c0,-318.31 0,-636.62 0,-955.04 0,-520.89 0,-839.19 0,-954.98 -173.63,-1852.19 -282.17,-3241.33 -325.56,-4167.42 -14.5,-159.18 -21.7,-636.68 -21.7,-1432.53 0,-477.49 7.19,-955.04 21.7,-1432.53 245.97,-115.79 860.95,-173.63 1844.94,-173.63 1446.98,0 2170.5,202.52 2170.5,607.73 0,173.63 -7.25,296.61 -21.7,369.01 -159.18,998.38 -260.47,1743.65 -303.86,2235.59 -115.79,926.15 -173.63,1562.83 -173.63,1910.08l0 9767.32 -3841.86 0 -303.86 -325.56c-578.84,-1447.04 -1164.81,-2886.76 -1758.09,-4319.3 -491.99,-1128.73 -976.74,-1873.88 -1454.29,-2235.64 0,231.47 0,470.3 0,716.27 0,390.65 0,629.42 0,716.27 173.63,1432.53 282.17,2496.11 325.56,3190.68 14.5,130.18 21.75,477.49 21.75,1041.83 0,347.26 -7.25,694.57 -21.75,1041.83 -462.99,115.79 -1266.1,173.63 -2409.21,173.63 -419.65,0 -846.56,0 -1280.66,0 -217.02,-115.73 -325.56,-499.19 -325.56,-1150.37 0,-303.86 7.25,-506.44 21.7,-607.73 115.73,-3154.49 173.69,-5165.86 173.69,-6034.05 0,-1070.77 -115.79,-3111.09 -347.31,-6120.84 0,-72.4 0,-195.38 0,-369.01zm347.31 21357.94c159.13,-332.81 1591.72,-499.19 4297.6,-499.19 1273.41,0 2018.56,7.19 2235.64,21.64 3096.65,101.29 4673.86,209.83 4731.7,325.62l151.93 325.56 0 3103.84c0,434.1 -209.77,651.18 -629.42,651.18 -188.07,0 -303.86,0 -347.26,0 -2908.52,-448.54 -4536.37,-672.87 -4883.69,-672.87 -448.54,0 -889.9,7.25 -1323.99,21.7 -217.08,144.68 -325.62,303.86 -325.62,477.55l0 1801.49c3067.7,217.08 4601.52,998.49 4601.52,2344.18 0,506.44 -7.25,817.55 -21.7,933.34l-173.63 151.88 -4232.57 0 0 5382.93c0,130.24 -709.02,195.32 -2127.1,195.32 -491.99,0 -983.93,-7.25 -1475.93,-21.7 -361.76,-72.34 -578.78,-180.88 -651.18,-325.56 0,-405.15 0,-810.36 0,-1215.51 0,-694.51 0,-1106.97 0,-1237.15 144.74,-5035.62 202.58,-8957.07 173.69,-11764.24z"></path> <path class="fil1" d="M-0 8447.69c0,-2765.71 661.37,-4861.82 1984.12,-6288.12 1335.1,-1439.67 3301.6,-2159.56 5899.29,-2159.56 1418.54,0 2506.93,261.26 3264.95,783.74 836.08,576.23 1254.15,1423.41 1254.15,2541.55 0,169.95 -34.78,333.15 -104.29,489.56 -64.07,144.17 -153.74,270.61 -268.85,378.87l1.08 1.13 -1758.15 1758.09c-132.16,132.22 -305.51,198.33 -478.85,198.33l-477.44 0.11c-131.48,0 -254.18,-37.5 -358.02,-102.31l-1748.58 -874.26 -129.1 -0.17c-548.76,0 -957.99,223.48 -1227.58,670.38 -336.21,557.42 -504.4,1439.5 -504.4,2646.12 0,867.24 160.6,1494.11 481.57,1880.4 290.49,349.58 758.02,524.45 1402.34,524.45 811.32,0 1329.43,-69.39 1554.16,-208.13l-0.68 -1.02c595.04,-401.07 1086.75,-728.39 1475.64,-981.95 446.45,-291.23 746.4,-436.76 899.58,-436.76 44.92,0 107.01,3.63 185.58,10.71 78.35,7.08 140.21,15.18 185.41,24.19 221.1,44.07 395.35,191.13 482.93,381.25 331.74,580.14 582.58,1104.25 752.3,1572 190.96,526.32 286.53,993.85 286.53,1402.28 0,1212.62 -475.85,2128.46 -1427.38,2747.46 -859.08,558.78 -2099.52,838.29 -3721.14,838.29 -2592.42,0 -4557.39,-658.65 -5894.47,-1975.62 -1340.42,-1320.31 -2010.69,-3260.7 -2010.69,-5821zm2973.49 -5367.53c-1079.27,1163.79 -1618.96,2953.1 -1618.96,5367.53 0,2185.85 534.48,3805.27 1603.27,4857.97 1072.13,1056.05 2721.29,1584.07 4947.36,1584.07 1359.17,0 2354.44,-205.35 2985.67,-615.94 538.84,-350.54 808.26,-888.99 808.26,-1615.23 0,-257.19 -67.3,-571.19 -201.78,-941.96 -104.18,-287.1 -245.18,-601.1 -422.83,-941.9 -18.07,19.09 -43.05,39.82 -77.72,62.43 -276.67,180.43 -761.76,504.46 -1454.4,971.41l-0.85 -1.25 -9.74 6.51c-446.45,291.12 -1212.91,436.76 -2299.54,436.76 -1063.07,0 -1876.32,-338.99 -2439.41,-1016.62 -532.67,-640.98 -799.03,-1555.35 -799.03,-2742.82 0,-1455.87 233.45,-2570.83 700.18,-3344.54 533.52,-884.29 1328.98,-1326.49 2386.33,-1326.49 212.09,0 375.35,14.28 489.62,42.88l-0.45 1.81c46.79,11.67 93.07,28.61 138,51.1l1761.89 880.89 43.68 0 1534.22 -1534.16c-13.99,-615.38 -236.06,-1071.45 -666.08,-1367.84 -522.53,-360.12 -1355.15,-540.26 -2497.76,-540.26 -2206.36,0 -3843.05,575.27 -4909.92,1725.63zm-2973.49 19910.05c0,-856.7 623.7,-1285.02 1871.05,-1285.02 1372.66,0 2184.09,225.07 2434.42,675.03l0.45 -0.23 3643.08 6560.77c-62.43,-685.39 -112.05,-1263.27 -148.76,-1732.89 -52.74,-675.99 -90.81,-1261.11 -113.92,-1754.92l-0.28 -6.91c-7.19,-101.29 -12.63,-266.08 -15.97,-494.43 -5.38,-355.36 -8.1,-677.12 -8.1,-962.97 0,-431.66 8.1,-915.22 24.36,-1451.06 7.53,-275.43 179.12,-507.74 418.63,-606.03 192.83,-83.78 473.13,-143.09 840.84,-177.65 344.99,-32.46 765.15,-48.72 1260.09,-48.72 782.04,0 1385.63,59.54 1810.38,178.44 691.57,193.57 1037.41,562.58 1037.41,1106.58 0,81.29 -2.72,167.96 -8.1,259.45 -5.89,101.34 -14.9,182.07 -26.85,241.83l-5.55 25.21c-73.7,464.18 -135.28,877.6 -184.45,1239.98 -45.94,337.63 -80.33,636.68 -103.27,896.35l-4.65 39.77c-61.46,492.67 -104.29,871.2 -128.25,1134.9 -25.38,279.45 -38.12,505.25 -38.12,677.18l0 9767.32c0,374.05 -303.18,677.29 -677.24,677.29l-3841.86 0c-211.75,0 -400.85,-97.21 -525.02,-249.48l-273.56 -293.04c-64.01,-68.83 -110.92,-147.4 -140.94,-230.56 -246.88,-617.19 -534.88,-1330 -864.97,-2140.93 -349.24,-858.06 -641.6,-1571.27 -876.41,-2138.43l-39.65 -89.73c31.5,282.56 60.84,556.86 87.92,822.82 54.72,536.46 93.07,977.08 115.17,1321.84 7.7,77.55 13.71,213.51 17.73,407.76 5.32,258.49 8.1,491.37 8.1,697.01 0,322.5 -8.16,678.71 -24.42,1068.28 -12.01,306.87 -227.1,557.82 -510.8,628.63l0.23 1.02c-269.48,67.36 -624.95,116.98 -1066.02,148.76 -426.06,30.7 -928.47,46.06 -1507.25,46.06l-1280.66 0c-151.59,0 -291.57,-49.85 -404.42,-133.92 -231.98,-154.42 -395.52,-399.54 -490.52,-735.19 -71.89,-254.07 -107.92,-573.63 -107.92,-958.55 0,-308.91 8.72,-533.97 25.95,-674.91 57.56,-1570.08 100.49,-2845.47 128.65,-3825.66 27.19,-944.28 40.79,-1658.11 40.79,-2141.21 0,-1060.24 -114.88,-3083.84 -344.65,-6070.59 -1.25,-16.88 -1.87,-33.65 -1.87,-50.25l-0.79 0 0 -369.01zm1871.05 69.51c-344.31,0 -516.52,-115.9 -516.52,-69.51l0 353.26c231.52,3013.77 347.31,5059.41 347.31,6136.59 0,384.98 -15.41,1111.17 -46.06,2178.2 -29.12,1013.9 -72.11,2294.84 -128.82,3842.54 0.62,35.75 -1.47,72 -6.68,108.54 -9.18,64.24 -13.77,235.15 -13.77,512.5 0,194.02 9.69,351.73 29.17,473.13l899.75 0c564.28,0 1035.03,-13.6 1412.08,-40.79 122.25,-8.84 234.92,-18.92 337.97,-30.25 2.44,-149.38 3.63,-305.11 3.63,-467.18 0,-358.7 -0.91,-581.73 -2.78,-670.49 -2.95,-143.21 -7.53,-242.4 -13.65,-297.29l-2.61 -34.39c-21.7,-346.41 -58.8,-777.22 -111.31,-1292.16 -47.87,-469.16 -117.21,-1078.31 -207.73,-1826.64 -6,-36.31 -9.23,-73.53 -9.23,-111.54l0 -1432.53 1.08 0c-0.11,-142.08 44.36,-285.34 136.52,-407.42 225.01,-298.03 649.08,-357.28 947.11,-132.27 300.35,227.5 593.85,561.62 880.43,1002.23 263.08,404.36 524.91,905.47 785.43,1503.29l5.32 13.2c357.51,863.21 653.1,1581.92 887.12,2156.84 240.08,589.71 515.9,1273.92 826.51,2050l16.2 17.39 2872.37 0 0 -9090.08c0,-175.33 16.26,-441.69 48.72,-798.92 33.25,-365.67 76.08,-758.47 128.37,-1178.24 20.62,-231.52 58.4,-548.53 113.07,-950.96 48.49,-356.77 111.71,-780.68 189.72,-1271.54 2.15,-26 5.66,-52.12 10.88,-78.35 2.49,-12.46 4.48,-29.68 5.72,-51.32 1.64,-28.55 2.61,-82.2 2.72,-161.05l-16.09 57.39c-7.76,58.63 -18.35,117.04 -31.78,113.3 -298.65,-83.61 -780.51,-125.48 -1445.34,-125.48 -488.94,0 -868.43,12.75 -1138.36,38.12l-44.13 4.31c-4.59,276.73 -6.91,572.32 -6.91,886.5 0,510.01 0.96,825.03 2.78,947.05 2.95,196.17 6.91,330.04 11.84,401.53 2.15,17.22 3.63,34.61 4.48,52.23 20.28,432.17 58.23,1004.78 113.92,1717.93 58.29,746.86 126.1,1533.03 203.2,2358.85 7.25,39.71 11.1,80.61 11.1,122.36l0 1910.03 -2.38 0c0.06,157.82 -54.89,316.38 -167,444.47 -245.4,280.52 -671.85,308.96 -952.38,63.5l-160.77 -140.66c-62.43,-51.89 -116.53,-115.96 -158.33,-191.19l-4796.9 -8638.65 0.45 -0.23 -5.72 -10.37c-12.12,-22.77 -404.42,34.22 -1249.73,34.22zm9828.05 -69.51c0,-80.5 -5.38,0.79 -16.09,81.69l16.09 -57.39 0 -24.3zm-11243.42 20995.33l7.08 -11.05c225.75,-344.59 785.43,-568.98 1678.84,-672.76 746.63,-86.67 1806.93,-130.07 3180.6,-130.07 457.1,0 964.67,2.72 1519.26,8.04 403.45,3.91 657.35,9.4 761.36,16.31l16.82 1.3c1558.12,51.21 2721.12,103.27 3488.6,156.01 1045.17,71.94 1640.15,252.48 1784.49,541.28l159.92 341.42c43.22,92.56 63.62,189.94 63.56,285.74l2.55 0 0 3103.84c0,885.59 -435.57,1328.41 -1306.72,1328.41l-347.26 0c-39.2,0 -77.61,-3.34 -115,-9.74 -1522.38,-234.75 -2648.16,-402.38 -3377.23,-502.81 -775.46,-106.78 -1239.3,-160.26 -1391.46,-160.26 -325.62,0 -543.77,0.96 -656.5,2.78 -103.16,1.64 -208.47,3.85 -315.82,6.57l0 994.02c1319.18,136.3 2346.16,391.56 3080.73,765.72 1013.79,516.47 1520.79,1249.39 1520.79,2198.54 0,532.84 -9.01,871.37 -27.02,1015.32 -23.34,190.91 -123.95,353.49 -266.7,460.21l-134.48 117.66c-128.08,112.11 -286.59,167 -444.41,166.94l0 2.38 -3555.28 0 0 4705.64c0,475.28 -382.66,748.22 -1148.21,818.46 -392.92,36.09 -944.96,54.16 -1656.18,54.16 -130.18,0 -379.77,-2.72 -745.89,-8.1 -259.96,-3.74 -509.56,-9.23 -748.5,-16.26 -38.75,-1.08 -76.59,-5.38 -113.41,-12.69l-0.4 2.1c-576.34,-115.22 -950.4,-344.71 -1122.04,-688 -48.49,-96.98 -71.38,-200.08 -71.26,-301.6l-2.83 0 0 -2452.66c0,-25.83 1.47,-51.32 4.31,-76.36 71.66,-2501.33 121.74,-4717.88 150.29,-6649.09 28.83,-1957.16 36.09,-3635.09 21.7,-5033.47 -1.08,-135.39 37.84,-261.77 105.71,-367.93zm1839.44 660.18c-326.18,37.84 -505.08,-8.44 -593.28,-20.51 10.88,1350.22 2.72,2942.73 -24.3,4777.64 -29,1960.33 -79.14,4184.59 -150.35,6672.09l1.02 37.44 0 2103.82c250.16,7.31 490.18,12.69 719.78,16.09 125.76,1.81 368.33,2.78 730.03,2.78 646.99,0 1130.26,-12.18 1449.87,-36.48l0 -4864.54c0,-374 303.24,-677.24 677.24,-677.24l3748.84 0c1.19,-115.05 1.81,-251.01 1.81,-407.98 0,-396.54 -260.07,-727.31 -780.05,-992.15 -680.69,-346.75 -1733.39,-571.76 -3157.54,-674.91 -367.88,-7.14 -663.92,-307.55 -663.92,-677.12l0 -1801.49c0,-224.39 66.85,-434.61 200.48,-630.61 104.91,-153.91 247.16,-290.78 426.68,-410.42l1.25 1.87c101.4,-67.75 222.4,-108.94 353.26,-113.01 210.39,-6.97 432.97,-12.46 667.49,-16.26 328.22,-5.32 554.99,-8.1 677.69,-8.1 195.21,0 718.99,58.8 1571.32,176.18 885.7,122.08 2007.18,287.66 3363.97,496.7l247.84 0 0 -2933.73 -82.42 -176.57c-83.84,-149.89 -141,249.31 -663.58,213.4 -796.2,-54.72 -1943.96,-106.78 -3443.05,-156.07 -20.56,0.51 -41.41,0.11 -62.31,-1.3 -112.96,-7.53 -340.4,-12.97 -681.99,-16.26 -190.57,-1.81 -692.36,-2.78 -1508.67,-2.78 -1332.15,0 -2341.29,39.88 -3027.08,119.53z"></path> <path class="fil2" d="M14197.65 6537.66c0,-303.86 318.37,-455.8 955.04,-455.8 462.99,0 832,57.84 1106.92,173.63 289.42,101.29 477.55,151.93 564.39,151.93 130.18,0 209.77,0 238.72,0 1244.46,-231.52 2134.35,-347.31 2669.74,-347.31 477.49,0 947.79,7.25 1410.84,21.75 636.73,173.63 955.04,434.1 955.04,781.36 0,1577.27 -318.31,2315.23 -955.04,2213.95 -347.26,-144.68 -607.73,-245.97 -781.36,-303.86 -622.23,-231.52 -1280.66,-347.26 -1975.17,-347.26 -332.81,0 -672.87,7.19 -1020.13,21.64 -101.29,57.95 -151.99,137.49 -151.99,238.83 0,28.89 0,57.84 0,86.79 318.37,3660.93 477.55,5650.6 477.55,5968.91 0,274.97 0,542.64 0,803.11 -274.97,217.08 -962.29,325.56 -2062.01,325.56 -940.54,0 -1410.84,-130.18 -1410.84,-390.65 0,-43.45 0,-72.34 0,-86.84 318.37,-1779.85 477.55,-3205.13 477.55,-4275.96 0,-405.1 -159.18,-1815.93 -477.55,-4232.51 -14.5,-57.84 -21.7,-173.63 -21.7,-347.26zm14952.89 2886.76l1410.84 -2951.85c57.9,-115.79 209.83,-224.33 455.8,-325.62 361.76,0 723.52,0 1085.28,0 1041.83,0 1562.77,72.4 1562.77,217.08 0,766.91 -672.82,2351.38 -2018.56,4753.4 -1750.9,3125.59 -3328.11,4688.36 -4731.76,4688.36 -1620.66,0 -2430.97,-347.31 -2430.97,-1041.83 0,-1186.62 311.11,-1779.85 933.29,-1779.85 173.69,0 282.17,0 325.62,0 202.58,86.79 354.51,137.43 455.8,151.93 57.9,14.45 202.58,21.7 434.1,21.7 419.65,0 795.86,-419.6 1128.67,-1258.91 -86.79,-115.73 -188.13,-217.02 -303.86,-303.86 -2807.23,-1924.53 -4210.81,-3219.63 -4210.81,-3885.2 0,-57.95 0,-108.54 0,-151.99 1085.28,-839.25 1917.28,-1258.85 2496.11,-1258.85 217.02,0 369.01,57.84 455.8,173.63 1273.35,1693 2257.34,2676.94 2951.91,2951.85zm5663.06 -3082.14c0,-289.36 50.64,-434.1 151.93,-434.1l2257.4 0c72.34,0 282.17,267.72 629.42,803.11l65.09 0c43.39,0 72.34,0 86.84,0 1360.19,-549.89 2271.78,-824.81 2734.83,-824.81 2025.82,0 3038.75,1881.13 3038.75,5643.35 0,2865.12 -1070.77,4297.66 -3212.38,4297.66 -86.79,0 -137.49,0 -151.93,0l-2409.27 -803.11 -108.54 0c0,1548.32 36.2,2879.57 108.54,3993.79 14.5,72.34 21.7,224.27 21.7,455.8 0,882.7 -962.24,1324.05 -2886.82,1324.05 -434.1,0 -651.12,-137.49 -651.12,-412.46 0,-130.18 0,-209.77 0,-238.72 448.6,-3545.19 672.87,-6229.44 672.87,-8052.68 0,-853.7 -115.79,-2647.99 -347.31,-5382.88 0,-72.34 0,-195.32 0,-369.01zm5382.88 6468.21c448.6,0 730.77,-224.33 846.56,-672.87 14.45,-376.2 21.64,-745.21 21.64,-1106.97 0,-1606.22 -347.26,-2409.27 -1041.83,-2409.27 -1447.04,0 -2170.5,376.2 -2170.5,1128.67l0 1910.03c0,766.91 781.41,1150.42 2344.13,1150.42zm7225.83 -6924.01l325.62 -4558.07c14.45,-289.42 224.27,-506.44 629.42,-651.18 318.37,0 636.68,0 955.1,0 781.36,0 1266.1,57.9 1454.17,173.63 0,130.29 0,260.47 0,390.71 0,217.08 0,354.56 0,412.4 -419.6,2604.65 -629.42,3986.54 -629.42,4145.67l3190.68 0c202.58,0 303.86,318.42 303.86,955.1 0,434.1 -50.64,860.95 -151.93,1280.6 -101.29,318.31 -1222.76,426.85 -3364.31,325.56 -217.08,86.79 -325.62,564.33 -325.62,1432.53 0,1721.95 383.51,2582.96 1150.42,2582.96 448.54,0 1186.56,-274.97 2213.89,-824.86 57.9,0 115.79,0 173.69,0 1172.06,0 1758.09,614.98 1758.09,1844.94 0,1548.38 -1519.38,2322.49 -4558.07,2322.49 -1606.22,0 -2648.05,-962.24 -3125.59,-2886.76 -188.07,-738.02 -238.72,-2177.8 -151.88,-4319.35l-2409.33 -303.86c-115.73,-14.5 -173.63,-535.39 -173.63,-1562.77 0,-289.42 7.25,-463.05 21.7,-520.94l151.93 -238.77 2561.2 0zm8658.48 5209.25c0,-3255.77 1642.3,-4883.63 4927.02,-4883.63 2575.71,0 3863.56,1671.31 3863.56,5013.87 0,3024.31 -1432.53,4536.43 -4297.66,4536.43 -2995.3,0 -4492.93,-1555.57 -4492.93,-4666.67zm2756.53 65.15c0,1229.96 622.23,1844.94 1866.69,1844.94 1027.32,0 1541.02,-586.03 1541.02,-1758.09 0,-1418.09 -528.14,-2127.1 -1584.47,-2127.1 -1215.46,0 -1823.24,680.07 -1823.24,2040.26zm6965.42 6120.84c636.68,-2315.18 1367.39,-3472.79 2192.19,-3472.79 376.26,0 795.86,57.84 1258.91,173.63 14.5,130.24 21.75,260.47 21.75,390.65 0,2271.84 -911.65,3407.76 -2734.89,3407.76 -506.5,0 -759.72,-137.49 -759.72,-412.4 0,-28.95 7.25,-57.9 21.75,-86.84zm-50758.52 5578.26c159.13,-332.81 1591.72,-499.19 4297.6,-499.19 1273.41,0 2018.56,7.19 2235.64,21.7 3096.65,101.29 4673.86,209.77 4731.7,325.56l151.99 325.56 0 3103.84c0,434.1 -209.83,651.18 -629.48,651.18 -188.07,0 -303.86,0 -347.26,0 -2908.52,-448.54 -4536.37,-672.87 -4883.69,-672.87 -448.54,0 -889.9,7.25 -1323.99,21.7 -217.08,144.74 -325.62,303.92 -325.62,477.55l0 1801.49c3067.7,217.08 4601.52,998.49 4601.52,2344.18 0,506.44 -7.25,817.61 -21.7,933.34l-173.63 151.93 -4232.51 0 0 5382.93c0,130.18 -709.07,195.27 -2127.1,195.27 -492.05,0 -983.99,-7.19 -1475.98,-21.64 -361.76,-72.4 -578.78,-180.88 -651.12,-325.62 0,-405.15 0,-810.3 0,-1215.51 0,-694.51 0,-1106.92 0,-1237.15 144.68,-5035.62 202.52,-8957.02 173.63,-11764.24zm14084.69 325.62c202.58,-549.89 2141.55,-824.81 5816.98,-824.81 3892.45,0 5838.67,564.33 5838.67,1693 0,1012.88 -166.38,1533.76 -499.19,1562.77l-3234.08 325.56 -151.93 151.93c-28.95,188.13 -43.39,680.12 -43.39,1475.98 0,1114.17 14.45,1859.38 43.39,2235.64 173.63,1736.4 282.17,3031.44 325.56,3885.2 14.45,188.13 21.7,752.47 21.7,1693 0,578.84 -7.25,1150.37 -21.7,1714.7 -245.97,115.79 -976.74,173.63 -2192.25,173.63 -506.44,0 -1020.07,-7.19 -1541.02,-21.7 -231.58,-86.84 -390.71,-195.32 -477.55,-325.56 0,-217.02 0,-434.1 0,-651.18 0,-347.26 0,-557.08 0,-629.42 72.34,-1852.19 108.54,-4912.64 108.54,-9181.29 -173.63,-57.9 -369.01,-72.4 -586.03,-43.45 -940.6,173.69 -1642.36,282.22 -2105.41,325.56 -57.9,14.5 -217.02,21.75 -477.49,21.75 -173.63,0 -340.06,-7.25 -499.25,-21.75 -217.02,-289.36 -325.56,-1070.77 -325.56,-2344.13 0,-405.21 0,-810.3 0,-1215.46zm13628.89 7661.91c0,-1996.92 1302.3,-2995.3 3906.95,-2995.3 1577.21,0 2365.88,535.39 2365.88,1606.16 0,246.03 -412.46,730.71 -1237.21,1454.23 -564.33,-506.44 -969.49,-759.66 -1215.51,-759.66 -520.94,0 -781.41,224.27 -781.41,672.87 0,86.79 7.25,166.38 21.75,238.72 2633.54,1345.75 3950.29,2713.19 3950.29,4102.33 0,1432.53 -1295.05,2148.8 -3885.2,2148.8 -2387.57,0 -3581.33,-557.08 -3581.33,-1671.31 0,-1143.17 484.69,-1714.7 1454.23,-1714.7 86.79,0 419.65,159.13 998.43,477.49 376.26,217.08 766.91,325.62 1172.12,325.62 737.96,0 1106.92,-159.18 1106.92,-477.55 0,-43.39 -50.64,-94.09 -151.93,-151.93l-3038.75 -1519.38c-723.46,-361.76 -1085.22,-940.54 -1085.22,-1736.4zm7942.15 8139.46c636.62,-2315.23 1367.39,-3472.85 2192.19,-3472.85 376.26,0 795.86,57.84 1258.91,173.63 14.45,130.24 21.7,260.47 21.7,390.71 0,2271.84 -911.59,3407.71 -2734.89,3407.71 -506.44,0 -759.66,-137.43 -759.66,-412.35 0,-29 7.25,-57.95 21.75,-86.84zm-36372.06 15215.34c0,-1229.96 7.25,-1939.03 21.75,-2127.1 43.34,-1765.34 245.97,-2648.05 607.73,-2648.05l1888.33 0c303.86,0 455.8,101.29 455.8,303.86l0 5773.58c0,419.65 260.47,629.48 781.41,629.48 781.41,0 1172.06,-159.18 1172.06,-477.55l0 -5144.16c0,-737.91 520.94,-1106.92 1562.77,-1106.92 766.97,0 1208.26,108.54 1324.05,325.56 28.89,2951.91 340.06,5759.14 933.29,8421.63 14.5,28.95 21.75,108.54 21.75,238.77 0,463.05 -506.5,694.51 -1519.38,694.51 -72.34,0 -716.27,-260.41 -1931.78,-781.36 -1143.12,520.94 -2076.46,781.36 -2799.98,781.36 -1678.56,0 -2517.81,-1627.86 -2517.81,-4883.63zm9830.48 -4362.75c0,-419.6 166.43,-629.48 499.25,-629.48l1714.7 0c28.95,0 137.49,50.64 325.56,151.93 564.33,332.87 875.45,499.25 933.34,499.25 86.79,0 144.68,-7.19 173.63,-21.7 1273.41,-419.6 2112.6,-629.48 2517.81,-629.48 1779.85,0 2669.74,1649.61 2669.74,4948.83 0,2807.17 -267.72,4406.14 -803.11,4796.85 -231.52,14.45 -463.05,21.7 -694.57,21.7 -998.43,0 -1497.68,-166.43 -1497.68,-499.25l0 -5339.48c0,-549.83 -101.23,-860.95 -303.81,-933.29 -188.13,-14.5 -376.26,-21.75 -564.39,-21.75 -535.39,0 -926.04,159.18 -1172.06,477.55 43.39,1475.93 43.39,2944.72 0,4406.14 -28.95,1157.62 -188.07,1736.4 -477.49,1736.4l-2040.32 0 -303.86 -151.93c0,-3617.53 -209.83,-6135.29 -629.42,-7553.37 -231.58,-723.52 -347.31,-1143.12 -347.31,-1258.91z"></path> <path class="fil1" d="M13520.36 6537.66c0,-436.48 208.41,-754.16 625.06,-953 251.52,-120.04 587.33,-180.09 1007.27,-180.09 255.26,0 497.72,18.01 727.2,54.04 225.86,35.41 428.83,89.34 608.97,161.73 116.64,40.67 217.93,72.62 303.47,95.68 35.01,9.4 17.73,14.16 31.67,14.16l188.53 0c601.67,-111.03 1123.06,-195.27 1563.68,-252.54 485.65,-63.16 871.14,-94.77 1156.26,-94.77 435.12,0 912.55,8.16 1431.97,24.36 65.09,2.04 127.69,13.26 186.66,32.29 399.77,112.05 712.24,260.13 937.03,444.13 324.94,265.8 487.52,592.49 487.52,979.57 0,71.43 -0.68,141.34 -1.98,210 31.55,-30.82 66.11,-58.57 103.21,-82.76 560.2,-430.3 1061.48,-757 1503.63,-979.97 513.92,-259.22 968.07,-388.84 1362.35,-388.84 190.28,0 362.84,29.4 517.43,88.43 195.78,74.49 355.19,193.74 478.06,357.74 609.88,810.76 1153.93,1455.42 1632.16,1933.65 180.09,180.09 345.39,331.28 495.73,453.64l1086.69 -2273.6 16.14 -31.61c79.65,-150.18 199.06,-282.28 358.08,-395.86 116.75,-83.33 261.26,-160.49 433.42,-231.41 84.07,-34.56 171.08,-50.81 256.62,-50.76l0 -2.15 1085.28 0c1083.52,0 1773.84,157.03 2071.19,470.86 11.05,-51.95 24.47,-100.66 40.39,-146.1 131.48,-375.64 382.15,-563.54 751.5,-563.54l2257.4 0c253.96,0 501.57,154.25 743.34,462.71 51.89,66.22 110.01,145.02 174.36,236.51 534.37,-208.58 992.54,-370.43 1374.3,-485.59 520.21,-156.8 928.3,-235.32 1224.18,-235.32 2477.31,0 3715.99,2106.88 3715.99,6320.58 0,1582.03 -312.64,2791.42 -937.99,3628.01 -671.17,897.88 -1655.05,1346.94 -2951.63,1346.94l-151.93 0c-97.83,0 -190.74,-20.79 -274.75,-58.12l-1561.52 -520.49c11.1,1143.85 44.02,2145.57 98.74,3004.93 8.44,57.61 14.84,132.16 19.15,223.54 5.38,112.96 8.04,219.12 8.04,319.33 0,729.18 -372.86,1264.8 -1118.53,1606.78 -573.34,262.96 -1388.57,394.5 -2445.53,394.5 -345.5,0 -628.29,-69.62 -848.15,-208.92 -320.18,-202.8 -480.27,-496.47 -480.27,-880.77l0 -238.72c0,-49.57 5.38,-97.83 15.47,-144.4 438.23,-3473.64 657.41,-6109.91 657.41,-7908.28 0,-782.04 -100.21,-2382.31 -300.52,-4800.36 -92.96,321.76 -226.59,687.89 -400.85,1098.31 -347.43,818.35 -862.7,1837.06 -1545.66,3056.03 -905.19,1615.79 -1775.15,2837.37 -2609.86,3664.38 -922.07,913.69 -1826.07,1370.56 -2711.83,1370.56 -900.21,0 -1596.19,-105.42 -2087.79,-316.1 -680.29,-291.51 -1020.47,-759.26 -1020.47,-1403.02 0,-700.46 104.29,-1249.56 312.7,-1647.06 283.19,-540.09 715.93,-810.08 1297.88,-810.08l325.62 0c111.31,0 216.28,26.85 308.96,74.44 73.08,30.7 129.33,52.63 168.53,65.71 32.23,10.76 56.93,17.39 73.53,19.77 24.02,3.4 47.64,8.1 70.7,13.88 1.81,-0.45 -2.15,-3.91 17.73,-2.95 36.99,1.87 120.38,2.78 250.44,2.78 10.65,0 42.15,-29.06 94.26,-87.18 72.85,-81.29 146.1,-191.13 219.63,-329.47 -1366.93,-942.18 -2401.91,-1737.64 -3104.86,-2386.22 -605.24,-558.44 -994.47,-1052.42 -1167.81,-1481.87 -47.58,259.9 -111.77,483.67 -192.66,671.17 -297.8,690.32 -779.09,982.63 -1443.81,876.98 -53.76,-8.55 -104.91,-23.23 -153.12,-43.17l-0.34 0.79c-195.15,-81.29 -341.59,-140.94 -439.71,-179.12 -130.12,-50.59 -228.29,-86.96 -294.01,-108.88l-23.68 -8.33 -0.17 0.4c-265.34,-98.68 -545.92,-174.08 -841.4,-226.03 -288.97,-50.81 -588.41,-76.25 -898.28,-76.25 -159.75,0 -314.23,1.3 -463.44,3.8 139.13,1605.48 247.16,2889.48 324.14,3851.26 81.29,1016.84 122.02,1611.54 122.02,1783.87l0 803.11c0,254.01 -139.92,475.4 -346.86,591.24 -426.9,274.35 -1224.35,411.61 -2392.45,411.61 -526.38,0 -939.12,-41.41 -1238,-124.17 -566.66,-156.92 -850.07,-471.66 -850.07,-943.77l0 -86.84c0,-45.43 4.48,-89.84 13.03,-132.73 157.37,-881.57 274.29,-1663.32 350.37,-2345.2 76.08,-681.03 114.09,-1280.43 114.09,-1798.03 0,-184.45 -38.01,-613.85 -114.09,-1287.91 -82.08,-727.94 -198.67,-1665.64 -349.58,-2812.67 -13.03,-61.63 -22.15,-134.88 -27.53,-219.8l-0.74 -15.13c-4.82,-81.86 -7.31,-163.49 -7.31,-244.27zm1632.33 221.5c-107.97,0 -197.31,3.97 -268.06,11.84l4.08 26.62c164.56,1249.16 284.83,2210.38 360.8,2883.76 83.1,736.66 124.63,1215.4 124.63,1436.05 0,553.17 -41.52,1201.97 -124.63,1946.22 -71.6,641.26 -172.27,1340.08 -301.77,2096.23 170.06,22.49 397.5,33.76 682.45,33.76 648.8,0 1110.37,-27.81 1384.72,-83.44l0 -367.99c0,-145.98 -38.92,-705.39 -116.7,-1678.11 -75.85,-948.13 -194.82,-2353.93 -356.83,-4217.44 -2.61,-24.13 -3.97,-48.6 -3.97,-73.36l0 -86.79c0,-178.73 48.89,-344.88 146.44,-498.11 86.62,-135.96 202.29,-245.4 346.8,-328l0.68 1.19c91.32,-52.4 196.34,-84.12 308.85,-88.49 389.57,-16.2 738.59,-24.36 1046.59,-24.36 384.7,0 761.7,32.46 1131.11,97.44 362.78,63.73 722.67,162.07 1079.5,294.8 101.57,34.39 212.83,75.12 333.72,122.13 106.56,41.41 211.07,82.99 313.27,124.63 -8.21,-13.99 -15.92,-33.31 -6.46,-55.29 118.57,-274.92 179.58,-744.7 182.98,-1409.19 -78.4,-60.39 -205.13,-116.87 -379.83,-169.21 -386.8,-11.1 -823.05,-16.65 -1308.59,-16.65 -250.22,0 -577.48,26.34 -981.67,78.91 -418.52,54.38 -921.96,136.01 -1510.09,244.72 -56.71,15.41 -116.41,23.68 -177.99,23.68l-238.72 0c-100.78,0 -227.78,-20.68 -380.79,-61.86 -100.78,-27.08 -236.17,-70.41 -405.83,-129.78l0.23 -0.57c-13.37,-4.7 -26.62,-9.74 -39.88,-15.3 -86.67,-36.54 -194.87,-64.98 -324.26,-85.26 -139.36,-21.87 -313.04,-32.8 -520.77,-32.8zm15981.01 80.1l-1349.94 2824.51 -3.57 9.35c-137.32,347.71 -530.57,518.28 -878.34,380.96 -434.78,-172.1 -931.25,-537.14 -1489.07,-1094.96 -486.67,-486.67 -1046.42,-1147.7 -1679.13,-1982.82 -183.66,2.61 -431.95,82.76 -744.7,240.53 -296.9,149.72 -633.56,361.53 -1009.93,635.32 106.1,173.12 365.44,450.02 778.07,830.75 678.54,626.08 1705.75,1410.78 3081.41,2353.87l-0.68 1.02 24.47 17.5c68.26,51.21 132.05,104.69 191.19,160.32 15.75,13.09 30.99,26.96 45.77,41.69 64.69,64.69 131.99,143.66 201.84,236.79 135.84,181.56 176.97,427.24 87.3,653.44 -195.95,494.15 -414.73,876.02 -656.11,1145.21 -324.03,361.48 -690.6,542.3 -1099.55,542.3 -101.4,0 -206.31,-2.72 -313.89,-8.1 -89.45,-4.48 -164.9,-12.24 -226.37,-23.17 -82.37,-12.69 -180.94,-38.24 -295.37,-76.31 -60.56,-20.17 -121.51,-42.26 -182.86,-66.05l-197.02 0c-40.11,0 -74.21,26.62 -102.08,79.82 -102.59,195.72 -153.91,536.63 -153.91,1022.74 0,50.7 65.03,104.01 194.98,159.69 318.71,136.52 838.29,204.84 1558.69,204.84 517.88,0 1104.37,-324.54 1759.45,-973.68 742.5,-735.64 1536.65,-1858.48 2382.36,-3368.11 662.79,-1182.94 1156.88,-2157.58 1482.21,-2923.76 299.33,-704.88 449,-1204.58 449,-1498.93 0,-306.81 -295.2,460.21 -885.48,460.21l-942.58 0 -26.17 15.01zm5815.67 -253.79l-1458.48 0 0 101.63c231.47,2738.06 347.31,4540.51 347.31,5407.07 0,1818.82 -222.35,4494.51 -666.93,8026.5 851.03,-2.21 1468.56,-91.32 1852.58,-267.44 216.45,-99.31 324.82,-225.75 324.82,-379.26 0,-131.37 -0.91,-217.02 -2.78,-255.83 -1.59,-34.33 -3.51,-56.99 -5.66,-67.7l1.08 -0.23c-5.78,-29.23 -9.74,-59.2 -11.67,-89.73 -74.1,-1141.36 -111.2,-2486.82 -111.2,-4036.11 0,-374.05 303.24,-677.29 677.29,-677.29l108.54 0 0 2.89c70.13,0 141.45,10.93 211.64,34.16l2298.13 766.06 51.44 0c845.03,0 1467.32,-267.33 1866.92,-801.86 445.43,-595.94 668.17,-1535.46 668.17,-2818.5 0,-3310.67 -787.19,-4966.06 -2361.46,-4966.06 -167.17,0 -446.51,59.08 -837.89,177.08 -429.51,129.5 -962.07,322.22 -1597.32,577.93 -90.3,44.64 -192.04,69.79 -299.62,69.79l-151.93 0 0 -2.15c-220.76,-0.23 -436.99,-108.48 -566.15,-307.43 -137.94,-212.72 -250.27,-377.22 -336.83,-493.52zm3247.11 5547.72c83.33,0 141.79,-36.99 175.33,-110.92 5.72,-160.94 10.08,-313.1 12.86,-456.31l0.11 -3.63c1.76,-95.96 2.66,-272.59 2.66,-531.71 0,-714.68 -67.47,-1228.03 -202.24,-1539.77 -55.4,-128.08 -109.56,-192.27 -162.36,-192.27 -613.79,0 -1052.36,68.49 -1315.72,205.41 -118.28,61.52 -177.54,143.6 -177.54,246.03l0 1910.03c0,104.23 68.43,189.89 205.13,256.96 293.61,144.11 780.96,216.17 1461.76,216.17zm1499.95 171.08c-203.6,788.95 -703.58,1183.51 -1499.95,1183.51 -881.85,0 -1566.68,-119.7 -2054.42,-359.1 -644.55,-316.33 -966.99,-805.89 -966.99,-1468.62l0 -1910.03c0,-650.04 302.62,-1132.41 907.74,-1447.09 460.1,-239.23 1106.8,-358.87 1940.05,-358.87 641.83,0 1108.62,337.51 1400.41,1012.37 212.43,491.31 318.71,1182.71 318.71,2074.19 0,97.04 -2.72,283.64 -8.04,557.76l0 4.08c-3.85,198.55 -9.35,388.27 -16.31,568.92l-0.62 -0.06c-1.64,47.36 -8.38,95.23 -20.56,142.92zm5096.29 -7095.03l280.58 -3928.42 3.68 -37.39c25.83,-292.48 143.43,-546.94 352.36,-763.12 180.48,-186.66 420.67,-333.55 720.52,-440.67 75.23,-26.79 151.99,-39.48 227.5,-39.48l955.1 -0.17c413.99,0 757.05,16.2 1028.91,48.72 338.36,40.33 598.38,116.36 779.77,228.07 206.37,127.46 320.07,348.11 320.24,574.08l2.55 0 0 803.11c0,56.25 -6.91,110.86 -19.83,163.09 -184.39,1145.49 -337.8,2121.04 -460.16,2927.32l-56.93 378.02 2420.88 0c429.4,0 719.67,237.47 870.8,712.3 73.47,231.18 110.3,537.94 110.3,920.03 0,240.08 -14.45,481.85 -43.22,725.05 -27.42,231.18 -70.75,469.39 -129.9,714.28 -50.25,207.73 -191.64,369.52 -371.39,453.3 -533.23,320.52 -1618.79,455.4 -3256.57,404.81 -27.13,180.6 -40.73,427.7 -40.73,741.25 0,768.67 75.57,1322.75 226.76,1662.07 72.28,162.36 154.42,243.59 246.37,243.59 147.74,0 366.01,-53.76 654.41,-161.22 340.97,-126.95 755.01,-320.92 1242.02,-581.56 101.29,-54.04 210.17,-79.53 317.46,-79.48l0 -2.55 173.69 0c1006.25,0 1700.6,323.07 2083.14,968.98 -18.18,-239.85 -27.53,-488.88 -27.53,-747.54 0,-1814.18 477.66,-3194.76 1432.82,-4141.59 954.64,-946.2 2345.2,-1419.33 4171.5,-1419.33 1508.22,0 2652.29,506.04 3432.06,1518.02 739.15,959.29 1108.79,2350.41 1108.79,4173.14 0,1690.29 -420.79,2979.67 -1262.3,3867.92 -849.9,897.15 -2087.45,1345.75 -3712.65,1345.75 -2519.45,0 -4118.02,-951.93 -4795.77,-2855.49 -107.41,1874.68 -1850.77,2812.1 -5230.04,2812.1 -978.38,0 -1792.93,-300.58 -2443.71,-901.62 -619.4,-572.15 -1065.05,-1404.27 -1336.68,-2496.11l-1.25 0.34c-104.46,-409.97 -170.4,-1002.12 -197.59,-1776.33l-0.17 -7.7c-20.62,-591.3 -18.81,-1294.59 5.44,-2109.83l-1794.52 -226.31 -0.28 2.27c-411.61,-51.49 -651.97,-384.76 -720.18,-999.45 -32.46,-292.19 -48.72,-704.03 -48.72,-1235.28 0,-119.64 2.72,-244.44 8.04,-373.66 5.66,-137.6 17.33,-241.44 34.84,-311.34 22.55,-90.41 62.37,-171.99 115.05,-242.06l124.17 -195.04c128.42,-201.61 346.24,-311.91 568.75,-312.08l0 -2.78 1931.61 0zm1627.97 -3807.87l-321.26 4497.91c-6.8,368.16 -307.32,664.49 -677.12,664.49l-2057.48 0 -0.06 82.42c0,406.11 8.5,722.61 25.55,949.55l1939.26 244.5c356.72,31.1 629.65,337.46 615.49,699.05 -42.6,1051.29 -51.78,1927.7 -27.47,2629.01l0.28 6.63c23.4,665.68 76.99,1162.6 160.54,1490.54l-1.3 0.34 1.3 4.99c205.97,830.13 519.75,1439.95 941.11,1829.13 391.05,361.14 900.55,541.73 1528.38,541.73 2587.2,0 3880.84,-548.36 3880.84,-1645.19 0,-778.41 -360.34,-1167.64 -1080.86,-1167.64l-11.16 0c-475.4,248.86 -892.5,440.05 -1251.03,573.63 -449.45,167.45 -824.69,251.18 -1125.38,251.18 -674.97,0 -1168.1,-349.35 -1479.16,-1047.83 -232.32,-521.62 -348.5,-1259.13 -348.5,-2212.36 0,-478.4 33.37,-864.29 99.93,-1157.45 105.71,-465.03 319.22,-764.25 640.3,-897.43 90.18,-38.12 190.06,-57.16 294.35,-52.29 1742.63,82.42 2631.39,152.78 2686.85,146.15 37.22,-161.62 66.51,-332.13 87.75,-511.31 21.7,-183.6 32.63,-372.47 32.63,-566.37 0,-107.58 -2.49,-200.14 -7.42,-277.81l-2809.83 0c-374.05,0 -677.24,-303.24 -677.24,-677.29 0,-111.65 55.06,-530.52 165.3,-1256.36 83.95,-553.46 238.83,-1530.25 464.12,-2929.36l0 -231.13c-201.67,-18.81 -460.72,-28.27 -776.94,-28.27l-827.52 0c-36.43,16.37 -64.52,32.06 -84.24,46.85zm9368.06 6510.47c-687.09,681.03 -1030.67,1742.4 -1030.67,3183.89 0,2659.55 1271.88,3989.37 3815.63,3989.37 1239.98,0 2151.35,-307.55 2733.87,-922.41 590.96,-623.87 886.55,-1602.76 886.55,-2936.73 0,-1519.72 -274.41,-2635.64 -823.05,-3347.71 -507.97,-659.22 -1295.78,-988.92 -2363.27,-988.92 -1458.31,0 -2531.41,340.86 -3219.06,1022.51zm1725.86 3249.03c0,778.41 396.48,1167.64 1189.4,1167.64 311.06,0 527.06,-68.88 647.84,-206.71 143.89,-164.17 215.95,-455.63 215.95,-874.09 0,-561.73 -87.13,-959.52 -261.21,-1193.25 -127.4,-171.02 -342.78,-256.62 -646.02,-256.62 -763.91,0 -1145.95,454.38 -1145.95,1363.03zm1189.4 2522.23c-1695.95,0 -2543.98,-840.78 -2543.98,-2522.23 0,-1811.68 833.59,-2717.55 2500.53,-2717.55 753.09,0 1330.06,268.97 1730.73,806.96 353.94,475.17 531.03,1141.02 531.03,1997.43 0,753.43 -184.9,1341.22 -554.59,1763.02 -392.86,448.15 -947.45,672.36 -1663.72,672.36zm4461.15 3373.6c333.21,-1201.12 697.12,-2114.36 1091.73,-2739.42 498.91,-790.36 1078.31,-1185.66 1738.04,-1185.66 211.47,0 441.29,17.11 689.47,51.38l21.98 3.4c233.17,33.08 470.47,79.76 711.51,140.04 290.32,72.57 489.39,322.78 510.46,605.75 6.8,65.32 12.29,134.99 16.43,208.69 5.32,96.81 8.04,174.53 8.04,232.32 0,2723.33 -1137.39,4085 -3412.12,4085 -957.99,0 -1436.95,-363.23 -1436.95,-1089.64 0,-105.25 20.51,-209.15 61.41,-311.85zm2234.57 -2019.81c-293.89,465.6 -575.55,1154.56 -844.97,2066.6 1320.99,-6 2001.57,-861.91 2041.62,-2567.72l-76.87 -11.67 -20.28 -2.44c-171.36,-23.68 -339.5,-35.52 -504.29,-35.52 -165.02,0 -363.46,183.66 -595.21,550.74zm-52924.43 7460.41l7.08 -10.93c225.75,-344.65 785.43,-569.04 1678.9,-672.76 746.57,-86.73 1806.87,-130.12 3180.54,-130.12 457.1,0 964.67,2.72 1519.26,8.1 403.45,3.85 657.35,9.35 761.36,16.26l16.82 1.3c1558.12,51.21 2721.12,103.27 3488.6,156.07 1045.17,71.89 1640.15,252.48 1784.49,541.22l159.92 341.48c43.22,92.51 63.62,189.89 63.56,285.68l2.55 0 0 3103.84c0,885.59 -435.57,1328.47 -1306.72,1328.47l-347.26 0c-39.2,0 -77.61,-3.4 -114.94,-9.8 -1522.44,-234.7 -2648.27,-402.38 -3377.28,-502.81 -775.46,-106.78 -1239.3,-160.26 -1391.46,-160.26 -325.56,0 -543.77,0.96 -656.5,2.78 -103.16,1.64 -208.47,3.85 -315.82,6.57l0 994.02c1319.18,136.3 2346.16,391.56 3080.73,765.78 1013.79,516.47 1520.79,1249.33 1520.79,2198.48 0,532.84 -9.01,871.37 -27.02,1015.37 -23.34,190.85 -123.95,353.43 -266.7,460.21l-134.48 117.6c-128.08,112.11 -286.59,167 -444.41,167l0 2.32 -3555.28 0 0 4705.7c0,475.23 -382.66,748.22 -1148.21,818.4 -392.92,36.14 -944.96,54.16 -1656.13,54.16 -130.24,0 -379.83,-2.72 -745.95,-8.04 -259.96,-3.8 -509.56,-9.23 -748.5,-16.26 -38.75,-1.08 -76.59,-5.44 -113.41,-12.75l-0.4 2.1c-576.34,-115.22 -950.4,-344.65 -1122.04,-688 -48.49,-96.98 -71.38,-200.03 -71.26,-301.6l-2.83 0 0 -2452.66c0,-25.83 1.47,-51.27 4.31,-76.31 71.66,-2501.38 121.74,-4717.93 150.29,-6649.15 28.83,-1957.16 36.09,-3635.04 21.7,-5033.47 -1.08,-135.39 37.84,-261.77 105.71,-367.99zm1839.44 660.24c-326.18,37.84 -505.08,-8.38 -593.28,-20.51 10.88,1350.22 2.78,2942.73 -24.3,4777.64 -29,1960.33 -79.14,4184.59 -150.35,6672.09l1.02 37.44 0 2103.82c250.16,7.36 490.18,12.75 719.78,16.09 125.76,1.81 368.33,2.78 730.09,2.78 646.93,0 1130.2,-12.18 1449.81,-36.48l0 -4864.48c0,-374.05 303.24,-677.29 677.29,-677.29l3748.79 0c1.19,-115.05 1.81,-251.01 1.81,-407.98 0,-396.54 -260.07,-727.26 -780.05,-992.15 -680.69,-346.75 -1733.39,-571.76 -3157.54,-674.91 -367.88,-7.14 -663.92,-307.55 -663.92,-677.12l0 -1801.49c0,-224.39 66.85,-434.61 200.48,-630.61 104.91,-153.86 247.16,-290.78 426.68,-410.42l1.25 1.87c101.4,-67.75 222.4,-108.88 353.26,-113.01 210.39,-6.97 432.97,-12.46 667.49,-16.26 328.22,-5.32 554.99,-8.04 677.69,-8.04 195.21,0 718.99,58.74 1571.32,176.12 885.7,122.08 2007.18,287.66 3363.97,496.7l247.84 0 0 -2933.73 -82.42 -176.57c-83.84,-149.84 -141,249.37 -663.58,213.45 -796.2,-54.78 -1943.96,-106.84 -3443.05,-156.12 -20.56,0.51 -41.41,0.11 -62.31,-1.25 -112.96,-7.53 -340.4,-13.03 -681.99,-16.31 -190.57,-1.81 -692.36,-2.78 -1508.67,-2.78 -1332.15,0 -2341.29,39.88 -3027.08,119.53zm12214.83 -287.61c236.79,-481.97 941.05,-806.17 2112.94,-972.26 1006.76,-142.75 2441.39,-214.19 4303.38,-214.19 2004.4,0 3526.84,150.86 4566.85,452.4 1299.35,376.77 1949.11,1016.17 1949.11,1917.9 0,570.45 -53.08,1021.83 -159.18,1354.07 -175.16,548.42 -494.94,842.93 -959.12,883.32l-40.73 2.21 -2759.76 277.86 -1.64 51.44c-5.44,185.92 -8.21,501.91 -8.21,947.34 0,640.64 2.78,1102.27 8.21,1383.76 6.51,337.34 17.45,604.61 32.57,801.64l1.3 23.68c171.65,1719.91 279.56,3007.14 323.46,3861.52l0.79 0c6.8,88.37 12.29,290.78 16.26,606.88 5.38,419.94 8.1,799.6 8.1,1136.37 0,153.97 -2.72,445.37 -8.1,870.75 -3.68,296.1 -9.18,582.8 -16.26,859.81 -6.17,263.93 -163.15,488.88 -386.63,594.47l0.4 0.79c-199.29,93.87 -522.07,158.39 -968.01,193.74 -387.59,30.7 -891.88,46.06 -1512.63,46.06 -455.34,0 -975.04,-8.1 -1559.54,-24.36 -85.37,-2.32 -166.6,-20.45 -240.98,-51.49 -160.15,-61.69 -298.37,-132.22 -414.44,-211.47 -150.63,-102.65 -272.2,-223.25 -364.42,-361.59 -77.38,-115.51 -114.37,-246.31 -114.26,-375.64l-2.15 0 0 -1280.6c0,-27.53 1.64,-54.55 4.82,-81.18 35.29,-923.32 61.69,-2127.1 79.19,-3611.19 14.67,-1245.03 22.77,-2854.81 24.25,-4829.42 -380.51,68.88 -726.24,127.35 -1037.07,175.38 -340.52,52.68 -628.8,90.81 -864.86,114.32 -64.01,11.33 -145.93,19.32 -245.69,23.85 -118.45,5.32 -233.28,8.1 -343.8,8.1 -175.38,0 -362.16,-9.06 -560.09,-27.02 -204.56,-18.52 -379.55,-126.61 -489.73,-282.05 -173.23,-239.23 -294.29,-606.08 -362.89,-1100.46 -59.54,-428.77 -89.39,-973.34 -89.39,-1633.64l0 -1215.46c0,-114.03 28.21,-221.44 77.95,-315.65zm2298.07 366.35c-567.56,80.5 -908.08,135.56 -1021.43,165.36l0 999.4c0,613.11 24.53,1095.93 73.47,1448.45 12.86,92.73 25.66,172.72 38.52,240.08l35.52 0.06c149.89,0 244.95,-0.96 285.62,-2.78 29.97,-1.36 16.43,5.1 27.87,2.27l0.34 1.42c33.31,-8.27 67.58,-14.16 102.82,-17.33 217.87,-20.39 495,-56.59 831.32,-108.6 333.77,-51.61 738.25,-121.34 1213.25,-209.03l34.39 -5.27c157.6,-20.96 305.79,-26.4 444.13,-16.14 123.83,9.18 245.8,30.99 365.67,65.32 308.62,63.16 540.83,336.27 540.83,663.58 0,1990.13 -9.97,3825.26 -29.8,5504.79 -17.96,1516.37 -44.41,2732.4 -79.36,3648.07l0.62 28.44 0 936.18c409.12,9.63 856.36,14.45 1341.27,14.45 594.81,0 1063.81,-13.6 1406.87,-40.79l122.47 -10.37 4.59 -305.05c1.81,-146.15 2.78,-430.08 2.78,-854.89 0,-603.42 -0.96,-976.23 -2.78,-1120.46 -3.17,-248.46 -8.61,-422.71 -16.26,-522.3l0.96 -0.11 -0.96 -15.75c-42.77,-839.65 -148.99,-2110.28 -318.76,-3811.44 -3.06,-19.03 -5.38,-38.35 -6.85,-57.9 -13.77,-179.18 -24.64,-472.9 -32.57,-880.94 -8.95,-463.5 -13.48,-931.65 -13.48,-1404.95 0,-350.32 4.53,-678.31 13.48,-984.33 8.38,-285.23 21.02,-482.7 37.9,-592.21l1.47 0.23c20.68,-138.68 84.58,-272.08 191.64,-378.53l151.93 -151.93c106.56,-105.93 248.91,-177.25 410.08,-193.12l3042.55 -306.3c53.02,-191.7 79.59,-495.11 79.59,-910.06 0,-226.88 -323.46,-434.1 -970.28,-621.61 -906.04,-262.74 -2303.17,-394.16 -4191.16,-394.16 -1813.33,0 -3186.21,66.17 -4118.25,198.27zm11252.88 7611.21c0,-2448.36 1528.1,-3672.59 4584.24,-3672.59 2028.7,0 3043.11,761.19 3043.11,2283.45 0,285.4 -157.77,613.68 -473.3,984.56 -231.01,271.52 -563.32,597.47 -996.73,977.64 -76.08,66.56 -162.98,112.96 -254.01,139.7 508.93,353.54 936.91,710.55 1283.94,1070.94 785.38,815.52 1178.07,1660.83 1178.07,2535.65 0,1884.02 -1520.85,2826.04 -4562.49,2826.04 -1289.72,0 -2280.34,-161.34 -2971.68,-483.89 -857.95,-400.34 -1286.95,-1021.94 -1286.95,-1864.65 0,-735.75 174.99,-1309.95 524.96,-1722.52 363.35,-428.49 871.54,-651.29 1524.53,-668.34l-132.73 -66.39c-973.91,-486.95 -1460.97,-1266.89 -1460.97,-2339.59zm4584.24 -2318.07c-2153.11,0 -3229.71,772.69 -3229.71,2318.07 0,518.96 236.57,896.69 709.58,1133.2l3006.8 1503.46c21.53,9.4 42.83,20 63.67,31.84 71.21,40.62 133.75,83.16 187.56,127.35 25.04,18.86 49.11,39.65 71.89,62.48 157.6,157.54 236.45,341.03 236.45,549.38 0,455.74 -229.03,782.32 -686.81,979.85 -270.44,116.64 -636.28,174.93 -1097.4,174.93 -258.88,0 -517.88,-35.97 -776.77,-107.86 -232.83,-64.64 -461.4,-159.52 -685.68,-284.43l-35.07 -17.96c-294.57,-162.02 -511.08,-276.11 -649.25,-342.22 -70.53,-33.71 31.04,-50.59 -23.79,-50.59 -276.96,0 -468.54,62.65 -574.76,187.9 -134.77,158.9 -202.24,442.09 -202.24,849.5 0,271.46 168.02,485.65 503.83,642.34 502.36,234.41 1302.47,351.68 2400.26,351.68 2138.6,0 3207.96,-490.52 3207.96,-1471.51 0,-514.31 -265.74,-1047.38 -797.1,-1599.19 -598.72,-621.78 -1508.84,-1247.01 -2730.02,-1875.53 -203.99,-82.76 -363.74,-263.25 -409.97,-495.28 -23.28,-116.47 -34.95,-240.19 -34.95,-371.05 0,-900.09 486.22,-1350.17 1458.65,-1350.17 251.07,0 532.95,97.78 845.54,293.16 108.14,67.53 225.46,150.29 352.02,248.18 180.99,-171.82 325.22,-320.86 432.57,-447.02 96.81,-113.86 145.3,-72.17 145.3,-111.6 0,-619.28 -562.86,-928.93 -1688.59,-928.93zm3397.62 10232.46c333.21,-1201.12 697.12,-2114.36 1091.68,-2739.36 498.96,-790.42 1078.31,-1185.71 1738.1,-1185.71 209.66,0 438.63,17.22 686.81,51.38 241.15,33.25 486.67,81.12 736.09,143.49 290.38,72.51 489.45,322.78 510.52,605.75 6.8,65.32 12.29,134.94 16.37,208.64 5.38,96.87 8.1,174.53 8.1,232.37 0,2723.33 -1137.39,4085 -3412.18,4085 -957.93,0 -1436.95,-363.23 -1436.95,-1089.64 0,-105.2 20.51,-209.15 61.46,-311.91zm2234.57 -2019.75c-293.89,465.54 -575.55,1154.5 -844.97,2066.6 1320.99,-6.06 2001.57,-861.97 2041.62,-2567.77l-94.49 -14.11c-171.36,-23.62 -340.4,-35.46 -506.95,-35.46 -165.02,0 -363.46,183.6 -595.21,550.74zm-38646.34 17460.16c0,-1240.55 8.16,-1966.39 24.42,-2177.35l1.25 -14.28c23.96,-907.68 90.41,-1598.51 199.12,-2072.27 181.79,-792.29 542.58,-1188.55 1081.99,-1188.55l1888.33 0c288.57,0 527.8,63.28 717.51,189.77 20.56,13.77 40.16,28.38 58.74,43.9 237.81,182.64 356.83,431.95 356.83,747.48l0 5724.64c26.06,0.74 60.78,1.13 104.12,1.13 210.85,0 375.86,-11.16 494.77,-33.37l0 -4911.05c0,-599.63 226.48,-1059.84 679.11,-1380.47 379.94,-269.14 900.43,-403.74 1560.96,-403.74 1035.82,0 1675.61,228.52 1919.26,685.39 54.38,101.97 79.93,211.7 79.48,319.73 14.33,1440.46 98.46,2854.81 252.31,4242.88 153.23,1382.8 373.94,2722.03 661.94,4017.3 28.89,108.88 43.34,241.61 43.34,397.96 0,914.54 -732.24,1371.81 -2196.61,1371.81 -120.83,0 -383.8,-81.97 -788.72,-245.69 -281.54,-113.81 -661.2,-272.71 -1138.98,-476.42 -498.23,215.55 -958.78,382.38 -1381.55,500.27 -529.89,147.85 -1004.1,221.84 -1422.51,221.84 -2130.05,0 -3195.1,-1853.66 -3195.1,-5560.92zm1373.62 -2076.86c-12.69,165.13 -19.03,857.49 -19.03,2076.86 0,2804.23 613.51,4206.4 1840.52,4206.4 305.11,0 659.45,-56.31 1062.79,-168.87 425.49,-118.68 901.51,-297.41 1427.72,-535.84 172.44,-88.71 381.64,-102.99 574.02,-21.07 609.26,261.09 1069.7,454.72 1381.15,580.65 239.17,96.76 237.58,145.13 286.08,145.13 561.39,0 842.08,-5.78 842.08,-17.28 0,-4.7 2.49,-4.02 6.46,0l18.13 0c-11.33,-29.97 -20.68,-61.07 -27.76,-93.3 -303.69,-1362.97 -534.25,-2754.26 -691.51,-4173.77 -146.27,-1319.29 -230.79,-2678.69 -253.67,-4077.92 -102.36,9.52 -312.42,36.26 -653.44,36.26 -381.13,0 -642.28,49.96 -783.17,149.78 -68.15,48.32 -102.31,141.62 -102.31,279.9l0 5144.16c0,462.2 -238.83,790.59 -716.38,985.12 -277.52,113.13 -655.26,169.66 -1132.97,169.66 -417.84,0 -754.39,-102.7 -1009.31,-308.17 -299.56,-241.21 -449.34,-574.14 -449.34,-998.55l0 -5400.21 -1666.89 0c-177.65,0 256.17,45.26 235.43,135.56 -90.07,392.92 -145.98,994.53 -167.34,1804.55 1.13,26.68 0.79,53.65 -1.25,80.95zm7454.58 6343.02c-13.03,-24.7 -24.64,-50.42 -34.67,-77.04l-18.13 0c17.28,17.45 62.31,98 52.8,77.04zm1002.34 -8628.91c0,-365.67 90.98,-663.3 272.93,-892.78 218.83,-275.99 520.15,-413.99 903.55,-413.99l1714.7 0c110.47,0 240.19,34.78 388.84,104.18 78.8,36.77 164.34,80.1 256.85,129.84l23.68 13.43c293.67,172.84 503.72,293.33 630.27,360.97 21.3,11.44 6.12,20.56 -14.62,27.42l-4.53 8.5c621.44,-203.71 1145.61,-359.04 1572.51,-465.77 476.08,-118.91 841.97,-178.56 1097.34,-178.56 1158.3,0 2024.17,531.54 2597.51,1594.38 499.59,926.15 749.46,2270.14 749.46,4031.75 0,1435.42 -70.47,2574.01 -211.3,3415.69 -164,979.4 -454.72,1621.51 -872.22,1926.11 -107.63,78.4 -230.79,120.27 -354.56,127.91l0.11 1.76c-99.87,6.23 -223.59,11.67 -370.82,16.26 -172.38,5.32 -294.97,8.04 -366.12,8.04 -566.15,0 -1011.12,-53.99 -1334.87,-161.85 -560.03,-186.6 -840.04,-524.85 -840.04,-1014.64l0 -5339.48c0,-176.23 140.38,-235.32 165.07,-268.8 -115.73,-5.95 -234.47,-8.95 -356.04,-8.95 -180.6,0 -327.54,23.11 -440.56,69.11 -16.77,6.8 -32.91,14.28 -48.26,22.26 17.67,681.2 26.57,1320.43 26.57,1917.39 0,687.15 -11.73,1425.96 -35.18,2216.16l-0.17 4.93c-16.14,629.82 -71.04,1115.24 -164.73,1456.1 -171.25,622.74 -500.32,934.14 -987.22,934.14l-2040.32 0c-131.43,0 -254.13,-37.5 -358.02,-102.31l-247.39 -123.72c-236.17,-118.06 -372.69,-355.98 -372.92,-603.2l-2.78 0c0,-1792.88 -51.61,-3308.23 -154.76,-4545.84 -101.4,-1216.82 -249.93,-2155.88 -445.6,-2817.09l-1.3 -4.82c-115.34,-361.14 -202.69,-648.85 -261.77,-862.99 -75.51,-273.9 -113.3,-467.81 -113.3,-581.56zm2764.86 47.81l-1397.75 0 47.75 173.97c54.44,197.48 136.58,467.81 246.08,810.64l11.73 35.97c223.93,756.88 390.2,1785.91 498.57,3086.96 96.3,1155.29 149.16,2532.6 158.5,4131.62l1370.67 0c55.01,-238.26 88.54,-595.43 100.55,-1071.51l0.06 -6.12c19.94,-671.17 29.91,-1397.64 29.91,-2179.16 0,-773.99 -9.74,-1497 -29.29,-2168.91 -9.29,-157.03 35.97,-318.03 139.64,-452.28 198.21,-256.45 450.92,-447.36 757.96,-572.44 277.58,-113.07 593.85,-169.66 948.47,-169.66 190,0 385.72,7.42 586.99,22.32 68.21,2.27 137.2,14.9 204.9,39.09 502.36,179.41 753.6,703.07 753.6,1570.87l0 5098.84c181.96,41.75 455.46,62.6 820.39,62.6 160.49,0 269.87,-0.96 329.13,-2.78l56.2 -2.04c85.6,-164.79 167.28,-479.14 244.89,-942.92 126.78,-757.28 190.17,-1821.82 190.17,-3193.52 0,-1537.56 -195.15,-2668.1 -585.41,-3391.5 -316.44,-586.65 -785.55,-880.04 -1407.04,-880.04 -149.72,0 -406.23,45.43 -769.29,136.18 -398.81,99.7 -911.14,252.71 -1536.88,458.85l-0.28 -0.85c-61.69,22.38 -126.55,37.78 -194.48,46.23l-0.34 -2.61c-71.15,8.89 -134.31,13.31 -190.17,13.31 -138.28,0 -336.44,-69 -594.19,-206.82 -182.81,-97.72 -407.93,-225.46 -675.2,-382.95l-115.85 -61.35zm1411.35 -718.76c-30.99,10.2 -74.27,15.35 -26.12,15.35l21.58 -6.85 4.53 -8.5z"></path> </g> </svg> 