<?xml version="1.0" encoding="UTF-8"?> <svg xmlns="http://www.w3.org/2000/svg" xmlns:xlink="http://www.w3.org/1999/xlink" xmlns:xodm="http://www.corel.com/coreldraw/odm/2003" xml:space="preserve" width="107.491mm" height="28.5921mm" version="1.1" style="shape-rendering:geometricPrecision; text-rendering:geometricPrecision; image-rendering:optimizeQuality; fill-rule:evenodd; clip-rule:evenodd" viewBox="0 0 7064.63 1879.15"> <defs> <style type="text/css"> .str0 {stroke:black;stroke-width:118.4;stroke-linecap:round;stroke-linejoin:round;stroke-miterlimit:22.9256} .fil0 {fill:white;fill-rule:nonzero} </style> </defs> <g id="Слой_x0020_1"> <metadata id="CorelCorpID_0Corel-Layer"></metadata> <path class="fil0 str0" d="M74.39 76.28c39.21,-10.12 80.95,-15.18 125.23,-15.18 50.59,0 111.31,13.91 182.14,41.74 1.26,1.27 5.69,1.9 13.28,1.9 7.59,0 12.65,-0.63 15.18,-1.9 149.26,-18.97 243.5,-28.46 282.71,-28.46 221.36,0 332.04,166.34 332.04,499.01 0,150.52 -79.06,245.39 -237.17,284.61 159.38,97.39 239.07,247.29 239.07,449.67 0,36.69 -63.25,55.02 -189.74,55.02 -40.48,0 -80.32,0 -119.54,0 -73.36,-269.42 -164.44,-404.14 -273.22,-404.14l0 404.14 -328.25 0 -55.02 -15.18c-1.26,-1.27 -1.9,-13.91 -1.9,-37.95 0,-27.83 0.64,-47.43 1.9,-58.82 18.97,-225.15 28.46,-383.27 28.46,-474.34 0,-86.02 -5.05,-277.65 -15.18,-574.9 0,-7.58 0,-28.46 0,-62.61 0,-21.5 0,-42.38 0,-62.61zm349.11 307.37c0,11.38 0,22.77 0,34.15 0,45.54 5.06,108.78 15.18,189.74 6.32,0 13.28,0 20.87,0 172.03,0 258.04,-22.77 258.04,-68.31 0,-122.69 -35.42,-184.04 -106.25,-184.04 -84.75,0 -147.36,9.49 -187.84,28.46zm806.37 588.18c0,-284.61 143.57,-426.9 430.7,-426.9 225.15,0 337.73,146.1 337.73,438.29 0,264.36 -125.22,396.55 -375.67,396.55 -261.84,0 -392.76,-135.98 -392.76,-407.93zm240.97 5.69c0,107.52 54.39,161.28 163.18,161.28 89.8,0 134.71,-51.23 134.71,-153.69 0,-123.96 -46.17,-185.94 -138.51,-185.94 -106.25,0 -159.38,59.45 -159.38,178.35zm662.18 -13.28c0,-282.08 124.59,-430.06 373.78,-443.98 61.98,-3.8 126.49,32.88 193.53,110.05l13.28 0c3.79,-60.72 13.28,-92.97 28.46,-96.77 16.44,-1.26 32.26,-1.89 47.43,-1.89 72.1,0 111.31,27.83 117.64,83.48 17.71,383.27 45.54,622.97 83.48,719.1l-28.46 26.57 -165.07 0 -55.02 -55.02 -261.83 70.2c-3.8,0 -12.65,0 -26.57,0 -213.77,0 -320.65,-137.24 -320.65,-411.73zm235.27 17.07c0,78.43 18.97,131.55 56.92,159.38 17.71,1.27 36.05,1.9 55.02,1.9 51.86,0 120.8,-23.4 206.81,-70.2 8.85,-49.33 13.28,-79.69 13.28,-91.08 0,-142.93 -60.08,-214.4 -180.25,-214.4 -101.19,0 -151.79,71.47 -151.79,214.4zm1240.87 -821.55c24.03,-67.04 112.58,-100.56 265.63,-100.56 32.89,0 49.33,12.01 49.33,36.05 0,3.79 0,6.32 0,7.58 -48.06,242.87 -72.1,480.67 -72.1,713.41 0,103.72 9.48,270.69 28.46,500.91 1.27,3.79 1.9,11.38 1.9,22.77 0,20.24 -5.06,31.63 -15.18,34.15 -29.1,1.27 -57.55,1.9 -85.39,1.9 -98.66,0 -151.16,-24.67 -157.48,-74 -84.75,39.21 -165.7,58.82 -242.86,58.82 -32.89,0 -66.41,-0.64 -100.56,-1.9 -96.13,-37.95 -144.2,-185.94 -144.2,-443.98 0,-256.77 86.02,-385.16 258.04,-385.16 7.59,0 12.65,0.63 15.18,1.9 120.17,25.3 190.37,37.94 210.61,37.94 0,-207.44 -3.8,-344.05 -11.38,-409.83zm-256.15 770.33c0,120.17 18.97,192.27 56.92,216.3 18.97,1.26 37.95,1.89 56.92,1.89 104.99,0 157.48,-24.67 157.48,-74l0 -214.4c0,-48.06 -65.14,-72.1 -195.43,-72.1 -50.6,0 -75.9,47.43 -75.9,142.3zm944.89 -343.42c7.58,0 12.01,-0.64 13.28,-1.9 135.35,-36.68 203.66,-55.02 204.92,-55.02 15.18,0 24.03,0 26.57,0 48.06,15.18 84.11,24.67 108.15,28.46 3.79,0 15.18,0 34.16,0 18.97,0 30.36,0 34.15,0 24.03,-8.85 42.37,-13.28 55.02,-13.28 6.32,-1.27 29.1,-1.9 68.31,-1.9 163.17,0 244.76,191.63 244.76,574.9 0,170.76 -43.01,256.14 -129.02,256.14 -82.22,0 -123.33,-18.34 -123.33,-55.02l0 -489.52c0,-27.83 -22.77,-41.74 -68.31,-41.74 -31.62,0 -47.43,5.06 -47.43,15.18l0 529.36c0,27.83 -8.85,41.74 -26.57,41.74l-189.74 0c-12.65,0 -22.14,-18.34 -28.46,-55.02 10.11,-345.31 -14.54,-517.97 -74,-517.97 -45.54,0 -68.31,5.06 -68.31,15.18l0 489.52c0,54.39 -43.01,81.58 -129.02,81.58 -91.07,0 -136.61,-8.85 -136.61,-26.56l0 -531.26c0,-8.85 -13.28,-67.67 -39.84,-176.45 -7.59,-17.71 -12.02,-31.63 -13.28,-41.74 -1.27,-1.27 -1.9,-5.69 -1.9,-13.28 0,-36.69 42.38,-55.02 127.12,-55.02 12.65,0 61.35,13.91 146.1,41.74 1.26,1.26 5.69,1.9 13.28,1.9zm912.63 377.57c0,-282.08 124.59,-430.06 373.78,-443.98 61.98,-3.8 126.49,32.88 193.53,110.05l13.28 0c3.79,-60.72 13.28,-92.97 28.46,-96.77 16.44,-1.26 32.26,-1.89 47.43,-1.89 72.1,0 111.31,27.83 117.64,83.48 17.71,383.27 45.54,622.97 83.48,719.1l-28.46 26.57 -165.07 0 -55.02 -55.02 -261.83 70.2c-3.8,0 -12.65,0 -26.57,0 -213.77,0 -320.65,-137.24 -320.65,-411.73zm235.27 17.07c0,78.43 18.97,131.55 56.92,159.38 17.71,1.27 36.05,1.9 55.02,1.9 51.86,0 120.8,-23.4 206.81,-70.2 8.85,-49.33 13.28,-79.69 13.28,-91.08 0,-142.93 -60.08,-214.4 -180.25,-214.4 -101.19,0 -151.79,71.47 -151.79,214.4zm776.01 -425c0,-25.3 4.43,-37.95 13.28,-37.95l197.33 0c6.32,0 24.67,23.4 55.02,70.2l5.69 0c3.79,0 6.32,0 7.59,0 118.9,-48.06 198.59,-72.1 239.07,-72.1 177.08,0 265.63,164.44 265.63,493.31 0,250.45 -93.6,375.68 -280.81,375.68 -7.58,0 -12.01,0 -13.28,0l-210.61 -70.21 -9.49 0c0,135.34 3.17,251.72 9.49,349.11 1.26,6.32 1.9,19.61 1.9,39.85 0,77.16 -84.12,115.74 -252.35,115.74 -37.95,0 -56.92,-12.02 -56.92,-36.05 0,-11.38 0,-18.34 0,-20.87 39.21,-309.9 58.82,-544.54 58.82,-703.92 0,-74.63 -10.11,-231.48 -30.36,-470.55 0,-6.32 0,-17.07 0,-32.25zm470.55 565.41c39.21,0 63.88,-19.61 74,-58.82 1.26,-32.89 1.89,-65.14 1.89,-96.76 0,-140.4 -30.36,-210.61 -91.07,-210.61 -126.49,0 -189.74,32.89 -189.74,98.66l0 166.97c0,67.04 68.31,100.56 204.92,100.56z"></path> </g> </svg> 