<?xml version="1.0" encoding="UTF-8"?> <svg xmlns="http://www.w3.org/2000/svg" xmlns:xlink="http://www.w3.org/1999/xlink" xmlns:xodm="http://www.corel.com/coreldraw/odm/2003" xml:space="preserve" width="80.839mm" height="32.4927mm" version="1.1" style="shape-rendering:geometricPrecision; text-rendering:geometricPrecision; image-rendering:optimizeQuality; fill-rule:evenodd; clip-rule:evenodd" viewBox="0 0 1072.05 430.9"> <defs> <style type="text/css"> .str1 {stroke:black;stroke-width:28.07;stroke-linecap:round;stroke-linejoin:round;stroke-miterlimit:22.9256} .str0 {stroke:black;stroke-width:28.07;stroke-linecap:round;stroke-linejoin:round;stroke-miterlimit:22.9256} .fil0 {fill:white} </style> </defs> <g id="Слой_x0020_1"> <metadata id="CorelCorpID_0Corel-Layer"></metadata> <path class="fil0 str0" d="M526.95 359.86c147.23,-26.28 520.09,-11.82 527.48,14.15 4.78,16.8 14.53,41.16 -47.82,42.14 -52.87,0.83 -457.8,4.75 -482.25,-20.27 -13.57,-13.89 -18.89,-32.18 2.6,-36.01z"></path> <path class="fil0 str1" d="M113.45 166.04c-18.56,-89.99 85.71,-113.24 128.48,-59.63 1.64,-130.34 166.93,-108.33 157.87,-22.95 50.73,-79.89 145.52,-8.46 114.9,56.51 28.79,-22.76 114.82,-2 78.4,70.94 0.08,0.64 4.05,0.76 14.61,1.65 26,2.19 64.01,7.31 61.46,49.36 -1.04,11.63 -373.02,10.45 -429.24,10.45 -76.25,0 -116.92,-0.22 -164.98,-0.22 -124.73,0 -30.6,-120.86 38.49,-106.1z"></path> </g> </svg> 