<?xml version="1.0" encoding="UTF-8"?> <svg xmlns="http://www.w3.org/2000/svg" xmlns:xlink="http://www.w3.org/1999/xlink" xmlns:xodm="http://www.corel.com/coreldraw/odm/2003" xml:space="preserve" width="62.9037mm" height="27.858mm" version="1.1" style="shape-rendering:geometricPrecision; text-rendering:geometricPrecision; image-rendering:optimizeQuality; fill-rule:evenodd; clip-rule:evenodd" viewBox="0 0 410.83 181.94"> <defs> <style type="text/css"> .str0 {stroke:black;stroke-width:13.82;stroke-linecap:round;stroke-linejoin:round;stroke-miterlimit:22.9256} .fil0 {fill:white} </style> </defs> <g id="Слой_x0020_1"> <metadata id="CorelCorpID_0Corel-Layer"></metadata> <path class="fil0 str0" d="M69.57 132.48c0.27,0 77.48,-0.21 77.48,-0.21 -41.79,-16.03 -16.91,-101.87 39.37,-59.15 -11.83,-93.91 152.03,-88.35 113.56,19.39 12.17,-22.52 36.21,-25.54 51.08,-16.48 16.88,10.28 18.39,33.55 2.06,48.91 -4.17,5.27 50.32,16.64 50.81,37.3 0.22,9.61 -54.72,9.71 -107.47,9.71 -30.09,0 -62.16,-0.37 -95.92,-0.37 -63.5,0 -124.02,3.45 -185.13,3.45 -24.41,0 6.83,-42.55 54.17,-42.55z"></path> </g> </svg> 