<?xml version="1.0" encoding="UTF-8"?> <svg xmlns="http://www.w3.org/2000/svg" xmlns:xlink="http://www.w3.org/1999/xlink" xmlns:xodm="http://www.corel.com/coreldraw/odm/2003" xml:space="preserve" width="128.948mm" height="130.155mm" version="1.1" style="shape-rendering:geometricPrecision; text-rendering:geometricPrecision; image-rendering:optimizeQuality; fill-rule:evenodd; clip-rule:evenodd" viewBox="0 0 7547.65 7618.28"> <defs> <style type="text/css"> .str0 {stroke:black;stroke-width:471.25;stroke-miterlimit:22.9256} .str1 {stroke:black;stroke-width:163.37;stroke-linecap:round;stroke-linejoin:round;stroke-miterlimit:22.9256} .fil0 {fill:#705AFA} .fil1 {fill:white} </style> </defs> <g id="Слой_x0020_1"> <metadata id="CorelCorpID_0Corel-Layer"></metadata> <path class="fil0 str0" d="M7312.06 1836.01c-16.44,892.21 -20.49,3433.64 -97.03,4632.04 -28.82,451.66 20.67,675.66 -1200.39,797.53 -1650.46,164.75 -3223.85,137.52 -4872.43,29.86 -645.37,-42.13 -927.34,-336.76 -905.44,-1167.19 31.51,-1193.63 8.11,-3211.45 0,-4610.74 -9.17,-1582.76 1048.21,-1254.2 3697.88,-1252.99 2341.3,1.07 3409.93,-192.34 3377.4,1571.49z"></path> <path class="fil1 str1" d="M2655.12 5561.27c47.98,-54.18 213.79,-313.14 246.46,-405.57 -120.85,-39.69 -277.94,-114.27 -379.21,-182.16l33.73 -38.43c15.66,-13.05 34.39,-24.01 52.24,-33.43 458.58,169.05 703.86,270.71 1246.92,255.79 329.04,-9.04 633.11,-75.69 930.37,-192.15 133.26,-52.21 156.57,-103.69 247.3,11.13 -115.1,56.4 -248.67,115.48 -377.62,179.55 14.16,108.24 185.23,320.28 235.72,405.82 343.34,-74.08 825.91,-343.13 1071.24,-512.56 133.31,-92.08 107.93,-76.45 117.28,-271.61 18.4,-383.66 -12.8,-732.74 -100.56,-1103.63 -99.42,-420.24 -269.78,-789.14 -467.11,-1117.6 -47.69,-79.38 -88.87,-182.79 -169.1,-224.01 -184.79,-94.91 -735.85,-270.8 -922.02,-272.67l-116.87 236.87c-175.28,-3.72 -340.28,-32.78 -532.78,-32.75 -180.42,0.04 -371.66,36.3 -533.09,33.27 -27.11,-88.85 -77.71,-162.64 -111.72,-240.76 -196.54,23.46 -446.53,94.41 -623.97,158.39 -340.98,122.95 -320.08,98.11 -461.99,337.04 -198.37,334 -370.97,699.9 -471.66,1127.51 -52.14,221.42 -85.24,443.82 -98.87,679.07 -7.3,126.41 -7.92,259.11 -2.07,385.6 2.4,51.95 3.66,132.97 11.06,185.86 9.93,71.05 40.88,72.49 96.47,110.21 259.46,176.02 718.67,441.64 1079.85,521.24zm1780.23 -2020.31c-541.29,166.89 -302.41,1049.85 220.05,887.44 190.49,-59.19 347.12,-287.67 289.71,-560.25 -44.65,-212.08 -251.71,-406.76 -509.76,-327.2zm-1524.13 -6.51c-529.15,139.82 -346.79,1036.99 194.42,898.21 512.56,-131.44 353.93,-1043.1 -194.42,-898.21z"></path> </g> </svg> 