<?xml version="1.0" encoding="UTF-8"?> <svg xmlns="http://www.w3.org/2000/svg" xmlns:xlink="http://www.w3.org/1999/xlink" xmlns:xodm="http://www.corel.com/coreldraw/odm/2003" xml:space="preserve" width="133.32mm" height="125.002mm" version="1.1" style="shape-rendering:geometricPrecision; text-rendering:geometricPrecision; image-rendering:optimizeQuality; fill-rule:evenodd; clip-rule:evenodd" viewBox="0 0 3700.68 3469.78"> <defs> <style type="text/css"> .str0 {stroke:black;stroke-width:223.48;stroke-miterlimit:22.9256} .str1 {stroke:black;stroke-width:83.22;stroke-linecap:round;stroke-linejoin:round;stroke-miterlimit:22.9256} .fil0 {fill:#21A0F0} .fil1 {fill:white} </style> </defs> <g id="Слой_x0020_1"> <metadata id="CorelCorpID_0Corel-Layer"></metadata> <path class="fil0 str0" d="M870.71 111.97c423.18,7.84 1716.15,9.68 2284.49,46.01 214.23,13.69 320.41,-9.8 378.21,569.26 78.13,782.71 65.23,1419.05 14.16,2200.86 -19.98,306.07 -159.68,439.79 -553.52,429.39 -566.08,-14.97 -1610.79,-3.87 -2274.39,0 -750.62,4.37 -594.81,-497.07 -594.21,-1753.65 0.53,-1110.35 -91.26,-1507.37 745.25,-1491.88z"></path> <path class="fil1 str1" d="M2320.7 1335.86l8.97 11.5c4.45,5.75 8.79,11.36 12.63,16.5 3.43,6.84 10.27,13.69 13.69,23.96 5.99,9 11.33,17.96 16.57,26.97l4.52 7.66c5.23,9 10.58,18.01 16.56,26.98 3.42,10.27 10.27,20.53 13.69,30.8 13.69,27.39 23.96,54.77 27.39,85.57 3.42,6.85 3.42,13.69 3.42,17.12 3.43,6.85 3.43,17.12 3.43,27.38 3.43,30.81 0,58.19 -3.43,88.99 -1.26,5.13 -2.57,9.79 -3.83,14.31l-2.57 9.03c-1.3,4.52 -2.57,9.18 -3.87,14.31 -3.43,10.27 -6.85,23.96 -13.69,37.65 -10.26,23.95 -23.96,47.91 -37.65,71.87 -3.43,6.84 -10.27,17.11 -17.12,27.38 -6.85,10.26 -13.69,17.11 -17.12,27.38 -6.84,10.27 -17.12,20.53 -23.96,30.81 -6.85,10.27 -13.69,20.54 -23.96,30.8 -10.27,13.69 -23.96,27.38 -34.22,41.08 -6.85,6.84 -13.69,17.11 -23.96,23.96 -6.85,6.84 -13.7,17.12 -23.97,23.96 -10.26,10.27 -20.53,20.54 -30.81,27.38l-20.53 17.12c-3.43,3.42 -6.85,3.42 -10.27,3.42l-150.61 0 0 191.67 188.25 0c41.07,0 82.15,-13.69 112.95,-41.07 10.27,-10.26 58.19,-51.34 116.38,-112.95 3.42,-3.43 3.42,-3.43 6.84,-3.43l520.27 -150.6c20.54,-10.27 27.38,-3.43 27.38,6.84l0 109.53c0,6.84 -3.43,10.27 -10.27,13.69 -34.23,13.69 -154.03,68.45 -201.94,136.91 -126.64,174.57 -222.48,424.43 -434.7,424.43l-893.34 0c-314.9,0 -571.6,-256.71 -571.6,-575.03l0 -10.27c0,-6.84 6.84,-13.69 13.69,-13.69l503.15 0c10.27,0 17.12,10.27 17.12,17.12 -3.43,30.81 3.43,65.04 17.12,95.84 30.81,61.61 92.41,95.84 157.45,95.84l246.44 0 0 -191.68 -243.02 0c-13.69,0 -20.54,-13.69 -13.69,-23.96 3.43,-3.43 6.85,-6.85 10.27,-13.69 23.96,-34.23 54.76,-82.15 88.99,-140.34 23.96,-37.65 44.5,-82.14 61.61,-123.23 3.43,-6.83 6.84,-13.68 10.27,-23.95 3.43,-13.69 10.27,-27.38 13.69,-37.65 3.43,-10.27 6.85,-20.54 10.27,-30.81 6.84,-34.23 10.27,-71.88 10.27,-112.95 0,-13.69 0,-30.81 -3.43,-47.92 0,-7.49 -0.65,-14.99 -1.4,-22.46l-0.62 -6.43c-0.75,-7.49 -1.4,-14.96 -1.4,-22.46 0,-13.69 -3.42,-30.81 -6.84,-44.5 -3.43,-23.96 -6.85,-44.5 -13.69,-68.46l-3.42 -6.85c-3.43,-13.69 -6.85,-30.8 -13.69,-44.49 -13.69,-47.92 -30.81,-95.85 -47.92,-136.92 -6.84,-17.12 -13.69,-34.23 -20.53,-51.34 -10.27,-23.96 -20.54,-47.92 -30.81,-68.45 -3.43,-10.27 -10.27,-17.12 -13.69,-27.38 -3.43,-10.27 -10.27,-20.54 -13.69,-30.81 -3.42,-6.85 -6.85,-13.69 -10.26,-20.54l-30.81 -54.76c-3.42,-6.84 3.43,-17.12 10.27,-13.69l188.26 51.34 23.96 6.85 27.38 6.84 10.27 3.42 0 -112.95c0,-54.76 44.49,-99.26 95.84,-99.26 27.38,0 51.34,10.26 68.45,27.38 17.12,17.12 27.38,41.07 27.38,68.46l0 164.3 20.54 6.84c0,0 3.42,0 3.42,3.43 3.43,3.43 10.27,10.27 20.54,17.12 6.84,6.84 13.69,13.69 23.96,20.53 17.12,13.69 41.07,34.23 65.04,54.77 6.84,6.84 13.69,10.26 17.11,17.11 30.81,27.38 65.04,61.61 99.26,99.26 10.27,10.27 17.12,20.54 27.38,30.81 10.27,10.27 17.12,23.97 27.38,34.23 3.87,5.13 8.18,10.75 12.64,16.5zm-1330.4 524.3l6.85 -10.27 444.97 -694.82c6.84,-10.26 20.53,-10.26 27.38,3.43 75.3,167.72 136.91,373.09 109.53,503.16 -13.69,54.76 -47.92,126.63 -88.99,191.67 -3.43,10.26 -10.27,20.54 -17.12,27.38 -3.42,3.43 -6.84,6.85 -13.69,6.85l-458.65 0c-10.27,-3.43 -17.12,-17.12 -10.27,-27.38z"></path> </g> </svg> 