<?xml version="1.0" encoding="UTF-8"?> <svg xmlns="http://www.w3.org/2000/svg" xmlns:xlink="http://www.w3.org/1999/xlink" xmlns:xodm="http://www.corel.com/coreldraw/odm/2003" xml:space="preserve" width="133.591mm" height="126.672mm" version="1.1" style="shape-rendering:geometricPrecision; text-rendering:geometricPrecision; image-rendering:optimizeQuality; fill-rule:evenodd; clip-rule:evenodd" viewBox="0 0 13365.32 12673.13"> <defs> <style type="text/css"> .str0 {stroke:black;stroke-width:805.48;stroke-miterlimit:22.9256} .str1 {stroke:black;stroke-width:279.24;stroke-linecap:round;stroke-linejoin:round;stroke-miterlimit:22.9256} .fil0 {fill:#21A0F0} .fil1 {fill:white} </style> </defs> <g id="Слой_x0020_1"> <metadata id="CorelCorpID_0Corel-Layer"></metadata> <path class="fil0 str0" d="M2830.35 565.23c1525.5,28.33 7099.48,-464.19 8555.3,139.36 750.76,311.23 1252.65,425.52 1398.55,2262.92 224.45,2826.23 232.96,4935.38 48.87,7753.26 -72.06,1103.18 -575.54,1585.13 -1995.02,1547.62 -2040.29,-53.95 -5805.69,-12.59 -8197.49,0 -2992.67,15.75 -2074.12,-2273.38 -2141.68,-6320.6 -66.8,-4001.44 -683.61,-5438.65 2331.46,-5382.57z"></path> <path class="fil1 str1" d="M6587.71 5196.16c-47.1,-742.57 -33.92,-1231.2 625.18,-1708.58 643.45,-466.05 1612.45,-210 2114.26,263.16 510.69,-65.02 673.42,-199.81 1019.44,-343.3 -64.5,223.8 -238.74,509.11 -487.93,822.53 331.25,-26.01 517.97,-138.74 766.12,-244.09 -69.68,202.61 -623.6,784.74 -836.06,907.31 -212.12,6350.1 -6648.15,4307.09 -6889.87,3914.85 777.19,83.22 1546.91,-257.36 2211.8,-609 -510.86,-102.9 -1468.44,-745.47 -1581.79,-1074.71 258.06,-37.61 701.36,-53.68 749.95,-143.67 -577.38,-156.22 -1329.7,-1020.84 -1326.98,-1569.31 169.41,136.54 643.19,235.92 747.84,209.39 -557.17,-649.34 -562.79,-1748.03 -428.18,-2111.54 1229.27,1407.89 2724.6,1671.24 3316.21,1686.96z"></path> </g> </svg> 