<?xml version="1.0" encoding="UTF-8"?> <svg xmlns="http://www.w3.org/2000/svg" xmlns:xlink="http://www.w3.org/1999/xlink" xmlns:xodm="http://www.corel.com/coreldraw/odm/2003" xml:space="preserve" width="266.186mm" height="40.0854mm" version="1.1" style="shape-rendering:geometricPrecision; text-rendering:geometricPrecision; image-rendering:optimizeQuality; fill-rule:evenodd; clip-rule:evenodd" viewBox="0 0 15532.82 2339.11"> <defs> <style type="text/css"> .str0 {stroke:black;stroke-width:190.96;stroke-linecap:round;stroke-linejoin:round;stroke-miterlimit:22.9256} .fil0 {fill:white;fill-rule:nonzero} </style> </defs> <g id="Слой_x0020_1"> <metadata id="CorelCorpID_0Corel-Layer"></metadata> <path class="fil0 str0" d="M1143.73 144.44c14.28,-32.64 106.08,-48.96 275.4,-48.96 175.44,0 274.38,38.76 296.82,116.28 2.04,163.2 3.06,326.4 3.06,489.61 0,279.48 -1.02,442.69 -3.06,489.61 -14.28,438.61 -53.04,704.83 -116.28,798.67 -99.96,153 -392.71,229.5 -878.23,229.5 -85.68,0 -202.98,-69.36 -351.91,-208.08 -197.88,-183.6 -288.66,-304.98 -272.34,-364.15 34.68,-122.4 164.22,-183.6 388.63,-183.6 6.12,0 13.26,1.02 21.42,3.06 185.64,122.4 310.09,183.6 373.33,183.6 122.4,0 218.28,-16.32 287.65,-48.96 2.04,-138.72 3.06,-278.46 3.06,-419.22 0,-97.92 -9.18,-368.23 -27.54,-810.91 0,-12.24 0,-49.99 0,-113.22 0,-38.76 0,-76.5 0,-113.22zm863.23 1422.92c0,-459.01 231.54,-688.51 694.63,-688.51 363.13,0 544.69,235.62 544.69,706.87 0,426.37 -201.97,639.55 -605.89,639.55 -422.28,0 -633.42,-219.3 -633.42,-657.91zm388.62 9.18c0,173.4 87.72,260.1 263.17,260.1 144.84,0 217.26,-82.62 217.26,-247.86 0,-199.92 -74.46,-299.88 -223.38,-299.88 -171.36,0 -257.05,95.88 -257.05,287.64zm1077.43 -1086.32c0,-138.72 82.62,-208.08 247.86,-208.08 46.92,0 83.64,21.42 110.17,64.26 2.04,30.6 3.06,60.19 3.06,88.74 0,148.92 -60.18,223.38 -180.54,223.38 -120.37,0 -180.54,-56.1 -180.54,-168.3zm24.48 498.79c22.44,-75.48 89.76,-113.22 201.97,-113.22 34.68,0 56.1,1.02 64.26,3.06l21.42 21.42c32.64,30.6 48.96,428.41 48.96,1193.42 0,67.32 -1.02,105.06 -3.06,113.22l-21.42 21.42 -354.96 0c-16.32,-106.08 -24.49,-209.1 -24.49,-309.06 0,-132.6 22.44,-442.69 67.32,-930.26zm563.34 -48.96c0,-59.16 23.46,-88.74 70.38,-88.74l241.74 0c4.08,0 19.38,7.14 45.9,21.42 79.56,46.92 123.42,70.38 131.59,70.38 12.24,0 20.4,-1.02 24.48,-3.06 179.52,-59.16 297.84,-88.74 354.96,-88.74 250.92,0 376.38,232.57 376.38,697.69 0,395.76 -37.74,621.19 -113.22,676.27 -32.64,2.04 -65.29,3.06 -97.92,3.06 -140.77,0 -211.15,-23.46 -211.15,-70.38l0 -752.77c0,-77.52 -14.28,-121.38 -42.84,-131.58 -26.52,-2.04 -53.04,-3.06 -79.56,-3.06 -75.48,0 -130.56,22.44 -165.24,67.32 6.12,208.08 6.12,415.15 0,621.19 -4.08,163.2 -26.52,244.8 -67.32,244.8l-287.65 0 -42.84 -21.42c0,-510.01 -29.59,-864.97 -88.74,-1064.89 -32.64,-102 -48.96,-161.16 -48.96,-177.48zm2203.52 615.07c0,-173.4 1.02,-273.36 3.06,-299.88 6.12,-248.88 34.68,-373.33 85.68,-373.33l266.22 0c42.84,0 64.26,14.28 64.26,42.84l0 813.97c0,59.16 36.72,88.74 110.16,88.74 110.17,0 165.24,-22.44 165.24,-67.32l0 -725.23c0,-104.04 73.44,-156.06 220.32,-156.06 108.12,0 170.34,15.3 186.66,45.9 4.08,416.16 47.94,811.93 131.58,1187.3 2.04,4.08 3.06,15.3 3.06,33.66 0,65.28 -71.4,97.92 -214.2,97.92 -10.2,0 -100.98,-36.72 -272.35,-110.16 -161.16,73.44 -292.74,110.16 -394.74,110.16 -236.65,0 -354.97,-229.5 -354.97,-688.51zm1438.51 -263.16c0,-281.53 183.6,-422.28 550.81,-422.28 222.37,0 333.55,75.48 333.55,226.44 0,34.69 -58.14,103.02 -174.42,205.02 -79.56,-71.4 -136.68,-107.1 -171.36,-107.1 -73.44,0 -110.17,31.62 -110.17,94.86 0,12.24 1.02,23.46 3.06,33.66 371.28,189.72 556.92,382.51 556.92,578.35 0,201.96 -182.58,302.94 -547.74,302.94 -336.6,0 -504.91,-78.54 -504.91,-235.62 0,-161.16 68.34,-241.74 205.02,-241.74 12.24,0 59.16,22.44 140.76,67.32 53.04,30.6 108.12,45.9 165.24,45.9 104.04,0 156.06,-22.44 156.06,-67.32 0,-6.12 -7.14,-13.26 -21.42,-21.42l-428.41 -214.2c-102,-51 -153,-132.6 -153,-244.8zm1909.76 263.16c0,-454.92 200.94,-693.61 602.83,-716.05 99.96,-6.12 204,53.04 312.12,177.48l21.42 0c6.12,-97.92 21.42,-149.94 45.9,-156.06 26.52,-2.04 52.02,-3.06 76.5,-3.06 116.28,0 179.52,44.88 189.72,134.64 28.56,618.13 73.44,1004.71 134.64,1159.75l-45.9 42.84 -266.22 0 -88.74 -88.74 -422.28 113.22c-6.12,0 -20.4,0 -42.84,0 -344.76,0 -517.14,-221.34 -517.14,-664.03zm379.44 27.54c0,126.48 30.6,212.16 91.8,257.05 28.56,2.04 58.14,3.06 88.74,3.06 83.64,0 194.82,-37.74 333.55,-113.22 14.28,-79.56 21.42,-128.52 21.42,-146.88 0,-230.52 -96.9,-345.78 -290.7,-345.78 -163.2,0 -244.8,115.26 -244.8,345.78zm1193.71 -642.61c0,-59.16 23.46,-88.74 70.38,-88.74l241.74 0c4.08,0 19.38,7.14 45.9,21.42 79.56,46.92 123.42,70.38 131.59,70.38 12.24,0 20.4,-1.02 24.48,-3.06 179.52,-59.16 297.84,-88.74 354.96,-88.74 250.92,0 376.38,232.57 376.38,697.69 0,395.76 -37.74,621.19 -113.22,676.27 -32.64,2.04 -65.29,3.06 -97.92,3.06 -140.77,0 -211.15,-23.46 -211.15,-70.38l0 -752.77c0,-77.52 -14.28,-121.38 -42.84,-131.58 -26.52,-2.04 -53.04,-3.06 -79.56,-3.06 -75.48,0 -130.56,22.44 -165.24,67.32 6.12,208.08 6.12,415.15 0,621.19 -4.08,163.2 -26.52,244.8 -67.32,244.8l-287.65 0 -42.84 -21.42c0,-510.01 -29.59,-864.97 -88.74,-1064.89 -32.64,-102 -48.96,-161.16 -48.96,-177.48zm2188.22 -682.39c38.76,-108.12 181.57,-162.18 428.41,-162.18 53.04,0 79.56,19.38 79.56,58.14 0,6.12 0,10.2 0,12.24 -77.52,391.68 -116.29,775.21 -116.29,1150.57 0,167.28 15.3,436.57 45.9,807.85 2.04,6.12 3.06,18.36 3.06,36.72 0,32.64 -8.16,51 -24.48,55.08 -46.92,2.04 -92.82,3.06 -137.7,3.06 -159.12,0 -243.79,-39.78 -253.99,-119.34 -136.68,63.24 -267.24,94.86 -391.68,94.86 -53.04,0 -107.1,-1.02 -162.18,-3.06 -155.04,-61.2 -232.56,-299.89 -232.56,-716.05 0,-414.13 138.72,-621.19 416.16,-621.19 12.24,0 20.4,1.02 24.48,3.06 193.8,40.8 307.03,61.2 339.67,61.2 0,-334.56 -6.12,-554.89 -18.36,-660.97zm-413.11 1242.38c0,193.8 30.6,310.08 91.8,348.85 30.6,2.04 61.2,3.06 91.8,3.06 169.32,0 253.98,-39.78 253.98,-119.34l0 -345.79c0,-77.52 -105.06,-116.28 -315.18,-116.28 -81.6,0 -122.4,76.5 -122.4,229.5zm1010.11 471.25c0,-122.4 71.4,-183.6 214.2,-183.6 128.52,0 192.78,74.46 192.78,223.38 0,124.44 -46.92,186.66 -140.76,186.66 -177.48,0 -266.22,-75.48 -266.22,-226.44zm529.68 0c0,-122.4 71.4,-183.6 214.2,-183.6 128.52,0 192.78,74.46 192.78,223.38 0,124.44 -46.92,186.66 -140.76,186.66 -177.48,0 -266.22,-75.48 -266.22,-226.44zm529.68 0c0,-122.4 71.4,-183.6 214.2,-183.6 128.52,0 192.78,74.46 192.78,223.38 0,124.44 -46.92,186.66 -140.76,186.66 -177.48,0 -266.22,-75.48 -266.22,-226.44z"></path> </g> </svg> 