<?xml version="1.0" encoding="UTF-8"?> <svg xmlns="http://www.w3.org/2000/svg" xmlns:xlink="http://www.w3.org/1999/xlink" xmlns:xodm="http://www.corel.com/coreldraw/odm/2003" xml:space="preserve" width="335.538mm" height="54.1919mm" version="1.1" style="shape-rendering:geometricPrecision; text-rendering:geometricPrecision; image-rendering:optimizeQuality; fill-rule:evenodd; clip-rule:evenodd" viewBox="0 0 24718.25 3992.19"> <defs> <style type="text/css"> .str0 {stroke:black;stroke-width:241.08;stroke-linecap:round;stroke-linejoin:round;stroke-miterlimit:22.9256} .fil0 {fill:white;fill-rule:nonzero} </style> </defs> <g id="Слой_x0020_1"> <metadata id="CorelCorpID_0Corel-Layer"></metadata> <path class="fil0 str0" d="M124.41 367.79c15.45,-38.63 148.09,-57.95 397.9,-57.95 84.99,0 169.97,1.29 254.96,3.86 97.87,18.03 146.8,108.17 146.8,270.42 0,69.53 -1.28,112.03 -3.86,127.48 -59.24,615.53 -88.85,1131.9 -88.85,1549.12 376.01,0 757.17,-32.19 1143.48,-96.58 7.73,-2.58 27.04,-3.87 57.95,-3.87 77.26,0 115.89,149.38 115.89,448.13 0,113.32 -1.29,182.85 -3.86,208.6l-27.04 57.95c-15.46,28.33 -253.68,47.65 -714.68,57.95 -46.36,0 -212.47,0 -498.35,0 -164.82,0 -330.94,0 -498.34,0 -139.08,-12.88 -224.06,-41.2 -254.97,-84.98 7.73,-442.98 -1.28,-1117.74 -27.04,-2024.28 -2.58,-23.18 -3.87,-99.16 -3.87,-227.93 0,-74.68 1.29,-150.66 3.87,-227.92zm2357.43 1672.73c0,-535.69 193.16,-803.53 579.47,-803.53 538.26,0 807.4,231.79 807.4,695.36 0,136.5 -28.33,206.03 -84.99,208.6l-846.03 57.95c-2.57,5.16 -3.86,9.02 -3.86,11.6 0,221.48 87.56,332.23 262.69,332.23 113.32,0 224.06,-48.93 332.23,-146.8l312.92 0c36.05,0 54.08,23.18 54.08,69.53 0,332.23 -244.66,498.35 -733.99,498.35 -453.27,0 -679.91,-307.77 -679.91,-923.29zm475.16 -227.93c267.85,0 430.09,-12.88 486.76,-38.63 2.57,-7.72 3.86,-16.74 3.86,-27.04 0,-95.3 -100.44,-142.94 -301.32,-142.94 -126.2,0 -189.3,69.53 -189.3,208.6zm1573.22 -602.64l57.95 -811.26c2.58,-51.51 39.92,-90.14 112.03,-115.89 56.66,0 113.32,0 169.98,0 139.07,0 225.35,10.3 258.82,30.9 0,23.18 0,46.36 0,69.53 0,38.63 0,63.1 0,73.4 -74.68,463.58 -112.03,709.53 -112.03,737.85l567.88 0c36.05,0 54.08,56.67 54.08,169.98 0,77.26 -9.01,153.24 -27.04,227.93 -18.03,56.66 -217.62,75.97 -598.78,57.95 -38.63,15.45 -57.95,100.44 -57.95,254.96 0,306.47 68.25,459.72 204.75,459.72 79.83,0 211.18,-48.94 394.03,-146.8 10.31,0 20.6,0 30.91,0 208.6,0 312.91,109.46 312.91,328.37 0,275.58 -270.42,413.36 -811.26,413.36 -285.87,0 -471.3,-171.26 -556.29,-513.79 -33.47,-131.35 -42.49,-387.6 -27.04,-768.77l-428.81 -54.08c-20.6,-2.58 -30.9,-95.29 -30.9,-278.15 0,-51.51 1.29,-82.41 3.86,-92.72l27.04 -42.49 455.85 0zm2396.99 579.47c0,-355.41 231.79,-533.11 695.36,-533.11 280.73,0 421.08,95.29 421.08,285.87 0,43.79 -73.4,130.06 -220.2,258.83 -100.44,-90.14 -172.55,-135.21 -216.33,-135.21 -92.72,0 -139.08,39.92 -139.08,119.76 0,15.45 1.29,29.61 3.87,42.49 468.72,239.52 703.08,482.89 703.08,730.13 0,254.96 -230.5,382.45 -691.5,382.45 -424.94,0 -637.42,-99.15 -637.42,-297.46 0,-203.46 86.27,-305.18 258.83,-305.18 15.45,0 74.68,28.33 177.7,84.99 66.96,38.63 136.5,57.95 208.61,57.95 131.34,0 197.02,-28.33 197.02,-84.99 0,-7.73 -9.02,-16.74 -27.04,-27.04l-540.84 -270.42c-128.77,-64.39 -193.16,-167.4 -193.16,-309.05zm2403.79 166.11c0,-491.9 296.17,-737.85 888.52,-737.85 419.79,0 629.69,74.68 629.69,224.06 0,172.55 -92.71,258.83 -278.15,258.83 -33.47,0 -52.79,-1.29 -57.95,-3.87 -162.25,-20.6 -256.25,-30.9 -282.01,-30.9 -56.66,0 -112.03,1.29 -166.11,3.87 -169.98,41.2 -254.96,151.95 -254.96,332.23 0,303.9 140.36,455.85 421.08,455.85 48.94,0 198.31,-38.63 448.13,-115.89 2.57,0 7.72,0 15.45,0 159.67,0 239.52,117.18 239.52,351.55 0,177.7 -229.21,266.55 -687.64,266.55 -610.37,0 -915.56,-334.8 -915.56,-1004.41zm2005.89 -1533.66c103.02,-74.68 207.32,-112.03 312.91,-112.03 69.53,0 105.6,9.01 108.17,27.04 2.58,33.47 3.87,66.96 3.87,100.44 0,54.09 -1.29,86.28 -3.87,96.58 -38.63,584.62 -57.95,889.81 -57.95,915.56 0,291.02 10.31,521.52 30.9,691.5 43.79,252.39 72.11,440.4 84.99,564.02 2.58,23.18 3.87,61.81 3.87,115.89 0,43.78 -1.29,70.82 -3.87,81.12l-27.04 27.04 -424.94 0c-95.29,0 -142.93,-311.63 -142.93,-934.88 0,-628.4 38.63,-1152.5 115.89,-1572.29zm738.78 1715.23c0,-579.47 292.31,-869.2 876.92,-869.2 458.43,0 687.64,297.46 687.64,892.38 0,538.27 -254.97,807.4 -764.91,807.4 -533.11,0 -799.66,-276.86 -799.66,-830.57zm490.61 11.59c0,218.91 110.74,328.37 332.23,328.37 182.85,0 274.28,-104.31 274.28,-312.91 0,-252.39 -94,-378.59 -282.01,-378.59 -216.33,0 -324.51,121.04 -324.51,363.13zm1256.44 -27.04c0,-218.91 1.29,-345.1 3.87,-378.59 7.72,-314.2 43.78,-471.3 108.17,-471.3l336.09 0c54.08,0 81.12,18.03 81.12,54.09l0 1027.59c0,74.69 46.36,112.03 139.07,112.03 139.08,0 208.61,-28.33 208.61,-84.99l0 -915.56c0,-131.34 92.72,-197.02 278.15,-197.02 136.5,0 215.04,19.32 235.65,57.95 5.15,525.38 60.53,1025.02 166.11,1498.89 2.58,5.15 3.87,19.32 3.87,42.5 0,82.41 -90.14,123.61 -270.42,123.61 -12.88,0 -127.48,-46.35 -343.82,-139.07 -203.46,92.72 -369.57,139.07 -498.34,139.07 -298.75,0 -448.13,-289.73 -448.13,-869.2zm2705.11 -1637.96c48.94,-136.5 229.22,-204.74 540.84,-204.74 66.96,0 100.45,24.47 100.45,73.4 0,7.73 0,12.88 0,15.46 -97.87,494.48 -146.8,978.66 -146.8,1452.53 0,211.18 19.32,551.14 57.95,1019.87 2.58,7.73 3.87,23.18 3.87,46.36 0,41.2 -10.31,64.39 -30.9,69.53 -59.24,2.57 -117.18,3.86 -173.84,3.86 -200.88,0 -307.77,-50.22 -320.65,-150.66 -172.55,79.83 -337.38,119.75 -494.48,119.75 -66.96,0 -135.21,-1.29 -204.74,-3.86 -195.73,-77.26 -293.59,-378.59 -293.59,-903.97 0,-522.81 175.12,-784.21 525.38,-784.21 15.46,0 25.75,1.29 30.9,3.86 244.66,51.51 387.6,77.26 428.81,77.26 0,-422.37 -7.73,-700.51 -23.18,-834.43zm-521.52 1568.43c0,244.66 38.63,391.46 115.89,440.4 38.63,2.57 77.26,3.86 115.89,3.86 213.76,0 320.64,-50.22 320.64,-150.66l0 -436.54c0,-97.86 -132.63,-146.8 -397.9,-146.8 -103.02,0 -154.53,96.58 -154.53,289.73zm2345.84 -212.47l251.1 -525.38c10.3,-20.6 37.34,-39.92 81.12,-57.95 64.39,0 128.77,0 193.16,0 185.43,0 278.15,12.88 278.15,38.63 0,136.5 -119.75,418.51 -359.27,846.02 -311.63,556.29 -592.35,834.44 -842.16,834.44 -288.45,0 -432.67,-61.81 -432.67,-185.43 0,-211.19 55.37,-316.78 166.11,-316.78 30.9,0 50.22,0 57.95,0 36.05,15.45 63.1,24.47 81.12,27.04 10.31,2.57 36.06,3.86 77.26,3.86 74.69,0 141.65,-74.68 200.88,-224.06 -15.45,-20.6 -33.48,-38.63 -54.08,-54.09 -499.64,-342.53 -749.45,-573.03 -749.45,-691.5 0,-10.31 0,-19.32 0,-27.04 193.16,-149.38 341.24,-224.06 444.26,-224.06 38.63,0 65.67,10.3 81.12,30.9 226.64,301.32 401.77,476.45 525.39,525.38zm2005.88 374.72c0,-679.91 177.71,-1019.87 533.11,-1019.87 97.87,0 275.58,47.65 533.12,142.94 2.57,0 7.72,0 15.45,0 5.15,0 10.31,0 15.46,0 5.15,-95.29 86.27,-142.94 243.38,-142.94 203.46,0 305.19,32.19 305.19,96.58 0,23.18 -1.29,38.63 -3.87,46.36 -69.53,597.5 -97.87,1220.75 -84.99,1869.76 -41.2,442.97 -427.52,664.46 -1158.94,664.46 -285.87,0 -428.8,-110.74 -428.8,-332.23 0,-203.46 103.02,-305.18 309.05,-305.18 23.18,0 37.34,1.28 42.49,3.86 48.94,41.21 87.57,69.53 115.89,84.99 33.48,20.6 79.84,30.9 139.08,30.9 288.45,0 432.67,-57.95 432.67,-173.84l0 -312.91c-7.73,-5.16 -16.74,-6.44 -27.04,-3.87 -275.57,79.84 -419.79,119.76 -432.67,119.76 -278.15,0 -459.72,-173.84 -544.7,-521.52 -2.58,-82.42 -3.87,-164.83 -3.87,-247.24zm490.62 -42.49c0,56.66 0,114.6 0,173.84 10.3,56.66 48.93,84.98 115.89,84.98 306.47,0 459.72,-75.97 459.72,-227.92l0 -374.72c0,-95.29 -114.61,-142.94 -343.82,-142.94 -154.53,0 -231.79,162.25 -231.79,486.76zm1349.16 -34.77c0,-579.47 292.31,-869.2 876.92,-869.2 458.43,0 687.64,297.46 687.64,892.38 0,538.27 -254.97,807.4 -764.91,807.4 -533.11,0 -799.66,-276.86 -799.66,-830.57zm490.61 11.59c0,218.91 110.74,328.37 332.23,328.37 182.85,0 274.28,-104.31 274.28,-312.91 0,-252.39 -94,-378.59 -282.01,-378.59 -216.33,0 -324.51,121.04 -324.51,363.13zm1306.66 -1947.01c18.03,-54.09 36.06,-81.13 54.09,-81.13l490.62 0 54.08 27.04c2.58,5.15 3.87,51.51 3.87,139.07 0,267.85 -19.32,829.29 -57.95,1684.33 0,56.66 -54.09,84.99 -162.25,84.99 -188.01,0 -288.45,-64.39 -301.32,-193.16 -56.66,-347.68 -84.99,-752.03 -84.99,-1213.03 0,-149.38 1.29,-298.75 3.86,-448.12zm50.23 2449.22c0,-164.82 90.14,-247.24 270.42,-247.24 188,0 282.01,114.6 282.01,343.81 0,41.21 -1.29,82.41 -3.87,123.62 -18.03,56.66 -74.68,84.99 -169.97,84.99 -252.39,0 -378.59,-101.73 -378.59,-305.19zm-17949.57 -1112.58c113.32,-412.07 243.38,-618.1 390.17,-618.1 66.96,0 141.65,10.3 224.06,30.9 2.58,23.18 3.87,46.36 3.87,69.53 0,404.35 -162.25,606.51 -486.76,606.51 -90.14,0 -135.21,-24.47 -135.21,-73.4 0,-5.16 1.29,-10.31 3.87,-15.46z"></path> </g> </svg> 